<svg xmlns="http://www.w3.org/2000/svg" version="1.1" xmlns:xlink="http://www.w3.org/1999/xlink" width="1000" height="1000"><g clip-path="url(#SvgjsClipPath1836)"><rect width="1000" height="1000" fill="#040203"></rect><g transform="matrix(12.67605633802817,0,0,12.67605633802817,49.99999999999994,233.80281690140845)"><svg xmlns="http://www.w3.org/2000/svg" width="71" height="42" viewBox="0 0 71 42" fill="none"><path d="M12.9088 4.86621H20.0607L21.2682 6.81261L23.3115 10.1215L24.2404 11.6786L25.2621 13.3331V13.5277L26.0051 12.8465L26.6553 12.1652L27.3054 11.3867L29.6275 8.95366L30.2776 8.17509L32.1353 6.22869L32.7854 5.45013L33.3427 4.86621H39.5658L39.6587 5.25549L38.2654 12.9438L36.0363 25.4008L35.7577 26.5686H29.9061L30.0919 25.1088L32.5068 12.1652V11.8733L31.578 12.8465L31.2065 13.3331L27.677 17.0312L27.0268 17.8098L24.8905 20.0481L24.2404 20.8267L23.3115 21.7999L22.94 21.3133L21.7326 19.0749L18.1102 12.7491L17.6458 11.9706V11.7759H17.46L17.3671 12.8465L14.9522 26.1793L14.8593 26.5686H9.00781L9.19358 25.1088L11.7014 11.192L12.8159 4.96353L12.9088 4.86621Z" fill="#FDFDFD"></path><path d="M41.1484 4.86621H52.2942L55.0806 4.96353L57.124 5.25549L58.7959 5.83941L59.9105 6.52065L60.8393 7.49385L61.5823 9.05098L61.6752 9.53758V11.7759L61.3037 13.3331L60.5606 14.8902L59.6318 16.1553L58.9817 16.8366L57.6813 17.8098L56.1952 18.5883L54.6162 19.1723L54.1518 19.3669L54.9878 20.4374L56.1952 21.9945L57.2169 23.357L58.4244 24.9142L59.6318 26.5686L60.8393 28.1257L61.5823 29.0989L62.5112 30.3641L62.8827 30.948H55.545L54.2447 29.1962L51.644 25.4981L49.1362 21.9945L47.9288 20.2428L47.743 19.9508L44.7708 19.8535L44.3064 22.6758L43.9349 24.6222L44.3993 24.8168L44.7708 25.2061L44.9566 25.5954V26.5686L44.585 27.3472L44.0278 27.8338L43.4705 28.1257L42.8203 28.223L41.9844 27.9311L41.52 27.5418L41.3342 27.0552V25.9847L41.6128 25.4008L42.3559 24.7195L42.7274 24.6222L42.8203 23.649L43.4705 20.1455L43.3776 19.1723L44.8637 17.7125H47.743L48.3003 17.9071H49.0434L49.5078 17.5178L49.7864 16.8366V15.7661L52.2013 15.6687L53.5945 15.2795L54.6162 14.6955L55.3593 14.0143L55.9166 12.8465L56.1023 11.484L55.9166 10.7054L55.545 10.1215L55.0806 9.73222L54.0589 9.34294L53.5017 9.24562L40.4054 9.1483L40.3125 8.95366L41.0556 4.96353L41.1484 4.86621Z" fill="#FDFDFD"></path><path d="M7.05898 18.2959L7.24475 18.3932L5.85153 19.6584L4.55119 21.0209L3.34373 22.6753L2.78644 23.9405L2.60068 24.5244V25.9842L2.87932 26.7627L3.71526 27.7359L5.20136 28.5145L6.59458 29.0011L8.08068 29.2931L9.56678 29.4877L11.2386 29.585H14.4895L18.2048 29.2931L21.8271 28.8065L26.7498 27.9306L28.8861 27.444H35.5736L35.4807 28.4172L32.0441 29.585L27.2142 31.0448L23.6848 31.9207L20.4339 32.602L16.6258 33.1859L13.3749 33.4778H7.9878L5.94441 33.1859L3.80814 32.602L2.32203 31.8234L1.30034 31.0448L0.65017 30.2663L0.185763 29.2931L0 28.6118V27.0547L0.371526 25.6922L1.0217 24.3297L1.85763 23.1619L2.69356 22.1887L3.25085 21.5075L3.9939 20.8262L4.82983 20.0477L6.03729 19.0745L7.05898 18.2959Z" fill="#FDFDFD"></path><path d="M57.3975 0H59.6266L61.8558 0.19464L64.1778 0.681241L66.1283 1.36248L67.4287 2.04372L68.3575 2.82228L69.1005 3.60084L69.6578 4.57404L70.0294 5.64457L70.1222 6.32581V7.39633L69.8436 8.85613L69.3792 10.1213L68.5433 11.6784L67.7073 12.8463L66.5927 14.2087L66.0355 14.7927H65.8497V14.9873L65.1066 15.6685L63.8992 16.7391L62.1344 18.1015L60.5555 19.1721L58.2334 20.6319L57.1188 21.3131L56.7473 21.2158L56.5616 20.8265L57.1188 20.4372L58.3263 19.3667L59.348 18.4908L60.7412 17.2257L63.0632 14.7927L63.7134 14.0141L64.9209 12.457L65.9426 10.8025L66.6856 9.24541L67.0571 7.98025L67.15 7.39633V6.03385L66.7785 4.76868L66.3141 3.99012L65.7568 3.30888L64.4565 2.433L63.3419 1.9464L61.7629 1.4598L59.348 1.07052L57.6761 0.973201H54.9826L52.289 1.16784L49.0382 1.55712L45.8802 2.14104L43.4653 2.72496L43.0938 2.82228V2.62764L45.23 1.9464L48.2951 1.16784L50.2456 0.778561L53.4036 0.29196L55.5399 0.0973201L57.3975 0Z" fill="#FDFDFD"></path><path d="M51.0789 10.5107H51.9148L52.565 10.8027L53.0294 11.2893L53.2152 12.2625L52.9365 13.1384L52.565 13.625L51.6362 14.1116H50.7074L49.9643 13.7223L48.8498 14.4035H43.7413L42.8125 15.1821L41.7908 16.1553L40.3047 17.3231L40.026 17.5178L39.0043 22.8704L37.8897 28.8069L37.7969 29.2935L37.9826 29.7801L37.8897 30.364L37.4253 30.8506L37.2396 30.948L36.4036 30.8506L36.125 30.364V29.7801L36.5894 29.1962L37.5182 24.1356L38.7257 17.4205L38.9114 16.8365L40.3975 15.6687L42.9982 13.333L43.3697 13.1384L48.8498 13.0411L49.4999 12.5545L49.6857 11.6786L49.9643 11.192L50.8003 10.6081L51.0789 10.5107Z" fill="#FDFDFD"></path><path d="M48.5772 15.2793L49.2274 15.3766L49.5989 15.7659V16.6418L49.2274 17.1284L48.763 17.323L47.927 17.2257L47.7413 16.9337H44.4904L42.447 18.6855L42.0755 18.9775L41.6111 21.3131L40.2179 28.8068L40.125 29.2934L40.3108 29.5854V30.1693L39.9392 30.7532L39.5677 30.9478H38.9175L38.4531 30.4612V29.78L38.9175 29.1961L39.9392 23.5515L40.6823 19.5614L40.868 18.4909L41.7969 17.615L42.7257 16.8364L43.8402 15.8632L44.026 15.7659L48.0199 15.6686L48.5772 15.2793Z" fill="#FDFDFD"></path><path d="M19.8724 36.9814H22.0087L23.1232 37.2734L23.6805 37.6627L24.052 38.3439L24.1449 39.6091L23.9592 40.3876L23.5876 40.9716L22.8446 41.3608L22.0087 41.5555H20.151L18.9436 41.2635L18.3863 40.8742L18.1076 40.485L17.9219 39.8037V38.5386L18.2934 37.76L18.7578 37.3707L19.8724 36.9814Z" fill="#FDFDFD"></path><path d="M31.9531 37.0791H34.368L35.6684 39.7067L36.9687 37.1764L37.0616 37.0791H39.3836V41.4585H37.8047V38.6362L37.8975 38.4416H37.7118L37.526 39.0255L36.4114 41.2639L36.2257 41.4585H35.0182L34.0894 39.5121L33.5321 38.5389V41.4585H31.9531V37.0791Z" fill="#FDFDFD"></path><path d="M54.618 1.55762H57.9617L60.2838 1.84958L62.2343 2.33618L63.4417 2.82278L64.4634 3.4067L65.3922 4.28258L65.8567 5.06114L66.2282 6.3263L66.1353 7.68878L65.6709 9.14859L65.2065 9.92715H65.1136V7.98074L64.7421 6.71558L64.1848 5.8397L63.5346 5.06114L62.2343 4.18526L61.0268 3.60134L59.0763 3.01742L56.94 2.62814L54.8966 2.4335H50.1597L47.1875 2.72546L45.5156 2.9201L45.7014 2.72546L48.7665 2.14154L51.9244 1.75226L54.618 1.55762Z" fill="#FDFDFD"></path><path d="M8.82462 18.0039L9.01038 18.1012L7.61716 19.3664L6.87411 20.1449L6.13106 21.1181L5.48089 22.1887L5.10936 23.2592L5.01648 24.5244L5.38801 25.4976L6.13106 26.2761L7.05987 26.86L9.01038 27.5413L11.2395 27.9306L13.0972 28.1252H19.0416L20.8992 27.9306H21.7351V28.0279L18.4843 28.5145L16.5338 28.7091L14.8619 28.8064H10.4965L8.08157 28.5145L6.13106 28.0279L4.64496 27.2493L3.99479 26.6654L3.53038 25.7895L3.4375 25.4002L3.53038 24.1351L3.99479 22.9672L4.9236 21.6047L5.9453 20.4369L6.68835 19.7557L7.98869 18.6851L8.82462 18.0039Z" fill="#FDFDFD"></path><path d="M25.3585 37.0791H29.6311L30.3741 37.3711L30.6527 37.7603L30.7456 38.6362L30.467 39.2201L30.0955 39.5121L30.6527 39.9987L30.8385 41.4585H29.1666L29.0738 40.2907L28.5165 40.1933L26.8446 40.096V41.4585H25.2656V37.1764L25.3585 37.0791Z" fill="#FDFDFD"></path><path d="M5.01562 37.0789H7.05902L7.89495 38.0521L8.54512 38.8307L9.28817 39.7066V39.9012H9.47393V37.0789H10.96V41.4583H9.00952L7.70919 39.9985L6.87325 38.928L6.59461 38.5387L6.50173 41.4583H5.01562V37.0789Z" fill="#FDFDFD"></path><path d="M42.6337 37.0791H44.4913L45.9774 39.9014L46.7204 41.2639V41.4585H45.1415L44.7699 40.7773L42.1693 40.6799L41.9835 41.1665L41.7977 41.4585H40.2188L40.4045 40.9719L41.7049 38.6362L42.6337 37.0791Z" fill="#FDFDFD"></path><path d="M64.4618 37.0791H66.3194L67.3411 39.0255L68.5486 41.2639V41.4585H66.9696L66.5981 40.7773L63.9974 40.6799L63.8116 41.1665L63.6259 41.4585H62.0469L62.6042 40.2907L63.8116 38.1496L64.4618 37.0791Z" fill="#FDFDFD"></path><path d="M35.1136 29.1963L35.2993 29.3909L35.1136 30.3641L34.3705 30.6561L31.1197 31.6293L28.0546 32.4079L24.7109 33.0891L20.6241 33.7703L17.1875 34.1596L14.401 34.3543H12.2648L12.1719 34.1596L16.0729 33.8677L19.4166 33.3811L23.6892 32.5052L28.519 31.24L32.9773 29.8775L35.1136 29.1963Z" fill="#FDFDFD"></path><path d="M57.5911 36.9814H59.7274L60.7491 37.2734L61.3993 37.8573L61.4922 38.052V38.6359H60.0061L59.5416 38.1493L59.1701 38.052H58.2413L57.4054 38.2466L57.3125 38.7332V39.8037L57.5911 40.2903L58.2413 40.485H59.0772L59.7274 40.2903L60.0061 39.901H61.585L61.3993 40.5823L60.9349 41.0689L60.0989 41.4582L59.5416 41.5555H57.7769L56.6623 41.2635L56.105 40.8742L55.7335 40.193L55.6406 39.901V38.6359L55.9193 37.8573L56.5694 37.2734L57.5911 36.9814Z" fill="#FDFDFD"></path><path d="M12.3516 37.0791H17.0885V38.0523H13.8377V38.9282H16.8099V39.8041L16.717 39.9014H13.8377V41.4585H12.3516V37.0791Z" fill="#FDFDFD"></path><path d="M46.5312 37.0791H51.9184V38.0523H50.0607V41.4585H48.4818V38.0523H46.5312V37.0791Z" fill="#FDFDFD"></path><path d="M20.7075 37.9551L21.9149 38.0524L22.3793 38.3444L22.5651 38.9283V39.7068L22.2864 40.2908L21.9149 40.4854L21.3576 40.5827H20.5217L19.7786 40.2908L19.5 39.9015V38.6363L19.8715 38.1497L20.7075 37.9551Z" fill="#040203"></path><path d="M2.13976 37.0791H3.62586V41.4585H2.04688L2.13976 37.0791Z" fill="#FDFDFD"></path><path d="M52.9375 37.0791H54.4236V41.4585H52.9375V37.0791Z" fill="#FDFDFD"></path><path d="M26.8438 38.0518H28.8871L29.1658 38.2464V38.8303L28.7943 39.1223H26.8438V38.0518Z" fill="#040203"></path><path d="M42.8238 25.5947H43.5668L43.8455 25.984L43.7526 26.6652L43.2882 27.0545L42.638 26.9572L42.3594 26.5679L42.4523 25.984L42.8238 25.5947Z" fill="#040203"></path><path d="M51.1823 11.5811H51.7396L52.1111 11.9703L52.0182 12.6516L51.5538 13.0409L50.9965 12.9435L50.7179 12.6516L50.625 12.2623L50.9036 11.7757L51.1823 11.5811Z" fill="#040203"></path><path d="M43.7474 35.4248L45.0477 35.5221L44.6762 36.0087L43.7474 36.69H42.6328L42.7257 36.398L43.4687 35.7168L43.7474 35.4248Z" fill="#FDFDFD"></path><path d="M43.4696 38.1494L43.7483 38.5387L44.3055 39.7065H42.7266L42.9123 39.2199L43.4696 38.1494Z" fill="#040203"></path><path d="M65.2977 38.1494L65.5764 38.5387L66.1337 39.7065H64.5547L65.2977 38.1494Z" fill="#040203"></path><path d="M48.5764 15.9609L49.0408 16.0583L48.9479 16.6422H48.4835L48.3906 16.1556L48.5764 15.9609Z" fill="#040203"></path><path d="M36.9661 29.585L37.3377 29.6823V30.1689L36.9661 30.2662L36.6875 29.9742L36.7804 29.6823L36.9661 29.585Z" fill="#040203"></path><path d="M39.2951 29.585L39.6667 29.6823L39.5738 30.1689H39.1094L39.2023 29.6823L39.2951 29.585Z" fill="#040203"></path></svg></g></g><defs><clipPath id="SvgjsClipPath1836"><rect width="1000" height="1000" x="0" y="0" rx="250" ry="250"></rect></clipPath></defs></svg>