<svg width="63" height="15" viewBox="0 0 63 15" fill="none" xmlns="http://www.w3.org/2000/svg">
<path d="M62.8504 0.661536C62.6273 0.368385 62.4041 0.147871 61.2885 0.0752317C60.9919 0.0752317 60.0994 0 58.5375 0C54.4425 0 51.618 1.25043 50.2031 3.67606C50.5759 1.25043 48.195 0 42.987 0C36.8865 0 33.0173 2.42563 31.4554 7.35213C30.8622 9.19146 30.8622 10.6624 31.3084 11.8402H29.82C28.7044 11.9102 27.2161 11.9855 26.2501 11.9855C24.0188 11.9855 22.6013 11.6171 22.0816 10.8829C21.6353 10.2214 21.6353 8.97094 22.2312 7.13162C23.1972 4.11709 25.5046 2.79402 29.2242 2.79402C31.1588 2.79402 33.0173 3.01453 33.0173 3.01453C33.2404 3.01453 33.39 2.72138 33.39 2.50086L33.3165 2.28035L33.1669 1.25043C33.0934 0.588895 32.571 0.22051 31.6785 0.0752317C30.8622 -1.73959e-06 30.1902 0 29.2977 0H29.2242C24.3889 0 20.9659 1.61882 19.1074 4.70599C19.7768 1.54358 17.5429 0 12.4111 0C9.51045 0 7.42358 0.0752336 6.23446 0.220512C5.26846 0.368385 4.67259 0.736768 4.44946 1.3983L4.00321 2.72138C3.92971 2.94189 4.07934 3.08976 4.37596 3.08976C4.59909 3.08976 5.49158 2.94189 6.97996 2.86665C8.44003 2.74439 9.90386 2.67084 11.3689 2.64614C14.1961 2.64614 15.4613 3.38291 15.0151 4.77862C14.9389 5.07437 14.7158 5.29488 14.3457 5.36752C11.6682 5.80855 9.51045 6.10429 7.94596 6.3248C3.48346 6.9111 0.879465 8.23417 0.210091 10.4419C-0.758532 13.4564 1.62234 14.9248 7.35008 14.9248C10.1798 14.9248 12.6342 14.7795 14.5688 14.4111C15.6844 14.1906 16.2803 13.9701 16.5034 13.2359L17.5429 9.85299C17.4694 13.2359 19.7742 14.9248 24.6856 14.9248C26.7698 14.9248 28.7779 14.8521 29.7439 14.7043C30.7125 14.559 31.2323 14.3385 31.4554 13.6017L31.6785 12.5744C32.7207 14.1906 35.028 15 38.5245 15C42.2442 15 44.4019 14.9248 44.9952 14.7043C45.2103 14.6565 45.4106 14.5583 45.5792 14.4179C45.7479 14.2774 45.8797 14.0989 45.9638 13.8974L46.0373 13.6769L46.4835 12.2786C46.5596 12.0581 46.41 11.9102 46.1108 11.9102L43.7325 12.0581C42.168 12.1333 40.9054 12.206 40.0103 12.206C38.3014 12.206 37.1858 12.0581 36.5138 11.8376C35.5478 11.4692 35.1015 10.8077 35.175 9.70512L42.6904 8.75043C46.0373 8.30941 48.3446 7.27949 49.4603 5.66326L46.8563 14.2632C46.7828 14.4111 46.8563 14.559 46.9298 14.6316C47.0059 14.7043 47.1529 14.7795 47.4521 14.7795H50.5759C51.0956 14.7795 51.3188 14.4837 51.3949 14.2632L54.1459 4.77862C54.5186 3.53079 55.6343 2.94189 57.7159 2.94189C59.5796 2.94189 60.9184 2.94189 61.8109 3.01453H61.8844C62.034 3.01453 62.3306 2.94189 62.5537 2.5735L63 1.25043C63 1.02992 63 0.809409 62.8504 0.661536ZM12.7077 11.9881C11.7417 12.1359 10.3268 12.2086 8.54183 12.2086C5.34196 12.2086 4.00321 11.547 4.37596 10.2966C4.67259 9.41456 5.49158 8.82567 6.83033 8.67779L14.0491 7.72311L12.7077 11.9881ZM45.9638 4.335C45.6645 5.29229 44.2523 5.95382 41.7218 6.32221L35.6974 7.12902L35.8444 6.61536C36.3668 4.99654 37.0362 3.96921 37.9287 3.38032C38.8212 2.79142 40.3095 2.49827 42.3912 2.49827C45.1474 2.57091 46.3391 3.15981 45.9638 4.335Z" fill="#82B819"/>
</svg>
