<svg width="99" height="21" viewBox="0 0 99 21" fill="none" xmlns="http://www.w3.org/2000/svg">
<path d="M97.7672 5.17793V0H78.7242C74.7487 0 72.9573 2.454 72.6628 4.83437V4.90799V0H67.0677V5.17793H72.6383H97.7672ZM72.6383 7.04297L67.0432 6.72395V12.6872C67.0432 14.5522 66.1106 15.1166 62.8714 15.1166H58.4051C55.7302 15.1166 54.6014 14.3559 54.6014 12.6872V6.15953L48.9327 5.74235V13.1534H48.81C48.491 10.9939 47.6811 8.49082 42.2823 8.12273L24.54 6.94481C24.54 9.66874 26.4786 11.2884 29.5216 11.6074L41.8897 12.8589C42.8713 12.9326 43.583 13.227 43.583 14.0369C43.583 14.9203 42.8468 15.0185 41.7179 15.0185H24.3191V6.94481L18.6504 6.57671V20.27H41.7425C46.8959 20.27 48.54 17.5951 48.7854 15.362H48.9081C49.5462 18.8958 52.6382 20.27 57.8652 20.27H63.6321C69.7426 20.27 72.6383 18.405 72.6383 14.0369V7.04297ZM90.6261 8.09818L72.8837 7.04297C72.8837 9.7669 74.6751 11.5829 77.718 11.8283L90.3561 12.8099C91.3377 12.8835 91.9267 13.1289 91.9267 13.9387C91.9267 14.6994 91.2396 14.9939 89.8162 14.9939H72.5892V20.27H90.1843C95.7304 20.27 98.1598 18.3313 98.1598 13.9142C98.1598 9.93868 95.9758 8.44174 90.6261 8.09818ZM48.9327 0H54.6014V5.17793H48.9327V0ZM15.5338 6.33131L9.37426 5.71781L0 20.27H6.89573L15.5338 6.33131ZM47.902 0H30.6013C26.5768 0 24.8099 2.50307 24.3927 4.90799V0H14.7976C13.4479 0 12.8099 0.417179 12.1718 1.3497L9.5215 5.17793H47.902V0Z" fill="#04509E"/>
</svg>
