<svg width="85" height="21" viewBox="0 0 85 21" fill="none" xmlns="http://www.w3.org/2000/svg">
<path d="M0.0461204 2.02881H3.50515L3.55127 2.21329V7.14817L3.73575 7.05593L4.15084 6.68697L4.84264 6.22577L5.48833 5.90292L6.3185 5.6262L7.2409 5.44172H8.76288L9.77753 5.6262L10.7461 5.94904L11.8068 6.50249L12.4525 6.96369L12.9137 7.37878L13.5133 7.97834L14.0206 8.67015L14.3896 9.31583L14.7585 10.0999L15.0814 11.1145L15.312 9.96152L15.6348 9.08523L16.0499 8.3473L16.5111 7.74774L16.7417 7.47102L17.1107 7.14817L17.5719 6.77921L18.1714 6.41025L18.8171 6.0874L19.7857 5.76456L20.5697 5.58008L21.1693 5.48784L21.7227 5.44172H22.9218V8.1167L23.8443 7.19429L24.4438 6.73309L25.274 6.22577L26.058 5.8568L26.9343 5.58008L27.8106 5.3956L28.1334 5.34948H29.6093L30.4395 5.48784L31.1313 5.67232L31.8692 5.94904L32.6071 6.31801L33.2989 6.73309L34.0369 7.33265L34.7287 8.02446L35.1899 8.62403L35.5588 9.22359L35.9278 9.96152L36.2045 10.6533L36.389 11.2529V3.96587L36.4351 2.07493L37.7726 2.02881H39.8942L40.0325 2.07493L40.0786 5.58008L45.6131 5.6262L45.6592 5.71844L45.6131 9.03911H41.8773L40.0786 9.08523V13.0977L40.1248 14.343L40.2631 15.127L40.4937 15.7727L40.8166 16.28L41.1855 16.649L41.739 16.9718L42.523 17.2024L42.7536 17.2485H43.8605L44.5523 17.0641L45.198 16.7412L45.6592 16.3723L46.0282 15.9111L46.3049 15.4498L46.5816 14.6197L46.72 13.7895L46.7661 12.8671V2.35165L46.8122 2.07493L48.2419 2.02881H49.9023L50.3635 2.07493V6.82533L50.5941 6.68697L51.1014 6.27189L51.8855 5.81068L52.9924 5.44172L53.4997 5.34948H54.6988L55.4829 5.48784L56.313 5.76456L57.0509 6.13352L57.6044 6.50249L58.0656 6.87145L58.5729 7.37878L59.0341 7.97834L59.4492 8.71627L59.6798 9.22359L59.9565 10.0538L60.141 11.2068L60.3716 10.3766L60.7867 9.40807L61.2018 8.71627L61.7552 7.97834L62.2626 7.4249L62.8621 6.91757L63.3233 6.59473L64.1074 6.13352L65.2604 5.67232L66.2289 5.44172L66.9207 5.34948H68.3966L69.2729 5.48784L70.2875 5.76456L71.3483 6.22577L72.1784 6.73309L72.778 7.19429L73.4237 7.79386L73.8388 8.30118L74.3 8.94687L74.7612 9.82316L75.0379 10.5611L75.2685 11.299L75.3607 10.515L75.5913 9.63868L75.9142 8.90075L76.1909 8.39342L76.606 7.83998L77.1133 7.28653L77.6668 6.82533L78.5892 6.27189L79.5116 5.90292L80.2956 5.67232L81.4025 5.48784L81.956 5.44172H83.0629L83.109 5.48784V8.53179L83.0629 8.90075L81.8176 8.99299L81.0797 9.17747L80.3418 9.54643L79.9267 9.86928L79.5577 10.2844L79.2349 10.8378L79.0504 11.3913L78.9581 11.8986L78.912 12.4981L78.8659 20.3386L78.8198 20.3847H76.0526L75.2685 20.3386V14.2507H63.6462L63.7384 14.7119L63.969 15.3115L64.2457 15.8649L64.7069 16.4645L65.0298 16.7873L65.6755 17.2024L66.1828 17.433L66.7823 17.6175L67.1052 17.6636H68.2121L68.95 17.4791L69.5035 17.2485L70.1491 16.8335L70.4259 16.6029L70.841 16.0955L71.1638 15.5882L71.3483 15.2192L71.3944 15.1731H74.8534L74.8073 15.5421L74.4845 16.4645L73.9771 17.433L73.5159 18.0787L72.9625 18.6783L72.5935 19.0472L71.9017 19.5546L71.0715 20.0158L70.103 20.3847L69.1345 20.6153L68.2582 20.7537H67.1052L65.9061 20.5692L64.9375 20.2925L64.2457 20.0158L63.4617 19.6007L62.9082 19.2317L62.3087 18.7244L61.663 18.0787L61.1095 17.2947L60.6483 16.4645L60.2794 15.496L60.141 15.0809V16.0955L60.0949 20.3386L60.0488 20.3847H57.1432L56.4514 20.3386L56.4053 11.9908L56.313 11.2529L56.0824 10.4688L55.8057 9.96152L55.4367 9.50031L54.9755 9.17747L54.5143 8.94687L53.9148 8.80851H52.9924L52.4389 8.94687L51.701 9.31583L51.3781 9.59256L50.9631 10.146L50.6863 10.7456L50.5018 11.3913L50.4096 12.2675L50.3635 20.3386L50.3174 20.3847L46.7661 20.3386L46.72 19.1856L46.2127 19.6007L45.7053 19.9696L44.9213 20.3847L44.0911 20.6615L43.676 20.7537L43.2148 20.7998H42.7075L41.7851 20.7076L40.8166 20.477L39.8942 20.108L39.064 19.6468L38.4183 19.1395L37.8187 18.5399L37.3114 17.8481L36.8963 17.0641L36.5735 16.1417L36.4351 15.4498V14.8964H36.3429L36.2506 15.3115L35.9278 16.1878L35.4666 17.0641L35.0054 17.7097L34.4981 18.3093L33.8985 18.9089L33.2989 19.3701L32.6994 19.739L31.9614 20.108L31.2696 20.3847L30.3933 20.6153L29.7015 20.7537H28.0873L26.9343 20.5231L25.9658 20.2002L25.1817 19.8313L24.4438 19.3701L23.9365 18.955L23.4753 18.5399L23.1063 18.1709L22.599 17.5253L22.0917 16.6951L21.7227 15.9111L21.3999 14.9425L21.2154 13.974L21.1693 13.5589V12.6826L21.3076 11.5757L21.5382 10.6994L21.815 9.96152L22.1839 9.22359L22.3684 8.90075L21.2154 9.08523L20.4775 9.36195L19.9701 9.6848L19.6012 10.0076L19.2783 10.4688L19.0016 11.0223L18.8171 11.7141L18.771 12.1753L18.7249 14.7119L18.6788 20.3386L18.6326 20.3847H15.2659L15.1275 20.3386L15.0814 20.2464V15.2654L15.0353 15.2192L14.6202 16.3261L14.159 17.2024L13.6055 17.9865L13.0521 18.586L12.7292 18.9089L11.9913 19.4623L11.2073 19.9235L10.2849 20.2925L9.31632 20.5692L8.25555 20.7537H7.0103L5.85729 20.5692L4.88876 20.2925L4.0586 19.9235L3.32067 19.5084L2.67498 19.0011L2.12154 18.4938L1.70646 17.9865L1.33749 17.4791L0.922408 16.7873L0.507325 15.8188L0.230602 14.8503L0.0461204 13.7434L0 12.6826V2.30553L0.0461204 2.02881Z" fill="#0273BC"/>
<path d="M7.2401 8.85498H7.93191L8.76208 8.99334L9.5 9.27006L10.0996 9.63903L10.653 10.1002L11.022 10.5614L11.3909 11.161L11.6677 11.8989L11.806 12.7291V13.3748L11.6677 14.1588L11.3909 14.8968L11.1142 15.4041L10.7453 15.8653L10.2379 16.3726L9.59224 16.7877L9.0388 17.0183L8.34699 17.2028L8.07027 17.2489H7.14786L6.45606 17.1105L5.71813 16.8338L5.21081 16.5571L4.7496 16.1881L4.33452 15.773L3.91943 15.1274L3.59659 14.3894L3.41211 13.5593V12.5446L3.55047 11.8528L3.82719 11.1149L4.24228 10.4692L4.7496 9.91575L5.34917 9.45455L5.99485 9.1317L6.59442 8.94722L7.2401 8.85498Z" fill="white"/>
<path d="M28.5484 8.85498H29.1941L29.8398 8.94722L30.5777 9.17782L31.1773 9.50067L31.7769 9.96187L32.2842 10.5153L32.6993 11.2532L32.9299 11.8528L33.0682 12.6369V13.5131L32.8837 14.3433L32.6531 14.9429L32.3303 15.4963L31.823 16.0959L31.3157 16.511L30.67 16.8799L29.8859 17.1567L29.3325 17.2489H28.4101L27.7183 17.1105L26.9803 16.8338L26.4269 16.511L25.9196 16.0959L25.5506 15.6808L25.2278 15.1735L24.951 14.5739L24.7666 13.9743L24.6743 13.3287V12.7752L24.7666 12.1295L24.9972 11.3916L25.2739 10.8382L25.6428 10.3308L25.9657 9.96187L26.4269 9.59291L27.0726 9.22394L27.7183 8.99334L28.1333 8.9011L28.5484 8.85498Z" fill="white"/>
<path d="M67.3823 8.39429H67.8896L68.5353 8.48653L69.2271 8.71713L69.8267 9.03997L70.4723 9.5473L70.9336 10.1007L71.3025 10.7003L71.487 11.1154V11.346H63.7388L63.9694 10.7464L64.3383 10.1007L64.8918 9.45506L65.353 9.08609L65.9987 8.71713L66.6905 8.48653L67.3823 8.39429Z" fill="white"/>
<path d="M82.8316 17.0183H83.5695L84.0768 17.2028L84.4919 17.4795L84.7686 17.8485L84.9992 18.4019V19.2321L84.8148 19.6933L84.3997 20.1545L83.9846 20.4312L83.5234 20.5696H82.8777L82.3704 20.3851L82.0014 20.1545L81.6786 19.7855L81.448 19.2782L81.4019 19.0015V18.6325L81.5402 18.0791L81.7708 17.664L82.0014 17.4334L82.232 17.2489L82.6471 17.0644L82.8316 17.0183Z" fill="white"/>
<path d="M79.6043 0L79.7426 0.0461204V1.33749L79.7888 3.18231L80.0655 3.32067L79.9732 3.45903L79.5582 3.55127L79.2814 3.59739V3.41291L78.9586 3.55127L78.7741 3.64351H78.4051L78.0362 3.45903L77.7595 3.13619L77.6211 2.76722V2.21378L77.8056 1.70646L78.1284 1.33749L78.4513 1.15301L78.8663 1.10689L79.1431 1.24525H79.2353V0.553445L79.1892 0.368963L78.9125 0.276722V0.184482L79.6043 0Z" fill="#0273BC"/>
<path d="M58.389 0H58.4813L58.9886 1.15301L59.8188 3.04395L60.0494 3.41291L60.2338 3.59739H58.8964L58.9425 3.45903L59.2192 3.36679L59.1731 3.04395L58.9425 2.4905H57.605L57.3283 3.18231L57.2821 3.36679L57.5589 3.45903L57.6511 3.50515V3.59739H56.5903L56.6365 3.45903L56.8671 3.32067L57.0977 2.95171L57.6511 1.61421L58.2045 0.322843L58.389 0Z" fill="#0273BC"/>
<path d="M81.0328 1.15308H81.5401L81.863 1.33756L82.0936 1.61428L82.2319 1.98324V2.1216L81.7707 2.16773H80.6177L80.71 2.67505L80.9867 3.09013L81.2634 3.22849H81.5862L81.863 3.09013L82.2319 2.67505H82.3242L82.2781 2.95177L81.9552 3.36686L81.5862 3.59746L81.4479 3.64358H80.9867L80.6177 3.4591L80.341 3.09013L80.2026 2.72117V2.1216L80.3871 1.6604L80.6638 1.33756L81.0328 1.15308Z" fill="#0273BC"/>
<path d="M68.3965 1.19873H69.0883L69.1344 1.24485L69.1805 2.95131L69.2728 3.18191L69.4573 3.27415L69.734 3.22803L70.0107 3.04355V1.42933L69.734 1.29097V1.19873H70.518L70.5641 3.27415L70.7947 3.36639L70.7486 3.45863L70.2874 3.59699H70.1029V3.27415L69.8262 3.45863L69.5034 3.64311H69.1805L68.9038 3.50475L68.7193 3.27415L68.6732 3.08967L68.6271 1.38321L68.4426 1.29097L68.3965 1.19873Z" fill="#0273BC"/>
<path d="M82.8316 17.0183H83.5695L84.0768 17.2028L84.4919 17.4795L84.7686 17.8485L84.9992 18.4019V19.2321L84.8148 19.6933L84.3997 20.1545L83.9846 20.4312L83.5234 20.5696H82.8777L82.3704 20.3851L82.0014 20.1545L81.6786 19.7855L81.448 19.2782L81.4019 19.0015V18.6325L81.5402 18.0791L81.7708 17.664L82.0014 17.4334L82.232 17.2489L82.6471 17.0644L82.8316 17.0183ZM82.9699 17.2489L82.5087 17.3873L82.0937 17.664L81.8169 18.0791L81.6786 18.448V19.1398L81.8631 19.6011L82.1398 19.97L82.4626 20.2006L82.8777 20.339H83.5234L84.0307 20.1545L84.4458 19.7855L84.7225 19.2782L84.7686 19.0476V18.5403L84.6303 18.0791L84.3536 17.664L83.9385 17.3873L83.5234 17.2489H82.9699Z" fill="#0273BC"/>
<path d="M82.5561 17.7102H83.7091L83.9397 17.8486L84.078 18.0792V18.5865L83.8936 18.771L83.9397 19.0477L84.078 19.5089V19.7856L83.9858 19.8779H83.8474L83.7552 19.555L83.663 19.1399L83.6168 19.0477L83.4785 19.0016H82.6944V19.8317L82.6483 19.924L82.4177 19.8317L82.3716 19.6934V17.8024L82.5561 17.7102Z" fill="#0273BC"/>
<path d="M66.8286 1.33765L67.1976 1.38377L67.4743 1.61437L67.6588 2.07557L67.7049 2.3523V2.8135L67.5665 3.22858L67.2898 3.45919L66.9209 3.50531L66.6903 3.36694L66.5058 3.13634L66.3213 2.62902V1.89109L66.5058 1.52213L66.6903 1.38377L66.8286 1.33765Z" fill="white"/>
<path d="M66.6907 1.15308H67.2903L67.6593 1.33756L67.8899 1.52204L68.1205 1.891L68.1666 2.07548V2.76729L67.936 3.22849L67.567 3.55134L67.1058 3.6897L66.6907 3.64358L66.3218 3.4591L65.9989 3.09013L65.8606 2.76729L65.8145 2.53669V2.16773L65.9989 1.70652L66.1834 1.4298L66.5524 1.1992L66.6907 1.15308ZM66.8291 1.33756L66.5524 1.47592L66.3679 1.75264L66.3218 1.891V2.62893L66.5063 3.13625L66.783 3.4591L67.1519 3.50522L67.4748 3.32074L67.6593 3.04401L67.7054 2.81341V2.35221L67.567 1.79876L67.3825 1.52204L67.1981 1.38368L66.8291 1.33756Z" fill="#0273BC"/>
<path d="M63.1851 1.19873H64.1997V1.29097L63.923 1.38321L64.1075 1.84442L64.4764 2.62846L64.5226 2.76682H64.6148L65.076 1.52157V1.38321L64.8915 1.19873H65.5372L65.445 1.42933L65.2144 1.93666L64.7532 3.13579L64.3842 4.0582L64.1075 4.5194L63.8307 4.70388H63.3695L63.2312 4.5194L63.2773 4.2888L63.3695 4.19656H63.9691L64.1997 3.82759L64.2919 3.41251L64.0613 2.85907L63.3695 1.42933L63.1851 1.29097V1.19873Z" fill="#0273BC"/>
<path d="M78.5427 1.33765H78.9117L79.1884 1.52213L79.2807 1.75273V2.95186L79.1884 3.18246L78.9578 3.32082H78.5889L78.266 3.0441L78.0815 2.5829V1.93721L78.266 1.56825L78.5427 1.33765Z" fill="white"/>
<path d="M74.7151 1.15308H75.2686L75.5914 1.24532L75.6836 1.56816V1.891H75.5453L75.3608 1.47592L75.2224 1.38368L74.8996 1.33756L74.669 1.47592L74.6229 1.79876L75.038 2.07548L75.5453 2.39833L75.7759 2.67505L75.822 2.76729V3.13625L75.6375 3.41298L75.3608 3.59746L75.1763 3.64358H74.8074L74.2539 3.55134V2.76729L74.4384 2.85953L74.5767 3.27462L74.7612 3.41298H75.2224L75.4069 3.22849V2.95177L75.038 2.67505L74.5306 2.35221L74.3 2.07548L74.2539 1.75264L74.3923 1.38368L74.6229 1.1992L74.7151 1.15308Z" fill="#0273BC"/>
<path d="M71.6723 1.15308H71.7645L71.8106 1.24532V1.52204H71.949L72.0412 1.33756L72.3641 1.15308L72.5947 1.1992L72.733 1.38368L72.6408 1.6604L72.4102 1.70652L72.2718 1.61428H71.9951L71.8568 1.79876V3.27462L72.0412 3.4591L72.2257 3.55134V3.59746H71.0266L70.9805 3.4591L71.3033 3.36686V1.56816L70.9805 1.52204V1.4298L71.6262 1.1992L71.6723 1.15308Z" fill="#0273BC"/>
<path d="M61.0634 0.552734L61.1556 0.598855V1.1523L61.6168 1.19842L61.7091 1.24454L61.663 1.3829L61.2017 1.42902L61.1556 1.47514L61.2017 3.1816L61.2479 3.27384L61.7552 3.22772L61.663 3.4122L61.3862 3.59668L61.1095 3.6428L60.8789 3.55056L60.6944 3.31996L60.6483 1.47514L60.3716 1.3829L60.4177 1.24454L60.7405 0.967818L61.0634 0.552734Z" fill="#0273BC"/>
<path d="M76.8378 1.15308H76.9762L77.0223 1.47592L77.0684 3.36686L77.3912 3.55134V3.59746H76.146L76.1921 3.4591L76.4688 3.36686L76.515 3.18237V1.52204H76.1921V1.4298L76.7917 1.1992L76.8378 1.15308Z" fill="#0273BC"/>
<path d="M58.2507 0.875244L58.4352 1.05973L58.7119 1.79765L58.8042 2.02825V2.21274H57.6973L57.8356 1.79765L58.2046 0.921365L58.2507 0.875244Z" fill="white"/>
<path d="M82.8776 17.9412H83.431L83.7539 18.0334L83.8 18.1256V18.5407L83.6616 18.6791L83.5233 18.7252H82.6931L82.647 18.6791V18.0795L82.6931 17.9873L82.8776 17.9412Z" fill="white"/>
<path d="M80.9866 1.38281H81.3556L81.5862 1.56729L81.6784 1.75178L81.6323 1.93626H80.6638L80.6177 1.75178L80.8944 1.42893L80.9866 1.38281Z" fill="white"/>
<path d="M82.9723 3.04346L83.2029 3.08958L83.3413 3.22794L83.2951 3.55078L83.1107 3.64302L82.8801 3.5969L82.7417 3.41242L82.8339 3.1357L82.9723 3.04346Z" fill="#0273BC"/>
<path d="M76.6056 0H76.8824L77.0207 0.230602L76.9746 0.461204L76.6979 0.553445L76.5134 0.461204L76.4673 0.184482L76.6056 0Z" fill="#0273BC"/>
</svg>
