<svg width="34" height="31" viewBox="0 0 34 31" fill="none" xmlns="http://www.w3.org/2000/svg">
<g filter="url(#filter0_d_187_263)">
<path d="M5.96289 7.5293H29.6934L29.708 7.54395L29.7227 8.9209V20.5957L29.708 20.625L28.9463 20.6396H5.99219L5.96289 20.625V7.5293ZM24.9326 10.0195L24.5957 10.0488L24.332 10.0928L23.9951 10.1807L23.6436 10.3125L23.3652 10.4443L23.1016 10.6055L22.8232 10.8105L22.6328 10.9863L22.5156 11.0889L22.3398 11.2793L22.1494 11.5283L22.0029 11.748L21.8564 12.0117L21.7539 12.2314L21.6367 12.5537L21.5488 12.8906L21.4902 13.2861L21.4756 13.7256L21.5049 14.0771L21.5635 14.4141L21.666 14.7803L21.7539 15L21.8564 15.2344L22.0029 15.498L22.1641 15.7324L22.3545 15.9668L22.457 16.084L22.6914 16.3184L22.8965 16.4795L23.1016 16.626L23.3213 16.7578L23.541 16.875L23.7754 16.9775L24.1416 17.0947L24.4932 17.168L24.9033 17.2119H25.2842L25.665 17.168L26.0605 17.0801L26.4414 16.9482L26.8076 16.7725L27.1152 16.582L27.3057 16.4355L27.4961 16.2744L27.5986 16.1865V16.1572L27.6572 16.1279L27.7598 16.0107L27.877 15.8789L28.0234 15.6885L28.2139 15.3809L28.3311 15.1611L28.4775 14.7949L28.5654 14.502L28.6387 14.1211L28.668 13.8428V13.418L28.6387 13.1104L28.5654 12.7441L28.4922 12.4951L28.375 12.1875L28.2139 11.8506L28.0381 11.5723L27.8623 11.3379L27.6865 11.1475L27.4375 10.8984L27.2324 10.7373L27.042 10.6055L26.8223 10.4736L26.6025 10.3564L26.2363 10.21L25.8701 10.1074L25.5332 10.0488L25.167 10.0195H24.9326ZM12.1738 10.3564L8.55566 10.3711L8.42383 10.459L8.36523 10.5469L8.35059 10.5908V17.2559L8.39453 17.3584L8.49707 17.4463L8.58496 17.4756L11.5293 17.4902H15.7188L18.6924 17.4756L18.8096 17.4023L18.8682 17.3291L18.8975 17.2559V10.5908L18.8096 10.4443L18.7217 10.3857L18.6777 10.3711L14.2393 10.3564H12.1738Z" fill="#6084FE"/>
<path d="M8.95117 10.9717H18.2822L18.2969 10.9863L18.3115 16.8311L18.2969 16.875L9.00977 16.8896L8.95117 16.875L8.93652 16.6699V11.0156L8.95117 10.9717ZM12.8477 12.2168L12.7598 12.2607L12.6719 12.3633L12.6426 12.4365V15.3223L12.7305 15.4541L12.8184 15.5127L12.877 15.5273H12.9941L13.0967 15.4834L13.1992 15.3955L13.2285 15.3223L13.2432 15.2197L13.2578 14.1797L13.9609 14.165L14.21 14.1211L14.4297 14.0332L14.5908 13.9307L14.752 13.7842L14.8545 13.623L14.9277 13.4473L14.957 13.3008V13.0811L14.8984 12.8467L14.7959 12.6562L14.6348 12.4805L14.4883 12.3779L14.3125 12.29L14.1074 12.2314L14.0049 12.2168H12.8477ZM15.4697 12.2168L15.3818 12.2607L15.3086 12.334L15.2646 12.4219L15.25 12.5684V14.3555L15.2646 14.5752L15.3086 14.751L15.4258 15L15.6016 15.2197L15.7773 15.3516L16.0117 15.4688L16.1729 15.5127L16.29 15.5273H16.5244L16.7295 15.4834L16.9492 15.3955L17.1543 15.249L17.2715 15.1318L17.4033 14.9414L17.4912 14.751L17.5352 14.5312V12.4365L17.4766 12.3193L17.374 12.2314L17.3301 12.2168H17.1543L17.0371 12.2754L16.9639 12.3779L16.9492 12.4219L16.9346 12.6123L16.9199 14.4727L16.876 14.6191L16.7881 14.751L16.6855 14.8389L16.5391 14.8975L16.4805 14.9121H16.3047L16.1436 14.8535L16.0557 14.7949L15.9531 14.6777L15.8799 14.502L15.8652 14.4141L15.8506 12.4365L15.792 12.3193L15.6895 12.2314L15.6455 12.2168H15.4697ZM11.1631 12.3193L10.8848 12.3633L10.6504 12.4512L10.4453 12.5684L10.2549 12.7148L10.123 12.8467L9.99121 13.0225L9.85938 13.2568L9.77148 13.4912L9.71289 13.7695V14.1943L9.77148 14.4727L9.85938 14.707L9.99121 14.9414L10.1523 15.1465L10.2695 15.2637L10.4893 15.4248L10.7236 15.542L10.9873 15.6152L11.0605 15.6299H11.4854L11.7344 15.5713L11.9541 15.4834L12.1445 15.3662L12.2764 15.2637L12.335 15.1465V14.0771L12.2764 13.96L12.1592 13.8721L12.1152 13.8574H11.1045L10.9873 13.916L10.9287 13.9893L10.8848 14.0771V14.2236L10.9434 14.3408L11.0166 14.4141L11.1191 14.458H11.7344L11.7197 14.9121L11.5 15L11.3535 15.0293H11.1924L10.958 14.9707L10.7822 14.8828L10.6357 14.7656L10.5332 14.6484L10.416 14.4434L10.3428 14.2383L10.3281 14.165V13.7988L10.3721 13.623L10.4893 13.374L10.6064 13.2275L10.7383 13.1104L10.8848 13.0225L11.0459 12.9639L11.207 12.9346L11.4414 12.9492L11.6318 13.0078L11.9395 13.1836L11.9834 13.1982H12.1006L12.2178 13.1396L12.291 13.0664L12.335 12.9785V12.8174L12.291 12.7295L12.2178 12.6416L12.0127 12.5098L11.793 12.4072L11.5879 12.3486L11.3682 12.3193H11.1631Z" fill="#6084FE"/>
<path d="M4.01465 10.21H5.34766L5.3623 10.2393V15.7764L5.33301 15.8057H4.01465L4 15.7764V10.2393L4.01465 10.21Z" fill="#6084FE"/>
<path d="M24.9619 12.6562H25.1816L25.3867 12.7002L25.6211 12.8174L25.8115 12.9932L25.9141 13.1396L25.9727 13.2568L26.0312 13.4473L26.0459 13.5645V13.6963L26.002 13.916L25.8848 14.1504L25.7822 14.2822L25.6504 14.3994L25.4746 14.502L25.2402 14.5752L25.0498 14.5898L24.8447 14.5605L24.6689 14.502L24.5078 14.3994L24.3613 14.2676L24.2295 14.0918L24.1562 13.9307L24.1123 13.7256V13.5205L24.1562 13.3154L24.2148 13.1689L24.3174 13.0225L24.4492 12.876L24.5957 12.7734L24.7568 12.7002L24.9619 12.6562Z" fill="#6084FE"/>
<path d="M12.2471 21.2402H14.3857L14.4004 21.2695V22.4414L14.3711 22.4707H12.2617L12.2324 22.4414V21.2549L12.2471 21.2402Z" fill="#6084FE"/>
<path d="M9.49316 21.2402H11.6025L11.6465 21.2842V22.4268L11.6172 22.4707H9.49316L9.47852 22.4414V21.2549L9.49316 21.2402Z" fill="#6084FE"/>
<path d="M23.2188 21.2402H25.3135L25.3281 21.2549V22.4561L25.3135 22.4707H23.2188L23.2041 22.4561V21.2549L23.2188 21.2402Z" fill="#6084FE"/>
<path d="M24.2002 14.9854H24.332L24.5518 15.0879L24.7715 15.1465L25.1523 15.1758L25.1816 15.2344L25.167 15.4834L25.1963 15.7471L25.2695 15.9814L25.3428 16.1279L25.4893 16.333L25.6943 16.5381L25.6797 16.5674L25.2695 16.6113H24.8447L24.4492 16.5527L24.127 16.4648L23.834 16.3477L23.5264 16.1865L23.4678 16.1279L23.4385 15.9082V15.7471L23.4824 15.542L23.585 15.3369L23.7021 15.2051L23.8633 15.1025L24.0391 15.0293L24.2002 14.9854Z" fill="#6084FE"/>
<path d="M22.6182 13.1982H22.9258L23.1162 13.2715L23.3066 13.4033L23.4824 13.5791L23.5117 13.6377L23.5557 13.9453L23.6289 14.1943L23.7461 14.4287L23.7607 14.502L23.5264 14.6191L23.3652 14.7217L23.1748 14.8975L23.0283 15.1172L22.9404 15.3223L22.8818 15.5273L22.8672 15.6299L22.7939 15.5566L22.6621 15.3955L22.5156 15.1758L22.3691 14.9121L22.252 14.6338L22.1641 14.3408L22.1055 14.0479L22.0908 13.9453L22.0762 13.6963V13.5205L22.1348 13.4473L22.3545 13.3008L22.5156 13.2275L22.6182 13.1982Z" fill="#6084FE"/>
<path d="M26.4854 14.3115L26.6172 14.3994L26.8223 14.5166L27.0127 14.5898L27.2471 14.6338H27.4961L27.7891 14.5752L27.9209 14.5312L27.877 14.6777L27.7305 15.0146L27.5547 15.3076L27.4082 15.498L27.1445 15.791H27.1152V15.8203L26.9541 15.9521L26.7344 16.1133L26.4707 16.2744L26.3828 16.2451L26.1484 16.1279L26.002 16.0107L25.8701 15.8643L25.7969 15.7178L25.7676 15.6152V15.293L25.8262 15.0439L25.8848 14.9414L26.0459 14.8389L26.2217 14.6777L26.3682 14.4873L26.4561 14.3408L26.4854 14.3115Z" fill="#6084FE"/>
<path d="M24.7715 10.6348H25.3721L25.665 10.6787L25.958 10.752L26.3096 10.8838L26.5879 11.0303L26.6758 11.1035L26.6904 11.1328L26.7051 11.2793V11.5283L26.6465 11.7627L26.5586 11.9092L26.4707 12.0117L26.2656 12.1436L26.0752 12.2168L25.8848 12.2607L25.8115 12.2461L25.6064 12.1582L25.416 12.0996L25.2256 12.0703L24.9766 12.0557V11.6455L24.9326 11.4111L24.8447 11.1768L24.7129 10.957L24.5664 10.7959L24.4639 10.708V10.6787L24.6543 10.6494L24.7715 10.6348Z" fill="#6084FE"/>
<path d="M23.6582 10.9717L23.7461 10.9863L23.9805 11.1035L24.127 11.2061L24.2441 11.3232L24.332 11.4697L24.3906 11.6602V11.8945L24.332 12.1582L24.2734 12.29L24.1123 12.3926L23.9219 12.5684L23.79 12.7441L23.7021 12.8906L23.6729 12.9346L23.4385 12.7734L23.2188 12.6709L22.9844 12.6123L22.7646 12.5977L22.4863 12.627L22.2812 12.6855L22.2373 12.7002L22.252 12.6123L22.3838 12.3047L22.501 12.085L22.6475 11.8652L22.8086 11.6602L22.8672 11.5869L23.043 11.4111L23.1602 11.3086L23.3359 11.1768L23.541 11.0449L23.6582 10.9717Z" fill="#6084FE"/>
<path d="M27.291 11.6309L27.3496 11.6602L27.5254 11.8945L27.6719 12.1289L27.8184 12.4072L27.9062 12.627L27.9941 12.9346L28.0527 13.2861L28.0674 13.4766V13.7256L27.9941 13.7988L27.8477 13.9014L27.6426 14.0039L27.4814 14.0479H27.2617L27.0859 13.9893L26.9541 13.916L26.8076 13.7988L26.6611 13.6523L26.6318 13.5791L26.6025 13.3301L26.5439 13.1104L26.4268 12.8467L26.3828 12.7734L26.3975 12.7295L26.6318 12.6123L26.793 12.5098L26.9834 12.334L27.1299 12.1143L27.2031 11.9531L27.2617 11.748L27.291 11.6309Z" fill="#6084FE"/>
<path d="M25.9287 21.2402H27.8623L27.877 21.2549V22.4561L27.8623 22.4707H25.9434L25.9287 22.4561V21.2402Z" fill="#6084FE"/>
<path d="M20.6699 21.2402H22.6035L22.6182 21.2695V22.4414L22.5889 22.4707H20.6846L20.6699 22.4561L20.6553 21.8555V21.2695L20.6699 21.2402Z" fill="#6084FE"/>
<path d="M13.2725 12.8027H13.6387L13.9463 12.8174L14.1074 12.8613L14.2539 12.9492V12.9785H14.2832L14.3418 13.0811L14.3564 13.1396V13.2568L14.2979 13.374L14.2393 13.4473L14.0635 13.5352L13.9316 13.5645H13.2432V12.8174L13.2725 12.8027Z" fill="#6084FE"/>
</g>
<defs>
<filter id="filter0_d_187_263" x="-2.13867" y="0" width="38" height="38" filterUnits="userSpaceOnUse" color-interpolation-filters="sRGB">
<feFlood flood-opacity="0" result="BackgroundImageFix"/>
<feColorMatrix in="SourceAlpha" type="matrix" values="0 0 0 0 0 0 0 0 0 0 0 0 0 0 0 0 0 0 127 0" result="hardAlpha"/>
<feOffset dy="4"/>
<feGaussianBlur stdDeviation="2"/>
<feComposite in2="hardAlpha" operator="out"/>
<feColorMatrix type="matrix" values="0 0 0 0 0 0 0 0 0 0 0 0 0 0 0 0 0 0 0.25 0"/>
<feBlend mode="normal" in2="BackgroundImageFix" result="effect1_dropShadow_187_263"/>
<feBlend mode="normal" in="SourceGraphic" in2="effect1_dropShadow_187_263" result="shape"/>
</filter>
</defs>
</svg>
