<svg width="36" height="36" viewBox="0 0 36 36" fill="none" xmlns="http://www.w3.org/2000/svg">
<path d="M18.0103 36H17.4745L21.163 25.882H26.2324C27.1185 25.882 28.087 25.2021 28.396 24.3572L32.3938 13.3944C33.0532 11.6016 32.0229 10.1385 30.1063 10.1385H23.0589L17.1654 26.3355L13.8271 35.526C5.89349 33.651 0 26.5209 0 18.0105C0 9.747 5.56379 2.7819 13.147 0.6594L9.70574 10.1385L3.9771 25.882H7.78934L12.6732 12.5085H15.5374L10.6537 25.8822H14.466L18.9994 13.3946C19.6588 11.6017 18.6285 10.1386 16.7119 10.1386H13.4974L17.1859 0.0207C17.454 0 17.7217 0 17.9896 0C27.9427 0 36 8.05725 36 18.0105C36.0205 27.9429 27.9633 36 18.0103 36ZM28.9113 12.4875H26.0469L22.0285 23.4915H24.8929L28.9113 12.4875Z" fill="#0096D6"/>
</svg>
