<svg width="25" height="25" viewBox="0 0 25 25" fill="none" xmlns="http://www.w3.org/2000/svg">
<path d="M1.81159 0H23.1745L23.481 0.0268748L23.704 0.0806243L23.927 0.161249L24.0803 0.241873L24.3032 0.389684L24.4844 0.550933L24.5959 0.671869L24.7213 0.846555L24.8049 0.994366L24.9164 1.24968L24.9721 1.49155L24.9861 1.59905L25 1.90811V16.1652L24.9721 16.192H0.0139353L0 16.1786V1.71999L0.0278707 1.46467L0.0975474 1.20936L0.195095 0.980929L0.320513 0.779368L0.376254 0.698744H0.404125L0.431996 0.644994L0.557414 0.510621L0.710702 0.376247L0.850056 0.282185L1.04515 0.174686L1.24025 0.0940617L1.44928 0.0403122L1.6165 0.0134374L1.81159 0ZM9.67113 1.58561L9.25307 1.61249L8.86288 1.67967L8.5563 1.7603L8.33333 1.84092L8.20792 1.92155L8.13824 2.00217L8.0825 2.13654L8.06856 2.24404L8.09643 2.37842L8.18004 2.51279L8.27759 2.62029L8.3612 2.68748L8.43088 2.7681L8.54236 2.86216L9.43423 3.72216L9.5039 3.80278L9.58751 3.86997L9.67113 3.96403L9.78261 4.05809L10.0334 4.29996L10.0195 4.38059L9.7408 5.05246L9.64326 5.28089L8.73746 5.63026L8.63991 5.65714L6.81438 3.89684L6.67503 3.80278L6.56354 3.76247H6.42419L6.28484 3.80278L6.17336 3.8834L6.08974 3.9909L6.034 4.11184L5.92252 4.47465L5.85284 4.82402L5.82497 5.07933L5.81104 5.29433V5.46902L5.83891 5.80495L5.89465 6.14088L5.97826 6.46338L6.10368 6.81275L6.29877 7.20244L6.466 7.47119L6.60535 7.65931L6.80045 7.88774L6.89799 7.99524H6.92586L6.95373 8.04899L7.16276 8.23712L7.32999 8.37149L7.58082 8.54618L7.94314 8.74774L8.20792 8.86867L8.50056 8.97617L8.86288 9.07023L9.15552 9.12398L9.53177 9.1643H9.96377L10.4236 9.11055L10.6745 9.0568L10.7441 9.07023L10.7999 9.12398H10.8278L10.8556 9.17773L11.0647 9.36586L15.8724 14.0018L16.0117 14.1093L16.2347 14.2436L16.4716 14.3511L16.7503 14.4318L17.0429 14.4721H17.3495L17.6282 14.4318L17.9069 14.3511L18.1717 14.2302L18.3807 14.0958L18.534 13.9749L18.7152 13.8002L18.8685 13.5986L18.9939 13.3836L19.0914 13.1418L19.1611 12.8461L19.175 12.7386V12.3758L19.1332 12.134L19.0635 11.8921L18.9521 11.6502L18.8266 11.4487L18.7152 11.3143L18.5897 11.1799L13.573 6.34245L13.5591 6.30213L13.6148 6.03339L13.6566 5.7512L13.6706 5.57651V5.15996L13.6288 4.78371L13.5591 4.44777L13.4615 4.12528L13.3501 3.85653L13.1968 3.54747L13.0295 3.27872L12.8344 3.02341L12.6812 2.84873L12.5975 2.75466H12.5697L12.5418 2.70091L12.3328 2.51279L12.1098 2.3381L11.859 2.17686L11.5942 2.02904L11.2458 1.8678L10.981 1.77373L10.6327 1.67967L10.2285 1.61249L10.0892 1.59905L9.67113 1.58561Z" fill="#5E82FE"/>
<path d="M0.0139353 17.0385H24.9721L25 17.0654L24.9861 17.9926L24.9582 18.1807L24.9025 18.3823L24.8188 18.5838L24.7074 18.7854L24.568 18.9601L24.4147 19.1213L24.2475 19.2557L24.0942 19.3497L23.8712 19.4572L23.6901 19.5244L23.4392 19.5782L23.1466 19.6051H1.88127L1.63043 19.5916L1.33779 19.5379L1.11483 19.4572L0.850056 19.3229L0.668896 19.1885L0.529543 19.0676V19.0407H0.501672L0.376254 18.8929L0.278707 18.7585L0.181159 18.5972L0.083612 18.3554L0.0278707 18.1269L0 17.8448V17.0654L0.0139353 17.0385ZM11.8729 17.8851L11.7336 17.9254L11.6221 18.006L11.5385 18.1269L11.4967 18.2613V18.3554L11.5385 18.4898L11.6221 18.6107L11.7475 18.6913L11.9008 18.7316H13.0853L13.2386 18.6779L13.364 18.5838L13.4337 18.4763L13.4615 18.3688V18.2479L13.4058 18.1001L13.3501 18.0194L13.2525 17.9388L13.0992 17.8851H11.8729Z" fill="#5E82FE"/>
<path d="M9.57358 2.43213H9.88016L10.1867 2.459L10.5351 2.52619L10.8696 2.63369L11.1483 2.75463L11.413 2.90244L11.6221 3.05025L11.7754 3.17119L11.845 3.23837L11.9426 3.319L12.0401 3.4265L12.1795 3.58774L12.3328 3.80274L12.4443 3.97743L12.5836 4.27305L12.709 4.63586L12.7648 4.89117L12.7926 5.14648V5.57648L12.7648 5.83179L12.6951 6.14085L12.6254 6.40959V6.50366L12.6812 6.65147L12.7648 6.75897L18.0184 11.8249L18.1577 12.013L18.2414 12.1742L18.2971 12.3892V12.7252L18.2414 12.9267L18.1299 13.1417L18.0323 13.2627L17.893 13.397L17.7118 13.5045L17.4889 13.5852L17.3356 13.612H17.0151L16.7921 13.5583L16.5691 13.4508L16.4437 13.3567L11.1761 8.27739L11.0507 8.19677L10.9253 8.15646H10.772L10.3261 8.26395L9.9359 8.3177H9.51784L9.19733 8.27739L8.84894 8.19677L8.51449 8.07583L8.23579 7.94146L7.94315 7.75333L7.72018 7.57865L7.66444 7.53834V7.51146L7.6087 7.48459L7.39967 7.26959L7.23244 7.05459L7.07915 6.81272L6.96767 6.61116L6.85619 6.34241L6.77258 6.06022L6.71684 5.79148L6.68896 5.50929V5.28085L6.7029 5.05242H6.75864L7.12096 5.40179L7.20457 5.46898L7.28818 5.56304L7.3718 5.63023L7.45541 5.72429L7.53902 5.79148L7.62263 5.88554L7.70624 5.95272L7.76199 6.00647V6.03335H7.78986V6.06022H7.81773L7.90134 6.15428L7.92921 6.16772V6.1946H7.95708V6.22147H7.98495V6.24835H8.01282V6.27522H8.04069L8.1243 6.36928L8.23579 6.46334L8.3194 6.53053L8.44482 6.57084H8.62598L8.86288 6.49022L9.90803 6.0871L10.1728 5.9796L10.2982 5.89897L10.3818 5.77804L10.5351 5.41523L10.8138 4.72992L10.9671 4.35367L10.981 4.29993V4.1118L10.9253 3.99087L10.8278 3.86993L9.4621 2.55307L9.39242 2.49932L9.37849 2.44557L9.57358 2.43213ZM16.3043 11.3546L16.1789 11.3949L16.0535 11.4889L15.9699 11.6233L15.942 11.7442L15.956 11.892L16.0256 12.0264L16.1789 12.1877L16.5831 12.5774L16.7085 12.658L16.7921 12.6849H16.9872L17.1265 12.6311L17.252 12.5236L17.3077 12.4161L17.3356 12.2414L17.3077 12.1205L17.238 11.9995L17.0708 11.8249L16.7224 11.4889L16.5831 11.3949L16.4437 11.3546H16.3043Z" fill="#5E82FE"/>
<path d="M7.80386 22.736H17.1823L17.3914 22.7763L17.6143 22.8704L17.7676 22.9779L17.8791 23.072L18.0185 23.2466L18.1299 23.4751L18.1718 23.6363L18.1857 23.7707V24.0798L18.1718 24.0932H6.81445V23.717L6.85626 23.5154L6.92594 23.3407L7.00955 23.2063L7.1071 23.0854L7.23251 22.9645L7.48335 22.8166L7.65057 22.7629L7.80386 22.736Z" fill="#5E82FE"/>
<path d="M9.53191 20.4517H15.4684L15.5102 20.5457L15.8167 21.4863L15.9282 21.8357V21.876L15.9004 21.8895H9.08598L9.05811 21.876L9.09991 21.7416L9.40649 20.801L9.51797 20.4651L9.53191 20.4517Z" fill="#5E82FE"/>
</svg>
