<svg width="36" height="35" viewBox="0 0 36 35" fill="none" xmlns="http://www.w3.org/2000/svg">
<g filter="url(#filter0_d_186_81)">
<path d="M4.9082 9.09668H30.1914L30.4404 9.11133L30.6309 9.16992L30.792 9.25781L30.9678 9.41895L31.0703 9.55078L31.1729 9.75586L31.2021 9.90234L31.2168 11.8799V18.0469H31.1729L31.0264 17.8271L30.8359 17.5635L30.6748 17.373L30.543 17.2119L30.1035 16.7725L29.9424 16.6406L29.7666 16.4941L29.6201 16.3916L29.6348 16.3477L29.7959 16.2305L29.9277 16.0986L30.0303 15.9521L30.1475 15.7178L30.2061 15.5273L30.2354 15.3516V15.0293L30.1768 14.7656L30.0742 14.5312L29.9424 14.3262L29.7959 14.165L29.5908 14.0186L29.3564 13.9014L29.1514 13.8428L29.0635 13.8281H26.793L26.5732 13.8721L26.3535 13.96L26.207 14.0479L26.0605 14.165L25.8848 14.3408L25.7676 14.5312L25.665 14.7656L25.6064 15.0293L25.5918 15.2051L25.5625 15.2344L24.9473 15.3223L24.6689 15.3809L24.6104 15.3662V15.0439L24.5518 14.7803L24.4639 14.5605L24.332 14.3408L24.2002 14.1943L24.0537 14.0771L23.834 13.9453L23.6436 13.8721L23.4385 13.8281H23.0283L22.7793 13.8867L22.5889 13.9746L22.4131 14.0771L22.2227 14.2529L22.1055 14.3848L21.9736 14.6191L21.9004 14.8096L21.8564 15.0586V15.3662L21.9004 15.5859L21.9883 15.8203L22.0908 15.9961L22.208 16.1426L22.3252 16.2598L22.4717 16.3623V16.3916L22.2373 16.5674L22.0908 16.6992L21.9736 16.8018L21.7979 16.9629L21.5635 17.1973L21.4316 17.3584L21.2705 17.5488L21.2412 17.5635L13.668 17.5781L13.4482 17.6221L13.2285 17.71L13.082 17.7979L12.9355 17.915L12.7598 18.0908L12.6426 18.2812L12.5254 18.5449L12.4814 18.7793L12.4668 18.999L12.5107 19.292L12.584 19.5117L12.7012 19.7314L12.8037 19.8633L12.9648 20.0244L13.1846 20.1709L13.3457 20.2441L13.5215 20.3027L13.7119 20.332L19.9961 20.3467L20.04 20.3613L19.9814 20.9473L19.9668 21.2695L19.9521 21.2988L19.8496 21.3135H12.4521L8.58496 21.3281L8.46777 21.3721L8.35059 21.4746L8.27734 21.6211L8.2627 21.665V21.8701L8.32129 22.002L8.37988 22.0898L8.51172 22.1777L8.61426 22.207L19.9961 22.2217L20.04 22.2363L20.1133 22.6025L20.2012 22.9541L20.2451 23.1006V23.1738L20.2305 23.1885H5.06934L4.80566 23.1738L4.62988 23.1299L4.4541 23.042L4.32227 22.9395L4.21973 22.8369L4.11719 22.6904L4.04395 22.5293L4.01465 22.4121L4 22.2363V21.9873L4.04395 21.9727L4.24902 22.0752L4.46875 22.1484L4.68848 22.1924L4.82031 22.207H6.91504L7.09082 22.1338L7.20801 22.0166L7.2666 21.8555V21.665L7.20801 21.5186L7.10547 21.4014L6.98828 21.3428L6.94434 21.3281L4.9668 21.3135L4.71777 21.2842L4.54199 21.2109L4.39551 21.123L4.24902 20.9912L4.11719 20.8154L4.05859 20.6982L4.01465 20.5225L4 20.376V10.0049L4.0293 9.7998L4.10254 9.60938L4.23438 9.41895L4.35156 9.30176L4.54199 9.18457L4.68848 9.12598L4.9082 9.09668ZM6.13867 10.0635L5.9043 10.1221L5.66992 10.2246L5.46484 10.3711L5.3623 10.459L5.25977 10.5762L5.12793 10.7812L5.01074 11.0449L4.9668 11.2793L4.95215 11.4844L4.99609 11.792L5.06934 12.0117L5.18652 12.2314L5.31836 12.3926L5.4502 12.5244L5.64062 12.6562L5.8457 12.7588L6.03613 12.8174L6.21191 12.8467H6.51953L6.7832 12.7881L7.01758 12.6855L7.22266 12.5537L7.41309 12.3779L7.54492 12.2021L7.66211 11.9678L7.7207 11.7773L7.75 11.6162V11.2939L7.69141 11.0303L7.60352 10.8105L7.48633 10.6201L7.35449 10.459L7.17871 10.3125L6.97363 10.1953L6.79785 10.1221L6.56348 10.0635H6.13867ZM9.88867 10.0635L9.6543 10.1221L9.41992 10.2246L9.21484 10.3711L9.1123 10.459L8.98047 10.6201L8.87793 10.7812L8.76074 11.0449L8.7168 11.2793V11.6162L8.76074 11.8506L8.84863 12.0703L8.95117 12.2461L9.06836 12.3926L9.2002 12.5244L9.39062 12.6562L9.5957 12.7588L9.78613 12.8174L9.97656 12.8467H10.2402L10.4746 12.8027L10.709 12.7148L10.9141 12.5977L11.1045 12.4365L11.2363 12.29L11.3682 12.0703L11.4561 11.8359L11.5 11.6162V11.2939L11.4414 11.0303L11.3535 10.8105L11.2363 10.6201L11.1045 10.459L10.9287 10.3125L10.7236 10.1953L10.5479 10.1221L10.3135 10.0635H9.88867ZM13.7412 10.0635L13.624 10.1074L13.4775 10.2393L13.4043 10.415V10.6201L13.4629 10.752L13.5508 10.8691L13.668 10.9424L13.7705 10.9717L13.9756 11.001L14.0928 11.0449L14.2393 11.1768L14.2979 11.2939L14.3125 11.3379V11.5723L14.2246 11.748L14.1074 11.8506L13.9609 11.9092L13.8145 11.9238L13.668 11.8799L13.5508 11.8066L13.4629 11.7041L13.4043 11.5723L13.375 11.3525L13.3164 11.2061L13.1992 11.0742L13.082 11.0156L12.9355 10.9863L12.7451 11.0156L12.6133 11.1035L12.5254 11.2061L12.4668 11.3525V11.6162L12.5107 11.8506L12.5986 12.0703L12.7012 12.2461L12.8184 12.3926L12.9502 12.5244L13.1406 12.6562L13.3457 12.7588L13.5361 12.8174L13.7266 12.8467H13.9902L14.2246 12.8027L14.459 12.7148L14.6641 12.5977L14.8545 12.4365L14.9717 12.3047L15.1182 12.0703L15.2061 11.8359L15.25 11.6162V11.2939L15.1914 11.0303L15.1035 10.8105L14.9863 10.6201L14.8252 10.4297L14.6348 10.2832L14.3857 10.1514L14.1514 10.0781L14.0781 10.0635H13.7412ZM17.4033 10.0635L17.1543 10.1221L16.9492 10.21L16.7881 10.3125L16.6123 10.459L16.4805 10.6201L16.3633 10.8105L16.2754 11.0156L16.2314 11.1914L16.2021 11.4844L16.2461 11.792L16.3193 12.0117L16.4365 12.2314L16.5537 12.3779L16.7002 12.5244L16.8906 12.6562L17.0957 12.7588L17.2861 12.8174L17.4619 12.8467H17.7402L18.0332 12.7881L18.2969 12.6709L18.4727 12.5537L18.6631 12.3779L18.8242 12.1582L18.9121 11.9678L18.9707 11.7773L19 11.6162V11.3086L18.9414 11.0156L18.8242 10.752L18.6924 10.5615L18.5752 10.4297L18.3848 10.2832L18.1357 10.1514L17.9014 10.0781L17.8135 10.0635H17.4033ZM21.1533 10.0635L20.9043 10.1221L20.6992 10.21L20.5381 10.3125L20.377 10.4443L20.2744 10.5615L20.1719 10.708L20.0547 10.9424L19.9961 11.1182L19.9668 11.2939V11.6162L20.0107 11.8506L20.0986 12.0703L20.2012 12.2461L20.3037 12.3779L20.4502 12.5244L20.6406 12.6562L20.8457 12.7588L21.0361 12.8174L21.2412 12.8467H21.5195L21.7832 12.7881L21.959 12.7148L22.1201 12.627L22.3105 12.4805L22.4277 12.3633L22.5449 12.2021L22.6621 11.9678L22.7207 11.7773L22.75 11.6162V11.2939L22.6914 11.0156L22.5742 10.752L22.4424 10.5615L22.3252 10.4297L22.1348 10.2832L21.8857 10.1514L21.6514 10.0781L21.5635 10.0635H21.1533ZM24.9033 10.0635L24.6543 10.1221L24.4492 10.21L24.2881 10.3125L24.127 10.4443L24.0244 10.5615L23.9219 10.708L23.8047 10.9424L23.7461 11.1182L23.7168 11.2939V11.6162L23.7607 11.8506L23.8486 12.0703L23.9512 12.2461L24.0537 12.3779L24.2002 12.5244L24.3906 12.6562L24.5957 12.7588L24.7861 12.8174L24.9912 12.8467H25.2695L25.5332 12.7881L25.709 12.7148L25.8701 12.627L26.0605 12.4805L26.1777 12.3633L26.2949 12.2021L26.4121 11.9678L26.4707 11.7773L26.5 11.6162V11.2939L26.4414 11.0156L26.3242 10.752L26.1924 10.5615L26.0752 10.4297L25.8848 10.2832L25.6357 10.1514L25.4014 10.0781L25.3135 10.0635H24.9033ZM28.6533 10.0635L28.4043 10.1221L28.1992 10.21L28.0381 10.3125L27.877 10.4443L27.7744 10.5615L27.6719 10.708L27.5547 10.9424L27.4961 11.1182L27.4668 11.2939V11.6162L27.5107 11.8506L27.5986 12.0703L27.7012 12.2461L27.8037 12.3779L27.9502 12.5244L28.1406 12.6562L28.3457 12.7588L28.5361 12.8174L28.7119 12.8467H29.0342L29.2832 12.7881L29.459 12.7148L29.6201 12.627L29.7959 12.4951L29.9424 12.3486L30.0449 12.2021L30.1621 11.9678L30.2207 11.7773L30.25 11.6162V11.2939L30.1914 11.0156L30.0742 10.752L29.9424 10.5615L29.8252 10.4297L29.6348 10.2832L29.3857 10.1514L29.1514 10.0781L29.0635 10.0635H28.6533ZM6.15332 13.8135L5.94824 13.8574L5.75781 13.9307L5.58203 14.0332L5.3623 14.209V14.2383L5.31836 14.2529L5.18652 14.4287L5.05469 14.6777L4.99609 14.8535L4.95215 15.1611L4.9668 15.3955L5.02539 15.6445L5.12793 15.8789L5.23047 16.04L5.3623 16.1865L5.47949 16.3037L5.71387 16.4502L5.88965 16.5234L6.12402 16.582L6.25586 16.5967H8.36523L8.59961 16.5527L8.77539 16.4941L8.99512 16.377L9.1709 16.2451L9.31738 16.0986L9.41992 15.9521L9.53711 15.7178L9.5957 15.5273L9.625 15.3662V15.0439L9.58105 14.8242L9.49316 14.5898L9.40527 14.4287L9.30273 14.2969L9.2002 14.1797L9.05371 14.0625L8.83398 13.9307L8.64355 13.8574L8.42383 13.8135H6.15332ZM11.793 13.8135L11.5732 13.8574L11.3242 13.96L11.1484 14.0771L10.9727 14.2383L10.8408 14.3848L10.709 14.6191L10.6357 14.8096L10.5918 15.0439V15.3662L10.6357 15.6006L10.7236 15.8203L10.8262 15.9961L10.9287 16.1279L11.0752 16.2744L11.2656 16.4062L11.4707 16.5088L11.6611 16.5674L11.8662 16.5967H12.1445L12.4082 16.5381L12.584 16.4648L12.7451 16.377L12.9355 16.2305L13.0527 16.1133L13.1699 15.9521L13.2871 15.7178L13.3457 15.5273L13.375 15.3662V15.0439L13.3164 14.7656L13.1992 14.502L13.0674 14.3115L12.9502 14.1797L12.7598 14.0332L12.5107 13.9014L12.2617 13.8281L12.1738 13.8135H11.793ZM15.543 13.8135L15.3232 13.8574L15.0742 13.96L14.8984 14.0771L14.7227 14.2383L14.5908 14.3848L14.459 14.6191L14.3857 14.8096L14.3418 15.0439V15.3662L14.3857 15.6006L14.4736 15.8203L14.5762 15.9961L14.6787 16.1279L14.8252 16.2744L15.0156 16.4062L15.2207 16.5088L15.4111 16.5674L15.5869 16.5967H15.9092L16.1582 16.5381L16.334 16.4648L16.4951 16.377L16.6709 16.2451L16.8027 16.1133L16.9199 15.9521L17.0371 15.7178L17.0957 15.5273L17.125 15.3662V15.0439L17.0664 14.7656L16.9492 14.502L16.8174 14.3115L16.7002 14.1797L16.5098 14.0332L16.2607 13.9014L16.0117 13.8281L15.9238 13.8135H15.543ZM19.293 13.8135L19.0732 13.8574L18.8242 13.96L18.6484 14.0771L18.4727 14.2383L18.3408 14.3848L18.209 14.6191L18.1357 14.8096L18.0918 15.0439V15.3662L18.1357 15.6006L18.2236 15.8203L18.3262 15.9961L18.4287 16.1279L18.5752 16.2744L18.7656 16.4062L18.9707 16.5088L19.1611 16.5674L19.3369 16.5967H19.6592L19.9082 16.5381L20.084 16.4648L20.2451 16.377L20.4209 16.2451L20.5674 16.0986L20.6699 15.9521L20.7871 15.7178L20.8457 15.5273L20.875 15.3662V15.0439L20.8164 14.7656L20.6992 14.502L20.5674 14.3115L20.4502 14.1797L20.2598 14.0332L20.0107 13.9014L19.7617 13.8281L19.6738 13.8135H19.293ZM6.15332 17.5635L5.9043 17.6221L5.69922 17.71L5.53809 17.8125L5.37695 17.9443L5.27441 18.0615L5.17188 18.208L5.05469 18.4424L4.99609 18.6182L4.9668 18.7793L4.95215 18.9844L4.99609 19.292L5.06934 19.5117L5.18652 19.7314L5.30371 19.8779L5.4502 20.0244L5.64062 20.1562L5.8457 20.2588L6.03613 20.3174L6.21191 20.3467H6.53418L6.7832 20.2881L6.95898 20.2148L7.12012 20.127L7.2959 19.9951L7.44238 19.8486L7.54492 19.7021L7.66211 19.4678L7.7207 19.2773L7.75 19.1162V18.7939L7.69141 18.5156L7.57422 18.252L7.44238 18.0615L7.3252 17.9297L7.13477 17.7832L6.88574 17.6514L6.65137 17.5781L6.56348 17.5635H6.15332ZM9.91797 17.5635L9.69824 17.6074L9.44922 17.71L9.27344 17.8271L9.09766 17.9883L8.96582 18.1348L8.83398 18.3691L8.76074 18.5596L8.7168 18.7939V19.1162L8.76074 19.3506L8.84863 19.5703L8.95117 19.7461L9.05371 19.8779L9.2002 20.0244L9.39062 20.1562L9.5957 20.2588L9.78613 20.3174L9.96191 20.3467H10.2842L10.5332 20.2881L10.709 20.2148L10.8994 20.1123L11.0605 19.9805L11.1924 19.8486L11.2949 19.7021L11.4121 19.4678L11.4707 19.2773L11.5 19.1162V18.7939L11.4414 18.5156L11.3242 18.252L11.1924 18.0615L11.0752 17.9297L10.8848 17.7832L10.6357 17.6514L10.3867 17.5781L10.2988 17.5635H9.91797Z" fill="#6084FE"/>
<path d="M25.8555 16.1279H26.2363L26.6318 16.1572L27.0127 16.2158L27.3936 16.3037L27.6865 16.3916L28.0674 16.5381L28.4336 16.7139L28.7266 16.875L28.9902 17.0508L29.2246 17.2266L29.3857 17.3584L29.5322 17.4902L29.5615 17.5049V17.5342L29.6201 17.5635L29.7959 17.7393L29.8984 17.8564L30.0303 18.0029L30.1768 18.1934L30.3525 18.4424L30.543 18.75L30.7334 19.1162L30.8799 19.4678L31.0264 19.9072L31.1143 20.2881L31.1729 20.6396L31.2021 20.9473V21.6357L31.1729 21.9434L31.1143 22.3096L31.0264 22.6758L30.9385 22.9541L30.792 23.3496L30.6162 23.7158L30.4404 24.0234L30.3379 24.1699L30.2061 24.3604L30.0596 24.5508L29.8838 24.7559L29.8105 24.8438H29.7812L29.752 24.9023L29.5762 25.0781L29.459 25.1807L29.2686 25.3418L29.0049 25.5322L28.7119 25.7227L28.4482 25.8691L28.0527 26.0596L27.7012 26.1914L27.291 26.3086L26.9395 26.3818L26.5146 26.4404L26.3682 26.4551H25.6943L25.2109 26.3965L24.7861 26.3086L24.3906 26.1914L24.0391 26.0596L23.6729 25.8838L23.4531 25.7666L23.1895 25.6055L22.9258 25.415L22.6914 25.2246L22.6182 25.166V25.1367L22.5596 25.1074L22.1787 24.7266L22.0469 24.5654L21.8711 24.3457L21.6367 23.9941L21.4756 23.7158L21.2852 23.3203L21.1533 22.9688L21.0508 22.6318L20.9629 22.251L20.9043 21.8555L20.875 21.46V21.1523L20.9043 20.7422L20.9629 20.3467L21.0508 19.9658L21.168 19.585L21.2852 19.2773L21.5049 18.8232L21.6807 18.5303L21.8564 18.2666L22.0029 18.0762L22.1787 17.8711L22.3398 17.6953L22.5889 17.4463L22.9111 17.1826L23.1602 17.0068L23.4385 16.8311L23.8193 16.626L24.2295 16.4502L24.6396 16.3184L25.0791 16.2158L25.4746 16.1572L25.8555 16.1279ZM25.9287 18.501L25.8115 18.5449L25.6797 18.6621L25.6064 18.8086L25.5918 18.8525V19.0576L25.6504 19.1895L25.7383 19.3066L25.8555 19.3799L25.958 19.4092L27.9062 19.4238L27.9209 19.4531V22.2363H27.2031L24.3613 22.251L24.4639 22.1338L24.9619 21.6357L25.0498 21.5039L25.0938 21.3867V21.2402L25.0498 21.0938L24.9619 20.9766L24.874 20.9033L24.7422 20.8447H24.5371L24.3906 20.9033L24.2441 21.0352L22.8672 22.4121L22.7939 22.5586L22.7793 22.6025V22.8076L22.8379 22.9395L22.9258 23.0566L24.3174 24.4482L24.4492 24.5361L24.5371 24.5654H24.7568L24.8887 24.5068L25.0059 24.4043L25.0645 24.3164L25.1084 24.1699V24.0674L25.0645 23.9209L24.9766 23.7891L24.376 23.1885L24.3613 23.1592H28.4775L28.624 23.1006L28.7412 22.998L28.7998 22.9248L28.8438 22.793V18.8525L28.7852 18.7061L28.668 18.5742L28.5508 18.5156L28.5068 18.501H25.9287Z" fill="#6084FE"/>
<path d="M19.4102 3.00293L19.7617 3.01758L20.0254 3.06152L20.2598 3.13477L20.5088 3.2373L20.7725 3.38379L20.9629 3.53027L21.1094 3.66211L21.2998 3.85254L21.4756 4.10156L21.6221 4.36523L21.7246 4.62891L21.7832 4.84863L21.8271 5.1416L21.8418 5.81543L21.8711 5.99121L21.959 6.1377L22.1055 6.24023L22.208 6.26953L25.46 6.28418L25.6943 6.29883L25.8115 6.34277L25.958 6.47461L26.0312 6.60645L26.0459 6.66504V6.88477L25.9727 7.03125L25.8701 7.14844L25.7236 7.22168L25.6504 7.23633L24.7129 7.25098H22.8232L22.1201 7.23633L21.8125 7.16309L21.5635 7.0459L21.3877 6.91406L21.2559 6.79688L21.1094 6.60645L21.0068 6.43066L20.9189 6.18164L20.8896 6.03516L20.875 5.87402L20.8604 5.21484L20.8164 4.98047L20.7432 4.77539L20.6406 4.58496L20.4941 4.39453L20.3477 4.2627L20.084 4.10156L19.8936 4.02832L19.7031 3.98438H19.2783L19.0732 4.02832L18.8535 4.11621L18.6631 4.2334L18.502 4.36523L18.3994 4.48242L18.2676 4.6875L18.165 4.90723L18.1211 5.08301L18.0918 5.37598V6.73828L18.0479 6.78223H17.1689L17.125 6.73828V5.27344L17.1543 4.98047L17.2275 4.67285L17.3301 4.39453L17.4619 4.14551L17.5791 3.96973L17.7109 3.80859L17.8721 3.63281L18.0479 3.48633L18.3115 3.31055L18.5459 3.19336L18.8242 3.09082L19.0879 3.03223L19.4102 3.00293Z" fill="#6084FE"/>
<path d="M13.7998 18.4717H20.6553L20.626 18.5449L20.4502 18.9258L20.3184 19.2627L20.2598 19.4092L20.2305 19.4385H13.917L13.7559 19.4238L13.6094 19.3652L13.4775 19.248L13.3896 19.0723L13.375 18.9258L13.4189 18.75L13.5215 18.6035L13.6826 18.501L13.7998 18.4717Z" fill="#6084FE"/>
<path d="M16.627 7.22168H18.458L18.6631 7.23633L18.7803 7.28027L18.9268 7.41211L19 7.55859L19.0146 7.60254L19.0293 8.14453L18.9854 8.18848H16.2314L16.1875 8.14453V7.67578L16.2314 7.5L16.3193 7.36816L16.4658 7.26562L16.5391 7.23633L16.627 7.22168Z" fill="#6084FE"/>
<path d="M6.28516 14.6484H8.29199L8.43848 14.6924L8.55566 14.7803L8.64355 14.8828L8.70215 15.0146V15.249L8.61426 15.4248L8.48242 15.542L8.33594 15.6006L8.21875 15.6152H6.34375L6.19727 15.5859L6.05078 15.498L5.94824 15.3809L5.88965 15.249L5.875 15.1025L5.9043 14.9707L5.96289 14.8535L6.03613 14.7656L6.18262 14.6777L6.28516 14.6484Z" fill="#6084FE"/>
<path d="M26.8955 14.6484H28.917L29.0635 14.6924L29.1807 14.7803L29.2686 14.8828L29.3271 15.0146V15.249L29.2393 15.4248L29.1074 15.542L28.9463 15.6006L28.8438 15.6152H28.4043L28.1553 15.5273L27.7158 15.3809L27.3057 15.2783L26.8516 15.2051L26.5293 15.1611L26.5 15.1318L26.5293 14.9707L26.6025 14.8389L26.6611 14.7656L26.8076 14.6777L26.8955 14.6484Z" fill="#6084FE"/>
<path d="M23.1748 14.6484H23.2773L23.4385 14.6924L23.5557 14.7803L23.6436 14.8828L23.7021 15.0146V15.249L23.6143 15.4248L23.4824 15.542L23.3359 15.6006L23.2041 15.6152L23.0723 15.5859L22.9404 15.5127L22.8232 15.3809L22.7646 15.249L22.75 15.1025L22.7939 14.9268L22.8965 14.7803L23.0283 14.6924L23.1748 14.6484Z" fill="#6084FE"/>
<path d="M11.9248 14.6484H12.0273L12.1885 14.6924L12.3057 14.7803L12.3936 14.8828L12.4521 15.0146V15.249L12.3643 15.4248L12.2324 15.542L12.0859 15.6006L11.9541 15.6152L11.8223 15.5859L11.6904 15.5127L11.5732 15.3809L11.5146 15.249L11.5 15.1025L11.5439 14.9268L11.6465 14.7803L11.7783 14.6924L11.9248 14.6484Z" fill="#6084FE"/>
<path d="M10.0498 18.4717H10.1523L10.3135 18.5156L10.4307 18.6035L10.5186 18.7061L10.5771 18.8379V19.0723L10.4893 19.248L10.3574 19.3652L10.2109 19.4238L10.0791 19.4385L9.94727 19.4092L9.81543 19.3359L9.69824 19.2041L9.63965 19.0723L9.625 18.9258L9.66895 18.75L9.77148 18.6035L9.90332 18.5156L10.0498 18.4717Z" fill="#6084FE"/>
<path d="M15.6748 14.6484H15.7773L15.9385 14.6924L16.0557 14.7803L16.1436 14.8828L16.2021 15.0146V15.249L16.1143 15.4248L15.9824 15.542L15.8359 15.6006L15.7041 15.6152L15.5723 15.5859L15.4404 15.5127L15.3232 15.3809L15.2646 15.249L15.25 15.1025L15.2939 14.9268L15.3965 14.7803L15.5283 14.6924L15.6748 14.6484Z" fill="#6084FE"/>
<path d="M25.0498 10.9717H25.1523L25.3135 11.0156L25.4307 11.1035L25.5186 11.2061L25.5771 11.3379V11.5723L25.4893 11.748L25.3574 11.8652L25.2109 11.9238L25.0791 11.9385L24.9473 11.9092L24.8154 11.8359L24.6982 11.7041L24.6396 11.5723L24.625 11.4258L24.6689 11.25L24.7715 11.1035L24.9326 11.001L25.0498 10.9717Z" fill="#6084FE"/>
<path d="M21.2998 10.9717H21.4023L21.5635 11.0156L21.6807 11.1035L21.7686 11.2061L21.8271 11.3379V11.5723L21.7393 11.748L21.6074 11.8652L21.4609 11.9238L21.3291 11.9385L21.1973 11.9092L21.0654 11.8359L20.9482 11.7041L20.8896 11.5723L20.875 11.4258L20.9189 11.25L21.0215 11.1035L21.1826 11.001L21.2998 10.9717Z" fill="#6084FE"/>
<path d="M17.5498 10.9717H17.6523L17.8135 11.0156L17.9307 11.1035L18.0186 11.2061L18.0771 11.3379V11.5723L17.9893 11.748L17.8574 11.8652L17.7109 11.9238L17.5791 11.9385L17.4473 11.9092L17.3154 11.8359L17.1982 11.7041L17.1396 11.5723L17.125 11.4258L17.1689 11.25L17.2715 11.1035L17.4326 11.001L17.5498 10.9717Z" fill="#6084FE"/>
<path d="M10.0498 10.9717H10.1523L10.3135 11.0156L10.4307 11.1035L10.5186 11.2061L10.5771 11.3379V11.5723L10.4893 11.748L10.3574 11.8652L10.2109 11.9238L10.0791 11.9385L9.94727 11.9092L9.81543 11.8359L9.69824 11.7041L9.63965 11.5723L9.625 11.4258L9.66895 11.25L9.77148 11.1035L9.93262 11.001L10.0498 10.9717Z" fill="#6084FE"/>
<path d="M6.2998 10.9717H6.40234L6.56348 11.0156L6.68066 11.1035L6.76855 11.2061L6.82715 11.3379V11.5723L6.73926 11.748L6.60742 11.8652L6.46094 11.9238L6.3291 11.9385L6.19727 11.9092L6.06543 11.8359L5.94824 11.7041L5.88965 11.5723L5.875 11.4258L5.91895 11.25L6.02148 11.1035L6.18262 11.001L6.2998 10.9717Z" fill="#6084FE"/>
<path d="M6.2998 18.4717H6.40234L6.56348 18.5156L6.68066 18.6035L6.76855 18.7061L6.82715 18.8379V19.0723L6.73926 19.248L6.60742 19.3652L6.46094 19.4238L6.3291 19.4385L6.16797 19.3945L6.05078 19.3213L5.94824 19.2041L5.88965 19.0723L5.875 18.9258L5.91895 18.75L6.02148 18.6035L6.18262 18.501L6.2998 18.4717Z" fill="#6084FE"/>
<path d="M19.4248 14.6484H19.5273L19.6885 14.6924L19.8057 14.7803L19.8936 14.8828L19.9521 15.0146V15.249L19.8643 15.4248L19.7324 15.542L19.5859 15.6006L19.4541 15.6152L19.3223 15.5859L19.1904 15.5127L19.0732 15.3809L19.0146 15.249L19 15.1025L19.0439 14.9268L19.1465 14.7803L19.3076 14.6777L19.4248 14.6484Z" fill="#6084FE"/>
<path d="M28.7998 10.9717H28.9023L29.0342 11.001L29.166 11.0889L29.2686 11.2061L29.3271 11.3379V11.5723L29.2393 11.748L29.1074 11.8652L28.9609 11.9238L28.8291 11.9385L28.668 11.8945L28.5508 11.8213L28.4482 11.7041L28.3896 11.5723L28.375 11.4258L28.4189 11.25L28.5215 11.1035L28.6826 11.001L28.7998 10.9717Z" fill="#6084FE"/>
</g>
<defs>
<filter id="filter0_d_186_81" x="-1.3916" y="0" width="38" height="38" filterUnits="userSpaceOnUse" color-interpolation-filters="sRGB">
<feFlood flood-opacity="0" result="BackgroundImageFix"/>
<feColorMatrix in="SourceAlpha" type="matrix" values="0 0 0 0 0 0 0 0 0 0 0 0 0 0 0 0 0 0 127 0" result="hardAlpha"/>
<feOffset dy="4"/>
<feGaussianBlur stdDeviation="2"/>
<feComposite in2="hardAlpha" operator="out"/>
<feColorMatrix type="matrix" values="0 0 0 0 0 0 0 0 0 0 0 0 0 0 0 0 0 0 0.25 0"/>
<feBlend mode="normal" in2="BackgroundImageFix" result="effect1_dropShadow_186_81"/>
<feBlend mode="normal" in="SourceGraphic" in2="effect1_dropShadow_186_81" result="shape"/>
</filter>
</defs>
</svg>
