<svg width="29" height="29" viewBox="0 0 29 29" fill="none" xmlns="http://www.w3.org/2000/svg">
<g clip-path="url(#clip0_291_38)">
<path d="M11.3283 3.88213e-05C11.6864 0.246513 11.9264 0.574381 12.1709 0.927529C12.6981 1.66195 13.2582 2.22455 14.1816 2.41081C14.8243 2.48546 15.4018 2.30835 15.9162 1.92582C15.9572 1.89581 15.9982 1.8658 16.0404 1.83489C16.408 1.53693 16.6698 1.1612 16.9466 0.781945C17.4894 0.0396898 17.4894 0.0396898 17.797 -0.0270784C18.4183 -0.0614267 18.9428 0.213518 19.4988 0.456704C19.5998 0.499848 19.7009 0.542883 19.8021 0.585805C19.9997 0.669893 20.1969 0.755094 20.3936 0.841268C20.5746 0.920421 20.7563 0.996997 20.9394 1.07109C20.9807 1.08814 21.022 1.10518 21.0645 1.12274C21.1403 1.15401 21.2165 1.18461 21.293 1.21433C21.5657 1.32841 21.6957 1.46382 21.8635 1.69926C21.9995 2.10736 21.9025 2.54808 21.8352 2.96305C21.6986 3.87221 21.6849 4.72906 22.2381 5.50989C22.6091 5.97159 23.1046 6.2109 23.676 6.34379C23.8474 6.36059 24.0171 6.36253 24.1893 6.36149C24.2379 6.36154 24.2865 6.36159 24.3365 6.36164C24.7722 6.35618 25.1965 6.29962 25.6245 6.2194C25.9635 6.16219 26.2633 6.15842 26.5647 6.34379C26.8356 6.61469 26.9621 6.9144 27.103 7.26685C27.1374 7.35086 27.1374 7.35086 27.1725 7.43657C27.2454 7.61489 27.3175 7.79354 27.3895 7.97221C27.4381 8.09141 27.4867 8.21059 27.5354 8.32975C27.6456 8.59982 27.7555 8.87 27.8641 9.14072C27.905 9.24199 27.9466 9.34299 27.9888 9.44374C28.0093 9.49326 28.0299 9.54279 28.051 9.59382C28.0695 9.63774 28.088 9.68165 28.107 9.72689C28.206 10.0187 28.1983 10.2659 28.0657 10.5423C27.7916 10.8575 27.4743 11.1004 27.1383 11.3459C26.4665 11.839 25.947 12.3294 25.7352 13.1727C25.6203 13.9594 25.8596 14.5423 26.3032 15.1788C26.6575 15.6279 27.172 15.954 27.6393 16.2763C27.893 16.4521 28.0456 16.589 28.1506 16.8789C28.2116 17.2883 28.0854 17.6157 27.9252 17.9865C27.9019 18.0422 27.8787 18.0978 27.8548 18.1551C27.7808 18.3319 27.7055 18.5081 27.6302 18.6844C27.5807 18.8023 27.5312 18.9202 27.4819 19.0381C26.7483 20.7844 26.7483 20.7844 26.4656 20.963C26.1017 21.1077 25.6409 21.0262 25.2655 20.9571C24.5435 20.8357 23.6545 20.7584 22.9963 21.127C22.9514 21.1517 22.9065 21.1763 22.8602 21.2018C22.2778 21.5565 22.0013 22.0086 21.8069 22.6563C21.6866 23.2571 21.7625 23.8338 21.8597 24.432C21.9924 25.2708 21.9924 25.2708 21.8281 25.591C21.5692 25.9384 21.2071 26.0713 20.8165 26.2308C20.7657 26.2519 20.7149 26.2729 20.6626 26.2946C20.5559 26.3388 20.449 26.3828 20.3421 26.4266C20.178 26.4939 20.0142 26.5618 19.8503 26.6298C19.7464 26.6726 19.6425 26.7155 19.5386 26.7583C19.4894 26.7787 19.4403 26.799 19.3897 26.82C19.3443 26.8385 19.2989 26.8571 19.2521 26.8762C19.2121 26.8926 19.1722 26.909 19.131 26.9259C19.0315 26.961 19.0315 26.961 18.9182 26.961C18.8538 26.8323 18.8461 26.7408 18.8332 26.5977C18.8284 26.5451 18.8235 26.4925 18.8186 26.4384C18.8135 26.3805 18.8084 26.3227 18.8031 26.2631C18.7976 26.2023 18.7921 26.1415 18.7864 26.0789C18.7681 25.877 18.7501 25.6752 18.7321 25.4733C18.7195 25.3333 18.7069 25.1933 18.6943 25.0533C18.6644 24.7218 18.6348 24.3902 18.6052 24.0586C18.575 23.7196 18.5444 23.3807 18.5138 23.0418C18.4876 22.7525 18.4617 22.4632 18.4358 22.1739C18.4233 22.0351 18.4108 21.8962 18.3983 21.7574C18.3808 21.5631 18.3635 21.3688 18.3462 21.1745C18.341 21.1171 18.3358 21.0597 18.3305 21.0006C18.2792 20.418 18.2792 20.418 18.2951 20.2207C18.4239 20.1044 18.4239 20.1044 18.5996 20.0013C20.2821 18.9556 21.3427 17.3561 21.8635 15.4629C21.8744 15.4237 21.8853 15.3846 21.8965 15.3442C22.3753 13.5153 21.977 11.4231 21.0564 9.79488C20.3571 8.60859 19.1845 7.30106 17.842 6.85355C17.4953 6.82514 17.3256 6.84855 17.0491 7.08012C16.9063 7.24207 16.8578 7.34195 16.8565 7.55756C16.8558 7.60743 16.8551 7.65731 16.8544 7.70869C16.8545 7.76296 16.8546 7.81723 16.8546 7.87314C16.8541 7.93063 16.8535 7.98812 16.8529 8.04735C16.8512 8.23736 16.8507 8.42736 16.8501 8.61738C16.8492 8.74912 16.8482 8.88087 16.8471 9.01262C16.8444 9.35938 16.8427 9.70614 16.8412 10.0529C16.8395 10.4068 16.8369 10.7606 16.8343 11.1144C16.8294 11.8087 16.8256 12.503 16.8225 13.1973C16.6 13.3202 16.3775 13.443 16.1549 13.5658C16.0795 13.6075 16.0041 13.6491 15.9287 13.6907C15.8924 13.7108 15.856 13.7309 15.8186 13.7515C15.7824 13.7715 15.7462 13.7915 15.709 13.8121C15.6364 13.8521 15.5638 13.8919 15.4911 13.9316C15.3249 14.0224 15.1612 14.1149 14.9991 14.213C14.6027 14.449 14.6027 14.449 14.3717 14.4206C14.3206 14.3907 14.2696 14.3609 14.217 14.3301C14.1264 14.2844 14.1264 14.2844 14.0339 14.2377C13.9694 14.2017 13.9049 14.1658 13.8385 14.1288C13.8034 14.1094 13.7684 14.0899 13.7323 14.0699C13.6211 14.0082 13.5102 13.9462 13.3993 13.8841C13.3251 13.8428 13.2508 13.8016 13.1766 13.7604C12.9756 13.6487 12.7748 13.5366 12.5744 13.4239C12.4718 13.3818 12.4718 13.3818 12.3672 13.339C12.2378 13.264 12.1876 13.2277 12.142 13.0837C12.1287 12.9332 12.1285 12.7873 12.1322 12.6362C12.132 12.5508 12.132 12.5508 12.1318 12.4637C12.1317 12.3401 12.1325 12.2164 12.1342 12.0928C12.1368 11.8971 12.1371 11.7015 12.1367 11.5058C12.1365 11.1608 12.1384 10.8159 12.141 10.4709C12.1451 9.91912 12.1474 9.36739 12.147 8.81561C12.1474 8.62287 12.1496 8.43021 12.1519 8.23749C12.1521 8.11913 12.1523 8.00077 12.1524 7.88241C12.1535 7.8289 12.1546 7.7754 12.1557 7.72027C12.1543 7.47058 12.1454 7.30351 11.9842 7.10564C11.7801 6.91175 11.6892 6.86445 11.4098 6.82523C11.0739 6.83456 10.8138 7.02171 10.5354 7.1934C10.4609 7.23644 10.4609 7.23644 10.3849 7.28035C8.77682 8.24285 7.64643 9.88789 7.18473 11.691C6.67015 13.7891 6.99647 15.8595 8.0815 17.7197C8.68988 18.7105 9.56243 19.4895 10.5354 20.1075C10.5915 20.1448 10.6475 20.1822 10.7053 20.2207C10.7119 20.3711 10.7077 20.5059 10.6948 20.6549C10.6916 20.7 10.6883 20.7451 10.685 20.7916C10.6739 20.9412 10.6614 21.0907 10.6487 21.2403C10.6445 21.2907 10.6404 21.3411 10.6362 21.393C10.6043 21.7831 10.5692 22.1728 10.5336 22.5625C10.5224 22.6865 10.5112 22.8105 10.5 22.9345C10.4767 23.1919 10.4532 23.4493 10.4297 23.7067C10.3995 24.0371 10.3697 24.3675 10.34 24.6979C10.317 24.9528 10.2939 25.2077 10.2706 25.4626C10.2595 25.5845 10.2485 25.7065 10.2376 25.8284C10.2223 25.9977 10.2068 26.167 10.1912 26.3363C10.1867 26.3867 10.1823 26.4371 10.1777 26.4891C10.1454 26.8348 10.1454 26.8348 10.0823 26.961C9.58736 26.8021 9.10972 26.6091 8.63001 26.4097C8.5312 26.3688 8.43223 26.3284 8.33309 26.2883C8.18857 26.2299 8.04461 26.1702 7.90071 26.1103C7.83468 26.084 7.83468 26.084 7.76731 26.0571C7.47581 25.9335 7.31782 25.8065 7.13694 25.545C7.00091 25.1369 7.09795 24.6961 7.16526 24.2812C7.30093 23.3781 7.30748 22.5489 6.7971 21.75C6.44342 21.2973 5.93288 21.0346 5.38108 20.9004C5.17742 20.879 4.9768 20.8789 4.7722 20.8827C4.71733 20.8832 4.66247 20.8837 4.60594 20.8842C4.25244 20.8901 3.9145 20.9246 3.56637 20.9876C3.18903 21.0463 2.81482 21.0806 2.46055 20.9252C2.16185 20.6265 2.01758 20.2237 1.85875 19.8391C1.82609 19.7608 1.82609 19.7608 1.79277 19.681C1.72366 19.5153 1.65491 19.3494 1.58616 19.1835C1.54002 19.0728 1.49385 18.962 1.44766 18.8513C1.22425 18.315 1.22425 18.315 1.13456 18.0965C1.09421 17.9984 1.05342 17.9005 1.01226 17.8028C0.991735 17.7532 0.97121 17.7037 0.950062 17.6526C0.931503 17.6083 0.912944 17.564 0.893822 17.5184C0.791483 17.2167 0.805987 16.9793 0.932362 16.69C1.09457 16.4206 1.34222 16.2653 1.59678 16.0895C1.69417 16.0198 1.79145 15.9498 1.88861 15.8798C1.93468 15.8467 1.98074 15.8137 2.0282 15.7797C2.65491 15.3253 3.15291 14.7157 3.28538 13.9336C3.3459 13.1759 3.10559 12.5511 2.62693 11.9689C2.33389 11.6516 1.98671 11.4089 1.63304 11.1631C1.32203 10.9441 1.0234 10.7124 0.849834 10.3653C0.807368 9.99126 0.884191 9.70055 1.03215 9.36034C1.05119 9.31459 1.07023 9.26883 1.08984 9.22169C1.1506 9.07623 1.21259 8.93133 1.27464 8.78642C1.31455 8.69146 1.35437 8.59647 1.39412 8.50144C1.47361 8.31164 1.55404 8.12226 1.63506 7.9331C1.71815 7.73827 1.79782 7.54245 1.87534 7.34534C1.89485 7.2966 1.91437 7.24786 1.93448 7.19764C1.97133 7.10537 2.00747 7.0128 2.04271 6.9199C2.17636 6.589 2.33298 6.39275 2.66195 6.23197C2.97607 6.15677 3.23971 6.19322 3.55442 6.25175C4.50582 6.40591 5.42869 6.48294 6.28025 5.95792C6.87075 5.53187 7.12783 4.95317 7.25022 4.24809C7.30197 3.76486 7.21805 3.28847 7.14079 2.81217C6.99702 1.90478 6.99702 1.90478 7.25022 1.52934C7.47712 1.31977 7.71638 1.21147 7.99806 1.09634C8.04315 1.07749 8.08824 1.05864 8.13469 1.03921C8.27866 0.979131 8.42288 0.919692 8.56712 0.860268C8.66139 0.821038 8.75564 0.781766 8.84988 0.742451C9.03659 0.664641 9.22349 0.587322 9.41055 0.510358C9.59334 0.435068 9.77553 0.358537 9.95734 0.280919C10.0006 0.26263 10.0438 0.244342 10.0884 0.225499C10.1693 0.191282 10.25 0.156731 10.3305 0.121772C10.651 -0.0129409 10.9896 -0.112092 11.3283 3.88213e-05Z" fill="#829DD3"/>
<path d="M10.4783 9.17578C10.497 9.17578 10.5157 9.17578 10.5349 9.17578C10.5352 9.23154 10.5356 9.2873 10.5359 9.34476C10.5392 9.87142 10.5433 10.3981 10.5483 10.9247C10.5508 11.1954 10.553 11.4662 10.5545 11.7369C10.556 11.9984 10.5583 12.2599 10.5612 12.5213C10.5621 12.6209 10.5627 12.7204 10.5631 12.82C10.5636 12.9599 10.5652 13.0997 10.5671 13.2396C10.567 13.2804 10.5669 13.3211 10.5668 13.3631C10.5732 13.71 10.6383 14.0383 10.8932 14.2904C11.0505 14.3904 11.2083 14.4822 11.3735 14.5688C11.4375 14.6027 11.5015 14.6365 11.5675 14.6714C11.6011 14.6891 11.6348 14.7067 11.6695 14.7249C11.8475 14.8183 12.025 14.9125 12.2025 15.0069C12.2384 15.026 12.2743 15.0451 12.3113 15.0647C12.7174 15.2813 13.1172 15.5089 13.5157 15.739C13.6542 15.8184 13.7933 15.8961 13.9334 15.9727C13.9683 15.9924 14.0032 16.0122 14.0392 16.0325C14.3175 16.1737 14.5471 16.1714 14.8396 16.0859C15.1021 15.9707 15.351 15.8333 15.6007 15.693C15.6714 15.6541 15.7422 15.6152 15.813 15.5764C15.9532 15.4994 16.0931 15.4219 16.2328 15.3439C16.3988 15.2512 16.5652 15.1593 16.732 15.068C16.9706 14.9369 17.2081 14.804 17.4451 14.6699C17.4798 14.6504 17.5146 14.6308 17.5504 14.6107C18.0532 14.3638 18.0532 14.3638 18.3548 13.9279C18.4165 13.7017 18.4253 13.4795 18.426 13.2461C18.4266 13.2018 18.4272 13.1576 18.4277 13.112C18.4295 12.967 18.4305 12.8221 18.4314 12.6771C18.4325 12.5761 18.4336 12.4751 18.4347 12.374C18.4376 12.1091 18.4399 11.8442 18.442 11.5793C18.4443 11.3086 18.4472 11.0379 18.45 10.7671C18.4555 10.2367 18.4603 9.70624 18.4646 9.17578C18.5282 9.22989 18.5917 9.28407 18.6552 9.33828C18.6906 9.36844 18.726 9.3986 18.7625 9.42968C19.1934 9.8052 19.4864 10.2689 19.7673 10.7617C19.7942 10.8083 19.8211 10.8549 19.8488 10.9029C20.5364 12.1793 20.6806 13.8549 20.2917 15.2403C19.7897 16.8544 18.8387 18.0566 17.3884 18.918C17.2547 18.9857 17.1218 19.0528 16.9844 19.1129C16.8081 19.2601 16.7199 19.4394 16.6521 19.6543C16.6368 19.8964 16.6606 20.1315 16.6854 20.3724C16.6915 20.442 16.6975 20.5115 16.7038 20.5832C16.7168 20.7295 16.7303 20.8758 16.7444 21.022C16.7644 21.2297 16.7828 21.4374 16.8006 21.6454C16.8301 21.9883 16.8612 22.3311 16.8927 22.6738C16.9134 22.8977 16.9338 23.1216 16.9542 23.3455C17.0046 23.8998 17.0554 24.4541 17.1062 25.0084C17.1461 25.4433 17.1859 25.8783 17.2254 26.3132C17.2488 26.5709 17.2726 26.8285 17.2963 27.0862C17.3086 27.2207 17.3208 27.3552 17.333 27.4898C17.3387 27.5503 17.3443 27.6108 17.3502 27.6731C17.4348 28.6143 17.4348 28.6143 17.1619 28.9434C16.9777 29.0355 16.7748 29.0099 16.5723 29.0109C16.523 29.0114 16.4737 29.0119 16.4229 29.0123C16.2594 29.0137 16.0959 29.0147 15.9324 29.0155C15.8766 29.0158 15.8208 29.0161 15.7633 29.0164C15.4681 29.0179 15.1729 29.019 14.8776 29.0198C14.5725 29.0208 14.2674 29.0233 13.9623 29.0262C13.7278 29.0281 13.4934 29.0288 13.2589 29.0291C13.1464 29.0295 13.034 29.0303 12.9215 29.0317C12.764 29.0335 12.6067 29.0335 12.4492 29.0331C12.4028 29.034 12.3563 29.0349 12.3084 29.0359C12.0653 29.0332 11.978 29.0218 11.7817 28.8634C11.5992 28.6287 11.6082 28.4813 11.6262 28.1949C11.6289 28.1505 11.6315 28.1061 11.6343 28.0603C11.6787 27.3639 11.7466 26.6692 11.8107 25.9744C11.8298 25.7674 11.8486 25.5604 11.8674 25.3534C11.9232 24.7404 11.9794 24.1275 12.0356 23.5146C12.0795 23.0359 12.1233 22.5573 12.1669 22.0786C12.1892 21.8333 12.2117 21.5879 12.2344 21.3426C12.245 21.2269 12.2556 21.1112 12.2661 20.9955C12.2789 20.8549 12.2918 20.7144 12.3049 20.5739C12.3952 19.9086 12.3952 19.9086 12.2001 19.2912C12.0491 19.1197 11.8571 19.0234 11.6571 18.918C11.5699 18.8693 11.4829 18.8204 11.396 18.7713C11.3546 18.7479 11.3132 18.7246 11.2705 18.7005C11.0442 18.5683 10.846 18.409 10.6482 18.2383C10.6039 18.2021 10.5596 18.1659 10.5139 18.1285C9.42303 17.2027 8.73068 15.8604 8.55249 14.4434C8.49283 13.5447 8.49795 12.6428 8.77906 11.7812C8.79059 11.745 8.80213 11.7087 8.81401 11.6714C9.14223 10.6756 9.74669 9.90737 10.4783 9.17578Z" fill="#829DD3"/>
</g>
<defs>
<clipPath id="clip0_291_38">
<rect width="29" height="29" fill="white"/>
</clipPath>
</defs>
</svg>
