<svg width="30" height="30" viewBox="0 0 30 30" fill="none" xmlns="http://www.w3.org/2000/svg">
<path d="M20.8594 10.8984H26.748L27.4805 10.9131L27.4951 10.9277V22.9688L27.4805 23.2031L27.4219 23.4668L27.334 23.6865L27.2754 23.8037L27.1729 23.9648L27.041 24.1113L26.9678 24.1992L26.7188 24.3896L26.4844 24.5068L26.2354 24.5947L25.9863 24.6387L25.6055 24.6533H22.8955L22.8369 24.624L22.8223 20.2295L22.793 19.9219L22.7344 19.6289L22.6465 19.3359L22.5293 19.0723L22.3828 18.7939L22.251 18.6035L22.1045 18.4131L21.9434 18.2373L21.8262 18.1348L21.6064 17.959L21.3721 17.8125L21.0352 17.6367L20.7129 17.5195L20.4785 17.4609L20.1855 17.417L19.9951 17.4023L16.4062 17.3877H11.748L10.1807 17.4023L9.7998 17.4463L9.44824 17.5342L9.14062 17.6514L8.80371 17.8271L8.56934 17.9883L8.4082 18.1201L8.21777 18.2959L8.04199 18.4863L7.93945 18.6328L7.79297 18.8525L7.63184 19.1602L7.51465 19.4824L7.45605 19.6875L7.39746 20.0391L7.38281 20.2734L7.36816 24.624L7.35352 24.6387H3.98438L3.69141 24.5801L3.45703 24.4922L3.22266 24.3604L3.06152 24.2285L2.94434 24.126L2.7832 23.9209L2.66602 23.7305L2.56348 23.4961L2.50488 23.2617L2.49023 23.1445L2.47559 22.8662V10.9131L20.8594 10.8984ZM5.08301 11.8213L4.7168 11.8359L4.52637 11.8945L4.37988 11.9971L4.27734 12.0996L4.1748 12.2754L4.14551 12.3926L4.13086 12.9053V14.0918L4.14551 14.4141L4.18945 14.5605L4.29199 14.7363L4.43848 14.8682L4.62891 14.9561L4.81934 14.9854H8.68652L8.87695 14.9561L9.02344 14.8975L9.15527 14.7949L9.27246 14.6631L9.3457 14.502L9.375 14.3555V12.4658L9.3457 12.3193L9.24316 12.1143L9.14062 11.9971L8.97949 11.8945L8.78906 11.8359L7.71973 11.8213H5.08301ZM20.3906 11.8652L20.127 11.8945L19.8779 11.9678L19.6436 12.085L19.4824 12.2021L19.292 12.3926L19.1602 12.5977L19.043 12.8467L18.9697 13.1543L18.9551 13.2861V13.5205L18.9844 13.7402L19.0576 14.0039L19.1748 14.2383L19.2773 14.3994L19.4531 14.5898L19.6143 14.707L19.8633 14.8389L20.127 14.9121L20.332 14.9414H20.6689L20.918 14.8975L21.1377 14.8242L21.3574 14.707L21.4893 14.6045L21.6211 14.4873L21.7676 14.2969L21.8848 14.0625L21.9434 13.9014L22.002 13.6377L22.0166 13.3594L21.9873 13.0811L21.9141 12.8174L21.7822 12.5391L21.6504 12.3633L21.5625 12.2607L21.3574 12.0996L21.123 11.9824L20.9033 11.9092L20.7568 11.8799L20.5811 11.8652H20.3906ZM24.3604 11.8652L24.1113 11.8945L23.8916 11.9531L23.6865 12.041L23.5107 12.1582L23.335 12.3193L23.2178 12.4512L23.0859 12.6855L22.998 12.9053L22.9541 13.0811L22.9248 13.3594L22.9395 13.623L22.9834 13.8574L23.0859 14.1357L23.2178 14.3555L23.3789 14.5459L23.584 14.707L23.8184 14.8242L23.9795 14.8828L24.1699 14.9268L24.3018 14.9414H24.6387L24.9023 14.8975L25.1367 14.8096L25.3564 14.6924L25.5176 14.5605L25.6201 14.458L25.7373 14.2969L25.8691 14.0479L25.9424 13.8135L25.9717 13.6523L25.9863 13.4912V13.3301L25.957 13.0811L25.8984 12.8613L25.8105 12.6416L25.6641 12.4072L25.5176 12.2461L25.3711 12.1289L25.166 12.0117L24.9316 11.9238L24.7266 11.8799L24.5654 11.8652H24.3604Z" fill="#6084FE"/>
<path d="M23.9209 0H24.3164L24.3604 0.0439453L24.4922 0.131836L24.5947 0.234375L24.6826 0.380859L24.7266 0.512695L24.7412 0.644531L24.7119 0.864258L24.6533 0.981445L24.5215 1.12793L24.375 1.21582L24.0674 1.34766L23.3496 1.64062L21.7676 2.28516L21.2256 2.50488L19.2773 3.2959L17.5781 3.98438L17.1387 4.16016L16.5674 4.39453L13.7549 5.52246L13.0078 5.81543L12.4951 6.02051L12.085 6.18164L11.4111 6.44531L10.6934 6.72363L10.3125 6.87012L10.3711 7.0166H11.1182L12.8613 7.03125H25.708L26.0303 7.0459L26.2646 7.08984L26.543 7.19238L26.7627 7.32422L26.9092 7.44141L27.0557 7.57324L27.2168 7.77832L27.3047 7.9248L27.4072 8.15918L27.4658 8.37891L27.4951 8.70117V10.1953L27.4805 10.21L22.9834 10.2246H2.54883L2.47559 10.21V5.37598L2.50488 5.15625L2.59277 4.98047L2.70996 4.84863L2.8418 4.76074L3.01758 4.70215H9.43359L9.62402 4.76074L9.77051 4.86328L9.8877 4.99512L9.94629 5.1123L9.97559 5.22949V5.44922L9.94629 5.61035L10.1807 5.52246L11.2061 5.1123L11.9238 4.81934L13.5059 4.18945L14.0039 3.98438L15.7617 3.28125L16.1572 3.12012L18.0908 2.34375L20.6104 1.33301L21.0059 1.17188L22.8369 0.439453L23.3789 0.219727L23.8184 0.0439453L23.9209 0Z" fill="#6084FE"/>
<path d="M8.05664 21.2549H22.1631L22.1777 21.3721V24.6094L22.1338 24.6533L21.8555 24.6387V29.1064L21.8262 29.3408L21.7383 29.5605L21.6064 29.7217L21.4746 29.8389L21.2988 29.9414L21.1523 30H9.27246L9.03809 29.8828L8.9209 29.7949L8.84766 29.7217L8.74512 29.6045L8.65723 29.4287L8.61328 29.2822L8.59863 29.1357V24.6533H8.08594L8.04199 24.6387V21.2695L8.05664 21.2549ZM10.7227 24.6387L10.5762 24.668L10.4736 24.7559L10.415 24.873L10.4004 24.9316V25.0488L10.4443 25.1807L10.5176 25.2686L10.6055 25.3125L10.6641 25.3271L11.7627 25.3418H18.5156L19.8047 25.3271L19.9512 25.2393L20.0244 25.1074L20.0391 24.9463L19.9951 24.8145L19.9072 24.6973L19.8193 24.6533L19.6582 24.6387H10.7227ZM10.7812 26.9238L10.6201 26.9385L10.5322 26.9824L10.4443 27.085L10.4004 27.2168V27.3193L10.4443 27.4512L10.5469 27.5537L10.6787 27.5977L12.7002 27.6123H18.7793L19.7754 27.5977L19.8926 27.5537L19.9951 27.4365L20.0391 27.3047L20.0244 27.1582L19.9658 27.041L19.8633 26.9531L19.8193 26.9385L19.4678 26.9238H10.7812Z" fill="#6084FE"/>
<path d="M10.1367 18.0615H12.3633L12.3779 18.0762L12.3926 18.4717L12.4365 18.7939L12.5098 18.9844L12.5977 19.1016L12.7002 19.1895L12.9053 19.2627L13.0078 19.2773H16.9336L17.124 19.248L17.3291 19.1455L17.4316 19.0576L17.5342 18.8965L17.5781 18.7207L17.5928 18.5596L17.6074 18.1934L17.6221 18.0615H20.0537L20.3467 18.1055L20.6104 18.1787L20.918 18.3105L21.1377 18.4424L21.3281 18.5889L21.5039 18.75L21.6211 18.8672L21.8115 19.1309L21.9434 19.3652L22.0605 19.6582L22.1191 19.8633L22.1631 20.1855L22.1777 20.5664L22.1631 20.5811H8.04199L8.02734 20.5078L8.04199 20.1855L8.08594 19.8926L8.14453 19.6729L8.23242 19.4385L8.39355 19.1309L8.56934 18.8965L8.70117 18.75L8.81836 18.6328L9.00879 18.4863L9.21387 18.3545L9.44824 18.2373L9.68262 18.1494L9.93164 18.0908L10.1367 18.0615Z" fill="#6084FE"/>
<path d="M4.83398 12.5244H8.68652V14.2822L8.65723 14.2969H4.84863L4.81934 14.2822V12.5391L4.83398 12.5244Z" fill="#6084FE"/>
<path d="M24.3311 12.5391H24.5801L24.7852 12.583L24.9756 12.6855L25.0781 12.7734L25.21 12.9639L25.2832 13.1396L25.3125 13.2715V13.5352L25.2686 13.7256L25.1807 13.9014L25.0928 14.0186L24.9902 14.1211L24.7559 14.2383L24.5508 14.2822H24.375L24.1553 14.2383L23.9502 14.1357L23.8037 14.0039L23.7012 13.8428L23.6279 13.667L23.5986 13.5205V13.3008L23.6572 13.0664L23.7451 12.8906L23.9062 12.7148L24.0674 12.6123L24.2285 12.5537L24.3311 12.5391Z" fill="#6084FE"/>
<path d="M20.3613 12.5391H20.6104L20.8154 12.583L20.9766 12.6709L21.123 12.8027L21.2109 12.9199L21.2988 13.0957L21.3428 13.3008V13.4912L21.3135 13.667L21.2549 13.8135L21.1523 13.9893L21.0498 14.0918L20.8887 14.1943L20.7275 14.2529L20.5811 14.2822H20.3906L20.1562 14.2236L19.9805 14.1357L19.834 14.0039L19.7168 13.8281L19.6436 13.623L19.6289 13.5498V13.2715L19.6875 13.0518L19.7754 12.8906L19.8779 12.7588L20.0391 12.6416L20.2148 12.5684L20.3613 12.5391Z" fill="#6084FE"/>
<path d="M13.0664 18.0615H16.9043L16.9189 18.0908L16.9336 18.5742L16.9043 18.6182H13.0811L13.0664 18.6035V18.0615Z" fill="#6084FE"/>
</svg>
