<svg width="30" height="30" viewBox="0 0 30 30" fill="none" xmlns="http://www.w3.org/2000/svg">
<path fill-rule="evenodd" clip-rule="evenodd" d="M15 0.455078C17.7091 0.485993 20.1566 1.15181 22.3423 2.45254C24.502 3.7273 26.2985 5.53481 27.5601 7.70221C28.8529 9.9011 29.5147 12.3634 29.5455 15.089C29.4687 18.8183 28.2925 22.0035 26.0167 24.6445C23.741 27.2856 20.8263 28.9195 17.8091 29.5459V19.0901H20.6617L21.3068 14.9812H16.9873V12.29C16.9634 11.7321 17.1398 11.184 17.4847 10.7449C17.8302 10.3045 18.4385 10.0731 19.3096 10.0506H21.918V6.45128C21.8806 6.43923 21.5254 6.39162 20.8526 6.30843C20.0896 6.21915 19.3222 6.17146 18.554 6.16558C16.8152 6.1736 15.4401 6.66407 14.4286 7.63699C13.4171 8.60964 12.9004 10.0169 12.8785 11.8586V14.9812H9.59136V19.0901H12.8785V29.5459C9.17372 28.9195 6.25905 27.2856 3.98331 24.6445C1.70758 22.0035 0.531379 18.8183 0.45459 15.089C0.485313 12.3632 1.14711 9.90098 2.43998 7.70221C3.70157 5.53481 5.4981 3.72731 7.65778 2.45254C9.84345 1.15206 12.2909 0.486243 15 0.455078Z" fill="white"/>
</svg>
