<svg width="30" height="30" viewBox="0 0 30 30" fill="none" xmlns="http://www.w3.org/2000/svg">
<path d="M16.8467 0H24.8558L24.896 0.0195312L24.8558 0.0976562L24.6953 0.292969L24.4343 0.625L24.2135 0.898438L24.0529 1.11328L23.8321 1.38672L23.5511 1.73828L23.1496 2.24609L22.8686 2.59766L22.2664 3.35938L22.0456 3.63281L21.885 3.84766L21.6241 4.16016L21.3832 4.47266L21.1022 4.82422L20.9015 5.07812L20.6807 5.35156L20.5201 5.56641L20.2591 5.87891L20.0182 6.19141L19.4562 6.89453L19.2755 7.12891L19.0547 7.40234L18.7737 7.75391L18.3723 8.26172L18.0912 8.61328L17.8303 8.94531L17.5493 9.29688L17.3485 9.55078L17.0876 9.88281L17.0474 9.92188L19.2755 9.94141H26L25.9599 10.0195L25.8796 10.0977H25.8394V10.1367L25.6788 10.2734L25.4179 10.5078L25.1971 10.7227L25.0365 10.8594L24.896 10.9961H24.8558V11.0352L24.6953 11.1719L24.0328 11.7773L23.9325 11.8555L23.5712 12.207L23.4106 12.3438L22.7482 12.9492L22.4872 13.1836L22.2865 13.3789L22.1259 13.5156L21.4635 14.1211L21.2026 14.3555L21.062 14.4922L20.9015 14.6289L20.7409 14.7852L20.5803 14.9219L20.3996 15.0977L20.2391 15.2344L19.8978 15.5469L19.5766 15.8398L19.4964 15.918H19.4562V15.957L19.2956 16.0938L19.115 16.2695L18.9544 16.4062L18.6131 16.7188L18.292 17.0117L18.2117 17.0508V17.0898L18.0511 17.2266L17.8303 17.4414L17.6697 17.5781L17.0073 18.1836L16.927 18.2227V18.2617L16.7664 18.3984L16.6259 18.5352L16.4653 18.6719L16.2847 18.8477L16.1241 18.9844L15.9234 19.1797L15.7628 19.3164L15.6825 19.3945H15.6423V19.4336L15.4818 19.5703L15.3412 19.707L15.1807 19.8438L15 20.0195L14.8394 20.1562L14.6387 20.3516L14.4781 20.4883L14.3577 20.6055H14.3175V20.6445L14.1569 20.7812L13.4945 21.3867L13.354 21.5234L13.1934 21.6602L13.073 21.7773H13.0328V21.8164L12.8723 21.9531L12.5511 22.2461L12.4708 22.3242H12.4307V22.3633L12.2701 22.5L12.1095 22.6562L11.9489 22.793L11.8285 22.9102H11.7883V22.9492L11.6277 23.0859L11.4872 23.2227L11.1661 23.4961L10.865 23.7891L10.7044 23.9258L10.5839 24.043H10.5438V24.082L10.3832 24.2188L10.2026 24.3945L10.042 24.5312L9.70073 24.8438L9.37956 25.1367L9.07847 25.4102L8.93796 25.5469L8.77737 25.6836L8.63686 25.8203L8.47628 25.957L8.31569 26.1133L8.15511 26.25L8.05474 26.3477H8.0146V26.3867L7.85401 26.5234L7.7135 26.6602L7.55292 26.7969L7.35219 26.9922L7.19161 27.1289L7.07117 27.2461H7.03102V27.2852L6.87044 27.4219L6.20803 28.0273L5.94708 28.2617L5.60584 28.5742L5.00365 29.1211L4.7427 29.3555L4.40146 29.668L4.10036 29.9609L4 30L4.08029 29.8438L4.2208 29.6484L4.78285 28.8281L5.00365 28.4961L5.36496 27.9688L5.56569 27.6562L6.0073 27.0117L6.38869 26.4453L6.58942 26.1523L6.9708 25.5859L7.17153 25.293L7.51277 24.7852L8.0146 24.043L8.21533 23.75L8.43613 23.418L8.79745 22.8906L9.01825 22.5586L9.37956 22.0312L9.66058 21.6016L10.1423 20.8984L10.4033 20.5078L10.604 20.2148L11.0657 19.5312L11.5073 18.8867L11.708 18.5742L12.3102 17.6953L12.5712 17.3047L12.7719 17.0117L13.2336 16.3281L13.6752 15.6836L13.8759 15.3711L14.438 14.5508L14.6989 14.1602L14.719 14.1406L7.21168 14.1211L7.23175 14.0234L7.47263 13.6914L7.77372 13.2422L8.65693 11.9531L9.23905 11.0938L9.64051 10.5078L10.2226 9.64844L10.8047 8.80859L11.0657 8.41797L12.6314 6.13281L12.7719 5.91797L14.0566 4.04297L14.6387 3.18359L16.8066 0.0195312L16.8467 0Z" fill="#6084FE"/>
</svg>
