<svg width="30" height="30" viewBox="0 0 30 30" fill="none" xmlns="http://www.w3.org/2000/svg">
<path d="M4.55566 19.5264H29.1064L29.1211 19.541V28.0518L29.0479 28.1982L28.9746 28.2568L28.9014 28.2861H25.1074L25.0928 28.2715L25.0781 23.7598L25.0342 23.5547L24.9609 23.3936L24.8584 23.2178L24.7559 23.1006L24.5801 22.9688L24.375 22.8662L24.2139 22.8223L24.126 22.8076L22.0166 22.793H10.3711L9.53613 22.8076L9.30176 22.8662L9.06738 22.9834L8.9209 23.1006L8.78906 23.2617L8.68652 23.4375L8.61328 23.6572L8.59863 23.7598L8.58398 28.2715L8.56934 28.2861H4.77539L4.6875 28.2422L4.57031 28.1104L4.55566 28.0664L4.54102 27.8174V19.5703L4.55566 19.5264ZM22.9541 20.4199L22.8076 20.4932L22.7051 20.6104L22.6611 20.7275V20.9326L22.7344 21.0791L22.8516 21.1816L22.9834 21.2256H24.668L24.7998 21.167L24.917 21.0645L24.9756 20.9326L24.9902 20.7861L24.9463 20.6396L24.8877 20.5518L24.7852 20.4639L24.6826 20.4199H22.9541ZM26.0742 20.4199L25.9424 20.4785L25.8398 20.5811L25.7812 20.6982L25.7666 20.7715V20.8887L25.8105 21.0205L25.9424 21.167L26.0889 21.2256H27.7881L27.9199 21.167L27.9932 21.0938L28.0664 21.0059L28.0957 20.9033V20.7275L28.0078 20.5518L27.9053 20.4639L27.8027 20.4199H26.0742Z" fill="#6084FE"/>
<path d="M8.67188 1.93359H9.08203L9.55078 1.96289L10.0488 2.02148L10.5322 2.10938L11.001 2.22656L11.5283 2.40234L11.9385 2.56348L12.3193 2.73926L12.6416 2.91504L12.9199 3.07617L13.3154 3.33984L13.5938 3.54492L13.8281 3.73535L14.0332 3.91113L14.1357 4.01367L14.2529 4.11621L14.5312 4.39453L14.6338 4.51172L14.7656 4.6582L14.9268 4.86328L15.1025 5.08301L15.2637 5.31738L15.4102 5.53711L15.5859 5.83008L15.7324 6.09375L15.9082 6.44531L16.084 6.85547L16.2598 7.35352L16.4062 7.88086L16.4941 8.30566L16.5674 8.80371L16.6113 9.38965V10.0049L16.5674 10.5762L16.4941 11.0596L16.3916 11.5576L16.2451 12.0703L16.0986 12.4805L15.9668 12.8027L15.791 13.1689L15.6152 13.5059L15.4688 13.7549L15.3076 14.0039L15.1318 14.2529L14.9854 14.4434L14.7949 14.6777L14.6191 14.8828L14.3994 15.1172L14.1943 15.3223H14.165V15.3516L14.0479 15.4541L13.9014 15.5859L13.6963 15.7471L13.4766 15.9229L13.1396 16.1572L12.8613 16.333L12.627 16.4648L12.4219 16.582L12.085 16.7432L11.7773 16.875L11.3525 17.0361L10.8545 17.1826L10.415 17.2852L10.0928 17.3438L9.62402 17.4023L9.27246 17.4316H8.39355L7.80762 17.373L7.29492 17.2852L6.85547 17.1826L6.43066 17.0508L6.0498 16.9189L5.74219 16.7871L5.39062 16.626L5.1123 16.4795L4.7168 16.2451L4.49707 16.0986L4.24805 15.9229L4.04297 15.7617L3.85254 15.6006L3.73535 15.498L3.58887 15.3662L3.36914 15.1611L3.2373 15.0293L3.13477 14.9121L2.94434 14.707L2.7832 14.502L2.60742 14.2822L2.44629 14.0479L2.25586 13.7549L2.06543 13.4326L1.81641 12.9492L1.62598 12.4951L1.47949 12.085L1.34766 11.6309L1.24512 11.1768L1.17188 10.7227L1.12793 10.3271L1.11328 10.1221V9.22852L1.17188 8.64258L1.24512 8.20312L1.34766 7.74902L1.47949 7.29492L1.61133 6.91406L1.77246 6.5332L1.97754 6.1084L2.19727 5.71289L2.40234 5.39062L2.57812 5.1416L2.75391 4.90723L2.88574 4.74609L2.98828 4.61426H3.01758L3.04688 4.55566L3.22266 4.36523L3.3252 4.2627L3.33984 4.2334H3.36914V4.2041L3.48633 4.10156L3.67676 3.91113L3.83789 3.7793L4.02832 3.61816L4.32129 3.39844L4.57031 3.22266L4.84863 3.04688L5.15625 2.87109L5.55176 2.66602L5.91797 2.50488L6.26953 2.37305L6.62109 2.25586L7.00195 2.15332L7.5 2.05078L7.88086 1.99219L8.32031 1.94824L8.67188 1.93359ZM11.3525 4.46777L11.0742 4.51172L10.7666 4.59961L10.5469 4.6875L10.2832 4.83398L10.0488 5.00977L9.90234 5.1416L9.72656 5.31738L9.58008 5.50781L9.41895 5.77148L9.31641 5.99121L9.19922 6.34277L9.14062 6.67969V7.19238L9.15527 7.32422L9.05273 7.44141L8.81836 7.67578L8.75977 7.66113L7.5293 6.43066L7.51465 6.34277L7.4707 5.99121L7.41211 5.80078L7.32422 5.6543L7.20703 5.52246L7.0459 5.41992L6.69434 5.24414L6.35742 5.08301L5.99121 4.90723L5.58105 4.7168L5.41992 4.67285H5.18555L5.00977 4.7168L4.83398 4.80469L4.6582 4.96582L4.02832 5.5957L3.92578 5.75684L3.86719 5.90332L3.85254 5.96191V6.26953L3.92578 6.48926L4.14551 6.94336L4.30664 7.28027L4.48242 7.64648L4.59961 7.88086L4.70215 8.04199L4.83398 8.15918L4.98047 8.24707L5.12695 8.29102L5.41992 8.33496L5.56641 8.34961L5.6543 8.4082L6.84082 9.59473L6.85547 9.63867L6.51855 9.97559L6.45996 9.99023L6.26953 9.96094H5.94727L5.61035 10.0049L5.28809 10.0928L5.00977 10.21L4.77539 10.3418L4.54102 10.5176L4.39453 10.6494L4.2334 10.8105L4.08691 11.001L3.94043 11.2354L3.82324 11.4697L3.69141 11.8652L3.63281 12.2607V12.627L3.69141 13.0078L3.76465 13.2275L3.83789 13.3594L3.96973 13.5059L4.08691 13.5938L4.2334 13.667L4.35059 13.6963L4.51172 13.7109L4.7168 13.6816L4.86328 13.6377L4.96582 13.5791L4.86328 13.8135L4.84863 13.8867V14.1797L4.90723 14.3701L5.00977 14.5459L5.15625 14.6924L5.37598 14.8096L5.5957 14.8682L5.93262 14.9121H6.28418L6.5332 14.8828L6.84082 14.8096L7.0752 14.7217L7.32422 14.6045L7.48535 14.502L7.66113 14.3701L7.85156 14.209L7.9248 14.1357V14.1064L7.96875 14.0918L8.11523 13.9014L8.26172 13.6816L8.37891 13.4473L8.48145 13.1689L8.55469 12.8467L8.58398 12.5537V12.3633L8.56934 12.1729V12.041L8.67188 11.9238L8.73047 11.9092L11.0449 14.2236H11.0742V14.2529L11.2793 14.4141L11.4404 14.5166L11.7334 14.6338L11.9971 14.6924L12.2461 14.707L12.5244 14.6777L12.7588 14.6191L12.9932 14.5166L13.1689 14.4141L13.3154 14.2969L13.4326 14.1943V14.165H13.4619L13.6084 13.9746L13.7549 13.6963L13.8281 13.4766L13.8721 13.2129V12.8906L13.8281 12.6416L13.7549 12.4219L13.6377 12.1875L13.5352 12.041L13.418 11.8945H13.3887L13.3594 11.8359L11.0889 9.56543L11.1035 9.49219L11.1328 9.47754V9.44824H11.1621L11.2207 9.38965L11.3525 9.4043H11.8652L12.1436 9.36035L12.3633 9.30176L12.627 9.19922L12.9346 9.03809L13.1396 8.8916L13.3447 8.71582L13.4326 8.62793V8.59863H13.4619L13.623 8.39355L13.7695 8.17383L13.916 7.86621L14.0039 7.60254L14.0625 7.32422L14.0771 7.20703V6.67969L14.0186 6.34277L13.9453 6.12305L13.8428 5.96191L13.7109 5.83008L13.5352 5.72754L13.3301 5.66895H13.1104L12.9199 5.71289L12.7441 5.80078L12.8467 5.5957L12.876 5.44922V5.24414L12.832 5.05371L12.7441 4.87793L12.6123 4.73145L12.4805 4.62891L12.3193 4.55566L11.9824 4.48242L11.8359 4.46777H11.3525Z" fill="#6084FE"/>
<path d="M15.6152 14.9561L25.8252 14.9707L26.2061 15.0146L26.5723 15.1025L26.9092 15.2197L27.2754 15.3955L27.5977 15.6006L27.8467 15.791L28.0664 15.9961L28.2422 16.1719L28.4033 16.377L28.5498 16.582L28.6816 16.8018L28.7988 17.0361L28.916 17.3145L29.0186 17.6367L29.0918 18.0029L29.1211 18.3105L29.1357 18.6768L29.1211 18.7061L4.70215 18.7207L4.55566 18.7061V18.3252L4.58496 18.0176L4.6582 17.6514L4.76074 17.2998L4.80469 17.2266L5.08301 17.3584L5.39062 17.5049L5.81543 17.6807L6.24023 17.8271L6.69434 17.959L7.13379 18.0615L7.54395 18.1348L7.99805 18.1934L8.36426 18.2227L8.9502 18.2373L9.38965 18.2227L9.97559 18.1641L10.4443 18.0908L10.9717 17.9736L11.4258 17.8418L11.8213 17.71L12.29 17.5195L12.7588 17.2998L13.0957 17.1094L13.3301 16.9775L13.8135 16.6553L13.9893 16.5234L14.2383 16.333L14.6484 15.9814L14.8242 15.8057H14.8535V15.7764H14.8828V15.7471L14.9854 15.6592L15 15.6299H15.0293L15.0586 15.5713L15.1904 15.4395L15.293 15.3223L15.4541 15.1318L15.5859 14.9707L15.6152 14.9561Z" fill="#6084FE"/>
<path d="M16.582 5.99121H22.2217L22.4268 6.02051L22.5732 6.09375L22.7051 6.21094L22.793 6.34277L22.8369 6.47461L22.8516 6.67969V14.1211L22.8369 14.1504L16.7432 14.165H16.1719L16.1865 14.0918L16.3037 13.9014L16.5234 13.4912L16.7285 13.0518L16.875 12.6709L17.0508 12.1436L17.168 11.7188L17.2705 11.2354L17.3291 10.8545L17.373 10.4883L17.4023 10.0195V9.41895L17.373 8.9209L17.3145 8.4375L17.2559 8.07129L17.1533 7.61719L17.0068 7.08984L16.875 6.70898L16.6992 6.26953L16.582 6.00586V5.99121Z" fill="#6084FE"/>
<path d="M9.38965 25.9277H24.2725L24.2871 25.9424V28.2861H9.38965V25.9277Z" fill="#6084FE"/>
<path d="M9.62402 23.5986H24.0381L24.1553 23.6426L24.2578 23.7598L24.2871 23.833V25.1074L24.1992 25.1221H9.4043L9.38965 25.1074V23.833L9.44824 23.7158L9.55078 23.6279L9.62402 23.5986Z" fill="#6084FE"/>
<path d="M11.4258 5.27344H11.7773L11.9824 5.30273L12.0557 5.33203V5.37598L11.9092 5.50781L11.1914 6.22559V6.44531L11.25 7.19238V7.29492L12.0703 7.35352H12.3193L13.125 6.54785H13.1543L13.1836 6.48926H13.2275L13.2715 6.73828L13.2861 6.95801L13.2568 7.22168L13.1982 7.45605L13.125 7.66113L12.9639 7.9248L12.7881 8.12988L12.6416 8.26172L12.4365 8.39355L12.2168 8.49609L11.9824 8.56934L11.8359 8.59863L11.6748 8.61328H11.5283L11.2207 8.56934L11.001 8.49609L10.9424 8.51074L10.8691 8.58398L10.7959 8.67188L10.6934 8.75977L10.6201 8.84766L10.5176 8.93555L10.4443 9.02344L10.3418 9.11133L10.2686 9.19922L10.166 9.28711L10.0928 9.375L9.99023 9.46289L9.91699 9.55078L9.81445 9.63867L9.74121 9.72656L9.63867 9.81445L9.56543 9.90234L9.46289 9.99023L9.38965 10.0781L9.28711 10.166L9.21387 10.2539L9.11133 10.3418L9.03809 10.4297L8.93555 10.5176L8.8623 10.6055L8.75977 10.6934L8.68652 10.7812L8.58398 10.8691L8.51074 10.957L8.4082 11.0449L8.33496 11.1328L8.23242 11.2207L8.12988 11.3379L7.77832 11.6895H7.74902L7.71973 11.748H7.69043V11.7773H7.66113L7.74902 12.0996L7.77832 12.2461V12.627L7.70508 12.9492L7.61719 13.1689L7.5 13.374L7.38281 13.5352H7.35352L7.32422 13.5938L7.16309 13.7402L7.0166 13.8428L6.84082 13.9453L6.5625 14.0479L6.28418 14.1064H5.91797L5.68359 14.0625L5.66895 14.0039L6.44531 13.2275H6.47461L6.50391 13.1689L6.5332 13.1543V12.9932L6.47461 12.2607V12.085L5.49316 12.0117L5.39062 12.0264L4.58496 12.832L4.54102 12.8906L4.49707 12.876L4.45312 12.6855L4.43848 12.5537V12.3047L4.48242 12.041L4.54102 11.8506L4.6582 11.6016L4.83398 11.3525L5.05371 11.1328L5.2002 11.0303L5.40527 10.9131L5.63965 10.8252L5.85938 10.7812L6.00586 10.7666H6.16699L6.43066 10.7959L6.66504 10.8545L6.76758 10.8691L10.0342 7.60254H10.0635L9.97559 7.30957L9.94629 7.13379V6.76758L9.99023 6.50391L10.0781 6.25488L10.1807 6.06445L10.3271 5.85938L10.5322 5.6543L10.6934 5.53711L10.8984 5.41992L11.1328 5.33203L11.4258 5.27344Z" fill="#6084FE"/>
<path d="M23.6572 10.0049H25.8691L26.001 10.0635L26.0889 10.1367L26.1621 10.2539L26.2061 10.4443L26.6748 14.209V14.2822L26.6309 14.2969L26.2646 14.2236L25.8984 14.1797L25.4736 14.165L23.6572 14.1504L23.6426 13.7842V10.2979L23.6572 10.0049Z" fill="#6084FE"/>
<path d="M10.3711 10.0195L10.4297 10.0488L10.5762 10.21L10.6641 10.2832V10.3125H10.6934V10.3418L10.752 10.3711L12.8027 12.4219L12.9199 12.5684L13.0078 12.7148L13.0664 12.9199V13.1836L13.0078 13.3887L12.9346 13.5205L12.8174 13.667L12.6562 13.7842L12.4951 13.8574L12.3779 13.8867L12.1875 13.9014L11.9971 13.8721L11.8213 13.7988L11.6895 13.7109L11.499 13.5352L9.60938 11.6455L9.53613 11.5576L9.44824 11.4844L9.3457 11.3672L9.19922 11.2354L9.21387 11.1768L9.31641 11.0889L9.38965 11.001L9.46289 10.9277H9.49219L9.52148 10.8691H9.55078L9.58008 10.8105H9.60938L9.63867 10.752L10.166 10.2246H10.1953L10.2246 10.166H10.2539L10.2832 10.1074L10.3418 10.0488H10.3711V10.0195Z" fill="#6084FE"/>
<path d="M5.27344 5.47852L5.40527 5.52246L6.09375 5.85938L6.43066 6.02051L6.66504 6.1377L6.69434 6.24023L6.75293 6.78223L6.85547 6.89941L8.30566 8.34961L8.27637 8.42285L7.55859 9.14062H7.51465L7.41211 9.02344L5.99121 7.60254L5.90332 7.57324L5.33203 7.51465L5.27344 7.44141L5.1123 7.10449L4.89258 6.65039L4.70215 6.24023L4.6582 6.15234L4.67285 6.0791L4.81934 5.94727L4.90723 5.84473H4.93652L4.96582 5.78613L5.15625 5.5957H5.18555L5.2002 5.55176H5.22949L5.25879 5.49316L5.27344 5.47852Z" fill="#6084FE"/>
</svg>
