<svg width="28" height="28" viewBox="0 0 28 28" fill="none" xmlns="http://www.w3.org/2000/svg">
<g clip-path="url(#clip0_225_378)">
<path d="M17.3421 17.3333H24.0002V24.9511L23.983 24.96L23.9403 25.2266L23.8804 25.4933L23.7862 25.7866L23.7006 25.9911L23.6322 26.1333L23.5551 26.2844L23.4353 26.48L23.3498 26.6044L23.2642 26.72L23.1615 26.8444L23.0417 26.9778L22.9475 27.0755L22.8791 27.1378L22.7593 27.2444L22.6223 27.3511L22.4426 27.4755L22.2201 27.6089L22.0062 27.7155L21.835 27.7866L21.6039 27.8666L21.3643 27.9289L21.0904 27.9822L20.9963 28H20.3459L20.1662 27.9644L19.9437 27.92L19.7383 27.8666L19.5072 27.7866L19.3018 27.6978L19.105 27.6L18.8739 27.4578L18.737 27.36L18.6001 27.2533L18.4803 27.1466L18.3776 27.0489L18.1893 26.8533L18.1123 26.7555L18.0181 26.64L17.8983 26.4622L17.7956 26.2933L17.6929 26.0978L17.6074 25.9111L17.5218 25.68L17.4533 25.4489L17.3934 25.1822L17.3592 24.9422L17.3421 24.7466L17.3335 24.5066V17.3422L17.3421 17.3333ZM20.654 18.9866L20.5855 19.0133L20.5427 19.0666L20.5342 19.1111V22.0089L20.4229 21.9378L20.0036 21.6889L19.7811 21.5555L19.6784 21.4933L19.6698 20.8622L19.6356 20.7911L19.5928 20.7555L19.4987 20.7466L19.4302 20.7822L19.396 20.8444V21.6089L19.4216 21.6622L19.473 21.7066L19.6955 21.84L19.9351 21.9822L20.3801 22.2489L20.5256 22.3378V24.0089L20.3887 24.0622L20.3117 24.1066L20.2347 24.1689L20.1491 24.2578L20.0892 24.3555L20.0378 24.48L20.0121 24.6133V24.7555L20.0378 24.8889L20.0977 25.0311L20.1662 25.1289L20.2518 25.2178L20.3716 25.2978L20.4743 25.3422L20.5427 25.36L20.6198 25.3689H20.7396L20.8679 25.3422L21.0049 25.28L21.099 25.2089L21.1931 25.1111L21.2616 24.9955L21.3044 24.8889L21.3301 24.7644V24.6044L21.3044 24.48L21.2616 24.3733L21.2017 24.2666L21.1161 24.1689L21.0049 24.0889L20.8936 24.0355L20.8166 24.0089V22.3378L20.9706 22.2489L21.1589 22.1333L21.3985 21.9911L21.544 21.9022L21.7836 21.76L21.8949 21.6889L21.9377 21.6444L21.9462 21.6178V20.1689L21.912 20.1066L21.8692 20.0711L21.8436 20.0622H21.7751L21.7323 20.0889L21.6895 20.1333L21.681 20.1511L21.6724 20.2578L21.6638 21.4933L21.4584 21.6178L21.3044 21.7066L20.9364 21.9289L20.8423 21.9911L20.808 22V19.0933L20.7738 19.04L20.7225 18.9955L20.654 18.9866Z" fill="#6084FE"/>
<path d="M3.77698 14.6667H10.872L10.925 14.7121L11.3133 15.9394L11.631 16.9243L12.3369 19.1364L12.7782 20.5152L13.4665 22.6667L13.8195 23.7727L14.2078 24.9849L14.6137 26.2576L14.6667 26.394L14.649 26.4546L14.4902 26.5455L14.2607 26.6212L14.0666 26.6515L13.8548 26.6667H0.794224L0.547132 26.6515L0.282391 26.5909L0.0705977 26.5L0 26.4546L0.0176494 26.3485L0.31769 25.4091L0.529483 24.7424L0.829523 23.8031L1.23546 22.5303L1.51785 21.6515L1.72964 20.9849L2.02968 20.0455L2.43562 18.7727L2.71801 17.894L3.42399 15.6818L3.74168 14.697L3.77698 14.6667ZM4.14761 23.5152L4.02407 23.5606L3.95347 23.6364L3.91817 23.7576V24.9697L3.97112 25.1061L4.05937 25.1667L4.16526 25.197H10.5367L10.6426 25.1515L10.7308 25.0758L10.7485 25.0303V23.6818L10.6955 23.6061L10.5897 23.5303L10.3602 23.5152H4.14761Z" fill="#6084FE"/>
<path d="M0.248588 0L0.314878 0.0161154L0.46403 0.580153L0.712618 1.45038L1.65725 4.80237L2.02185 6.0916L2.43616 7.5581L3.38079 10.9101L3.52994 11.4097L3.59623 11.5386L3.69567 11.5869L3.81168 11.6031H10.855L11.0207 11.5708L11.1036 11.4741L11.1864 11.2324L11.4847 10.1688L11.6339 9.6531L11.7831 9.10517L12.0814 8.05768L12.3797 6.99406L12.5951 6.23664L12.8934 5.17303L13.258 3.8838L13.4734 3.12638L13.6723 2.4173L14.0038 1.24088L14.2689 0.306192L14.3518 0.0161154H14.4181L14.5175 0.161154L14.617 0.370653L14.6501 0.483461L14.6667 0.612383V25.2044L14.6501 25.3011L14.6004 25.285L14.5341 25.1077L14.1363 23.7057L13.8049 22.5293L13.4237 21.1756L13.0591 19.8863L12.446 17.7108L12.1145 16.5505L11.9819 16.067L11.5842 14.665L11.1864 13.2468L11.1036 12.989L11.0373 12.9084L10.9047 12.8762H3.76196L3.61281 12.9245L3.52994 13.0534L3.29793 13.8753L2.96648 15.0517L2.60188 16.341L2.22072 17.6947L1.93898 18.6938L1.62411 19.8058L1.29266 20.9822L1.01092 21.9813L0.696045 23.0933L0.364595 24.2697L0.182298 24.9143L0.06629 25.2528L0 25.3333V0.467345L0.0828625 0.273961L0.19887 0.0644614L0.248588 0Z" fill="#6084FE"/>
<path d="M1.40075 0H14.6164L14.6668 0.0673212L14.6332 0.218794L14.3474 1.2791L14.0615 2.32258L13.6916 3.669L13.389 4.7798L13.0191 6.12623L12.3465 8.58345L11.4218 11.9495L11.3713 12H4.61218L4.57856 11.9663L4.32635 11.0575L4.0237 9.9467L3.63699 8.53296L3.31752 7.37167L2.3087 3.68583L1.88835 2.15428L1.3335 0.117812V0.0504909L1.40075 0ZM7.99176 1.73352L7.20151 1.96914L6.37763 2.2216L6.22631 2.30575L6.17587 2.3899L6.15905 2.57504L6.17587 2.89481L6.24312 3.34923L6.34401 3.75316L6.47852 4.12342L6.68028 4.54418L6.88205 4.86396L7.08381 5.13324L7.28558 5.35203L7.50416 5.57083L7.78999 5.78962L7.95813 5.87377L8.09264 5.85694L8.24396 5.77279L8.46254 5.60449L8.66431 5.41935L8.84926 5.23422L9.00058 5.04909L9.20235 4.76297L9.40411 4.40954L9.55544 4.07293L9.68995 3.669L9.77402 3.29874L9.82446 2.99579L9.84127 2.82749V2.42356L9.79083 2.32258L9.70676 2.25526L9.47137 2.17111L8.37847 1.8345L7.99176 1.73352ZM7.8068 8.16269L7.25195 8.17952L7.15107 8.24684L7.08381 8.34783V9.84572L7.15107 9.9467L7.21832 10.014L7.28558 10.0309H8.73156L8.83245 9.98036L8.8997 9.91304L8.93333 9.81206V8.36466L8.84926 8.23001L8.76519 8.17952L7.8068 8.16269Z" fill="#6084FE"/>
<path d="M18.6762 16H22.6375L22.6665 16.0048V17.3285L22.6568 17.3333H18.6762L18.6665 17.3237V16.0048L18.6762 16ZM20.0192 16.4106L19.9612 16.4251L19.9129 16.4541L19.9032 16.4638V16.7729L19.9322 16.8068L19.9805 16.8261L20.0095 16.8309H20.1158L20.1834 16.8068L20.2027 16.7923L20.2124 16.7585V16.4734L20.1834 16.4396L20.1254 16.4155L20.0868 16.4106H20.0192ZM21.2366 16.4106L21.1786 16.4251L21.1399 16.4444L21.1206 16.4831V16.7681L21.1496 16.8068L21.1979 16.8261L21.2269 16.8309H21.3332L21.3911 16.8116L21.4201 16.7923L21.4298 16.7681V16.4686L21.4008 16.4396L21.3428 16.4155L21.3138 16.4106H21.2366Z" fill="#6084FE"/>
<path d="M22.8491 1.62879L23.3697 1.72267L23.6557 1.79729L23.8883 1.86995L24.1405 1.96152L24.3691 2.05649L24.6654 2.20206L24.8676 2.31533L25.0475 2.42456L25.2938 2.59184L25.4833 2.7335L25.643 2.86981L25.7364 2.94808L25.8677 3.07158L25.9719 3.17484L26.0626 3.26799L26.1459 3.35979L26.2474 3.47793L26.3171 3.55961L26.3916 3.65751L26.4417 3.7203L26.4857 3.77431L26.632 3.98498L26.6734 4.05386L26.716 4.11531L26.7682 4.20918L26.8339 4.31318L26.9078 4.45704L26.9708 4.5759L27.0373 4.71842L27.0976 4.85216L27.1614 5.00956L27.2129 5.14939L27.2788 5.33788L27.3453 5.56488L27.3984 5.78177L27.4542 6.06827L27.4938 6.35952L27.5144 6.58592L27.5256 6.86437L27.522 7.14014L27.5074 7.39092L27.4861 7.5944L27.456 7.80397L27.4171 8.01963L27.3459 8.32929L27.251 8.64237L27.144 8.93789L27.0248 9.21585L27.0194 9.2456L27.0905 9.31984L27.1575 9.4164L27.2131 9.53393L27.2485 9.67852L27.2554 9.81031L27.2481 9.89345L27.2347 9.96782L27.2051 10.0469L27.2632 10.0651L27.6352 10.2167L27.8191 10.3036L27.9078 10.3656L27.9876 10.4338L28.0573 10.5155L28.1122 10.5945L28.1678 10.712L28.2072 10.8343L28.2242 10.9525L28.2224 11.0904L28.2023 11.202L28.139 11.3825L27.9888 11.7471L27.7989 12.2042L27.6473 12.5762L27.5678 12.7615L27.4916 12.886L27.4032 12.9929L27.3053 13.0674L27.2614 13.0979L27.1514 13.1548L27.0129 13.1989L26.8635 13.2181L26.779 13.2182L26.5931 13.1846L26.4065 13.1126L26.0061 12.9482L25.9866 13.0138L25.9205 13.1248L25.851 13.2121L25.7781 13.2757L25.6978 13.338L25.5802 13.3936L25.4505 13.4316L25.3485 13.4439L25.2789 13.4467L25.0781 13.4105L24.7704 13.2859L24.2131 13.0549L24.0352 12.9767L23.9317 12.912L23.8593 12.8452L23.7957 12.7723L23.7469 12.7021L23.6913 12.5845L23.6533 12.4548L23.641 12.3528L23.6422 12.2608L23.665 12.1344L23.7114 12.0046L23.8744 11.6117L24.0233 11.2546L24.352 10.4538L24.5561 9.96082L24.7076 9.58887L24.8578 9.22434L24.9347 9.05391L24.9994 8.9504L25.0851 8.85836L25.1654 8.79606L25.2607 8.73645L25.3681 8.69439L25.4566 8.67196L25.5661 8.66099L25.6195 8.66294L25.8426 8.70318L25.8743 8.65514L25.9679 8.43399L26.0467 8.21016L26.1038 8.02083L26.1314 7.91062L26.2145 7.44954L26.2405 7.17779L26.2463 6.93311L26.2405 6.70939L26.2199 6.483L26.179 6.19918L26.1368 6.00729L26.1062 5.87891L26.0621 5.74041L26.0288 5.62691L25.9616 5.44587L25.8531 5.19594L25.7853 5.06086L25.7101 4.92443L25.6579 4.83056L25.5617 4.68267L25.4033 4.45445L25.3532 4.39166L25.2712 4.29242L25.188 4.20062L25.0654 4.07102L24.9673 3.97654L24.8089 3.83279L24.6344 3.69381L24.4375 3.5508L24.2095 3.40986L23.9998 3.29526L23.78 3.19419L23.6082 3.12481L23.3695 3.04337L23.0984 2.97144L22.6447 2.88962L22.3953 2.86767L22.1432 2.8606L21.8647 2.87181L21.6221 2.89716L21.4403 2.92581L21.2248 2.9714L20.9903 3.03662L20.8194 3.09026L20.6796 3.14183L20.4796 3.22863L20.3621 3.28422L20.252 3.34115L20.1406 3.40552L20.0467 3.4577L19.9164 3.54169L19.6969 3.69408L19.6342 3.74419L19.5349 3.82611L19.4168 3.92767L19.3047 4.038L19.2116 4.1287L19.1056 4.24781L19.0085 4.36082L18.8884 4.51577L18.7757 4.67206L18.6577 4.8581L18.5202 5.10973L18.4077 5.35051L18.3356 5.53716L18.271 5.72515L18.2084 5.94423L18.1715 6.1065L18.1259 6.35935L18.0979 6.60001L18.0833 6.85079L18.0843 7.05828L18.0961 7.29078L18.0921 7.31309L18.1306 7.31236L18.324 7.34723L18.4315 7.38965L18.535 7.45439L18.6284 7.53266L18.6981 7.61435L18.7408 7.67579L18.7856 7.76833L18.8154 7.85818L18.8365 7.95413L18.8489 8.14066L18.8772 9.00576L18.9167 10.1493L18.942 10.8603L18.9526 11.1847L18.9501 11.2841L18.9286 11.4031L18.872 11.5465L18.7972 11.6635L18.7115 11.7555L18.6136 11.83L18.5447 11.8714L18.4373 11.9134L18.3251 11.9393L18.146 11.953L17.9061 11.9635L17.8838 11.9595L17.9272 12.0595L17.9841 12.1695L18.0498 12.2735L18.1108 12.3613L18.2198 12.4808L18.3463 12.5881L18.462 12.6704L18.6298 12.7621L18.7731 12.8186L18.8895 12.855L19.1261 12.9053L19.383 12.9286L19.5046 12.9352L19.5396 12.8263L19.5929 12.7438L19.6671 12.6727L19.7522 12.6266L19.9043 12.5926L20.1421 12.5511L20.4834 12.4897L20.5766 12.4835L20.6733 12.501L20.7585 12.5394L20.8309 12.6062L20.8858 12.6852L20.9218 12.7838L20.9341 12.8859L20.9252 13.2759L20.9192 13.3516L20.9058 13.4259L20.8546 13.5396L20.7965 13.6059L20.7162 13.6682L20.6574 13.696L20.5628 13.7096L20.502 13.7063L20.3519 13.6869L20.0085 13.6327L19.7408 13.5844L19.6569 13.5386L19.5845 13.4717L19.531 13.3853L19.5201 13.3603L19.391 13.3524L19.1936 13.3398L19.0807 13.3271L18.9022 13.295L18.7116 13.2452L18.5385 13.1833L18.3755 13.1078L18.2226 13.0188L18.0663 12.9062L17.9472 12.8002L17.87 12.7172L17.7881 12.6179L17.7075 12.5113L17.6357 12.3985L17.5727 12.2796L17.5171 12.1621L17.4655 12.0223L17.4499 11.9811L17.1728 11.9848L16.972 11.9486L16.8584 11.8974L16.7758 11.8441L16.6825 11.7659L16.6127 11.6842L16.5701 11.6227L16.5192 11.5214L16.4812 11.3917L16.4655 11.266L16.4647 11.2275L15.9166 11.2438L15.8247 11.2426L15.6462 11.2104L15.5387 11.168L15.4203 11.1006L15.3134 11.0122L15.2436 10.9305L15.1766 10.8339L15.121 10.7164L15.0843 10.5792L15.0665 10.4225L15.0425 9.70402L15.0228 9.13224L15.0184 8.90109L15.0203 8.84769L15.0471 8.69895L15.1037 8.55558L15.1583 8.46561L15.2481 8.35126L15.3298 8.28152L15.4439 8.20228L15.5688 8.14803L15.6898 8.11609L15.8689 8.10232L16.3399 8.08745L16.3623 8.09148L16.3581 8.0293L16.3836 7.888L16.4274 7.77304L16.4833 7.67563L16.5629 7.57481L16.6358 7.51117L16.7324 7.44412L16.8162 7.40547L16.8208 7.3372L16.809 7.10471L16.8079 6.81273L16.8243 6.50855L16.8417 6.32738L16.8597 6.18474L16.9254 5.82034L16.9859 5.57018L17.0484 5.3511L17.1299 5.11239L17.2161 4.8899L17.3441 4.60584L17.4513 4.39481L17.5962 4.14452L17.7129 3.96592L17.837 3.78865L17.9584 3.62627L18.086 3.47266L18.1919 3.35355L18.3343 3.20262L18.4464 3.09229L18.5294 3.01512L18.6489 2.90613L18.7758 2.79848L18.8737 2.72399L18.9365 2.67389L18.9817 2.63597L18.9966 2.63866L19.0168 2.61159L19.245 2.45311L19.2599 2.45579L19.2626 2.44092L19.3315 2.39959L19.4267 2.33997L19.5206 2.2878L19.6658 2.20648L19.8346 2.12175L20.0021 2.04446L20.2183 1.95291L20.4155 1.88098L20.5952 1.82125L20.7175 1.78187L20.8783 1.74177L21.1027 1.69008L21.3169 1.65192L21.5845 1.61572L21.8494 1.59439L22.0967 1.58525L22.3725 1.58891L22.6382 1.60611L22.8491 1.62879Z" fill="#6084FE"/>
<path d="M7.97403 2.66669L8.18048 2.71188L8.92027 2.90774L9.29876 3.0132L9.33317 3.04333L9.31597 3.28439L9.24715 3.61584L9.14392 3.93222L9.02349 4.20341L8.88586 4.44446L8.73102 4.67045L8.54177 4.89644L8.35253 5.07723L8.18048 5.22789L8.02564 5.33335L7.95683 5.31829L7.66435 5.07723L7.4579 4.88138L7.25145 4.62526L7.0622 4.339L6.89016 3.99249L6.76973 3.64597L6.70091 3.32959L6.6665 3.02827L7.09661 2.90774L7.71597 2.74202L7.97403 2.66669Z" fill="#6084FE"/>
<path d="M20.5481 24H20.8L20.963 24.0593L21.0963 24.1481L21.2148 24.2667L21.3037 24.4444L21.3333 24.5481V24.7852L21.2741 24.963L21.1852 25.0963L21.1111 25.1704L20.9926 25.2593L20.8296 25.3185L20.7556 25.3333H20.563L20.3704 25.2741L20.237 25.1852L20.1333 25.0815L20.0593 24.963L20 24.7852V24.5481L20.0444 24.4L20.1333 24.2519L20.2074 24.163L20.3704 24.0593L20.4741 24.0148L20.5481 24Z" fill="#6084FE"/>
</g>
<defs>
<clipPath id="clip0_225_378">
<rect width="28" height="28" fill="white"/>
</clipPath>
</defs>
</svg>
