<svg width="38" height="33" viewBox="0 0 38 33" fill="none" xmlns="http://www.w3.org/2000/svg">
<g filter="url(#filter0_d_186_74)">
<g clip-path="url(#clip0_186_74)">
<path d="M8.92636 2.7533H29.0905L29.0736 2.81988L28.8708 3.03628L28.7187 3.21938L28.5496 3.40249L28.3975 3.58559L28.2961 3.70212H28.2623L28.2285 3.7687L28.1947 3.81864L27.4848 3.58559L26.758 3.35255L26.6059 3.31926L26.3693 3.3359L23.7495 3.7687L23.1748 3.86857L23.0058 3.9518L22.9551 4.00174H22.9213L22.8198 4.25143V4.48447L22.8875 4.65093L22.9889 4.76746L23.1579 4.85069L23.2086 4.86733H23.4283L24.341 4.71752H24.4086L24.4255 5.4L24.4593 5.59975L24.5269 5.73292L24.6115 5.81615L24.696 5.88273L24.8481 5.93267H25.0509L25.2537 5.84944L25.3721 5.73292L25.4397 5.58311L25.4566 5.51652L25.4735 4.5677L25.5073 4.53441L26.4031 4.3846H26.6059L27.2482 4.601L27.4003 4.65093L27.3665 4.73416L27.2144 4.90062L27.0623 5.08373L26.8932 5.26683L26.7411 5.44994L26.5383 5.66634L26.3862 5.84944L26.1833 6.06584L26.0312 6.24895L25.8453 6.4487L25.727 6.58186L25.5918 6.74832L25.5242 6.91478V7.14783L25.5918 7.29764L25.6594 7.39752L25.8115 7.49739L25.9129 7.53068H26.1326L26.3355 7.44745L26.5383 7.2477L26.6735 7.08124H26.7073L26.7411 7.01466L26.8932 6.8482L27.0454 6.66509L27.1468 6.54857H27.1806L27.2144 6.48199L27.2651 6.41541H27.3327L27.5017 6.68174L27.9581 7.34758L28.1271 7.59727L28.1102 7.71379L27.9581 8.08L27.9243 8.09665L26.5721 8.11329L26.3693 8.14658L26.2172 8.24646L26.1326 8.34634L26.065 8.52944V8.72919L26.1157 8.87901L26.2003 8.99553L26.3186 9.07876L26.4707 9.1287L27.4848 9.14534L27.5186 9.19528L27.4679 9.27851L27.3665 9.54484L27.1975 9.96099L27.1468 10.1275V10.3272L27.2144 10.4937L27.282 10.5935L27.4341 10.6934L27.5355 10.7267H27.7552L27.9243 10.6601L28.0426 10.5769L28.144 10.4104L29.1581 7.91354L29.2426 7.6805V7.44745L29.1074 7.18112L28.0933 5.68298L28.0257 5.59975L28.0595 5.53317L28.2454 5.33342L28.3975 5.15031L28.5496 4.98385L28.5665 4.95056H28.6003L28.6341 4.88398L28.7863 4.71752L28.8032 4.68423H28.837L28.8708 4.61764L29.0229 4.45118L29.0398 4.41789H29.0736L29.1074 4.35131L29.2933 4.15156L29.4454 3.96845L29.6483 3.75205L29.7835 3.58559H29.8173L29.8342 9.9277V14.4554L29.8173 14.4887H8.18267L8.16577 14.472V3.61889L8.18267 3.58559L8.25028 3.61889L8.33479 3.73541L8.4193 3.81864L8.63903 4.05168L8.75734 4.18485L8.92636 4.36795L9.04468 4.50112L9.2475 4.73416L9.2644 4.81739L9.12919 5.08373L8.94327 5.43329L8.77425 5.78286L8.75734 5.84944V6.08249L8.82495 6.24895L8.89256 6.33218L9.04468 6.43205L9.14609 6.46534H9.36582L9.53484 6.39876L9.65315 6.31553L9.78837 6.08249L9.99119 5.68298L10.0081 5.63305L10.0757 5.64969L10.2447 5.8328L10.363 5.96596L10.549 6.16572L10.6842 6.33218L10.7518 6.39876L10.549 6.6318L9.38272 7.78037L9.31511 7.91354L9.28131 8.06335L9.29821 8.21317L9.36582 8.36298L9.50103 8.54609L9.65315 8.72919L9.87288 8.99553L10.0588 9.22857L10.2785 9.49491L10.4644 9.72795L10.6842 9.99428L10.8701 10.2273L11.0898 10.4937L11.2757 10.7267L11.4955 10.993L11.6138 11.1262L11.6983 11.1928L11.8673 11.2594H12.0701L12.2392 11.1928L12.3744 11.0763L12.442 10.9764L12.4758 10.8765V10.6435L12.3575 10.4104L12.1378 10.1441L12.0025 9.97764L11.8166 9.7446L11.4786 9.32845L11.2926 9.0954L11.0729 8.82907L10.887 8.59602L10.6673 8.32969L10.549 8.17988L10.5321 8.09665L10.7011 7.94683L11.0053 7.64721L11.0898 7.54733L11.225 7.43081L11.411 7.2477L11.4279 7.21441L11.5124 7.23106L11.6645 7.41416L11.9011 7.66385L12.1378 7.93019L12.3068 8.03006L12.4082 8.06335H14.2167L14.4026 7.99677L14.4702 7.94683H14.504V7.91354H14.5378L14.5716 7.83031L14.6393 7.6805V7.44745L14.5716 7.28099L14.4533 7.14783L14.3181 7.08124L14.1322 7.04795L12.7293 7.03131L12.5096 6.78162L12.3406 6.59851L12.2223 6.46534L12.0363 6.26559L11.8842 6.08249L11.7659 5.96596L11.6476 5.8328L11.4955 5.66634L11.3434 5.48323L11.225 5.36671L11.0729 5.1836L10.9715 5.06708L11.0898 5.01715L13.0167 4.3846L13.2871 4.28472L13.4392 4.18485L13.5237 4.05168L13.5575 3.9518V3.70212L13.4561 3.50236L13.3378 3.40249L13.1857 3.3359L12.9829 3.31926L12.6955 3.40249L10.2109 4.21814L10.1264 4.13491L9.88978 3.88522L9.73766 3.70212L9.48413 3.43578L9.33201 3.25267L9.11229 3.01963L8.99397 2.88646L8.90946 2.80323L8.92636 2.7533Z" fill="#6084FE"/>
<path d="M5.88401 17.668H32.116L32.1667 17.7346L32.9273 19.9818L33.147 20.6476L33.3836 21.3301L33.5865 21.9293L33.7893 22.5452L33.9245 22.9281L33.9414 22.9947L33.9245 23.0113H23.2086L23.1579 22.8782L22.8706 21.7629L22.7523 21.2968L22.6846 21.147L22.617 21.0471L22.4649 20.9472L22.3804 20.9139L22.279 20.8973H15.721L15.552 20.9306L15.3999 21.0305L15.2985 21.1636L15.2139 21.4133L14.8252 22.9447L14.7914 23.0113H4.05859L4.0755 22.9281L5.10652 19.8819L5.32625 19.216L5.56288 18.5336L5.85021 17.6846L5.88401 17.668ZM6.577 18.75L6.5601 18.7999V19.7987H7.62492V18.75H6.577ZM8.74046 18.75L8.72356 19.0329V19.7987H9.78839V18.75H8.74046ZM10.9039 18.75L10.887 19.0995V19.7987H11.9518V18.75H10.9039ZM13.0674 18.75L13.0505 19.0662V19.7987H14.1153V18.75H13.0674ZM15.2308 18.75L15.2139 19.0662V19.7987H16.2788V18.75H15.2308ZM17.3943 18.75L17.3774 19.0662V19.7987H18.4422V18.75H17.3943ZM19.5578 18.75L19.5409 19.0662V19.7987H20.6057V18.75H19.5578ZM21.7212 18.75L21.7043 19.0662V19.7987H22.7692V18.75H21.7212ZM23.8847 18.75L23.8678 19.0995V19.7987H24.9326V18.75H23.8847ZM26.0482 18.75L26.0312 18.9996V19.7987H27.0961V18.75H26.0482ZM28.2116 18.75L28.1947 19.0995V19.7987H29.2595V18.75H28.2116ZM30.3751 18.75L30.3582 18.7832V19.7987H31.423V18.75H30.3751ZM6.577 20.8806L6.5601 20.9139V21.9293L7.57422 21.946L7.62492 21.9293V20.8806H6.577ZM8.74046 20.8806L8.72356 21.2635V21.9293L9.73768 21.946L9.78839 21.9293V20.8806H8.74046ZM10.9039 20.8806L10.887 21.0637V21.9293H14.1153V20.8806H10.9039ZM23.8847 20.8806L23.8678 20.9139V21.9293L27.0454 21.946L27.0961 21.9293V20.8806H23.8847ZM28.2116 20.8806L28.1947 21.2635V21.9293H29.2595V20.8806H28.2116ZM30.3751 20.8806L30.3582 21.2801V21.9293L31.3723 21.946L31.423 21.9293V20.8806H30.3751Z" fill="#6084FE"/>
<path d="M6.5264 0.622559H31.4062L31.6259 0.65585L31.795 0.755726L31.9133 0.888894L31.9809 1.072L31.9978 16.586L31.9809 16.6193H6.01934L6.00244 16.6027V1.13858L6.03625 0.98877L6.10385 0.855602L6.15456 0.789018H6.18836V0.755726L6.35738 0.65585L6.5264 0.622559ZM7.60814 1.70455L7.43912 1.73784L7.287 1.83771L7.18558 1.95423L7.11798 2.12069L7.10107 2.28715V15.0047L7.13488 15.2044L7.21939 15.3542L7.3546 15.4707L7.54053 15.5373H30.4597L30.5949 15.4874L30.7301 15.4042V15.3709H30.7639L30.8484 15.2211L30.8822 15.1212V2.12069L30.7977 1.92094L30.6794 1.80442L30.5442 1.73784L30.3752 1.70455H7.60814Z" fill="#6084FE"/>
<path d="M3.87267 24.0601H34.1273L34.1611 24.11L34.1442 24.7093L34.0766 24.8757L34.009 24.9756L33.8907 25.0755L33.7555 25.1254L33.6541 25.142H4.29522L4.1093 25.0755L3.94028 24.9256L3.85577 24.7425L3.83887 24.5927V24.1433L3.87267 24.0601Z" fill="#6084FE"/>
<path d="M16.1944 21.9293H21.8059L21.8566 21.9959L22.0932 22.9447V23.0113H15.907L15.8901 22.9614L15.9915 22.6118L16.1437 22.0126L16.1944 21.9293Z" fill="#6084FE"/>
</g>
</g>
<defs>
<filter id="filter0_d_186_74" x="0" y="0" width="38" height="33" filterUnits="userSpaceOnUse" color-interpolation-filters="sRGB">
<feFlood flood-opacity="0" result="BackgroundImageFix"/>
<feColorMatrix in="SourceAlpha" type="matrix" values="0 0 0 0 0 0 0 0 0 0 0 0 0 0 0 0 0 0 127 0" result="hardAlpha"/>
<feOffset dy="4"/>
<feGaussianBlur stdDeviation="2"/>
<feComposite in2="hardAlpha" operator="out"/>
<feColorMatrix type="matrix" values="0 0 0 0 0 0 0 0 0 0 0 0 0 0 0 0 0 0 0.25 0"/>
<feBlend mode="normal" in2="BackgroundImageFix" result="effect1_dropShadow_186_74"/>
<feBlend mode="normal" in="SourceGraphic" in2="effect1_dropShadow_186_74" result="shape"/>
</filter>
<clipPath id="clip0_186_74">
<rect width="30" height="25" fill="white" transform="translate(4)"/>
</clipPath>
</defs>
</svg>
