<svg width="35" height="35" viewBox="0 0 35 35" fill="none" xmlns="http://www.w3.org/2000/svg">
<path fill-rule="evenodd" clip-rule="evenodd" d="M29.1146 4.97592C25.911 1.76885 21.6503 0.00188085 17.1113 0C7.75818 0 0.146097 7.61098 0.142334 16.9656C0.14108 19.9559 0.922355 22.875 2.40736 25.448L0 34.24L8.99548 31.8806C11.4741 33.2325 14.2646 33.9449 17.1043 33.9457H17.1115C26.4635 33.9457 34.0765 26.3341 34.08 16.9791C34.0819 12.4454 32.3185 8.18278 29.1146 4.97592ZM17.1113 31.0804H17.1054C14.5747 31.0793 12.0928 30.3993 9.92703 29.1147L9.41228 28.8089L4.07419 30.2091L5.499 25.0052L5.16354 24.4717C3.75169 22.2263 3.00616 19.6311 3.00742 16.9666C3.01034 9.19136 9.33744 2.86559 17.1169 2.86559C20.8841 2.86685 24.4253 4.33559 27.0881 7.00122C29.7508 9.66679 31.2164 13.2099 31.2151 16.9781C31.2118 24.754 24.8851 31.0804 17.1113 31.0804ZM24.8475 20.5185C24.4236 20.3062 22.339 19.2809 21.9502 19.1392C21.5619 18.9977 21.2789 18.9273 20.9966 19.3515C20.7138 19.7758 19.9013 20.7308 19.6539 21.0136C19.4064 21.2966 19.1594 21.3321 18.7353 21.1197C18.3112 20.9076 16.9451 20.4598 15.3255 19.0155C14.0652 17.8913 13.2143 16.5031 12.9668 16.0788C12.7198 15.6542 12.9648 15.4469 13.1529 15.2136C13.6118 14.6438 14.0714 14.0463 14.2127 13.7635C14.3542 13.4805 14.2834 13.2329 14.1772 13.0208C14.0714 12.8087 13.2235 10.7219 12.8703 9.87282C12.5258 9.04654 12.1766 9.1581 11.9161 9.14516C11.6691 9.13282 11.3863 9.1303 11.1035 9.1303C10.8209 9.1303 10.3615 9.23628 9.97283 9.66093C9.58425 10.0854 8.48906 11.1109 8.48906 13.1976C8.48906 15.2842 10.0083 17.3001 10.2203 17.5831C10.4322 17.8661 13.2102 22.1481 17.4633 23.9843C18.4748 24.4215 19.2645 24.6821 19.8804 24.8775C20.8962 25.2001 21.8202 25.1546 22.5509 25.0455C23.3657 24.9237 25.0592 24.0198 25.4128 23.0297C25.766 22.0393 25.766 21.1906 25.6599 21.0136C25.5541 20.8368 25.2713 20.7308 24.8475 20.5185Z" fill="white"/>
</svg>
