<svg width="55" height="55" viewBox="0 0 55 55" fill="none" xmlns="http://www.w3.org/2000/svg">
<path d="M40.1198 32.7881L40.0992 32.96C35.0598 30.4483 34.5327 30.1137 33.8818 31.09C33.4304 31.7661 32.115 33.2992 31.7185 33.753C31.3174 34.1998 30.9187 34.2342 30.2381 33.9248C29.5505 33.5811 27.3436 32.8592 24.7311 30.5217C22.6961 28.6998 21.3303 26.4654 20.9269 25.7779C20.2555 24.6183 21.6603 24.4533 22.939 22.0332C23.1682 21.552 23.0513 21.1739 22.8817 20.8324C22.7099 20.4886 21.3417 17.1199 20.7688 15.7769C20.2188 14.4386 19.6527 14.6082 19.2288 14.6082C17.9088 14.4936 16.944 14.5119 16.0937 15.3965C12.3949 19.462 13.3277 23.6558 16.4925 28.1154C22.7121 36.2555 26.0259 37.7542 32.0852 39.8351C33.7214 40.3553 35.2133 40.282 36.3935 40.1124C37.709 39.9039 40.443 38.4601 41.0136 36.8444C41.598 35.2288 41.598 33.8882 41.4261 33.5788C41.2565 33.2694 40.8073 33.0975 40.1198 32.7881Z" fill="#111111"/>
<path d="M47.0255 7.90503C29.4047 -9.12911 0.242919 3.2254 0.231461 27.2561C0.231461 32.0595 1.4896 36.7437 3.88671 40.8802L0 55.0016L14.5179 51.2157C32.6337 61.0012 54.9914 48.0073 55.0006 27.2698C55.0006 19.9914 52.1589 13.1415 46.9911 7.99441L47.0255 7.90503ZM50.4218 27.1942C50.408 44.6867 31.206 55.6112 16.0189 46.6827L15.1939 46.1923L6.60007 48.4267L8.90322 40.0735L8.3555 39.2141C-1.09543 24.1692 9.7626 4.50646 27.6653 4.50646C33.7474 4.50646 39.456 6.87836 43.7553 11.1753C48.0522 15.4355 50.4218 21.1441 50.4218 27.1942Z" fill="#111111"/>
</svg>
