<svg width="280" height="268" viewBox="0 0 280 268" fill="none" xmlns="http://www.w3.org/2000/svg">
<foreignObject x="-87.3446" y="-128.654" width="454.625" height="454.782"><div xmlns="http://www.w3.org/1999/xhtml" style="backdrop-filter:blur(84.87px);clip-path:url(#bgblur_0_422_513_clip_path);height:100%;width:100%"></div></foreignObject><g data-figma-bg-blur-radius="169.741">
<rect x="82.3965" y="41.0869" width="115.143" height="115.3" rx="57.5715" fill="black" fill-opacity="0.4"/>
<rect x="83.0394" y="41.7298" width="113.857" height="114.014" rx="56.9285" stroke="#6084FE" stroke-opacity="0.84" stroke-width="1.28592"/>
</g>
<foreignObject x="-8.91797" y="-50.2293" width="297.959" height="297.959"><div xmlns="http://www.w3.org/1999/xhtml" style="backdrop-filter:blur(44.14px);clip-path:url(#bgblur_1_422_513_clip_path);height:100%;width:100%"></div></foreignObject><g filter="url(#filter1_f_422_513)" data-figma-bg-blur-radius="88.2812">
<rect x="79.3633" y="38.0519" width="121.397" height="121.397" rx="60.6983" fill="#062543" fill-opacity="0.29"/>
<rect x="80.3633" y="39.0519" width="119.397" height="119.397" rx="59.6983" stroke="#6084FE" stroke-opacity="0.84" stroke-width="2"/>
</g>
<g opacity="0.37">
<ellipse cx="144.452" cy="97.7586" rx="110.225" ry="83.7384" fill="url(#paint0_radial_422_513)" fill-opacity="0.74"/>
</g>
<g filter="url(#filter2_d_422_513)">
<path d="M107.963 70.625H126.988L127.453 70.6914L127.852 70.8574L128.184 71.0566L128.283 71.123L170.02 71.1562L170.65 71.2559L171.215 71.4219L171.746 71.6875L172.078 71.8867L172.477 72.1855L173.008 72.7168L173.307 73.1484L173.539 73.5469L173.805 74.2441L173.871 74.5098H173.938V110.602H173.871L173.738 111.1L173.539 111.631L173.24 112.129L172.975 112.494L172.609 112.893L172.211 113.225L171.68 113.557L171.148 113.789L170.584 113.955L170.219 114.021L169.787 114.055H152.289V119.633H157.568L157.834 119.699L158.166 119.998L158.266 120.197L158.299 120.363V125.875L158.232 126.207L158.033 126.473L157.834 126.605L157.602 126.672H131.836L131.57 126.572L131.338 126.373L131.205 126.141L131.172 126.008V120.297L131.271 120.031L131.438 119.832L131.703 119.666L131.836 119.633H137.182V114.021L137.115 114.055H129.014V124.713L128.914 125.244L128.748 125.609L128.549 125.941L128.184 126.307L127.852 126.506L127.354 126.639L127.154 126.672H107.697L107.1 126.539L106.734 126.307L106.336 125.908L106.07 125.477L105.938 125.145V72.1855L106.07 71.8867L106.303 71.4883L106.602 71.1562L106.9 70.9238L107.432 70.6914L107.963 70.625ZM107.996 72.252L107.73 72.3184L107.564 72.5508L107.531 73.3145V95.7266L107.598 95.8926L107.896 96.2246L108.229 96.5898L108.527 96.9551L109.025 97.6191L109.424 98.2168L109.756 98.748L110.188 99.5117L110.686 100.508L111.084 101.438L111.383 102.234L111.748 103.33L112.08 104.559L112.346 105.721L112.578 107.082L112.744 108.41L112.844 109.771L112.877 110.535V111.996L112.811 113.424L112.678 114.818L112.479 116.18L112.246 117.375L111.98 118.504L111.682 119.533L111.35 120.529L110.918 121.625L110.619 122.289L110.221 123.119L109.723 124.016L109.424 124.48L109.092 124.979L109.059 125.045L125.826 125.078L125.76 124.945L125.262 124.148L124.863 123.451L124.398 122.555L124 121.691L123.635 120.762L123.303 119.832L123.004 118.836L122.672 117.508L122.439 116.346L122.24 115.018L122.107 113.789L122.041 112.859L122.008 112.029V110.502L122.074 109.174L122.174 108.078L122.34 106.85L122.539 105.721L122.838 104.393L123.236 102.998L123.568 102.035L123.934 101.105L124.365 100.143L124.697 99.5117L125.062 98.8477L125.561 98.0508L125.959 97.4863L126.291 97.0547L126.557 96.7227L126.789 96.457V96.3906H126.855L127.088 96.125L127.287 95.8926L127.32 95.8262V72.6504L127.221 72.3848L127.088 72.2852L126.889 72.252H124.498L124.332 72.6504L123.801 74.1113L123.303 75.4727L123.07 75.8047L122.805 75.9375L122.605 75.9707H112.246L111.947 75.8711L111.682 75.6387L111.416 75.0078L110.652 72.8828L110.42 72.252H107.996ZM112.146 72.252L112.18 72.4512L112.545 73.4141L112.877 74.3105L112.91 74.377H121.975L122.107 74.1113L122.373 73.3477L122.639 72.6504L122.771 72.3184V72.252H112.146ZM129.014 72.7832V104.326L129.146 104.359L172.311 104.326V75.1074L172.211 74.6094L171.979 74.0781L171.713 73.7129L171.547 73.5137L171.215 73.248L170.816 73.0156L170.318 72.8496L169.953 72.7832H129.014ZM107.531 98.3828V124.281L107.598 124.348L108.129 123.551L108.561 122.82L108.859 122.289L109.291 121.359L109.623 120.596L109.889 119.898L110.221 118.869L110.553 117.641L110.818 116.412L111.018 115.184L111.117 114.387L111.217 113.324L111.25 112.727L111.283 111.598V111.1L111.217 109.406L111.084 108.045L110.918 106.883L110.686 105.688L110.453 104.725L110.188 103.762L109.723 102.4L109.391 101.604L109.092 100.939L108.66 100.076L108.195 99.2793L107.664 98.4824L107.531 98.3828ZM127.254 98.4492L126.988 98.8477L126.623 99.4121L126.191 100.176L125.859 100.807L125.494 101.604L125.062 102.699L124.664 103.895L124.332 105.123L124.1 106.186L123.967 106.916L123.834 107.812L123.701 109.041L123.635 110.07L123.602 111.1V111.697L123.635 112.727L123.734 114.088L123.9 115.416L124.1 116.578L124.332 117.641L124.631 118.736L125.029 119.932L125.395 120.895L125.826 121.857L126.258 122.688L126.789 123.584L127.254 124.281H127.32V98.5156L127.254 98.4492ZM129.047 105.953L129.014 106.086V112.428H169.82L170.285 112.361L170.684 112.229L171.082 112.029L171.48 111.73L171.713 111.498L172.012 111.066L172.211 110.602L172.311 110.137V105.953H129.047ZM138.809 114.088V119.633H150.629L150.662 116.014V114.088H138.809ZM132.799 121.26V125.045H156.672V121.26H132.799Z" fill="url(#paint1_linear_422_513)"/>
<path d="M148.238 75.3398H148.703L148.969 75.4727L149.234 75.7715L149.301 76.0039V79.5234H150.197L150.695 79.6562L151.127 79.8887L151.492 80.1875L151.791 80.5859L151.99 81.0176L152.09 81.4824V81.9473H156.904L157.602 82.0137L158.299 82.1797L158.963 82.4453L159.461 82.7109L159.893 83.0098L160.225 83.2754L160.623 83.6406L160.955 84.0059L161.32 84.5039L161.586 84.9355L161.852 85.4336L162.117 86.0977L162.35 86.9277L162.482 87.6582L163.047 92.041L163.545 95.959L163.811 98.0176L163.844 98.416V98.8145L163.777 99.3457L163.611 99.877L163.379 100.342L163.146 100.641L162.98 100.84L162.615 101.139L162.084 101.438L161.52 101.637L161.055 101.736L160.822 101.77H159.893L159.162 101.637L158.498 101.404L157.9 101.072L157.568 100.807L157.236 100.508L156.871 100.043L156.639 99.6445L154.846 96.0586L154.514 95.4277L154.248 94.8965L153.982 94.332L153.783 93.9336L143.125 93.9004L143.092 94.0664L142.793 94.6309L140.303 99.6113L140.07 100.01L139.771 100.408L139.439 100.74L139.074 101.039L138.311 101.438L137.68 101.637L137.182 101.736L136.916 101.77H136.086L135.488 101.67L134.857 101.438L134.492 101.238L134.16 100.973L134.027 100.873V100.807L133.928 100.773L133.562 100.309L133.297 99.7773L133.131 99.1797L133.098 98.9473V98.1504L133.33 96.291L133.762 93.0371L134.293 88.9863L134.525 87.3262L134.691 86.5957L134.957 85.7988L135.189 85.2676L135.488 84.7363L135.754 84.3379L136.186 83.8066L136.285 83.6738H136.352L136.418 83.541L136.75 83.2422L137.281 82.8438L137.912 82.4785L138.477 82.2461L139.041 82.0801L139.572 81.9805L140.004 81.9473H144.852L144.885 81.3496L144.984 80.9512L145.217 80.4863L145.449 80.1875H145.516L145.582 80.0547L146.014 79.7559L146.412 79.5898L146.744 79.5234H147.641V76.1699L147.707 75.8379L147.807 75.6387L148.072 75.4062L148.238 75.3398ZM147.408 81.1172L146.977 81.1504L146.711 81.25L146.578 81.416L146.512 81.582L146.479 81.8477L146.578 81.9473H150.43V81.6484L150.297 81.2832L150.164 81.1836L150.031 81.1504L148.172 81.1172H147.408ZM140.137 83.5742L139.506 83.6406L138.941 83.8066L138.41 84.0723L137.979 84.3711L137.58 84.7363L137.248 85.1016L136.949 85.5332L136.65 86.0645L136.385 86.6953L136.219 87.2598L136.086 87.957L135.787 90.248L135.521 92.2402L135.156 94.9961L134.924 96.7891L134.725 98.3496V98.8145L134.824 99.2129L134.957 99.4785L135.223 99.7773L135.555 99.9766L135.887 100.109L136.318 100.176H136.75L137.414 100.043L137.912 99.8438L138.41 99.5117V99.4453L138.51 99.4121L138.775 99.0469L141.697 93.2031L141.963 92.7051L142.162 92.4727L142.494 92.3066L145.117 92.2734H150.861L154.447 92.3066L154.713 92.4062L154.945 92.6387L155.145 92.9707L157.701 98.084L158 98.7148L158.266 99.1797L158.564 99.5117L158.93 99.7773L159.428 100.01L159.992 100.143L160.258 100.176H160.689L161.154 100.076L161.486 99.9434L161.852 99.6777L162.084 99.3457L162.217 98.8809V98.2168L161.42 92.1074L160.889 88.0566L160.789 87.459L160.557 86.6621L160.258 85.9648L159.959 85.4336L159.66 85.0352L159.295 84.6367L158.863 84.2715L158.365 83.9727L157.9 83.7734L157.436 83.6406L156.738 83.5742H140.137Z" fill="url(#paint2_linear_422_513)"/>
<path d="M110.486 86.7949H124.365L124.697 86.8613L124.896 86.9941L125.096 87.2266L125.195 87.4922V91.2441L125.062 91.5762L124.896 91.7754L124.631 91.9082L124.398 91.9414H110.387L110.121 91.8418L109.855 91.6094L109.723 91.377L109.689 91.1777V87.5254L109.789 87.2266L110.021 86.9609L110.254 86.8281L110.486 86.7949ZM111.316 88.4219V90.1816L111.35 90.3145H123.535L123.568 90.2812V88.4551L123.535 88.4219H111.316Z" fill="url(#paint3_linear_422_513)"/>
<path d="M110.287 79.457H124.598L124.863 79.5898L125.096 79.8555L125.195 80.1543V83.8066L125.096 84.1055L124.863 84.3711L124.73 84.4707L124.432 84.5371H110.453L110.188 84.4707L109.922 84.2715L109.756 84.0391L109.689 83.8066V80.1211L109.822 79.8223L109.988 79.623L110.221 79.4902L110.287 79.457ZM111.416 81.0508L111.316 81.1172V82.9102H123.568V81.084L123.502 81.0508H111.416Z" fill="url(#paint4_linear_422_513)"/>
<path d="M117.127 96.7227H117.725L118.422 96.8223L118.986 96.9883L119.617 97.2871L120.016 97.5527L120.381 97.8516L120.547 97.9844L120.779 98.25L121.111 98.6816L121.344 99.0469L121.576 99.5781L121.742 100.109L121.842 100.674V101.57L121.709 102.234L121.576 102.666L121.277 103.297L120.945 103.795L120.58 104.193L120.414 104.359L120.082 104.658L119.484 105.023L118.953 105.256L118.422 105.422L117.824 105.521H117.027L116.297 105.389L115.799 105.223L115.268 104.957L114.803 104.658L114.338 104.26L113.973 103.861L113.641 103.363L113.375 102.832L113.209 102.367L113.076 101.736L113.043 101.438V100.807L113.143 100.143L113.309 99.6113L113.475 99.2129L113.707 98.7812L113.973 98.416L114.271 98.084L114.67 97.6855L115.102 97.3867L115.5 97.1543L116.064 96.9219L116.596 96.7891L117.127 96.7227ZM117.293 98.3496L116.729 98.416L116.23 98.582L115.832 98.8145L115.5 99.1133L115.234 99.4121L115.035 99.7441L114.836 100.209L114.736 100.674L114.703 100.939V101.338L114.803 101.902L114.969 102.4L115.201 102.799L115.467 103.131L115.766 103.396L116.23 103.662L116.695 103.828L117.16 103.895H117.791L118.389 103.762L118.787 103.596L119.152 103.363L119.484 103.064L119.783 102.666L120.016 102.168L120.148 101.637L120.182 101.371V100.84L120.082 100.309L119.883 99.7773L119.617 99.3457L119.318 99.0137L118.92 98.7148L118.488 98.5156L117.99 98.3828L117.658 98.3496H117.293Z" fill="url(#paint5_linear_422_513)"/>
<path d="M144.287 106.783H145.15L145.615 106.883L146.113 107.148L146.479 107.447L146.744 107.779L146.977 108.244L147.109 108.742L147.143 109.008V109.373L147.076 109.838L146.943 110.27L146.678 110.734L146.379 111.066L146.047 111.332L145.615 111.531L145.217 111.631L144.984 111.664H144.453L143.955 111.564L143.557 111.398L143.191 111.166L142.859 110.834L142.627 110.469L142.428 110.004L142.328 109.506V108.941L142.428 108.443L142.594 108.012L142.826 107.646L143.125 107.314L143.457 107.082L143.855 106.883L144.287 106.783ZM144.453 108.41L144.188 108.576L144.021 108.775L143.922 109.041V109.406L144.121 109.805L144.354 109.971L144.652 110.037L145.018 110.004L145.283 109.838L145.449 109.639L145.549 109.373V109.041L145.449 108.775L145.217 108.51L144.984 108.41H144.453Z" fill="url(#paint6_linear_422_513)"/>
<path d="M113.342 120.496H121.344L121.975 120.529L122.273 120.695L122.473 120.961L122.539 121.193V121.492L122.373 121.824L122.207 121.99L122.041 122.09L121.908 122.123L121.277 122.156H113.242L112.844 122.09L112.578 121.891L112.445 121.725L112.346 121.426L112.379 121.094L112.545 120.762L112.811 120.562L112.91 120.529L113.342 120.496Z" fill="url(#paint7_linear_422_513)"/>
<path d="M139.971 85.4004H140.336L140.668 85.5332L140.867 85.7656L140.967 86.0312V87.127H142.029L142.328 87.2266L142.527 87.3926L142.693 87.7246V88.1562L142.527 88.4883L142.328 88.6543L142.162 88.7207L141.93 88.7539H140.967V89.8164L140.801 90.1484L140.668 90.3145L140.336 90.4473H139.938L139.672 90.3145L139.406 90.0156L139.34 89.8164V88.7539H138.244L137.912 88.5879L137.713 88.3555L137.613 88.0898V87.791L137.746 87.459L137.912 87.293L138.244 87.127L139.307 87.0938L139.34 85.998L139.506 85.666L139.705 85.5L139.971 85.4004Z" fill="url(#paint8_linear_422_513)"/>
<path d="M145.482 89.916H151.459L151.791 90.0488L152.023 90.3145L152.123 90.5801V90.8789L151.99 91.2109L151.924 91.3105H151.857V91.377L151.592 91.5098L151.426 91.543H145.482L145.15 91.4102L144.918 91.1445L144.818 90.8125L144.852 90.4805L144.984 90.2148L145.217 90.0156L145.482 89.916Z" fill="url(#paint9_linear_422_513)"/>
<path d="M168.127 108.344H168.658L169.555 108.377L169.92 108.41L170.252 108.576L170.451 108.842L170.518 109.041V109.406L170.352 109.738L170.186 109.904L169.92 110.004L169.721 110.037L168.691 110.07H168.127L167.695 110.037L167.33 109.938L167.131 109.838L166.898 109.572L166.832 109.439V109.008L166.932 108.775L167.064 108.609L167.396 108.443L167.695 108.377L168.127 108.344Z" fill="url(#paint10_linear_422_513)"/>
<path d="M162.516 108.344H162.98L163.91 108.377L164.309 108.41L164.574 108.543L164.807 108.809L164.873 108.975L164.906 109.307L164.773 109.672L164.641 109.838L164.441 109.971L164.109 110.037L163.014 110.07H162.549L162.084 110.037L161.686 109.938L161.387 109.738L161.254 109.539L161.188 109.174L161.254 108.875L161.387 108.676L161.553 108.543L161.852 108.41L162.516 108.344Z" fill="url(#paint11_linear_422_513)"/>
<path d="M156.904 108.344H157.369L158.266 108.377L158.664 108.41L158.93 108.543L159.096 108.709L159.229 108.941L159.262 109.041V109.373L159.129 109.672L158.93 109.904L158.664 110.004L158.398 110.037L156.938 110.07L156.273 110.004L155.941 109.871L155.742 109.705L155.609 109.439V108.975L155.742 108.709L155.941 108.543L156.273 108.41L156.904 108.344Z" fill="url(#paint12_linear_422_513)"/>
<path d="M117.227 99.3457H117.658L117.957 99.4785L118.189 99.7441L118.256 99.9434L118.289 100.342V101.936L118.189 102.434L117.957 102.799L117.758 102.898L117.592 102.932H117.26L116.961 102.799L116.795 102.6L116.662 102.268L116.596 101.869V100.674L116.629 99.9766L116.762 99.6445L116.994 99.4453L117.227 99.3457Z" fill="url(#paint13_linear_422_513)"/>
<path d="M150.729 84.4375H151.725L152.123 84.5039L152.322 84.6367L152.521 84.8691L152.621 85.168L152.588 85.5332L152.389 85.8652L152.123 86.0312L151.691 86.0977H150.662L150.264 86.0312L149.932 85.8652L149.766 85.666L149.699 85.4668V85.1016L149.799 84.8359L149.965 84.6699L150.098 84.5703L150.43 84.4707L150.729 84.4375Z" fill="url(#paint14_linear_422_513)"/>
<path d="M145.383 84.4375H146.379L146.777 84.5039L147.043 84.6699L147.242 85.002L147.275 85.1348V85.4004L147.176 85.666L147.043 85.8652L146.777 86.0312L146.346 86.0977H145.316L144.818 85.998L144.52 85.7988L144.387 85.5664L144.354 85.4336V85.1016L144.486 84.8027L144.652 84.6367L144.951 84.5039L145.383 84.4375Z" fill="url(#paint15_linear_422_513)"/>
<path d="M157.037 88.5879H157.402L157.668 88.6875L157.934 88.9531L158.033 89.1523L158.066 89.2852V90.5801L157.967 90.9785L157.801 91.2441L157.568 91.377L157.436 91.4102H157.004L156.738 91.2773L156.572 91.0781L156.439 90.7129L156.406 90.4805V89.3848L156.473 89.0859L156.605 88.8867L156.871 88.6543L157.037 88.5879Z" fill="url(#paint16_linear_422_513)"/>
<path d="M157.104 84.4707H157.369L157.668 84.5703L157.934 84.8027L158.066 85.168L158.1 86.1641L158.033 86.6289L157.934 86.8945L157.768 87.127L157.535 87.2598L157.369 87.293H157.07L156.838 87.1934L156.605 86.9941L156.439 86.5957L156.406 86.3633V85.2676L156.473 84.9688L156.605 84.7363L156.871 84.5371L157.104 84.4707Z" fill="url(#paint17_linear_422_513)"/>
<path d="M158.996 87.0938H159.594L160.059 87.127L160.324 87.2266L160.557 87.4258L160.689 87.7246L160.723 88.0234L160.623 88.3223L160.49 88.5215L160.324 88.6543L160.025 88.7539L159.527 88.7871H158.996L158.498 88.7207L158.166 88.5547L157.967 88.3223L157.867 87.9902L157.9 87.6914L158.1 87.3926L158.332 87.2266L158.664 87.127L158.996 87.0938Z" fill="url(#paint18_linear_422_513)"/>
<path d="M154.912 87.0938H155.443L155.908 87.127L156.24 87.2598L156.473 87.5254L156.572 87.8242V88.0898L156.473 88.3555L156.24 88.6211L156.041 88.7207L155.543 88.7871H154.879L154.381 88.7207L154.049 88.5879L153.85 88.3555L153.75 88.0566V87.8242L153.85 87.5254L154.049 87.293L154.381 87.1602L154.912 87.0938Z" fill="url(#paint19_linear_422_513)"/>
</g>
<defs>
<clipPath id="bgblur_0_422_513_clip_path" transform="translate(87.3446 128.654)"><rect x="82.3965" y="41.0869" width="115.143" height="115.3" rx="57.5715"/>
</clipPath><filter id="filter1_f_422_513" x="-8.91797" y="-50.2293" width="297.959" height="297.959" filterUnits="userSpaceOnUse" color-interpolation-filters="sRGB">
<feFlood flood-opacity="0" result="BackgroundImageFix"/>
<feBlend mode="normal" in="SourceGraphic" in2="BackgroundImageFix" result="shape"/>
<feGaussianBlur stdDeviation="3" result="effect1_foregroundBlur_422_513"/>
</filter>
<clipPath id="bgblur_1_422_513_clip_path" transform="translate(8.91797 50.2293)"><rect x="79.3633" y="38.0519" width="121.397" height="121.397" rx="60.6983"/>
</clipPath><filter id="filter2_d_422_513" x="0" y="0" width="279.875" height="267.922" filterUnits="userSpaceOnUse" color-interpolation-filters="sRGB">
<feFlood flood-opacity="0" result="BackgroundImageFix"/>
<feColorMatrix in="SourceAlpha" type="matrix" values="0 0 0 0 0 0 0 0 0 0 0 0 0 0 0 0 0 0 127 0" result="hardAlpha"/>
<feOffset dy="35.3125"/>
<feGaussianBlur stdDeviation="52.9688"/>
<feColorMatrix type="matrix" values="0 0 0 0 0 0 0 0 0 0 0 0 0 0 0 0 0 0 1 0"/>
<feBlend mode="soft-light" in2="BackgroundImageFix" result="effect1_dropShadow_422_513"/>
<feBlend mode="normal" in="SourceGraphic" in2="effect1_dropShadow_422_513" result="shape"/>
</filter>
<radialGradient id="paint0_radial_422_513" cx="0" cy="0" r="1" gradientUnits="userSpaceOnUse" gradientTransform="translate(144.452 97.7586) rotate(90) scale(83.7384 110.225)">
<stop offset="0.177083" stop-color="white"/>
<stop offset="1" stop-color="#434343" stop-opacity="0"/>
</radialGradient>
<linearGradient id="paint1_linear_422_513" x1="158.442" y1="70.5872" x2="101.077" y2="115.954" gradientUnits="userSpaceOnUse">
<stop stop-color="#D7EDFF"/>
<stop offset="1" stop-color="#979797"/>
</linearGradient>
<linearGradient id="paint2_linear_422_513" x1="156.837" y1="75.322" x2="130.069" y2="95.6197" gradientUnits="userSpaceOnUse">
<stop stop-color="#D7EDFF"/>
<stop offset="1" stop-color="#979797"/>
</linearGradient>
<linearGradient id="paint3_linear_422_513" x1="121.662" y1="86.7915" x2="117.284" y2="95.3888" gradientUnits="userSpaceOnUse">
<stop stop-color="#D7EDFF"/>
<stop offset="1" stop-color="#979797"/>
</linearGradient>
<linearGradient id="paint4_linear_422_513" x1="121.662" y1="79.4536" x2="117.374" y2="87.9851" gradientUnits="userSpaceOnUse">
<stop stop-color="#D7EDFF"/>
<stop offset="1" stop-color="#979797"/>
</linearGradient>
<linearGradient id="paint5_linear_422_513" x1="119.837" y1="96.7167" x2="111.369" y2="102.236" gradientUnits="userSpaceOnUse">
<stop stop-color="#D7EDFF"/>
<stop offset="1" stop-color="#979797"/>
</linearGradient>
<linearGradient id="paint6_linear_422_513" x1="146.045" y1="106.78" x2="141.375" y2="109.783" gradientUnits="userSpaceOnUse">
<stop stop-color="#D7EDFF"/>
<stop offset="1" stop-color="#979797"/>
</linearGradient>
<linearGradient id="paint7_linear_422_513" x1="120.216" y1="120.495" x2="119.395" y2="123.782" gradientUnits="userSpaceOnUse">
<stop stop-color="#D7EDFF"/>
<stop offset="1" stop-color="#979797"/>
</linearGradient>
<linearGradient id="paint8_linear_422_513" x1="141.536" y1="85.397" x2="136.666" y2="88.592" gradientUnits="userSpaceOnUse">
<stop stop-color="#D7EDFF"/>
<stop offset="1" stop-color="#979797"/>
</linearGradient>
<linearGradient id="paint9_linear_422_513" x1="150.458" y1="89.9149" x2="149.411" y2="92.9796" gradientUnits="userSpaceOnUse">
<stop stop-color="#D7EDFF"/>
<stop offset="1" stop-color="#979797"/>
</linearGradient>
<linearGradient id="paint10_linear_422_513" x1="169.678" y1="108.343" x2="167.956" y2="110.738" gradientUnits="userSpaceOnUse">
<stop stop-color="#D7EDFF"/>
<stop offset="1" stop-color="#979797"/>
</linearGradient>
<linearGradient id="paint11_linear_422_513" x1="164.059" y1="108.343" x2="162.343" y2="110.752" gradientUnits="userSpaceOnUse">
<stop stop-color="#D7EDFF"/>
<stop offset="1" stop-color="#979797"/>
</linearGradient>
<linearGradient id="paint12_linear_422_513" x1="158.429" y1="108.343" x2="156.703" y2="110.723" gradientUnits="userSpaceOnUse">
<stop stop-color="#D7EDFF"/>
<stop offset="1" stop-color="#979797"/>
</linearGradient>
<linearGradient id="paint13_linear_422_513" x1="117.903" y1="99.3433" x2="115.782" y2="99.9961" gradientUnits="userSpaceOnUse">
<stop stop-color="#D7EDFF"/>
<stop offset="1" stop-color="#979797"/>
</linearGradient>
<linearGradient id="paint14_linear_422_513" x1="151.955" y1="84.4364" x2="150.225" y2="86.4209" gradientUnits="userSpaceOnUse">
<stop stop-color="#D7EDFF"/>
<stop offset="1" stop-color="#979797"/>
</linearGradient>
<linearGradient id="paint15_linear_422_513" x1="146.61" y1="84.4364" x2="144.88" y2="86.4209" gradientUnits="userSpaceOnUse">
<stop stop-color="#D7EDFF"/>
<stop offset="1" stop-color="#979797"/>
</linearGradient>
<linearGradient id="paint16_linear_422_513" x1="157.688" y1="88.586" x2="155.703" y2="89.347" gradientUnits="userSpaceOnUse">
<stop stop-color="#D7EDFF"/>
<stop offset="1" stop-color="#979797"/>
</linearGradient>
<linearGradient id="paint17_linear_422_513" x1="157.714" y1="84.4688" x2="155.7" y2="85.2564" gradientUnits="userSpaceOnUse">
<stop stop-color="#D7EDFF"/>
<stop offset="1" stop-color="#979797"/>
</linearGradient>
<linearGradient id="paint18_linear_422_513" x1="160.072" y1="87.0926" x2="158.299" y2="89.0416" gradientUnits="userSpaceOnUse">
<stop stop-color="#D7EDFF"/>
<stop offset="1" stop-color="#979797"/>
</linearGradient>
<linearGradient id="paint19_linear_422_513" x1="155.929" y1="87.0926" x2="154.154" y2="89.021" gradientUnits="userSpaceOnUse">
<stop stop-color="#D7EDFF"/>
<stop offset="1" stop-color="#979797"/>
</linearGradient>
</defs>
</svg>
