<svg width="30" height="30" viewBox="0 0 30 30" fill="none" xmlns="http://www.w3.org/2000/svg">
<path d="M2.31445 1.24512H27.6562L27.876 1.28906L28.1104 1.3916L28.3008 1.52344L28.4912 1.71387L28.5938 1.875L28.6816 2.05078L28.7402 2.25586L28.7549 2.3584V27.6123L28.7109 27.8467L28.623 28.0664L28.5059 28.2568L28.374 28.4033L28.2568 28.5059L28.0957 28.6084L27.9199 28.6816L27.6855 28.7402L27.5684 28.7549H2.40234L2.19727 28.7256L1.99219 28.6523L1.80176 28.5498L1.64062 28.418L1.53809 28.3154L1.4209 28.1543L1.31836 27.9492L1.27441 27.8174L1.24512 27.6562V2.31445L1.30371 2.08008L1.4209 1.8457L1.53809 1.68457L1.64062 1.56738H1.66992V1.53809L1.86035 1.40625L2.03613 1.31836L2.24121 1.25977L2.31445 1.24512ZM6.22559 9.375L5.96191 9.4043L5.77148 9.46289L5.55176 9.58008L5.36133 9.74121L5.21484 9.91699L5.09766 10.1367L5.03906 10.2979L5.00977 10.4736V15.1465L5.05371 15.3662L5.15625 15.6006L5.25879 15.7617L5.44922 15.9814L5.97656 16.5967L6.16699 16.8164L6.29883 16.9775L6.44531 17.1387L6.57715 17.2998L6.72363 17.4609L6.85547 17.6221L7.03125 17.8271L7.22168 18.0469L7.38281 18.2373L7.57324 18.457L7.73438 18.6475L7.9248 18.8672L8.08594 19.0576L8.27637 19.2773L8.62793 19.6875L8.78906 19.8779L8.96484 20.083L9.14062 20.2734L9.25781 20.376L9.38965 20.4639L9.63867 20.5664L9.8584 20.6104H20.127L20.3467 20.5664L20.5371 20.4932L20.6982 20.4053L20.8594 20.2734L20.9766 20.1562L21.1084 19.9951L21.2402 19.8486L21.3721 19.6875L21.5039 19.541L21.6357 19.3799L22.0166 18.9404L22.1777 18.75L22.3682 18.5303L22.5293 18.3398L22.7197 18.1201L22.8809 17.9297L23.0713 17.71L23.2324 17.5195L23.4229 17.2998L23.584 17.1094L23.7744 16.8896L23.9355 16.6992L24.126 16.4795L24.3018 16.2744L24.4922 16.0547L24.624 15.8936L24.7266 15.7764L24.8584 15.5713L24.9463 15.3516L24.9902 15.1025V10.5615L24.9609 10.3271L24.8877 10.1074L24.7998 9.94629L24.6533 9.75586L24.5068 9.62402L24.2871 9.49219L24.0234 9.4043L23.7598 9.375H6.22559Z" fill="#6084FE"/>
<path d="M9.99023 12.4951H19.9951L20.0098 12.5244V14.9854L19.9951 15H9.99023V12.4951Z" fill="#6084FE"/>
</svg>
