<svg width="30" height="30" viewBox="0 0 30 30" fill="none" xmlns="http://www.w3.org/2000/svg">
<path d="M4.11621 9.78516H5.46387L5.49316 9.8291L5.50781 11.3232L5.55176 11.4111L5.63965 11.4844L5.71289 11.499H9.8877L9.99023 11.4404L10.0488 11.3672L10.0781 11.1914V9.84375L10.1074 9.78516H15.8203L19.8926 9.7998L19.9072 9.81445L19.9219 11.2646L19.9658 11.3965L20.0391 11.4697L20.127 11.499H24.3018L24.4189 11.4404L24.4336 11.4111H24.4629L24.4922 11.2793L24.5068 9.7998L24.5215 9.78516H25.8398L26.0596 9.7998L26.3086 9.8584L26.543 9.96094L26.7188 10.0635L26.8652 10.1807L26.9678 10.2686L27.0996 10.4297L27.2461 10.6641L27.334 10.8691L27.3926 11.1035L27.4072 11.2207V23.0713L27.3926 23.0859L23.9941 23.1006L23.9355 23.0859L23.9209 14.6484L23.8623 14.5312V14.502L23.7451 14.4434L23.5254 14.4287H6.35742L6.21094 14.458L6.12305 14.5312L6.0791 14.6338L6.06445 23.0713L6.0498 23.0859H2.59277L2.57812 23.0713V11.3525L2.60742 11.0889L2.66602 10.8691L2.76855 10.6348L2.90039 10.4297L3.00293 10.2979H3.03223L3.06152 10.2393L3.10547 10.2246V10.1953L3.2959 10.0488L3.50098 9.93164L3.67676 9.8584L3.94043 9.7998L4.11621 9.78516Z" fill="#6084FE"/>
<path d="M6.63574 14.9854H23.3643L23.3789 15.0146L23.3643 23.0713L23.3496 23.0859L6.67969 23.1006L6.62109 23.0713V15L6.63574 14.9854ZM7.9834 16.1572L7.88086 16.2158L7.80762 16.333L7.79297 16.377V17.6074L7.83691 17.7393L7.91016 17.8125L7.9834 17.8564H8.15918L8.27637 17.7832L8.33496 17.6953L8.34961 17.6514V16.3477L8.27637 16.2305L8.20312 16.1719L8.17383 16.1572H7.9834ZM9.78516 16.1426L9.65332 16.1865L9.55078 16.2891L9.52148 16.4355V17.5781L9.55078 17.7246L9.60938 17.7979L9.72656 17.8564H9.8877L10.0049 17.7832L10.0635 17.71L10.0781 17.6807L10.0928 16.4062L10.0488 16.2891L9.96094 16.1865L9.8877 16.1572L9.78516 16.1426ZM11.543 16.1426L11.4111 16.1719L11.3086 16.2598L11.2646 16.3477L11.25 16.5088V17.5635L11.2793 17.71L11.3818 17.8271L11.4404 17.8564H11.6162L11.7188 17.7979L11.792 17.71L11.8213 17.5928V16.377L11.748 16.2305L11.6309 16.1572L11.543 16.1426ZM13.2422 16.1426L13.1104 16.1865L13.0078 16.3037L12.9932 16.3623V17.666L13.0371 17.7539L13.1396 17.8418L13.1836 17.8564H13.3594L13.4766 17.7832L13.5352 17.6807L13.5498 17.5928V16.3916L13.5059 16.2744L13.3887 16.1719L13.2422 16.1426ZM15 16.1426L14.8682 16.1719L14.7656 16.2598L14.7217 16.3623V17.6514L14.7803 17.7686L14.8535 17.8271L14.9121 17.8564H15.0879L15.2051 17.7832L15.2637 17.6807L15.2783 17.6367V16.3623L15.2344 16.2744L15.1758 16.2012L15.1025 16.1572L15 16.1426ZM16.6992 16.1426L16.582 16.1865L16.5088 16.2598L16.4648 16.3184L16.4502 16.377V17.6514L16.5088 17.7686L16.6406 17.8564H16.8164L16.9482 17.7686L16.9922 17.6953L17.0068 17.6367V16.3623L16.9482 16.2451L16.8604 16.1719L16.6992 16.1426ZM18.457 16.1426L18.3252 16.1719L18.2373 16.2451L18.1934 16.333L18.1787 16.4062V17.6074L18.2227 17.7393L18.2812 17.8125L18.3691 17.8564H18.5449L18.6768 17.7686L18.7354 17.6514V16.3477L18.6475 16.2158L18.5596 16.1572L18.457 16.1426ZM20.0977 16.1572L20.0244 16.2012L19.9512 16.2744L19.9219 16.333L19.9072 16.4209V17.6074L19.9512 17.7393L20.0244 17.8125L20.0977 17.8564H20.2734L20.3906 17.7832L20.4492 17.71L20.4639 17.666L20.4785 16.4209L20.4346 16.2891L20.3467 16.1865L20.2881 16.1572H20.0977ZM21.9141 16.1426L21.7969 16.1719L21.709 16.2305L21.6504 16.333L21.6357 16.5527V17.5781L21.665 17.71L21.7236 17.7979L21.8408 17.8564H22.002L22.1045 17.7979L22.1777 17.71L22.207 17.5781V16.4062L22.1631 16.2744L22.0459 16.1719L21.9141 16.1426Z" fill="#6084FE"/>
<path d="M2.59277 23.6572H27.4072L27.4219 23.7305L27.3926 24.0381L27.334 24.2871L27.2607 24.4629L27.1582 24.6533L27.0117 24.8438L26.8359 25.0195L26.6455 25.1514L26.4404 25.2539L26.2207 25.3271L25.9863 25.3711L25.708 25.3857H4.43848L3.99902 25.3711L3.75 25.3271L3.51562 25.2393L3.3252 25.1367L3.13477 24.9902L2.95898 24.8145L2.8418 24.6533L2.72461 24.4482L2.65137 24.2578L2.60742 24.082L2.57812 23.7891V23.6719L2.59277 23.6572Z" fill="#6084FE"/>
<path d="M6.06445 25.9424H10.0928L10.1074 25.9717V27.085H19.8779L19.8926 25.957L19.9072 25.9424H23.9209L23.9502 25.957V27.0996H27.1729L27.2754 27.1436L27.3633 27.2168L27.4072 27.3193V27.4658L27.334 27.5977L27.2607 27.6562L27.1729 27.6855H2.82715L2.72461 27.6416L2.63672 27.5684L2.59277 27.4805L2.57812 27.3926L2.60742 27.2754L2.66602 27.1875L2.75391 27.1143L2.79785 27.0996H6.03516L6.0498 25.957L6.06445 25.9424Z" fill="#6084FE"/>
<path d="M10.7959 6.92871H19.1602L19.3213 6.95801L19.5264 7.06055L19.7021 7.22168L19.8047 7.35352L19.8779 7.5293L19.9072 7.64648V9.21387L19.8779 9.22852H10.1074L10.0781 9.18457V7.79297L10.1074 7.55859L10.1807 7.38281L10.2686 7.25098L10.3711 7.13379L10.5176 7.03125L10.6787 6.95801L10.7959 6.92871Z" fill="#6084FE"/>
<path d="M24.9463 2.88574H25.2393L25.4443 2.92969L25.6787 3.03223L25.8545 3.16406L26.0156 3.3252L26.1328 3.51562L26.2061 3.69141L26.25 3.86719V4.2334L26.1914 4.45312L26.0889 4.6582L25.957 4.83398L25.7959 4.98047L25.5908 5.09766L25.4004 5.1709L25.2686 5.2002L25.0488 5.21484L24.8291 5.18555L24.5947 5.09766L24.4336 5.00977L24.2578 4.84863L24.1406 4.7168L24.0234 4.51172L23.9502 4.29199L23.9355 4.21875V3.88184L23.9941 3.64746L24.1113 3.41309L24.2432 3.25195L24.3604 3.13477L24.5654 3.00293L24.7412 2.92969L24.9463 2.88574Z" fill="#6084FE"/>
<path d="M20.4785 9.7998H23.9355L23.9502 9.81445V10.9424L23.9355 10.957H20.4785L20.4639 10.9424V9.8291L20.4785 9.7998Z" fill="#6084FE"/>
<path d="M6.0791 9.78516L9.50684 9.7998L9.52148 9.81445V10.9424L9.50684 10.957H6.06445L6.0498 10.9424V9.7998L6.0791 9.78516Z" fill="#6084FE"/>
<path d="M4.46777 4.04297H4.74609L4.92188 4.08691L5.1123 4.18945L5.28809 4.35059L5.39062 4.51172L5.46387 4.6875L5.49316 4.83398V4.99512L5.44922 5.18555L5.33203 5.41992L5.2002 5.56641L5.05371 5.66895L4.89258 5.74219L4.7168 5.78613H4.51172L4.33594 5.74219L4.13086 5.63965L3.98438 5.50781L3.88184 5.39062L3.7793 5.18555L3.73535 4.98047V4.86328L3.7793 4.64355L3.83789 4.49707L3.95508 4.33594L4.07227 4.21875L4.2334 4.11621L4.39453 4.05762L4.46777 4.04297Z" fill="#6084FE"/>
<path d="M20.6836 3.75H20.8447L20.9619 3.7793L21.1084 3.85254L21.1816 3.91113L21.2988 4.07227L21.3428 4.2041L21.3574 4.27734L21.3428 4.46777L21.2842 4.61426L21.1963 4.73145L21.0791 4.83398L20.9033 4.90723L20.7422 4.92188L20.5664 4.89258L20.4346 4.81934L20.3174 4.7168L20.2148 4.54102L20.1855 4.45312V4.2334L20.2441 4.05762L20.3467 3.92578L20.4492 3.83789L20.5664 3.7793L20.6836 3.75Z" fill="#6084FE"/>
<path d="M9.11133 3.17871H9.36035L9.53613 3.25195L9.68262 3.38379L9.75586 3.48633L9.81445 3.66211V3.83789L9.77051 3.98438L9.68262 4.13086L9.58008 4.2334L9.43359 4.30664L9.31641 4.33594H9.12598L8.97949 4.29199L8.84766 4.2041L8.73047 4.07227L8.65723 3.91113L8.64258 3.83789V3.69141L8.68652 3.53027L8.77441 3.38379L8.87695 3.28125L9.05273 3.19336L9.11133 3.17871Z" fill="#6084FE"/>
<path d="M14.3555 2.59277H14.4873L14.6484 2.63672L14.7949 2.72461L14.9121 2.85645L14.9854 3.00293L15 3.06152V3.31055L14.9268 3.48633L14.7949 3.63281L14.6777 3.70605L14.5605 3.75L14.3555 3.76465L14.1797 3.7207L14.0332 3.61816L13.9307 3.50098L13.8574 3.35449L13.8281 3.16406L13.8574 3.00293L13.9453 2.82715L14.0625 2.70996L14.2236 2.62207L14.3555 2.59277Z" fill="#6084FE"/>
<path d="M26.5137 7.20703L26.6748 7.22168L26.8506 7.29492L26.9971 7.42676L27.085 7.57324L27.1143 7.66113L27.1289 7.83691L27.085 8.0127L27.0117 8.14453L26.8799 8.27637L26.7334 8.34961L26.6016 8.37891H26.4551L26.2646 8.32031L26.1475 8.23242L26.0449 8.11523L25.9717 7.96875L25.957 7.91016V7.69043L26.0156 7.51465L26.1182 7.38281L26.2061 7.30957L26.3525 7.23633L26.5137 7.20703Z" fill="#6084FE"/>
<path d="M6.25488 6.63574H6.43066L6.57715 6.67969L6.72363 6.76758L6.84082 6.89941L6.91406 7.06055L6.92871 7.13379V7.30957L6.88477 7.45605L6.78223 7.61719L6.65039 7.71973L6.51855 7.77832L6.45996 7.79297H6.22559L6.0791 7.74902L5.96191 7.66113L5.84473 7.5293L5.77148 7.36816L5.75684 7.29492V7.14844L5.81543 6.95801L5.91797 6.81152L6.0498 6.70898L6.18164 6.65039L6.25488 6.63574Z" fill="#6084FE"/>
</svg>
