<svg width="30" height="30" viewBox="0 0 30 30" fill="none" xmlns="http://www.w3.org/2000/svg">
<g clip-path="url(#clip0_194_553)">
<path d="M0 0.922852H30V23.7891L0.0292969 23.8037L0 23.7891V0.922852ZM19.4092 4.45312L19.3945 4.61426V6.21094H17.6514L17.6367 6.43066V7.9541L19.3652 7.96875L19.3945 7.9834V9.71191L21.1084 9.72656L21.1377 9.71191L21.1523 7.9834L21.167 7.96875H26.3818L26.4111 7.9541V6.21094L21.1523 6.19629L21.1377 4.45312H19.4092ZM8.8623 6.21094L8.84766 6.43066V8.05664L8.58398 8.11523L8.10059 8.27637L7.71973 8.45215L7.36816 8.65723L7.28027 8.70117L7.25098 8.64258L6.00586 7.39746L5.90332 7.48535L4.76074 8.62793L4.84863 8.73047L6.0498 9.93164L6.02051 10.0049L5.83008 10.3418L5.68359 10.6494L5.55176 11.001L5.44922 11.3525L5.41992 11.4697L3.58887 11.4844L3.57422 11.7041V13.2275L5.39062 13.2422L5.41992 13.2568L5.53711 13.6816L5.6543 14.0039L5.78613 14.2969L5.93262 14.5752L6.0498 14.7656L6.06445 14.8096L6.00586 14.8389L4.76074 16.084L4.84863 16.1865L5.83008 17.168H5.85938L5.87402 17.2119L5.99121 17.3145L6.03516 17.2998L6.1377 17.1826L7.28027 16.04L7.35352 16.0547L7.70508 16.2598L7.9834 16.3916L8.27637 16.5088L8.83301 16.6699L8.84766 16.7285V18.501L10.5615 18.5156L10.5908 18.501L10.6055 16.6846L10.708 16.6406L11.0742 16.5381L11.3965 16.4209L11.8213 16.2158L12.0703 16.0693L12.1143 16.04H12.1729L12.2754 16.1572L12.8613 16.7432H12.8906L12.9199 16.8018H12.9492L12.9785 16.8604H13.0078L13.0371 16.9189H13.0664L13.0957 16.9775H13.125L13.1543 17.0361L13.2129 17.0947H13.2422L13.2715 17.1533H13.3008V17.1826L13.4033 17.2705L13.4473 17.3145L13.4912 17.2998L13.6084 17.1826V17.1533L13.6523 17.1387L13.7256 17.0508L13.7842 17.0068V16.9775L13.8428 16.9482V16.9189L13.9014 16.8896V16.8604L13.96 16.8311V16.8018L14.0186 16.7725V16.7432L14.0771 16.7139V16.6846L14.1357 16.6553V16.626L14.1943 16.5967V16.5674L14.2529 16.5381V16.5088L14.3115 16.4795V16.4502L14.3701 16.4209V16.3916L14.4287 16.3623V16.333L14.4727 16.3184L14.5459 16.2305L14.6484 16.1426L14.6777 16.0693L13.4326 14.8242H13.4033L13.418 14.7363L13.5498 14.5166L13.7109 14.209L13.8721 13.8135L14.0039 13.3594L14.0479 13.2422H15.8203L15.8643 13.2275V11.4844L14.0332 11.4697L13.916 11.0449L13.7695 10.6494L13.5791 10.2539L13.4326 10.0049L13.3887 9.90234L13.4473 9.87305L13.5645 9.77051L13.5938 9.71191H13.623V9.68262H13.6523V9.65332H13.6816V9.62402H13.7109L13.8135 9.50684L14.6338 8.68652L14.6631 8.67188V8.64258L14.6924 8.62793L13.4619 7.39746L13.3594 7.48535L12.1875 8.65723L12.1729 8.68652L12.085 8.65723L11.7773 8.48145L11.3818 8.29102L11.1035 8.18848L10.6934 8.07129L10.6201 8.05664L10.6055 7.96875L10.5908 6.21094H8.8623ZM22.9248 9.72656L22.9102 10.0195V11.4844H17.6514L17.6367 11.7627V13.2275L17.71 13.2422H22.9102V14.9854L24.624 15L24.6533 14.9854L24.668 13.2568L24.6826 13.2422H26.3818L26.4111 13.2275V11.4844L24.668 11.4697L24.6533 9.72656H22.9248ZM19.4092 15L19.3945 15.2197V16.7578H17.6514L17.6367 16.9775V18.501L19.3652 18.5156L19.3945 18.5303V20.2588L21.1084 20.2734L21.1377 20.2588L21.1523 18.5303L21.167 18.5156H26.3818L26.4111 18.501V16.7578L21.1523 16.7432L21.1377 15H19.4092Z" fill="#6084FE"/>
<path d="M8.68652 25.5322H21.3135L21.3867 25.6055L21.8115 26.25L22.2363 26.8799L22.6611 27.5244L23.0859 28.1543L23.5107 28.7988L23.6719 29.0332V29.0625H6.32812L6.34277 29.0039L6.48926 28.7988L6.67969 28.5059L7.99805 26.5283L8.42285 25.8984L8.52539 25.7373L8.64258 25.5762L8.68652 25.5322Z" fill="#6084FE"/>
<path d="M9.62402 9.71191H9.8291L10.1367 9.74121L10.415 9.7998L10.6787 9.8877L10.9424 10.0049L11.1914 10.1514L11.3818 10.2979L11.5283 10.4297L11.6162 10.5029L11.7188 10.6201L11.8945 10.8398L12.041 11.0742L12.1875 11.3818L12.2754 11.6455L12.334 11.8945L12.3633 12.1143V12.6123L12.3193 12.9053L12.2314 13.2129L12.1582 13.4033L12.041 13.6523L11.8799 13.9014L11.7627 14.0479L11.6309 14.1943L11.4551 14.3701L11.2207 14.5459L10.9277 14.7217L10.6934 14.8242L10.4297 14.9121L10.0781 14.9854L9.93164 15H9.49219L9.18457 14.9561L8.83301 14.8535L8.52539 14.7217L8.32031 14.6045L8.11523 14.458L7.9248 14.2969L7.73438 14.1064L7.57324 13.9014L7.44141 13.6963L7.29492 13.418L7.19238 13.1396L7.11914 12.8467L7.08984 12.6562L7.0752 12.4658V12.29L7.10449 11.9678L7.17773 11.6309L7.28027 11.3379L7.39746 11.1035L7.51465 10.8984L7.70508 10.6494L7.9248 10.415L8.08594 10.2832L8.26172 10.1514L8.48145 10.0195L8.75977 9.8877L9.03809 9.7998L9.31641 9.74121L9.62402 9.71191ZM8.8623 11.4844L8.84766 12.1729V13.2275H10.5908V11.4844H8.8623Z" fill="#6084FE"/>
</g>
<defs>
<clipPath id="clip0_194_553">
<rect width="30" height="30" fill="white"/>
</clipPath>
</defs>
</svg>
