<svg width="38" height="38" viewBox="0 0 38 38" fill="none" xmlns="http://www.w3.org/2000/svg">
<g filter="url(#filter0_d_187_217)">
<g clip-path="url(#clip0_187_217)">
<path d="M7.31055 0H30.748V0.0146484L31.1875 0.102539L31.5391 0.205078L31.8906 0.351562L32.2129 0.527344L32.4326 0.673828L32.623 0.820312L32.7695 0.952148L32.8867 1.05469L33.0332 1.20117V1.23047H33.0625L33.2236 1.43555L33.3555 1.61133L33.502 1.8457L33.5898 1.99219L33.7363 2.31445L33.8535 2.66602L33.9414 3.03223L33.9707 3.20801H34V26.7773L33.9707 26.7627L33.9121 27.0996L33.8096 27.4805L33.6924 27.7734L33.5605 28.0518L33.3994 28.3154L33.2236 28.5645L33.0918 28.7256L32.8721 28.96L32.6963 29.1211L32.4473 29.3115L32.2275 29.458L31.832 29.6631L31.4658 29.8096L31.1582 29.8975L30.7773 29.9707L30.6162 30H7.2666L7.2373 29.9707L6.8418 29.8975L6.53418 29.8096L6.25586 29.707L5.94824 29.5605L5.61133 29.3555L5.34766 29.1504L5.15723 28.9746L5.08398 28.916L4.98145 28.7988L4.82031 28.623L4.61523 28.3447L4.43945 28.0518L4.32227 27.8174L4.20508 27.5244L4.10254 27.1875L4.0293 26.792V26.7188H4V3.31055L4.07324 2.94434L4.14648 2.65137L4.24902 2.34375L4.38086 2.05078L4.52734 1.78711L4.67383 1.56738L4.86426 1.31836L5.08398 1.08398L5.23047 0.9375L5.3916 0.805664L5.62598 0.629883L5.93359 0.439453L6.2998 0.263672L6.59277 0.161133L6.91504 0.0732422L7.2666 0.0146484L7.31055 0ZM18.8389 2.63672L18.3408 2.65137L17.7402 2.69531L17.1543 2.76855L16.4951 2.88574L15.9824 3.00293L15.2646 3.20801L14.708 3.39844L14.0928 3.64746L13.6533 3.85254L13.126 4.11621L12.8184 4.29199L12.5693 4.43848L12.2764 4.62891L11.9688 4.83398L11.7197 5.00977L11.5293 5.15625L11.3975 5.25879L11.1924 5.41992L10.9873 5.5957L10.8408 5.72754L10.6797 5.85938L10.46 6.0791L10.3428 6.18164L10.0645 6.45996L9.96191 6.57715L9.85938 6.67969L9.75684 6.79688L9.40527 7.20703L9.02441 7.70508L8.92188 7.85156L8.74609 8.10059L8.55566 8.39355L8.40918 8.62793L8.24805 8.90625L8.10156 9.16992L7.88184 9.59473L7.75 9.87305L7.55957 10.3125L7.36914 10.8105L7.19336 11.3232L7.03223 11.8945L6.88574 12.5244L6.79785 13.0078L6.73926 13.418L6.69531 13.7695L6.65137 14.3994L6.63672 14.8535V15.1318L6.65137 15.6006L6.69531 16.2158L6.76855 16.8164L6.88574 17.4756L7.01758 18.0469L7.13477 18.4717L7.2666 18.8965L7.42773 19.3506L7.60352 19.79L7.79395 20.2148L7.95508 20.5518L8.10156 20.8301L8.27734 21.1523L8.39453 21.3428L8.59961 21.6797L8.84863 22.0459L9.03906 22.3096L9.21484 22.5439L9.40527 22.7783L9.52246 22.9248L9.71289 23.1445L9.84473 23.291L9.94727 23.4082L10.1084 23.5693L10.2109 23.6865L10.3574 23.833H10.3867L10.4014 23.877L10.5186 23.9795L10.6504 24.1113L10.7676 24.2139L10.9727 24.3896L11.1191 24.5215L11.3242 24.6826L11.5146 24.8291L11.793 25.0342L12.042 25.21L12.4229 25.459L12.6865 25.6201L12.9941 25.7959L13.2578 25.9424L13.7852 26.2061L14.0781 26.3379L14.4736 26.499L14.8545 26.6455L15.4844 26.8506L16.085 27.0117L16.5537 27.1143L17.2275 27.2314L17.8721 27.3047L18.2969 27.334L18.6338 27.3486H19.4395L20.1426 27.3047L20.7725 27.2314L21.373 27.1289L21.9004 27.0117L22.3545 26.8945L22.8818 26.7334L23.3359 26.5723L23.7754 26.3965L24.2002 26.2061L24.625 26.001L24.9619 25.8252L25.3574 25.5908L25.6211 25.4297L26.0166 25.166L26.2803 24.9756L26.4414 24.8584L26.6611 24.6826L26.8662 24.5215L27.0859 24.3311L27.291 24.1553L27.4229 24.0234L27.54 23.9209L27.7012 23.7598L27.7305 23.7451V23.7158H27.7598L27.8623 23.5986L28.0381 23.4229L28.1406 23.3057L28.3164 23.1152L28.4482 22.9541L28.624 22.749L28.7705 22.5586L28.9609 22.3096L29.1367 22.0605L29.2832 21.8555L29.4297 21.6211L29.6055 21.3428L29.7959 21.0059L29.9277 20.7715L30.0742 20.4932L30.2646 20.083L30.4258 19.7168L30.6455 19.1455L30.8213 18.6182L30.9971 17.9883L31.1289 17.3877L31.2314 16.7871L31.29 16.3184L31.334 15.7764L31.3486 15.4541V14.502L31.3047 13.8574L31.2461 13.3301L31.1729 12.8613L31.0996 12.4658L30.9385 11.792L30.792 11.2939L30.5723 10.6494L30.3379 10.0781L30.1621 9.69727L30.0449 9.44824L29.8984 9.16992L29.6934 8.80371L29.5469 8.55469L29.3857 8.30566L29.1514 7.9541L29.0049 7.74902L28.8877 7.58789L28.6826 7.32422L28.4922 7.08984L28.3604 6.92871L28.1699 6.72363L28.0674 6.60645L27.8623 6.38672L27.4521 5.97656L27.335 5.87402L27.1592 5.71289L26.998 5.58105L26.8516 5.44922L26.7197 5.34668L26.5146 5.18555L26.2803 5.00977L26.002 4.81934L25.8408 4.70215L25.5625 4.52637L25.2988 4.36523L24.8887 4.13086L24.4932 3.92578L24.0684 3.7207L23.585 3.51562L23.1602 3.35449L22.6328 3.17871L22.2373 3.06152L21.6221 2.91504L21.0215 2.79785L20.4795 2.72461L20.0547 2.68066L19.5859 2.65137L19.0879 2.63672H18.8389Z" fill="#6084FE"/>
<path d="M18.6338 3.58887H19.3516L19.8936 3.61816L20.4648 3.67676L21.0361 3.76465L21.4756 3.85254L21.9004 3.95508L22.4131 4.10156L22.9697 4.29199L23.4092 4.46777L23.834 4.6582L24.1709 4.81934L24.4932 4.99512L24.8594 5.2002L25.1963 5.41992L25.5039 5.625L25.7529 5.80078L25.9434 5.94727L26.3096 6.24023L26.4561 6.37207L26.6172 6.50391L26.7344 6.60645V6.63574L26.793 6.66504L26.998 6.87012L27.0859 6.94336L27.1885 7.06055L27.335 7.20703V7.23633L27.3789 7.25098L27.4814 7.36816L27.6133 7.51465L27.7451 7.67578L27.9062 7.86621L28.0967 8.11523L28.2285 8.29102L28.4043 8.54004L28.5508 8.75977L28.7119 9.00879L28.8438 9.22852L29.0342 9.56543L29.21 9.90234L29.4004 10.2979L29.5469 10.6348L29.7666 11.2061L29.9424 11.748L30.0889 12.29L30.2207 12.9053L30.3086 13.4619L30.3672 13.9893L30.3965 14.3701L30.4111 14.7363V15.2783L30.3965 15.6592L30.3525 16.2012L30.2793 16.7578L30.1768 17.3291L30.0303 17.9443L29.8838 18.4424L29.708 18.9551L29.5322 19.3945L29.3418 19.8193L29.166 20.1855L29.0049 20.4932L28.7998 20.8447L28.7119 20.9912L28.4775 21.3574L28.3311 21.5625L28.1406 21.8262L28.0381 21.958L27.877 22.1631L27.7451 22.3242L27.5547 22.5439L27.3789 22.7344L27.2178 22.9102L26.8076 23.3203L26.6904 23.4229L26.5146 23.584L26.3535 23.7158L26.207 23.8477L26.0166 23.9941L25.7676 24.1846L25.5186 24.3604L25.123 24.624L24.8154 24.8145L24.4053 25.0488L24.1855 25.166L23.8486 25.3271L23.4971 25.4883L23.1016 25.6494L22.5742 25.8398L22.0908 25.9863L21.5049 26.1328L20.9922 26.2354L20.5088 26.3086L19.9668 26.3672L19.5713 26.3965L19.1025 26.4111H18.8389L18.3701 26.3965L17.6963 26.3379L17.1689 26.2646L16.5537 26.1475L15.9678 26.001L15.5283 25.8691L14.9717 25.6787L14.5322 25.5029L14.1221 25.3125L13.873 25.1953L13.5947 25.0488L13.2285 24.8438L12.8477 24.6094L12.6279 24.4629L12.3789 24.2871L12.1006 24.082L11.8369 23.877L11.4268 23.5254L11.2363 23.3496L11.002 23.1299L10.7529 22.8809L10.6504 22.7637L10.5332 22.6465V22.6172H10.5039L10.3721 22.4561L10.2402 22.3096L10.1084 22.1484L9.94727 21.9434L9.77148 21.709L9.5957 21.46L9.41992 21.1963L9.25879 20.9473L9.03906 20.5664L8.86328 20.2441L8.64355 19.8047L8.43848 19.3359L8.24805 18.8379L8.07227 18.3105L7.91113 17.7246L7.79395 17.1826L7.70605 16.6699L7.63281 16.0547L7.60352 15.6885L7.58887 15.3662V14.6191L7.61816 14.0918L7.67676 13.5352L7.75 13.0518L7.83789 12.5977L7.95508 12.1143L8.05762 11.748L8.1748 11.3672L8.32129 10.957L8.52637 10.459L8.70215 10.0781L8.93652 9.60938L9.1416 9.25781L9.30273 8.97949L9.56641 8.58398L9.72754 8.34961L9.93262 8.07129L10.1377 7.82227L10.2402 7.69043L10.416 7.48535L10.46 7.42676H10.4893L10.5186 7.36816L10.6797 7.19238L10.8115 7.06055L10.9141 6.94336L11.0166 6.84082L11.1338 6.73828L11.3242 6.54785L11.4854 6.41602L11.6611 6.25488L11.8662 6.09375L12.0859 5.91797L12.3643 5.71289L12.7012 5.47852L13.0234 5.27344L13.2725 5.12695L13.6094 4.93652L14.1221 4.67285L14.5469 4.48242L15.1475 4.24805L15.7334 4.05762L16.1436 3.94043L16.6416 3.82324L17.3008 3.70605L17.916 3.63281L18.3115 3.60352L18.6338 3.58887ZM18.6191 5.31738L18.209 5.34668L17.916 5.40527L17.6084 5.50781L17.3594 5.625L17.1543 5.75684L16.9492 5.91797L16.7295 6.1377L16.583 6.32812L16.4219 6.5918L16.3047 6.82617L16.2168 7.0459L16.1289 7.33887L16.0703 7.58789L16.0117 8.07129V8.71582L16.0703 9.21387L16.1729 9.71191L16.29 10.1074L16.4365 10.5029L16.5537 10.7812L16.5684 10.8252H16.5391L16.5244 10.7812H16.4951L16.4658 10.708L16.3047 10.5176L16.1436 10.3125L15.9678 10.1074L15.8506 9.96094L15.6455 9.71191L15.5137 9.55078L15.1035 9.05273L14.9717 8.8916L14.5615 8.39355L14.3711 8.14453L14.2393 7.99805L14.1221 7.88086L13.9023 7.71973L13.668 7.58789L13.4482 7.51465L13.2871 7.48535H12.9502L12.7451 7.5293L12.5547 7.60254L12.3496 7.71973L12.1445 7.88086L12.0273 7.9834L11.9248 8.10059L11.8076 8.23242L11.6611 8.4375L11.4561 8.75977L11.3096 9.00879L11.002 9.52148L10.7236 9.99023L10.5479 10.2832L10.3721 10.5908L10.2695 10.8105L10.1523 11.1475L10.0938 11.4111L10.0791 11.5283V12.0117L10.1377 12.334L10.2109 12.583L10.3281 12.8467L10.4746 13.1104L10.5918 13.2715L10.7236 13.4326L10.8848 13.6084L11.0312 13.7549L11.1924 13.8867L11.4414 14.0771L11.7197 14.2529L11.9834 14.3994L12.291 14.5459L12.6572 14.6924L13.0381 14.8096L13.4043 14.8975L14.0342 15L14.1367 15.0146V15.0439L13.8438 15.0732L11.998 15.3809L11.1924 15.5127L10.6357 15.6006L10.3721 15.6738L10.1084 15.791L9.90332 15.9229L9.72754 16.084L9.5957 16.2451L9.46387 16.4941L9.39062 16.7432L9.37598 16.8457V17.1826L9.41992 17.4316L9.50781 17.7393L9.6543 18.0908L9.83008 18.4277L9.96191 18.6621L10.167 19.0283L10.5332 19.6875L10.7383 20.0537L10.9287 20.3613L11.0898 20.5664L11.251 20.7422L11.3535 20.8447H11.3828V20.874L11.6172 21.0498L11.8516 21.1816L12.0859 21.2842L12.3203 21.3574L12.54 21.4014L12.8037 21.4307H13.1553L13.4775 21.3867L13.7998 21.3135L14.1514 21.1963L14.5176 21.0352L14.8691 20.8447L15.0889 20.6982L15.3379 20.5225L15.5137 20.376L15.6748 20.2441L16.041 19.8779V19.8486H16.0703L16.2021 19.6875L16.3486 19.5117L16.5098 19.3066L16.5684 19.2188L16.5977 19.2041L16.5098 19.4385L16.2607 20.1123L16.0703 20.6104L15.9824 20.8594L15.7188 21.5625L15.5137 22.1045L15.3672 22.4707L15.2939 22.7197L15.25 22.998V23.3203L15.3086 23.584L15.3965 23.8037L15.499 23.9648L15.6309 24.126H15.6602V24.1553L15.8799 24.3164L16.1143 24.4336L16.3926 24.5361L16.6709 24.5947L16.9053 24.624L17.1689 24.6387L18.5752 24.668H19.5713L19.9082 24.624L20.2012 24.5508L20.4355 24.4629L20.7725 24.2871L20.9482 24.1553L21.1387 23.9941L21.2412 23.8916L21.373 23.7305L21.4756 23.584L21.6074 23.3643L21.7393 23.0713L21.8564 22.7197L21.9297 22.3828L21.9736 22.0459L21.9883 21.8262V21.4014L21.959 21.0352L21.8857 20.5664L21.7979 20.2002L21.6807 19.8193L21.4756 19.2773L21.4463 19.1895L21.5195 19.2627L21.6221 19.3945L21.8271 19.6436L22.0908 19.9658L22.252 20.1562L22.4131 20.3613L22.5889 20.5664L22.7061 20.7129L22.9111 20.9619L23.0723 21.1523L23.2334 21.3574L23.4092 21.5625L23.5996 21.8115L23.7607 22.002L23.9365 22.1631L24.083 22.2656L24.2881 22.3828L24.5225 22.4707L24.6543 22.5L24.7861 22.5146H24.9912L25.2256 22.4707L25.46 22.3828L25.6797 22.251L25.9141 22.0605L26.1045 21.8701L26.251 21.6797L26.3975 21.4746L26.6025 21.1377L26.7783 20.8447L27.0273 20.4346L27.1885 20.1562L27.3643 19.8633L27.5693 19.5117L27.6865 19.2773L27.7744 19.0723L27.8623 18.7793L27.9062 18.5742L27.9209 18.4131V18.0322L27.877 17.7393L27.7891 17.4316L27.6865 17.1826L27.5693 16.9629L27.4229 16.7432L27.3057 16.5967L27.1445 16.4209L26.9248 16.2012L26.7637 16.0693L26.5 15.8789L26.207 15.7031L25.9434 15.5566L25.5771 15.3955L25.1816 15.249L24.7422 15.1318L24.2881 15.0439L23.9072 14.9854L23.8633 14.9707L23.9805 14.9414L24.5518 14.8535L27.0127 14.4434L27.3203 14.3994L27.5986 14.3262L27.833 14.2236L28.0234 14.1211L28.1699 14.0039L28.2578 13.9307L28.3896 13.7695L28.5068 13.5645L28.5654 13.4033L28.6094 13.2422L28.624 13.125V12.8906L28.5801 12.5684L28.5068 12.3193L28.4336 12.1143L28.3311 11.8945L28.2139 11.6602L28.0381 11.3379L27.8477 11.001L27.4082 10.21L27.2178 9.87305L27.042 9.59473L26.8809 9.38965L26.7637 9.25781H26.7344L26.7051 9.19922L26.5439 9.06738L26.3389 8.9209L26.1045 8.78906L25.8115 8.67188L25.5039 8.59863L25.2842 8.56934H24.7715L24.4639 8.61328L24.1123 8.70117L23.8193 8.80371L23.5264 8.93555L23.1895 9.11133L23.0283 9.21387L22.8525 9.33105L22.6768 9.46289L22.4424 9.65332L22.2959 9.78516L22.252 9.81445V9.84375L22.1934 9.87305L22.0469 10.0195L21.9443 10.1367L21.8125 10.2832L21.4902 10.6934L21.4316 10.7812L21.4023 10.7959L21.6221 10.1953L22.1934 8.67188L22.3838 8.15918L22.5449 7.74902L22.6328 7.5293L22.7061 7.26562L22.75 6.97266V6.72363L22.7061 6.47461L22.6182 6.22559L22.4863 6.00586L22.3252 5.83008L22.1494 5.69824L22.0029 5.61035L21.7246 5.49316L21.373 5.40527L20.9922 5.36133L20.5674 5.34668L19 5.31738H18.6191Z" fill="#6084FE"/>
<path d="M18.8096 12.1143H19.1758L19.542 12.1582L19.835 12.2314L20.084 12.3193L20.4209 12.4805L20.7285 12.6855L20.9189 12.8467L21.0654 12.9785L21.2266 13.1543L21.417 13.418L21.5195 13.5791L21.6807 13.916L21.7832 14.2236L21.8564 14.5605L21.8857 14.8828V15.0879L21.8564 15.4395L21.7832 15.7764L21.666 16.1133L21.5488 16.3477L21.4609 16.5088L21.2998 16.7432L21.1826 16.8896L21.0947 16.9922L20.9775 17.0947L20.875 17.1973L20.6846 17.3438L20.4502 17.4902L20.1719 17.6367L19.8643 17.7539L19.5566 17.8271L19.2637 17.8711H18.7217L18.4141 17.8271L18.0918 17.7393L17.7549 17.6074L17.4912 17.4609L17.2422 17.2852L17.0518 17.124L16.8027 16.875L16.6562 16.6846L16.5098 16.4648L16.3633 16.1865L16.2461 15.8789L16.1582 15.5273L16.1143 15.2051V14.8096L16.1582 14.4727L16.2314 14.165L16.3486 13.8428L16.5244 13.5059L16.6416 13.3301L16.8027 13.125L16.9346 12.9785L17.0811 12.832L17.2861 12.6709L17.5059 12.5244L17.7695 12.3779L18.0625 12.2607L18.3262 12.1875L18.5312 12.1436L18.8096 12.1143Z" fill="#6084FE"/>
<path d="M18.5166 6.26953H19.3955L20.3477 6.28418L20.8018 6.29883L21.1387 6.32812L21.3584 6.37207L21.5781 6.45996L21.71 6.5625L21.7832 6.67969L21.8125 6.87012L21.7832 7.06055L21.6953 7.32422L21.5781 7.61719L21.4756 7.88086L21.3877 8.12988L21.2998 8.34961L21.2119 8.59863L21.124 8.81836L21.0361 9.06738L20.9482 9.28711L20.8604 9.53613L20.7725 9.75586L20.6846 10.0049L20.5967 10.2246L20.5088 10.4736L20.2598 11.1328L20.1719 11.3525L20.0254 11.3086L19.6006 11.2207L19.3809 11.1914L19.1465 11.1768H18.8535L18.4873 11.2061L18.0918 11.2793L17.8721 11.3379L17.7988 11.3525L17.7256 11.1768L17.5498 10.7373L17.2861 10.0635L17.1836 9.78516L17.0811 9.44824L16.9932 9.00879L16.9492 8.58398V8.20312L16.9932 7.80762L17.0811 7.44141L17.1689 7.20703L17.2715 7.00195L17.418 6.79688L17.5498 6.65039L17.6963 6.5332L17.9014 6.41602L18.0918 6.34277L18.3555 6.28418L18.5166 6.26953Z" fill="#6084FE"/>
<path d="M15.2061 15.8057L15.2646 15.835L15.3965 16.2891L15.543 16.6406L15.6895 16.9189L15.8652 17.1973L16.0557 17.4463L16.2314 17.6367L16.4365 17.8418L16.4072 17.915L16.2607 18.0908L16.1143 18.2812L15.9238 18.5156L15.7627 18.7207L15.5723 18.9551L15.4551 19.1016L15.3232 19.248L15.3086 19.2773H15.2793L15.25 19.3359L15.0742 19.5117L14.9131 19.6436L14.7373 19.79L14.459 19.9805L14.21 20.127L13.9756 20.2441L13.7559 20.332L13.4775 20.4199L13.1699 20.4785L13.0234 20.4932H12.8916L12.6426 20.4639L12.3936 20.3906L12.1445 20.2588L11.9834 20.127L11.8223 19.9658L11.6611 19.7461L11.5 19.4678L11.0898 18.7354L10.6504 17.9443L10.4746 17.6074L10.3574 17.2998L10.3281 17.1826L10.3135 17.0068L10.3428 16.8604L10.4014 16.7578L10.5039 16.6553L10.6943 16.5674L10.8701 16.5234L14.2539 15.9668L15.2061 15.8057Z" fill="#6084FE"/>
<path d="M17.8428 18.6475L18.1211 18.7207L18.4434 18.7793L18.7217 18.8086H19.293L19.6299 18.7646L19.9814 18.6914L20.1426 18.6475L20.2158 18.6621L20.3916 19.1162L20.7139 19.9365L20.8604 20.3467L20.9629 20.7568L21.0361 21.2402L21.0508 21.5039L21.0361 21.958L20.9775 22.3242L20.8896 22.6318L20.7725 22.9102L20.6406 23.1299L20.4648 23.3203L20.333 23.4375L20.1133 23.5693L19.9229 23.6426L19.6738 23.7012L19.5713 23.7158H18.1504L17.2715 23.7012L16.9053 23.6719L16.6123 23.6133L16.4365 23.54L16.3486 23.4814L16.2461 23.3789L16.2021 23.2764L16.1875 23.1006L16.2314 22.8809L16.3193 22.6318L16.4658 22.2656L16.7441 21.5186L17.4912 19.5264L17.7256 18.8965L17.8135 18.6621L17.8428 18.6475Z" fill="#6084FE"/>
<path d="M22.7646 15.7764L23.3652 15.8643L24.2295 15.9961L24.6104 16.0693L24.9619 16.1719L25.2695 16.2891L25.5039 16.3916L25.7969 16.5527L26.0166 16.6992L26.1924 16.8311L26.3389 16.9629L26.4561 17.0654L26.5879 17.2119L26.7344 17.417L26.8516 17.6221L26.9395 17.8711L26.9688 18.0176V18.4131L26.9102 18.6621L26.8223 18.8965L26.6758 19.1748L26.3242 19.7607L26.0459 20.2295L25.7969 20.6396L25.5918 20.9766L25.416 21.2109L25.2549 21.3867L25.0645 21.5186L24.9473 21.5625H24.8154L24.6836 21.5186L24.5518 21.4307L24.4199 21.3135L24.2881 21.1523L24.1416 20.9619L23.9805 20.7715L23.8633 20.625L23.7021 20.4346L23.585 20.2881L23.4238 20.0977L23.2627 19.8926L23.1016 19.7021L22.9697 19.541L22.7646 19.292L22.6035 19.1016L22.501 18.9697L22.3398 18.7793L22.2227 18.6328L22.0176 18.3838L21.8857 18.2227L21.7246 18.0322L21.6074 17.8857L21.5781 17.8564L21.5928 17.7979L21.71 17.6953L21.8564 17.5488L21.9883 17.3877L22.1641 17.1533L22.3398 16.8604L22.457 16.626L22.5742 16.3623L22.6768 16.04L22.75 15.791L22.7646 15.7764Z" fill="#6084FE"/>
<path d="M13.0234 8.4375H13.2139L13.3604 8.49609L13.5068 8.61328L13.624 8.73047L13.7705 8.9209L13.9609 9.15527L14.3711 9.65332L14.5029 9.81445L14.6641 10.0049L14.7812 10.1514L15.1914 10.6494L15.4551 10.9717L16.2754 11.9678L16.4219 12.1436L16.3926 12.2021H16.3633L16.3486 12.2461H16.3193V12.2754H16.29V12.3047H16.2607L16.2314 12.3633L16.0264 12.583L15.8359 12.8467L15.6748 13.1104L15.5137 13.418L15.3818 13.7549L15.25 14.209L15.2061 14.2236L14.9863 14.1797L13.9023 14.0186L13.4922 13.9453L13.1553 13.8574L12.7744 13.7256L12.3936 13.5498L12.1885 13.4326L11.9688 13.2861L11.793 13.1543L11.6025 12.9785L11.4268 12.8027L11.2949 12.627L11.1631 12.4072L11.0752 12.1875L11.0312 11.9971L11.0166 11.8799V11.7041L11.0605 11.4258L11.1484 11.1621L11.3389 10.7959L11.5 10.5322L11.7783 10.0635L12.3496 9.11133L12.4668 8.93555L12.6133 8.74512L12.8037 8.55469L12.9502 8.4668L13.0234 8.4375Z" fill="#6084FE"/>
<path d="M24.9033 9.50684H25.167L25.4453 9.55078L25.6797 9.63867L25.8555 9.74121L26.0312 9.87305L26.1338 9.99023L26.251 10.1221L26.3828 10.3271L26.5 10.5176L26.5879 10.6934L26.7637 11.001L26.9248 11.2939L27.1152 11.6309L27.3496 12.0557L27.4961 12.334L27.6133 12.6123L27.6719 12.8467V13.0957L27.5986 13.2422L27.4814 13.3447L27.3203 13.418L27.0713 13.4766L26.1484 13.623L23.9658 13.9893L22.8232 14.1797H22.75L22.7061 14.0625L22.5889 13.6816L22.4277 13.3008L22.2959 13.0518L22.1641 12.8467L21.9736 12.583L21.7979 12.3926L21.6953 12.2754L21.6514 12.2461V12.2168L21.5928 12.1875L21.5635 12.1582L21.5781 12.0996L21.7246 11.9238L21.8711 11.7334L22.0029 11.5723L22.1201 11.4258L22.3252 11.1621L22.5303 10.9131L22.6621 10.752L22.9844 10.4297L23.1455 10.2979L23.292 10.1807L23.4971 10.0342L23.8486 9.8291L24.127 9.69727L24.4785 9.58008L24.7715 9.52148L24.9033 9.50684Z" fill="#6084FE"/>
</g>
</g>
<defs>
<filter id="filter0_d_187_217" x="0" y="0" width="38" height="38" filterUnits="userSpaceOnUse" color-interpolation-filters="sRGB">
<feFlood flood-opacity="0" result="BackgroundImageFix"/>
<feColorMatrix in="SourceAlpha" type="matrix" values="0 0 0 0 0 0 0 0 0 0 0 0 0 0 0 0 0 0 127 0" result="hardAlpha"/>
<feOffset dy="4"/>
<feGaussianBlur stdDeviation="2"/>
<feComposite in2="hardAlpha" operator="out"/>
<feColorMatrix type="matrix" values="0 0 0 0 0 0 0 0 0 0 0 0 0 0 0 0 0 0 0.25 0"/>
<feBlend mode="normal" in2="BackgroundImageFix" result="effect1_dropShadow_187_217"/>
<feBlend mode="normal" in="SourceGraphic" in2="effect1_dropShadow_187_217" result="shape"/>
</filter>
<clipPath id="clip0_187_217">
<rect width="30" height="30" fill="white" transform="translate(4)"/>
</clipPath>
</defs>
</svg>
