<svg width="30" height="30" viewBox="0 0 30 30" fill="none" xmlns="http://www.w3.org/2000/svg">
<path d="M9.02344 0H21.0645L21.0938 0.0292969L21.4893 0.117188L21.8408 0.234375L22.0752 0.336914L22.3828 0.498047L22.6465 0.673828L22.8516 0.834961L22.998 0.966797L23.1152 1.06934L23.335 1.30371L23.4814 1.49414L23.6865 1.80176L23.833 2.06543L23.9795 2.40234L24.082 2.72461L24.1553 3.06152L24.1992 3.41309L24.2139 3.83789V23.4814L24.1992 23.5107L5.91797 23.5254L5.80078 23.5107L5.78613 23.4814V3.55957L5.81543 3.20801L5.88867 2.82715L5.97656 2.51953L6.09375 2.21191L6.21094 1.97754L6.29883 1.81641L6.47461 1.55273L6.60645 1.37695L6.78223 1.17188L7.03125 0.922852L7.23633 0.761719L7.42676 0.615234L7.74902 0.424805L7.9834 0.307617L8.27637 0.19043L8.55469 0.102539L9.02344 0ZM14.707 8.81836L14.5166 8.87695L14.3701 8.96484L14.2236 9.09668L14.1211 9.22852L14.0332 9.41895L14.0039 9.53613V13.1543L14.0625 13.3447L14.1504 13.5059L14.3115 13.6816L14.4727 13.7842L14.6924 13.8574L14.7656 13.8721H14.9707L15.1465 13.8281L15.2783 13.7695L15.4248 13.6816L15.5566 13.5498L15.6592 13.3887L15.7178 13.2275L15.7471 13.0518V9.75586L15.7324 9.52148L15.6738 9.33105L15.5859 9.16992L15.4541 9.02344L15.249 8.8916L15.0293 8.81836H14.707ZM17.3877 10.415L17.1973 10.4736L17.0361 10.5615L16.875 10.708L16.7578 10.8984L16.6992 11.0596L16.6846 11.1328V11.4404L16.7432 11.6309L16.8457 11.8066L17.1094 12.0996L17.2559 12.3047L17.3877 12.5537L17.4756 12.8174L17.5342 13.0957L17.5635 13.4033V13.7109L17.5342 14.0039L17.4756 14.2822L17.373 14.5752L17.2412 14.8535L17.0947 15.0879L16.9629 15.249L16.8311 15.3955L16.6699 15.5566L16.4062 15.7471L16.2012 15.8643L16.0254 15.9521L15.7324 16.0547L15.4248 16.1279L15.2051 16.1572H14.7656L14.4727 16.1133L14.165 16.0254L13.9453 15.9375L13.6377 15.7764L13.4326 15.6299L13.2275 15.4541L13.0957 15.3223L12.9639 15.1611L12.8174 14.9561L12.6416 14.6191L12.5391 14.3408L12.4658 14.0186L12.4365 13.7988V13.4033L12.4805 13.1104L12.5684 12.7734L12.6855 12.4805L12.8174 12.2461L12.9932 11.9971L13.0957 11.8506L13.1689 11.7041L13.2129 11.543V11.25L13.1543 11.0449L13.0518 10.8691L12.9199 10.7227L12.7588 10.6201L12.583 10.5469L12.4072 10.5176L12.1729 10.5322L12.0264 10.5762L11.8799 10.6494L11.7334 10.7666L11.5723 10.957L11.3965 11.2061L11.2793 11.3965L11.1475 11.6309L11.0156 11.9092L10.8838 12.2754L10.7959 12.583L10.7227 12.9346L10.6787 13.3887V13.8721L10.7227 14.2676L10.8105 14.6924L10.9277 15.0732L11.0889 15.4541L11.2646 15.791L11.4258 16.04L11.6309 16.3184L11.7773 16.4795L11.8799 16.5967L12.085 16.8018L12.2461 16.9336L12.4512 17.0947L12.6855 17.2559L12.9932 17.4316L13.2422 17.5488L13.4033 17.6221L13.6523 17.71L13.9453 17.7979L14.3262 17.8711L14.6924 17.915H15.3076L15.6885 17.8711L16.04 17.7979L16.3916 17.6953L16.8018 17.5342L17.168 17.3438L17.417 17.1826L17.6221 17.0361L17.8125 16.875L17.9297 16.7725L18.0762 16.6406L18.2812 16.4209L18.4424 16.2158L18.6328 15.9521L18.7939 15.6738L18.9111 15.4541L19.0576 15.1025L19.1748 14.7363L19.2627 14.3408L19.3066 13.9893L19.3213 13.7695V13.4033L19.292 13.0078L19.2334 12.6123L19.1602 12.3047L19.043 11.9531L18.9258 11.6895L18.7793 11.4111L18.6328 11.1914L18.4863 11.001L18.3105 10.7959L18.1201 10.6055L17.959 10.5029L17.8271 10.4443L17.71 10.415H17.3877Z" fill="#6084FE"/>
<path d="M5.84473 25.2539L8.45215 25.2686H24.1846L24.2139 25.3711L24.1992 26.5723L24.1699 26.8506L24.1113 27.1582L24.0088 27.5098L23.877 27.832L23.7598 28.0664L23.584 28.3594L23.3789 28.6377L23.2031 28.8281L23.0713 28.9746L22.8662 29.1504L22.6611 29.3115L22.4414 29.458L22.1191 29.6338L21.8555 29.751L21.5039 29.8682L21.0791 29.9707L20.9326 30H9.08203L8.54004 29.8828L8.10059 29.7363L7.83691 29.6191L7.44141 29.3848L7.13379 29.1504L6.91406 28.9453L6.70898 28.7402L6.54785 28.5352L6.38672 28.3154L6.19629 27.9932L6.06445 27.7148L5.96191 27.4365L5.87402 27.0996L5.81543 26.7773L5.78613 26.3965V25.2979L5.80078 25.2686L5.84473 25.2539ZM14.8535 26.4697L14.7217 26.499L14.5166 26.6016L14.3701 26.7334L14.2676 26.8506L14.1797 27.0264L14.1357 27.1875L14.1211 27.29V27.4658L14.165 27.6709L14.2822 27.9053L14.4434 28.0811L14.6338 28.1982L14.8242 28.2568L14.9121 28.2715H15.1025L15.2783 28.2275L15.5127 28.1104L15.6592 27.9785L15.7617 27.832L15.835 27.6562L15.8643 27.5391L15.8789 27.3486L15.8496 27.1289L15.7764 26.9385L15.6885 26.792L15.5273 26.6309L15.3809 26.543L15.1611 26.4697H14.8535Z" fill="#6084FE"/>
</svg>
