<svg width="30" height="30" viewBox="0 0 30 30" fill="none" xmlns="http://www.w3.org/2000/svg">
<path d="M8.45215 1.86035H10.9424L10.9717 1.875L10.9863 2.65137L11.0303 2.95898L11.1182 3.22266L11.2354 3.45703L11.3818 3.66211L11.543 3.83789L11.6748 3.95508L11.8945 4.10156L12.1582 4.21875L12.4365 4.29199L12.6416 4.32129L14.209 4.33594H16.0547L17.3584 4.32129L17.6367 4.27734L17.8711 4.2041L18.1494 4.07227L18.3691 3.91113L18.5449 3.75L18.7061 3.54492L18.8379 3.31055L18.9258 3.09082L18.9844 2.85645L19.0137 2.57812L19.0283 1.875L19.043 1.86035H21.5186L21.7822 1.88965L21.9727 1.94824L22.1924 2.06543L22.3242 2.16797L22.4414 2.27051L22.5732 2.44629L22.6904 2.66602L22.749 2.87109L22.7637 2.94434L22.7783 3.19336V26.7627L22.7637 27.0264L22.7197 27.2314L22.6465 27.4219L22.5 27.6562L22.3096 27.8467L22.1045 27.9785L21.9434 28.0518L21.7236 28.1104L21.6064 28.125H8.36426L8.11523 28.0811L7.88086 27.9785L7.73438 27.876L7.58789 27.7441L7.45605 27.5977L7.33887 27.3926L7.26562 27.2021L7.22168 26.9531V3.01758L7.28027 2.73926L7.38281 2.50488L7.55859 2.27051L7.67578 2.15332L7.86621 2.02148L8.0127 1.94824L8.20312 1.88965L8.45215 1.86035ZM14.8242 8.26172L14.4873 8.30566L14.1797 8.39355L13.9893 8.4668L13.7549 8.58398L13.5791 8.70117L13.3887 8.84766L13.1982 9.02344L13.0664 9.16992L12.876 9.43359L12.7881 9.58008L12.6709 9.84375L12.5977 10.0635L12.5391 10.2979L12.5098 10.5322L12.4951 12.8467V13.8281L12.5244 14.1797L12.5977 14.5166L12.7002 14.7949L12.8174 15.0293L12.9346 15.2197L13.0811 15.4102L13.2568 15.6006L13.418 15.7471L13.623 15.8936L13.8721 16.04L14.1064 16.1426L14.3848 16.2305L14.5898 16.2744L14.8682 16.3037H15.1318L15.3809 16.2744L15.6006 16.2305L15.8496 16.1572L16.1133 16.04L16.377 15.8936L16.5674 15.7471L16.7725 15.5713L16.9043 15.4248L17.0654 15.2197L17.1973 15L17.3145 14.751L17.417 14.4434L17.4609 14.2383L17.4902 14.0039V10.5908L17.4463 10.2393L17.3438 9.8877L17.2119 9.59473L17.0947 9.38965L16.9775 9.22852L16.8164 9.03809L16.6846 8.90625L16.5234 8.77441L16.333 8.64258L16.0986 8.51074L15.8203 8.39355L15.5127 8.30566L15.1758 8.26172H14.8242ZM11.1475 13.4619L11.0303 13.5059L10.8838 13.6377L10.8105 13.7842L10.7959 13.8574V14.1797L10.8398 14.5752L10.9131 14.9268L11.0156 15.2783L11.1621 15.6445L11.3232 15.9668L11.4844 16.2305L11.6748 16.4941L11.8506 16.6992L11.8652 16.7285H11.8945L11.9238 16.7871L12.1582 17.0215L12.4805 17.2852L12.832 17.5195L13.1543 17.6953L13.4473 17.8271L13.6816 17.915L13.9893 18.0029L14.5166 18.1055L14.5312 18.208V19.5117H13.0811L12.8906 19.541L12.7441 19.6289L12.6562 19.7314L12.5977 19.8779V20.083L12.6855 20.2588L12.7441 20.332L12.8613 20.4053L12.9639 20.4346H17.168L17.3145 20.376L17.4316 20.2734L17.5195 20.0977L17.5342 19.9658L17.4902 19.79L17.417 19.6729L17.2998 19.5703L17.168 19.5264L17.0508 19.5117H15.5127L15.4688 19.4971V18.1055L15.8643 18.0322L16.2158 17.9443L16.582 17.8125L16.8164 17.71L17.1387 17.5342L17.3877 17.373L17.6221 17.1973L17.8271 17.0215L17.959 16.9043L18.0615 16.7871L18.1787 16.6699L18.3105 16.5088L18.4717 16.2891L18.6035 16.084L18.7793 15.7617L18.9111 15.4688L19.0576 15.0293L19.1455 14.6484L19.1895 14.2969L19.2041 14.0771V13.8721L19.1455 13.6816L19.0137 13.5352L18.8965 13.4766L18.8525 13.4619H18.6328L18.4863 13.5205L18.3545 13.6523L18.2959 13.7842L18.2666 14.0479L18.252 14.2822L18.1787 14.6777L18.0908 14.9854L17.9736 15.2783L17.7979 15.6152L17.6807 15.791L17.5488 15.9668L17.4463 16.084V16.1133H17.417L17.3145 16.2305L17.2119 16.333L17.0947 16.4355L16.8164 16.6406L16.5381 16.8018L16.2305 16.9482L15.8789 17.0654L15.5566 17.1387L15.2051 17.1826H14.7803L14.4287 17.1387L14.1211 17.0654L13.7695 16.9482L13.4033 16.7725L13.1396 16.6113L12.876 16.4062L12.6562 16.2012L12.4658 15.9961L12.2754 15.7324L12.1436 15.5127L12.0264 15.293L11.9092 15L11.8213 14.6924L11.7627 14.3994L11.7334 14.1357L11.7188 13.8867L11.6748 13.7109L11.5869 13.5938L11.499 13.5205L11.3672 13.4619H11.1475ZM13.4912 26.0449L12.334 26.0596L12.2168 26.1035L12.085 26.2061L12.0117 26.3232L11.9824 26.4111V26.6309L12.041 26.7627L12.1436 26.8799L12.2607 26.9531L12.4072 26.9824H17.6221L17.7686 26.9385L17.8857 26.8506L17.959 26.7627L18.0176 26.6162V26.4258L17.959 26.2793L17.8711 26.1621L17.7393 26.0889L17.6514 26.0596L15.4541 26.0449H13.4912Z" fill="#6084FE"/>
<path d="M14.8389 9.18457H15.1611L15.4102 9.22852L15.6445 9.31641L15.8643 9.43359L16.0107 9.55078L16.1572 9.68262L16.3184 9.8877L16.4648 10.166L16.5381 10.4004L16.5674 10.5469V14.0039L16.5088 14.2676L16.4355 14.458L16.3623 14.6045L16.2305 14.7949L16.0693 14.9707L15.9229 15.0879L15.6738 15.2344L15.4395 15.3223L15.1465 15.3809H14.8535L14.5605 15.3223L14.3262 15.2344L14.1211 15.1172L13.9893 15.0146L13.8428 14.8828L13.6816 14.6777L13.5645 14.4727L13.4766 14.2383L13.4326 14.0186L13.418 13.8281V10.6641L13.4619 10.3857L13.5498 10.1221L13.667 9.90234L13.8135 9.71191L13.9746 9.55078L14.1797 9.4043L14.4141 9.28711L14.6484 9.21387L14.8389 9.18457Z" fill="#6084FE"/>
<path d="M11.9238 1.86035H18.0908L18.1055 1.875V2.57812L18.0762 2.75391L18.0176 2.91504L17.8857 3.12012L17.7832 3.22266L17.5781 3.33984L17.4023 3.39844L17.2998 3.41309H12.6562L12.4512 3.35449L12.2607 3.25195L12.0996 3.10547L11.9824 2.92969L11.9238 2.76855L11.8945 2.63672V1.875L11.9238 1.86035Z" fill="#6084FE"/>
</svg>
