<svg width="30" height="30" viewBox="0 0 30 30" fill="none" xmlns="http://www.w3.org/2000/svg">
<path d="M29.726 9.00954C29.6578 7.46353 29.4078 6.40066 29.0496 5.47967C28.6802 4.50206 28.1118 3.62681 27.3671 2.89921C26.6395 2.16029 25.7585 1.58611 24.7922 1.22242C23.8659 0.864284 22.8085 0.614275 21.2625 0.546111C19.705 0.472175 19.2105 0.455078 15.2601 0.455078C11.3097 0.455078 10.8152 0.472175 9.26345 0.540339C7.71744 0.608503 6.65457 0.858733 5.7338 1.21665C4.75597 1.58611 3.88072 2.15451 3.15312 2.89921C2.41419 3.62681 1.84024 4.50784 1.47633 5.47412C1.11819 6.40066 0.868182 7.45776 0.800018 9.00377C0.726081 10.5613 0.708984 11.0558 0.708984 15.0062C0.708984 18.9566 0.726081 19.4511 0.794245 21.0028C0.862409 22.5489 1.11264 23.6117 1.47078 24.5327C1.84024 25.5103 2.41419 26.3856 3.15312 27.1132C3.88072 27.8521 4.76174 28.4263 5.72803 28.79C6.65457 29.1481 7.71167 29.3981 9.2579 29.4663C10.8095 29.5347 11.3041 29.5515 15.2546 29.5515C19.205 29.5515 19.6994 29.5347 21.2512 29.4663C22.7972 29.3981 23.8601 29.1481 24.7809 28.79C26.7363 28.0339 28.2823 26.4879 29.0383 24.5327C29.3962 23.6062 29.6465 22.5489 29.7146 21.0028C29.7828 19.4511 29.7999 18.9566 29.7999 15.0062C29.7999 11.0558 29.7941 10.5613 29.726 9.00954ZM27.1058 20.8892C27.0431 22.3102 26.8045 23.0775 26.6055 23.5891C26.1166 24.8567 25.1106 25.8627 23.843 26.3516C23.3314 26.5505 22.5585 26.7892 21.1431 26.8516C19.6084 26.92 19.1481 26.9369 15.2659 26.9369C11.3836 26.9369 10.9176 26.92 9.38845 26.8516C7.96745 26.7892 7.2001 26.5505 6.68854 26.3516C6.05775 26.1185 5.48357 25.749 5.01752 25.2659C4.53438 24.794 4.16492 24.2256 3.93179 23.5949C3.73284 23.0833 3.49416 22.3102 3.43177 20.8949C3.36338 19.3603 3.34651 18.8998 3.34651 15.0175C3.34651 11.1353 3.36338 10.6692 3.43177 9.14032C3.49416 7.71931 3.73284 6.95197 3.93179 6.44041C4.16492 5.80939 4.53438 5.23544 5.0233 4.76917C5.49489 4.28603 6.0633 3.91656 6.69431 3.68365C7.20587 3.48471 7.97899 3.24603 9.39423 3.18341C10.9289 3.11525 11.3894 3.09815 15.2714 3.09815C19.1594 3.09815 19.6197 3.11525 21.1488 3.18341C22.5699 3.24603 23.3372 3.48471 23.8488 3.68365C24.4796 3.91656 25.0537 4.28603 25.5198 4.76917C26.0029 5.24099 26.3724 5.80939 26.6055 6.44041C26.8045 6.95197 27.0431 7.72486 27.1058 9.14032C27.1739 10.675 27.191 11.1353 27.191 15.0175C27.191 18.8998 27.1739 19.3545 27.1058 20.8892Z" fill="white"/>
<path d="M15.2601 7.53125C11.1337 7.53125 7.78564 10.8791 7.78564 15.0057C7.78564 19.1324 11.1337 22.4802 15.2601 22.4802C19.3868 22.4802 22.7346 19.1324 22.7346 15.0057C22.7346 10.8791 19.3868 7.53125 15.2601 7.53125ZM15.2601 19.8543C12.5831 19.8543 10.4116 17.683 10.4116 15.0057C10.4116 12.3285 12.5831 10.1572 15.2601 10.1572C17.9374 10.1572 20.1087 12.3285 20.1087 15.0057C20.1087 17.683 17.9374 19.8543 15.2601 19.8543Z" fill="white"/>
<path d="M24.7753 7.23616C24.7753 8.19978 23.994 8.98112 23.0301 8.98112C22.0665 8.98112 21.2852 8.19978 21.2852 7.23616C21.2852 6.27232 22.0665 5.49121 23.0301 5.49121C23.994 5.49121 24.7753 6.27232 24.7753 7.23616Z" fill="white"/>
</svg>
