<svg width="30" height="37" viewBox="0 0 30 37" fill="none" xmlns="http://www.w3.org/2000/svg">
<g filter="url(#filter0_d_187_228)">
<path d="M6.9873 1.86035H8.8916L8.9209 1.88965V4.14551L8.93555 4.39453L8.99414 4.6582L9.06738 4.83398L9.16992 5.00977L9.28711 5.15625L9.41895 5.28809L9.63867 5.43457L9.87305 5.53711L10.166 5.5957H17.0068L17.2559 5.55176L17.4463 5.47852L17.666 5.36133L17.8564 5.2002L17.9883 5.05371L18.1201 4.83398L18.208 4.59961L18.252 4.36523L18.2666 1.88965L18.2959 1.86035H22.9834L23.3496 1.88965L23.6133 1.94824L23.8623 2.03613L24.1113 2.15332L24.3164 2.28516L24.5215 2.44629L24.7705 2.69531L24.9316 2.91504L25.0781 3.16406L25.1953 3.44238L25.2686 3.70605L25.3125 3.99902L25.3271 4.36523V25.3564L25.3125 25.9863L25.2832 26.2207L25.21 26.499L25.1221 26.7334L24.9609 27.041L24.7852 27.2754L24.624 27.4512L24.5215 27.5537L24.3311 27.7002L24.1406 27.8174L23.9062 27.9346L23.6719 28.0225L23.3643 28.0957L23.1006 28.125H6.88477L6.60645 28.0957L6.31348 28.0225L6.02051 27.9053L5.80078 27.7881L5.5957 27.6416L5.40527 27.4805L5.27344 27.3486L5.1123 27.1436L4.98047 26.9385L4.86328 26.7041L4.77539 26.4697L4.7168 26.2354L4.6875 26.0303L4.67285 25.8252V4.13086L4.70215 3.83789L4.77539 3.51562L4.89258 3.22266L5.00977 3.00293L5.1709 2.76855L5.31738 2.60742L5.40527 2.50488L5.52246 2.40234L5.74219 2.24121L5.99121 2.09473L6.28418 1.97754L6.5625 1.9043L6.76758 1.875L6.9873 1.86035ZM8.4375 7.5L8.21777 7.51465L7.96875 7.57324L7.73438 7.69043L7.57324 7.79297L7.39746 7.96875L7.29492 8.08594L7.17773 8.29102L7.10449 8.4668L7.06055 8.64258L7.0459 8.74512L7.03125 9.3457V24.2725L7.0459 24.5361L7.08984 24.7705L7.17773 24.9902L7.28027 25.166L7.39746 25.3125L7.54395 25.459L7.76367 25.6055L7.99805 25.708L8.20312 25.752L8.30566 25.7666H21.6943L21.9434 25.7227L22.1338 25.6494L22.3535 25.5322L22.5439 25.3711L22.6904 25.21L22.8223 24.9902L22.9102 24.7559L22.9541 24.5215V8.75977L22.9102 8.52539L22.8369 8.32031L22.7051 8.08594L22.5732 7.93945L22.5 7.86621L22.3828 7.76367L22.1924 7.64648L21.9727 7.55859L21.7529 7.51465L21.5771 7.5H8.4375Z" fill="#6084FE"/>
<path d="M8.39355 8.42285H21.5479L21.7236 8.45215L21.8408 8.51074L21.9434 8.61328L22.0166 8.74512L22.0312 8.80371L22.0459 9.60938V20.5957L22.0312 24.4775L21.9727 24.6094L21.9141 24.6973L21.8115 24.7852L21.6943 24.8291L21.6064 24.8438H8.34961L8.18848 24.7852L8.05664 24.668L7.96875 24.4922L7.9541 24.375V8.8623L7.9834 8.74512L8.04199 8.62793L8.11523 8.55469L8.23242 8.4668L8.30566 8.4375L8.39355 8.42285ZM10.4004 14.5312L10.1367 14.5605L9.97559 14.6191L9.81445 14.707L9.66797 14.8389L9.55078 14.9707L9.43359 15.2051L9.38965 15.4102L9.375 15.5713V16.0986L9.4043 16.3184L9.46289 16.5088L9.58008 16.6992L9.71191 16.8457L9.87305 16.9629L10.0635 17.0508L10.2686 17.0947L11.5137 17.1094L11.5576 17.1533V17.7979L9.8584 17.8125L9.66797 17.8418L9.55078 17.915L9.44824 18.0322L9.4043 18.1348L9.38965 18.208V18.3545L9.43359 18.501L9.53613 18.6328L9.62402 18.6914L9.78516 18.7354H11.6016L11.8066 18.6914L12.041 18.5742L12.1875 18.457L12.3047 18.3252L12.3926 18.1787L12.4658 17.9883L12.4951 17.7539V17.124L12.4512 16.8896L12.3779 16.7139L12.2754 16.5527L12.1582 16.4209L12.0117 16.3184L11.8213 16.2305L11.6602 16.1865L11.5283 16.1719L10.3271 16.1572L10.3125 16.0693V15.542L10.3271 15.4834L10.459 15.4688L12.0996 15.4541L12.2461 15.4102L12.3633 15.3223L12.4512 15.2051L12.4951 15.0293L12.4805 14.8828L12.4219 14.7363L12.29 14.6045L12.1436 14.5459L12.0264 14.5312H10.4004ZM14.4434 14.5312L14.1943 14.5605L14.0039 14.6338L13.8574 14.7217L13.6816 14.8828L13.5498 15.0879L13.4766 15.2637L13.4473 15.4395V16.2158L13.5059 16.4502L13.6084 16.6553L13.7402 16.8164H13.7695V16.8457L13.916 16.9482L14.1211 17.0508L14.3262 17.0947L15.5713 17.1094L15.6152 17.1533V17.7979L13.916 17.8125L13.7695 17.8271L13.623 17.9004L13.5205 18.0176L13.4619 18.1641L13.4473 18.2812L13.4766 18.457L13.5645 18.5889L13.667 18.6768L13.7695 18.7207L13.8428 18.7354H15.6592L15.8643 18.6914L16.04 18.6182L16.2158 18.4863L16.3477 18.3545L16.4648 18.1641L16.5234 17.9883L16.5527 17.8125V17.124L16.5234 16.9336L16.4502 16.7285L16.3477 16.5674L16.2158 16.4209L16.0254 16.2891L15.8496 16.2158L15.7178 16.1865L15.5859 16.1719H14.3848V15.4688L16.1719 15.4541L16.3184 15.4102L16.4648 15.2783L16.5234 15.1611L16.5381 15.1025V14.8828L16.4795 14.7363L16.377 14.6191L16.2598 14.5605L16.084 14.5312H14.4434ZM17.959 14.5312L17.8271 14.5459L17.6953 14.6191L17.5781 14.7363L17.5195 14.8535L17.5049 14.9414V18.3398L17.5488 18.4863L17.6367 18.6035L17.7539 18.6914L17.9004 18.7354H19.6436L19.8633 18.6914L20.0391 18.6182L20.2002 18.5156L20.3467 18.3838L20.4639 18.2227L20.5518 18.0469L20.6104 17.7979V15.498L20.5664 15.2783L20.4785 15.0732L20.3467 14.8975L20.2148 14.7656L20.0244 14.6484L19.8486 14.5752L19.7021 14.5459L19.541 14.5312H17.959Z" fill="#6084FE"/>
<path d="M12.6709 1.86035H17.3291L17.3584 1.88965L17.3438 4.32129L17.2852 4.46777L17.168 4.59961L17.0508 4.6582L16.9189 4.6875H12.6562L12.6416 4.67285V1.88965L12.6709 1.86035Z" fill="#6084FE"/>
<path d="M9.8584 1.86035H11.7041L11.7334 1.88965V4.6582L11.7188 4.6875H10.2246L10.0635 4.62891L9.93164 4.51172L9.84375 4.33594L9.8291 4.21875V1.88965L9.8584 1.86035Z" fill="#6084FE"/>
<path d="M18.4277 15.4541H19.4531L19.5996 15.4688L19.6729 15.5273L19.6875 15.5566V17.71L19.5996 17.8125L18.4863 17.8271L18.4277 17.8125V15.4541Z" fill="#6084FE"/>
</g>
<defs>
<filter id="filter0_d_187_228" x="-4" y="0" width="38" height="38" filterUnits="userSpaceOnUse" color-interpolation-filters="sRGB">
<feFlood flood-opacity="0" result="BackgroundImageFix"/>
<feColorMatrix in="SourceAlpha" type="matrix" values="0 0 0 0 0 0 0 0 0 0 0 0 0 0 0 0 0 0 127 0" result="hardAlpha"/>
<feOffset dy="4"/>
<feGaussianBlur stdDeviation="2"/>
<feComposite in2="hardAlpha" operator="out"/>
<feColorMatrix type="matrix" values="0 0 0 0 0 0 0 0 0 0 0 0 0 0 0 0 0 0 0.25 0"/>
<feBlend mode="normal" in2="BackgroundImageFix" result="effect1_dropShadow_187_228"/>
<feBlend mode="normal" in="SourceGraphic" in2="effect1_dropShadow_187_228" result="shape"/>
</filter>
</defs>
</svg>
