<svg width="30" height="30" viewBox="0 0 30 30" fill="none" xmlns="http://www.w3.org/2000/svg">
<path d="M6.41602 3.20801H23.5693L23.584 3.2373V26.7773L23.5547 26.792H6.43066L6.41602 26.7773L6.40137 26.2793V4.62891L6.41602 3.20801ZM13.1396 6.95801L12.8613 6.97266V8.55469L10.9717 8.56934L10.7227 8.58398V22.5H19.2627L19.2773 22.4854V8.58398L19.2041 8.56934H17.1826L17.1387 8.55469V6.97266L17.124 6.95801H13.1396Z" fill="#6084FE"/>
<path d="M6.43066 27.8467H23.5547L23.584 27.876V28.2715L23.5547 28.667L23.4814 28.9453L23.3643 29.1943L23.2471 29.3701L23.1152 29.5312H23.0859V29.5605L22.8369 29.751L22.6172 29.8682L22.2217 30H7.70508V29.9707L7.41211 29.8828L7.16309 29.751L7.03125 29.6484L6.88477 29.5166L6.73828 29.3555L6.62109 29.165L6.5332 28.9893L6.44531 28.6816L6.41602 28.418V27.8613L6.43066 27.8467ZM13.8428 28.4033L13.7256 28.4326L13.5645 28.5352L13.4766 28.6523L13.418 28.7842L13.4033 28.8574V29.0039L13.4473 29.1504L13.5645 29.3115L13.6963 29.3994L13.7695 29.4287L13.96 29.458H16.04L16.2305 29.4287L16.377 29.3555L16.4355 29.3115V29.2822H16.4648L16.5527 29.1504L16.582 29.0625L16.5967 28.8721L16.5527 28.7109L16.4648 28.5791L16.3477 28.4766L16.2158 28.418L16.1572 28.4033H13.8428Z" fill="#6084FE"/>
<path d="M7.70508 0H22.3096L22.3242 0.0292969L22.6318 0.131836L22.8662 0.263672L23.0127 0.380859L23.1445 0.498047L23.3057 0.703125L23.4375 0.9375L23.5254 1.18652L23.5693 1.46484L23.584 1.75781V2.12402L23.54 2.15332H6.43066L6.41602 2.12402V1.56738L6.44531 1.30371L6.5332 0.996094L6.67969 0.717773L6.87012 0.483398L7.03125 0.336914L7.17773 0.234375L7.42676 0.102539L7.69043 0.0146484L7.70508 0ZM12.8174 0.541992L12.6416 0.585938L12.5098 0.673828L12.4072 0.791016L12.3486 0.9375L12.334 0.996094V1.14258L12.3779 1.28906L12.4658 1.4209L12.5684 1.50879L12.6709 1.56738L12.832 1.59668H13.4473L13.6377 1.53809L13.7695 1.43555L13.8574 1.31836L13.9014 1.20117L13.916 1.01074L13.8721 0.849609L13.7842 0.717773L13.667 0.615234L13.5059 0.556641L13.418 0.541992H12.8174ZM14.9561 0.541992L14.7803 0.585938L14.6338 0.688477L14.5312 0.820312L14.4727 1.01074V1.12793L14.5312 1.31836L14.6338 1.4502L14.7803 1.55273L14.9561 1.59668H17.1973L17.3877 1.53809L17.5195 1.43555L17.6074 1.31836L17.6514 1.20117L17.666 1.12793V1.01074L17.6074 0.820312L17.5195 0.703125L17.417 0.615234L17.2559 0.556641L17.168 0.541992H14.9561Z" fill="#6084FE"/>
<path d="M11.7773 9.63867H18.208L18.2227 9.65332V11.7773L18.1934 11.792H11.792L11.7773 11.7773V9.63867Z" fill="#6084FE"/>
<path d="M11.792 19.2773H18.1934L18.2227 19.3066V21.416L18.208 21.4307H11.792L11.7773 21.416V19.292L11.792 19.2773Z" fill="#6084FE"/>
<path d="M11.792 12.8467H18.1934L18.2227 12.876V14.9854L18.208 15H11.7773V12.8613L11.792 12.8467Z" fill="#6084FE"/>
<path d="M11.8213 16.0547L18.208 16.0693L18.2227 16.084V18.1934L18.208 18.208L11.8213 18.2227L11.7773 18.208V16.0693L11.8213 16.0547Z" fill="#6084FE"/>
<path d="M13.9307 8.02734H16.0547L16.0693 8.04199L16.084 8.55469L16.0693 8.56934L14.3848 8.58398H13.9453L13.916 8.55469V8.04199L13.9307 8.02734Z" fill="#6084FE"/>
</svg>
