<svg width="35" height="35" viewBox="0 0 35 35" fill="none" xmlns="http://www.w3.org/2000/svg">
<path fill-rule="evenodd" clip-rule="evenodd" d="M29.1117 4.97598C25.9083 1.76886 21.6481 0.00188088 17.1095 0C7.75738 0 0.146082 7.61109 0.14232 16.9658C0.141066 19.9562 0.922259 22.8753 2.40711 25.4483L0 34.2404L8.99459 31.8809C11.473 33.2329 14.2631 33.9453 17.1026 33.9461H17.1098C26.4609 33.9461 34.073 26.3344 34.0766 16.9793C34.0784 12.4456 32.3152 8.18288 29.1117 4.97598ZM17.1095 31.0807H17.1037C14.5733 31.0797 12.0916 30.3996 9.92604 29.115L9.4113 28.8093L4.07378 30.2095L5.49844 25.0055L5.16302 24.4719C3.75131 22.2266 3.00586 19.6314 3.00711 16.9668C3.01004 9.19145 9.33649 2.86563 17.1152 2.86563C20.882 2.86688 24.4228 4.33564 27.0853 7.00127C29.7478 9.66689 31.2132 13.2101 31.212 16.9783C31.2086 24.7543 24.8826 31.0807 17.1095 31.0807ZM24.845 20.5187C24.4212 20.3064 22.3367 19.2811 21.948 19.1394C21.5597 18.9979 21.2767 18.9275 20.9944 19.3518C20.7116 19.776 19.8993 20.7311 19.6519 21.0138C19.4044 21.2968 19.1574 21.3323 18.7334 21.12C18.3093 20.9079 16.9434 20.46 15.324 19.0157C14.0638 17.8916 13.213 16.5033 12.9655 16.079C12.7185 15.6544 12.9635 15.4471 13.1515 15.2138C13.6105 14.6439 14.07 14.0464 14.2113 13.7637C14.3528 13.4807 14.282 13.233 14.1758 13.0209C14.07 12.8088 13.2222 10.7221 12.869 9.87296C12.5246 9.04662 12.1754 9.15822 11.915 9.14526C11.6679 9.13293 11.3852 9.13043 11.1024 9.13043C10.8199 9.13043 10.3605 9.23638 9.97181 9.66104C9.5833 10.0855 8.48821 11.111 8.48821 13.1977C8.48821 15.2845 10.0073 17.3003 10.2192 17.5833C10.4312 17.8663 13.2088 22.1484 17.4615 23.9846C18.473 24.4218 19.2625 24.6824 19.8784 24.8778C20.8941 25.2005 21.818 25.1549 22.5486 25.0458C23.3633 24.924 25.0567 24.0201 25.4103 23.0299C25.7635 22.0395 25.7635 21.1908 25.6573 21.0138C25.5516 20.837 25.2688 20.7311 24.845 20.5187Z" fill="#0099D9"/>
</svg>
