<svg width="30" height="30" viewBox="0 0 30 30" fill="none" xmlns="http://www.w3.org/2000/svg">
<path d="M24.6094 1.71387H25.1807L25.4297 1.75781L25.7373 1.86035L26.0156 2.00684L26.2061 2.13867L26.3672 2.27051V2.2998L26.4258 2.3291L26.5283 2.44629L26.6602 2.62207L26.7773 2.8125L26.8799 3.03223L26.9678 3.31055L27.0117 3.55957V4.05762L26.9238 5.28809L26.8213 6.69434L26.6748 8.67188L26.5137 10.8984L26.3965 12.5098L26.3525 12.9053L26.2793 13.2422L26.1768 13.5498L26.0449 13.8428L25.8838 14.1211L25.7373 14.3262L25.5762 14.5166L25.4004 14.707L25.2246 14.8828H25.1953L25.166 14.9414L25.1221 14.9854H25.0928L24.9609 14.8242L24.7998 14.6338L24.6094 14.3701L24.4482 14.1211L24.2871 13.8428L24.1113 13.5059L23.9209 13.0957L23.7158 12.5537L23.5547 12.041L23.4229 11.499L23.3496 11.1035L23.2764 10.5762L23.2324 10.0049V9.36035L23.2764 8.83301L23.3496 8.39355L23.4375 8.0127L23.54 7.71973L23.6133 7.66113L23.7891 7.57324L24.0088 7.41211L24.1553 7.28027L24.2578 7.17773L24.4189 6.95801L24.5508 6.70898L24.6533 6.40137L24.6973 6.16699V5.71289L24.6533 5.46387L24.5508 5.15625L24.4043 4.87793L24.2725 4.70215L24.1406 4.55566L23.9941 4.42383L23.7744 4.27734L23.54 4.16016L23.335 4.08691L23.1738 4.04297L22.9102 4.01367H22.6318L22.3389 4.05762L22.0898 4.13086L21.8555 4.24805L21.665 4.36523L21.4746 4.52637L21.3428 4.6582L21.1963 4.84863L21.0498 5.1123L20.9473 5.39062L20.8887 5.68359L20.874 5.81543V6.06445L20.9326 6.41602L21.0205 6.67969L21.0645 6.76758L21.0498 6.87012L20.9033 7.33887L20.8008 7.74902L20.7129 8.20312L20.6396 8.77441L20.6104 9.30176V9.99023L20.6396 10.5322L20.7129 11.1914L20.8154 11.8066L20.9473 12.3926L21.0791 12.8906L21.2109 13.3154L21.3721 13.7695L21.5625 14.2383L21.7236 14.5898L21.8408 14.8242L22.0459 15.2197L22.1777 15.4395L22.2949 15.6299L22.3096 15.6885L22.1045 15.5713L21.8701 15.4541L21.4893 15.2783L21.0645 15.1172L20.7129 15L20.6836 14.9707V14.7656L20.6543 14.4873L20.5811 14.1797L20.4639 13.9014L20.332 13.6816L20.2148 13.5352L20.0098 13.3154L15.2637 8.56934L15.1025 8.4375L14.9414 8.32031L14.6924 8.18848L14.3994 8.08594L14.1504 8.04199L13.8574 8.02734L13.5645 8.05664L13.3154 8.11523L13.0957 8.20312L12.876 8.32031L12.6855 8.4668L12.5098 8.62793L4.43848 16.6992L4.35059 16.8164L4.21875 17.0215L4.11621 17.2266L4.02832 17.4902L3.98438 17.6953L3.96973 17.8564V18.1641L3.99902 18.3984L4.08691 18.7061L4.18945 18.9404L4.29199 19.1162L4.43848 19.3066L4.57031 19.4531L9.3457 24.2285L9.375 24.2432V24.2725L9.43359 24.3018L9.63867 24.4482L9.94629 24.6094L10.2246 24.6973L10.4736 24.7412L10.6348 24.7559H10.8105L11.0742 24.7266L11.3525 24.6533L11.6602 24.5215L11.8213 24.4189L11.8945 24.4043L12.0557 24.8145L12.29 25.2979L12.4365 25.5615L12.627 25.8691L12.8174 26.1475L12.9639 26.3379L13.1543 26.5723L13.3008 26.748L13.2861 26.8213L12.9199 27.1875L12.8027 27.29L12.583 27.4658L12.334 27.627L11.9971 27.8027L11.6309 27.9346L11.3232 28.0078L11.0596 28.0518L10.8838 28.0664H10.5029L10.2246 28.0371L9.87305 27.9639L9.56543 27.8613L9.18457 27.6855L8.9209 27.5244L8.67188 27.334L8.4375 27.1143L1.47949 20.1562L1.34766 19.9951L1.20117 19.8047L1.04004 19.541L0.922852 19.3066L0.849609 19.1309L0.761719 18.8672L0.688477 18.5449L0.65918 18.3398L0.644531 18.1348V17.8857L0.673828 17.5781L0.74707 17.2119L0.820312 16.9775L0.922852 16.7139L1.04004 16.4795L1.20117 16.2158L1.37695 15.9814L1.56738 15.7764L1.58203 15.7471H1.61133L1.64062 15.6885L14.0625 3.2666H14.0918V3.2373L14.209 3.13477L14.3994 2.97363L14.5898 2.8418L14.8682 2.68066L15.0732 2.57812L15.3516 2.47559L15.6299 2.40234L15.8643 2.3584L16.4941 2.2998L24.2139 1.74316L24.6094 1.71387Z" fill="#6084FE"/>
<path d="M18.2666 15.5713H19.0576L19.5117 15.6152L19.9658 15.6885L20.4346 15.8057L20.7568 15.9082L21.1377 16.0547L21.4893 16.2158L21.8262 16.3916L22.1338 16.582L22.3096 16.6992L22.5879 16.9043L22.7783 17.0654L22.9395 17.1973L23.1152 17.373L23.2031 17.4463L23.3057 17.5635L23.4082 17.666L23.54 17.8271L23.7012 18.0176L23.9062 18.2959L24.0967 18.5889L24.2725 18.8965L24.4336 19.2041L24.6094 19.6143L24.7852 20.127L24.9023 20.5957L24.9902 21.123L25.0195 21.416L25.0342 21.665V22.1924L25.0049 22.6172L24.9316 23.1006L24.8438 23.5107L24.7266 23.9062L24.5801 24.3164L24.4189 24.6826L24.2725 24.9609L24.0967 25.2686L23.8623 25.6201L23.6279 25.9277L23.4521 26.1328L23.3496 26.25L22.9395 26.6602L22.8223 26.7627L22.5879 26.9531L22.3242 27.1436L22.1045 27.29L21.8848 27.4219L21.6211 27.5684L21.2695 27.7441L20.8594 27.9053L20.4639 28.0371L20.0537 28.1396L19.5703 28.2275L19.1748 28.2715L18.9404 28.2861H18.3545L17.9883 28.2568L17.5781 28.1982L17.1533 28.1104L16.7432 27.9932L16.3623 27.8613L15.9961 27.7002L15.6885 27.5537L15.3369 27.3486L14.9854 27.1143L14.8096 26.9824L14.5752 26.792L14.458 26.6895L14.2822 26.5283L13.9746 26.2207V26.1914H13.9453L13.8135 26.0303L13.6523 25.8398L13.4766 25.6055L13.3008 25.3418L13.125 25.0488L12.9199 24.6533L12.7881 24.3604L12.6562 24.0088L12.5391 23.6426L12.4365 23.2031L12.3633 22.7783L12.3193 22.3535L12.3047 22.0166V21.8262L12.3193 21.4893L12.3779 20.9619L12.4658 20.5078L12.583 20.0684L12.7148 19.6729L12.8467 19.3506L12.9492 19.1309L13.1543 18.75L13.2715 18.5596L13.4326 18.3105L13.6084 18.0762L13.7549 17.8857L13.9453 17.666L13.9746 17.6221H14.0039L14.0332 17.5635L14.3262 17.2705H14.3555V17.2412L14.5166 17.1094L14.6631 16.9775L14.9121 16.7871L15.2344 16.5674L15.4248 16.4502L15.7617 16.2598L16.0986 16.0986L16.4648 15.9521L16.9043 15.8057L17.2412 15.7178L17.6221 15.6445L18.0762 15.5859L18.2666 15.5713ZM18.5889 18.2812L18.457 18.3398L18.3398 18.4277L18.2666 18.5742L18.252 18.6328L18.2373 19.0137L18.0615 19.0869L17.8271 19.2041L17.6514 19.3213L17.5049 19.4531L17.3584 19.5996L17.2119 19.8193L17.1094 20.0244L17.0361 20.2441L16.9922 20.4639V20.874L17.0508 21.1523L17.1533 21.416L17.2852 21.6357L17.4023 21.7822L17.4902 21.8848L17.6514 22.0166L17.7979 22.1191L18.0322 22.2363L18.2373 22.3096L18.4863 22.3535L18.8232 22.3828L19.0137 22.4414L19.1602 22.5293L19.3066 22.6611L19.4092 22.8223L19.4678 22.9688L19.4971 23.1299L19.4824 23.3496L19.4238 23.5254L19.3213 23.7012L19.1895 23.833L19.0137 23.9355L18.8232 23.9941H18.5156L18.3105 23.9209L18.1201 23.7891L17.9883 23.6279L17.915 23.4814L17.8711 23.3057L17.8418 23.0859L17.7832 22.9395L17.7246 22.8662L17.5781 22.7783L17.5342 22.7637H17.2998L17.1533 22.8369L17.0508 22.9541L16.9922 23.1006V23.3936L17.0508 23.6719L17.1533 23.9355L17.2852 24.1553L17.417 24.3164L17.5781 24.4775L17.7832 24.624L18.0029 24.7412L18.208 24.8145L18.2373 24.8438L18.252 25.2246L18.2959 25.3418L18.3545 25.4297L18.457 25.5176L18.5742 25.5615H18.7939L18.9697 25.4736L19.0723 25.3418L19.1016 25.2539L19.1162 25.1514V24.8438L19.2334 24.7852L19.4678 24.6826L19.6582 24.5654L19.8779 24.3896V24.3604L19.9219 24.3457L20.083 24.1406L20.2002 23.9502L20.2881 23.7305L20.3467 23.5107L20.376 23.2617L20.3613 22.9688L20.3174 22.749L20.2441 22.5293L20.0977 22.251L19.9512 22.0605L19.7754 21.8848L19.5703 21.7383L19.3359 21.6211L19.0723 21.5332L18.9111 21.5039L18.5449 21.4746L18.3545 21.416L18.1934 21.3281L18.0908 21.2402L17.959 21.0498L17.9004 20.918L17.8711 20.8008V20.5518L17.915 20.376L18.0029 20.2002L18.1348 20.0537L18.2812 19.9512L18.457 19.8779L18.5156 19.8633H18.8379L19.0137 19.9219L19.1602 20.0098L19.3066 20.1416L19.4092 20.3027L19.4678 20.4492L19.4971 20.6543L19.5264 20.8154L19.6143 20.9619L19.7314 21.0498L19.8633 21.0938H20.0244L20.1709 21.0352L20.2881 20.9326L20.3613 20.7861L20.376 20.5957L20.3467 20.3467L20.2734 20.083L20.127 19.7754L19.9951 19.5996L19.8633 19.4531L19.7314 19.3359L19.5117 19.1895L19.292 19.0869L19.1309 19.0283L19.1162 18.9697V18.6621L19.0723 18.5156L18.9697 18.3838L18.8525 18.3105L18.75 18.2812H18.5889Z" fill="#6084FE"/>
<path d="M13.7402 8.8916H14.0771L14.2529 8.93555L14.3994 8.99414L14.5752 9.11133L14.7656 9.28711L19.5557 14.0771L19.6729 14.2383L19.7754 14.4434L19.834 14.707V14.7803L19.5996 14.7656L19.1309 14.7217L18.7646 14.707H18.5596L18.0176 14.7363L17.5342 14.7949L17.0801 14.8828L16.626 15L16.1426 15.1611L15.791 15.3076L15.5273 15.4248L15.249 15.5713L14.9854 15.7178L14.6191 15.9521L14.3994 16.1133L14.1504 16.3037L13.9453 16.4795L13.7695 16.6406L13.6523 16.7432L13.4326 16.9629L13.3301 17.0801L13.1689 17.2559L13.0078 17.4609L12.8027 17.7246L12.7002 17.8857L12.5977 18.0322L12.4658 18.252L12.3193 18.501L12.2021 18.7354L12.0557 19.043L11.8945 19.4531L11.748 19.8926L11.6162 20.4053L11.543 20.8154L11.499 21.123L11.4697 21.5332V22.3242L11.5137 22.8223L11.5723 23.2178L11.6016 23.3643V23.4961L11.4697 23.6279L11.25 23.7744L11.0742 23.8477L10.8984 23.8916L10.7666 23.9062H10.6348L10.3857 23.8623L10.21 23.7891L10.0781 23.7158L9.91699 23.584L7.20703 20.874L7.11914 20.8008L7.03125 20.6982L6.94336 20.625L6.85547 20.5225L6.76758 20.4492L6.67969 20.3467L6.5918 20.2734L6.50391 20.1709L6.41602 20.0977L6.32812 19.9951L6.24023 19.9219L6.15234 19.8193L6.06445 19.7461L5.97656 19.6436L5.88867 19.5703L5.80078 19.4678L5.74219 19.4238V19.3945L5.69824 19.3799L5.625 19.292L5.56641 19.248V19.2188L5.50781 19.1895V19.1602L5.44922 19.1309V19.1016L5.39062 19.0723V19.043L5.33203 19.0137V18.9844L5.27344 18.9551V18.9258L5.21484 18.8965L5.15625 18.8379V18.8086H5.12695L4.98047 18.6182L4.87793 18.3984L4.81934 18.1787V17.8418L4.87793 17.6221L4.93652 17.4756L5.05371 17.2998L5.21484 17.124L13.2129 9.12598L13.418 8.99414L13.5938 8.9209L13.7402 8.8916Z" fill="#6084FE"/>
<path d="M23.4814 5.15625L23.5547 5.1709L23.7012 5.36133L23.8037 5.58105L23.8477 5.75684L23.8623 5.97656L23.5547 6.18164L23.3789 6.34277L23.2324 6.50391L23.0713 6.73828L22.9248 7.00195L22.8076 7.25098L22.6758 7.60254L22.5586 8.0127L22.4854 8.36426L22.4414 8.64258L22.3975 9.02344L22.3828 9.28711V10.1221L22.4121 10.5322L22.4707 11.0303L22.5439 11.4697L22.6465 11.9238L22.7783 12.4219L22.9541 12.9492L23.1445 13.4473L23.3496 13.8867L23.5107 14.209L23.7158 14.5605L23.877 14.8096L24.0527 15.0586L24.2139 15.2637L24.3457 15.4248L24.5068 15.6006L24.7559 15.8496L24.917 15.9814L25.1074 16.1279L25.4004 16.3037L25.6787 16.4355L25.9277 16.5088L26.2207 16.5527H26.3965L26.6748 16.5088L26.9092 16.4209L27.085 16.333L27.29 16.1865L27.4658 16.0254L27.5977 15.8643L27.7002 15.7178L27.8174 15.5273L27.9346 15.3076L28.0957 14.9121L28.2275 14.458L28.3008 14.1357L28.374 13.6523L28.418 13.1396V12.2607L28.374 11.7041L28.2861 11.0889L28.1836 10.5762L28.0371 10.0049L27.8613 9.46289L27.7148 9.08203L27.5391 8.67188V8.4668L27.6416 7.13379L27.6562 7.0752L27.7148 7.10449L27.832 7.30957L27.9492 7.5L28.125 7.80762L28.2422 8.02734L28.4326 8.4375L28.6084 8.8623L28.7988 9.38965L28.9453 9.87305L29.1211 10.5762L29.2383 11.2354L29.2969 11.7041L29.3408 12.2314V13.2275L29.2822 13.8574L29.209 14.2969L29.1211 14.6924L29.0039 15.1025L28.8574 15.4834L28.7549 15.7031L28.6377 15.9375L28.5352 16.1133L28.374 16.3477L28.2422 16.5234H28.2129L28.1836 16.582L28.0225 16.7578L27.9053 16.8604L27.6855 17.0361L27.4072 17.1973L27.1875 17.2998L26.9678 17.373L26.6309 17.4463L26.4697 17.4609H26.1035L25.7812 17.417L25.459 17.3291L25.166 17.2119L24.7998 17.0215L24.624 16.9043L24.3896 16.7285L24.2285 16.5967L24.0088 16.3916L23.7598 16.1426L23.6572 16.0254L23.4961 15.835L23.3057 15.5859L23.0713 15.249L22.8955 14.9561L22.749 14.707L22.4854 14.1943L22.2949 13.7695L22.0752 13.1982L21.8994 12.6562L21.7383 12.041L21.6357 11.5576L21.5479 11.001L21.4893 10.4736L21.46 10.0342V9.28711L21.4893 8.84766L21.5479 8.37891L21.6357 7.91016L21.7529 7.45605L21.8994 7.03125L22.0459 6.69434L22.2217 6.37207L22.3535 6.16699L22.5586 5.88867L22.7637 5.66895L22.8809 5.55176L23.1299 5.36133L23.335 5.22949L23.4814 5.15625Z" fill="#6084FE"/>
</svg>
