<svg width="30" height="30" viewBox="0 0 30 30" fill="none" xmlns="http://www.w3.org/2000/svg">
<path d="M8.8916 1.86035H21.0791L21.416 1.88965L21.6504 1.94824L21.8701 2.03613L22.1045 2.16797L22.2949 2.31445L22.4707 2.47559L22.6172 2.66602L22.7344 2.85645L22.8516 3.10547L22.8662 3.16406L22.749 3.22266L21.9873 3.48633L21.3721 3.70605L20.5811 3.98438L19.7461 4.27734L19.5117 4.36523L19.3945 4.45312L19.3213 4.54102L19.2627 4.70215V4.84863L19.3066 4.99512L19.585 5.61035L19.8047 6.09375L19.79 6.1377L19.0137 6.26953L17.4463 6.5332L17.0361 6.60645L16.8457 6.66504L16.6992 6.79688L16.6406 6.92871L16.626 7.00195V7.11914L16.7139 7.5293L16.9922 8.70117L17.1387 9.33105L17.2119 9.47754L17.2705 9.55078L17.4023 9.62402L17.5049 9.65332H17.6514L17.8125 9.59473L17.9443 9.47754L18.0176 9.31641V9.12598L17.8857 8.55469L17.6514 7.54395L17.6367 7.44141L17.6953 7.41211L18.999 7.19238L20.1416 7.00195L20.5518 6.92871L20.7129 6.87012L20.8447 6.75293L20.918 6.57715V6.40137L20.8594 6.22559L20.5957 5.6543L20.4346 5.28809L20.332 5.05371L20.4639 4.99512L21.0352 4.79004L21.665 4.57031L22.3682 4.32129L22.8369 4.16016L22.9541 4.13086V22.8662L22.9395 22.8809H7.06055L7.0459 22.8662V16.4941L7.08984 16.4502L7.41211 16.2451L8.96484 15.2344L9.25781 15.0439L9.52148 14.8682L9.59473 14.8975L10.0049 15.1758L10.8838 15.7764L11.3525 16.0986L11.7041 16.333L11.8652 16.4502L12.0703 16.582L12.2314 16.626L12.3926 16.6113L12.5684 16.5234L12.7002 16.3623L12.8467 16.1426L12.9492 15.9961L13.1396 15.7178L13.3008 15.4834L13.5205 15.1611L13.6523 14.9707L13.8428 14.6924L14.0479 14.3848L14.0918 14.3262L14.165 14.3555L14.4434 14.5459L14.707 14.7363L15 14.9414L15.498 15.293L15.791 15.498L15.9082 15.5566L15.9668 15.5713H16.1572L16.3037 15.5127L16.4209 15.4102L16.4941 15.2783L16.5088 15.2051V15.0586L16.4648 14.9268L16.377 14.8096L16.2744 14.7217L16.0254 14.5459L15.7324 14.3408L15.4688 14.1504L15.2783 14.0186L14.9854 13.8135L14.7217 13.623L14.4727 13.4473L14.209 13.2715L14.0918 13.2275H13.8867L13.7549 13.2861L13.6377 13.3887L13.4619 13.6377L13.3447 13.8135L13.1836 14.0479L12.9639 14.3701L12.8613 14.5166L12.7295 14.707L12.583 14.9268L12.4072 15.1758L12.1729 15.5273L12.0996 15.5127L11.9385 15.3955L11.7627 15.2783L11.4258 15.0439L11.2061 14.8975L10.9717 14.7363L10.6494 14.5166L10.3125 14.2822L10.0342 14.0918L9.81445 13.9453L9.65332 13.8721H9.43359L9.22852 13.9746L9.00879 14.1211L8.71582 14.3115L8.17383 14.6631L7.9248 14.8242L7.5 15.1025L7.20703 15.293L7.06055 15.3809H7.0459V3.57422L7.10449 3.25195L7.20703 2.97363L7.33887 2.72461L7.48535 2.53418L7.64648 2.3584L7.86621 2.18262L8.11523 2.03613L8.39355 1.93359L8.58398 1.88965L8.8916 1.86035Z" fill="#6084FE"/>
<path d="M7.06055 23.8037H22.3975L22.9395 23.8184L22.9541 23.833V26.3232L22.9248 26.5723L22.8662 26.8213L22.7783 27.041L22.6611 27.2607L22.5439 27.4219L22.3828 27.5977L22.2363 27.7295L22.0459 27.8613L21.8115 27.9785L21.5479 28.0664L21.3428 28.1104L21.1816 28.125H8.78906L8.48145 28.0811L8.24707 28.0078L7.99805 27.8906L7.82227 27.7734L7.66113 27.6416L7.5 27.4805L7.30957 27.2168L7.19238 26.9824L7.11914 26.792L7.06055 26.5283L7.0459 26.4111V23.8184L7.06055 23.8037ZM13.1396 24.9756L12.9492 25.0049L12.8174 25.0928L12.7148 25.2246L12.6709 25.3711V25.5176L12.7295 25.6787L12.832 25.7959L12.9492 25.8691L13.0518 25.8984L13.2129 25.9131H16.377L16.9629 25.8984L17.1094 25.8398L17.2412 25.7227L17.3145 25.5762L17.3291 25.5176V25.3711L17.2705 25.21L17.1826 25.0928L17.0361 25.0049L16.9922 24.9902L16.8311 24.9756H13.1396Z" fill="#6084FE"/>
</svg>
