<svg width="35" height="36" viewBox="0 0 35 36" fill="none" xmlns="http://www.w3.org/2000/svg">
<g filter="url(#filter0_d_187_235)">
<path d="M4.04395 5.80078L17.5059 5.84473L24.3906 5.87402H26.5L26.5293 5.90332V20.2881L26.5146 20.3027H9.27344L9.36133 20.5664L9.47852 20.8008L9.58105 20.9326L9.66895 21.0352L9.78613 21.123L9.97656 21.2402L10.167 21.3135L10.3428 21.3574L10.4746 21.3721L15.2793 21.3867L15.6016 21.416L15.8506 21.4746L16.085 21.5625L16.3193 21.6797L16.5244 21.8115L16.6855 21.9434L16.8613 22.1045L16.9932 22.2656L17.0957 22.4121L17.2129 22.6172L17.3154 22.8369L17.3887 23.0713L17.4326 23.291L17.4766 23.8184L17.5352 24.0674L17.6523 24.3164L17.7695 24.4775L17.9307 24.6387L18.1504 24.7852L18.3701 24.873L18.6045 24.917H23.834L23.9512 24.5654L24.0977 24.2578L24.2588 24.0234L24.3613 23.8916H24.3906L24.4199 23.833L24.5371 23.7158L24.7422 23.5547L24.9473 23.4229L25.1816 23.3057L25.4893 23.2031L25.6943 23.1592L25.8115 23.1445L26.1191 23.1299H28.1553L28.4482 23.1445L28.5947 23.2031L28.7119 23.3057L28.7852 23.4375L28.8145 23.5254L28.8291 24.1553L29.8691 24.1699L30.0156 24.2139L30.1475 24.3164L30.2354 24.4482L30.2646 24.5361V24.7559L30.1768 24.9316L30.0742 25.0342L29.957 25.0928L29.8105 25.1221H28.8145V25.708H29.8838L30.0303 25.7666L30.1475 25.8691L30.2354 26.001L30.2646 26.1035V26.2646L30.2061 26.4111L30.1035 26.543L29.9863 26.6162L29.8984 26.6455L29.7373 26.6602H28.8145V27.29L28.7705 27.4219L28.6826 27.5391L28.5801 27.627L28.4629 27.6709L28.375 27.6855H25.9434L25.6797 27.6562L25.3721 27.583L25.0791 27.4658L24.8447 27.334L24.6836 27.2168L24.4785 27.041L24.376 26.9385L24.2441 26.7773L24.0977 26.5576L23.9805 26.3379L23.834 25.8984L18.5605 25.8838L18.2822 25.8398L18.0625 25.7812L17.8281 25.6934L17.6084 25.5762L17.374 25.415L17.1982 25.2539L17.0225 25.0781L16.8613 24.8584L16.7295 24.624L16.6123 24.3457L16.5391 24.0674L16.5098 23.8916L16.4805 23.4814L16.4365 23.2617L16.3486 23.042L16.2314 22.8516L16.0703 22.6758L15.8945 22.5439L15.6895 22.4414L15.4404 22.3682L15.2939 22.3535L10.46 22.3389L10.0938 22.2949L9.78613 22.207L9.49316 22.0752L9.25879 21.9287L9.09766 21.7969L8.90723 21.6211L8.7168 21.3867L8.58496 21.167L8.48242 20.9619L8.37988 20.6543L8.32129 20.332V20.3027H4.39551L4.23438 20.2441L4.11719 20.1416L4.0293 19.9951L4 19.8047V5.84473L4.04395 5.80078ZM19.4102 7.66113L18.9561 7.70508L18.6045 7.76367L18.1943 7.86621L17.7549 8.0127L17.3887 8.17383L17.1543 8.29102L16.8906 8.4375L16.6709 8.58398L16.4219 8.75977L16.2314 8.9209L16.0703 9.05273L15.6748 9.44824L15.5723 9.56543L15.3965 9.78516L15.2061 10.0488L15.0596 10.2832L14.9131 10.5322L14.752 10.8691L14.6348 11.1475L14.4883 11.5869L14.3857 11.9971L14.3125 12.4658L14.2832 12.8467V13.1982L14.3271 13.6816L14.415 14.209L14.5322 14.6777L14.6787 15.1172L14.8398 15.498L15.0303 15.8643L15.2207 16.1719L15.4111 16.4355L15.5723 16.626L15.7041 16.7871L15.9971 17.0801L16.1143 17.1826L16.29 17.3291L16.5244 17.5049L16.7734 17.666L17.0811 17.8418L17.4766 18.0322L17.8574 18.1787L18.1943 18.2812L18.5752 18.3691L19.0293 18.4424L19.3223 18.4717H20.0693L20.5967 18.4131L21.0361 18.3252L21.4023 18.2227L21.71 18.1201L22.0908 17.959L22.3838 17.8125L22.6328 17.666L22.8965 17.4902L23.0723 17.3584L23.3066 17.168L23.4824 17.0068L23.7607 16.7285L23.8926 16.5674L24.0537 16.3623L24.2441 16.084L24.376 15.8643L24.5078 15.6299L24.6543 15.3076L24.7715 15.0146L24.874 14.6924L24.9912 14.2236L25.0645 13.8135L25.1084 13.4473L25.123 13.2568V12.7588L25.0645 12.2314L24.9912 11.8652L24.9033 11.5283L24.7861 11.1768L24.625 10.7959L24.4492 10.4443L24.2734 10.1514L24.1123 9.91699L23.9658 9.72656L23.7754 9.49219L23.5703 9.27246L23.3799 9.08203L23.2188 8.9502L23.0283 8.78906L22.7646 8.59863L22.4863 8.42285L22.2227 8.27637L21.9883 8.15918L21.6514 8.0127L21.2119 7.86621L20.8604 7.77832L20.5674 7.71973L20.2012 7.67578L19.9961 7.66113H19.4102ZM9.03906 8.64258L8.87793 8.70117L8.76074 8.80371L8.6582 8.9502L8.52637 9.15527L8.02832 9.90234L7.60352 10.5469L7.17871 11.1768L6.8125 11.7334L6.40234 12.3486L6.12402 12.7734L5.47949 13.7402L5.4209 13.8574L5.40625 13.9307V14.0625L5.4502 14.1943L5.50879 14.2822L5.58203 14.3555L5.66992 14.4141L5.8457 14.458L8.13086 14.707L8.2334 14.7217L8.24805 14.9854L8.39453 16.6992L8.43848 17.1387L8.48242 17.2852L8.57031 17.4023L8.70215 17.4902L8.81934 17.5195H8.98047L9.12695 17.4609L9.24414 17.373L9.37598 17.1826L9.50781 16.9775L9.6543 16.7432L9.87402 16.4062L10.0352 16.1426L10.167 15.9375L10.3428 15.6592L10.7529 15.0146L10.9287 14.7363L11.1631 14.3701L11.3828 14.0186L11.5146 13.8135L11.7197 13.4912L11.8516 13.2861L11.998 13.0518L12.2178 12.7148L12.3789 12.4512L12.5107 12.2461L12.5693 12.1143L12.584 12.0557V11.8945L12.5254 11.7334L12.3936 11.5869L12.2764 11.5283L12.2178 11.5137L9.61035 11.499L9.5957 11.4697L9.58105 9.00879L9.52246 8.8623L9.39062 8.71582L9.27344 8.65723L9.21484 8.64258H9.03906Z" fill="#6084FE"/>
<path d="M29.3711 2.2998H29.4443L29.415 2.3584L29.166 2.60742L29.1514 2.63672H29.1221L29.0928 2.69531L26.8369 4.95117H24.3467L17.667 4.93652L4.27832 4.89258L4.30762 4.81934L4.4248 4.7168L6.69531 2.44629L6.8418 2.34375L6.92969 2.31445L29.3711 2.2998Z" fill="#6084FE"/>
<path d="M30.0889 2.98828H30.1182V17.3291L30.0889 17.4756L29.9717 17.6367L29.5469 18.0615L29.4297 18.1641L29.1074 18.4863H29.0781V18.5156L28.9609 18.6182L28.7119 18.8672H28.6826V18.8965L28.5654 18.999L28.2871 19.2773L28.1699 19.3799L27.8623 19.6875L27.7451 19.79L27.4814 20.0537H27.4521L27.4375 5.75684L27.4521 5.625L28.7266 4.35059L28.7998 4.2627L28.9023 4.1748L28.9756 4.08691L29.0342 4.02832H29.0635V3.99902H29.0928V3.96973H29.1221L29.1514 3.91113H29.1807L29.21 3.85254H29.2393L29.2686 3.79395H29.2979L29.3271 3.73535H29.3564L29.3857 3.67676H29.415L29.4443 3.61816H29.4736L29.5029 3.55957H29.5322L29.5615 3.50098H29.5908V3.47168H29.6201V3.44238H29.6494L29.6787 3.38379H29.708L29.7373 3.3252H29.7666L29.7959 3.2666H29.8252V3.2373L29.8984 3.17871L29.9131 3.14941H29.9424L29.9717 3.09082L30.0889 2.98828Z" fill="#6084FE"/>
<path d="M20.9336 13.5352H24.1562L24.1709 13.5498V13.6816L24.0977 14.0771L23.9951 14.458L23.8779 14.7803L23.7021 15.1611L23.5996 15.3369L23.5264 15.4688L23.4238 15.6152L23.292 15.8057L23.1016 16.04L22.8672 16.2891L22.6475 16.4941L22.501 16.6113L22.3252 16.7432L22.1055 16.8896L21.7979 17.0654L21.4609 17.2266L21.1533 17.3438L20.8164 17.4463L20.2891 17.5488L20.1719 17.5635L20.1572 17.5049V14.3115L20.2012 14.2676L20.4062 14.165L20.6113 14.0039L20.7285 13.8721L20.8457 13.6816L20.9043 13.5645L20.9336 13.5352Z" fill="#6084FE"/>
<path d="M20.1719 8.59863L20.6113 8.67188L20.9775 8.75977L21.2852 8.8623L21.6221 9.00879L21.9883 9.19922L22.3398 9.43359L22.6035 9.63867L22.7939 9.81445L22.8818 9.8877L22.9844 10.0049L23.0869 10.1074L23.2188 10.2686L23.3652 10.459L23.5117 10.6787L23.6729 10.957L23.79 11.1914L23.9219 11.499L24.0244 11.8066L24.127 12.2168L24.1855 12.5977L24.1709 12.6123L23.8633 12.627H20.9336L20.8896 12.583L20.7871 12.3779L20.6699 12.2314L20.5967 12.1436L20.4062 11.9971L20.1865 11.8799L20.1572 11.8506V8.61328L20.1719 8.59863Z" fill="#6084FE"/>
<path d="M19.1172 8.61328H19.2344L19.249 8.62793V11.2207L19.2344 11.8652L18.9561 12.0264L18.8242 12.1436H18.7949L18.7656 12.2021L18.6777 12.3047L18.5605 12.4805L18.4873 12.6123L18.4287 12.627H15.4258L15.2207 12.6123L15.25 12.4219L15.3086 12.0996L15.4111 11.7188L15.5283 11.3965L15.6895 11.0449L15.8652 10.7227L15.9678 10.5762L16.0996 10.3857L16.2754 10.166L16.29 10.1367H16.3193L16.3486 10.0781L16.4512 9.97559L16.4658 9.94629H16.4951L16.5244 9.8877H16.5537V9.8584L16.6709 9.75586L16.832 9.60938L17.0078 9.47754L17.2129 9.33105L17.4473 9.18457L17.8428 8.97949L18.1211 8.8623L18.5312 8.73047L18.8682 8.65723L19.1172 8.61328Z" fill="#6084FE"/>
<path d="M15.2207 13.5352H18.4727L18.5166 13.5791L18.6045 13.7549L18.7363 13.9307L18.8096 14.0186L18.9854 14.1504L19.1611 14.2529L19.2344 14.2969L19.249 14.3262V17.4316L19.2344 17.5635L19.0146 17.5342L18.6631 17.4609L18.2969 17.3584L17.9453 17.2266L17.5791 17.0508L17.374 16.9336L17.0664 16.7285L16.8467 16.5527L16.7295 16.4502L16.5537 16.2891L16.3779 16.1133L16.2754 15.9961L16.085 15.7617L15.8799 15.4541L15.7334 15.2051L15.543 14.8096L15.4404 14.5312L15.3379 14.1943L15.2646 13.8428L15.2207 13.6084V13.5352Z" fill="#6084FE"/>
<path d="M8.62891 10.6641H8.67285V11.8945L8.70215 12.1289L8.77539 12.2607L8.87793 12.3486L9.02441 12.4072L9.1416 12.4219H11.2803L11.2656 12.4805L11.1191 12.7148L10.9141 13.0371L10.7383 13.3154L10.5332 13.6377L10.3867 13.8721L10.2842 14.0332L10.1084 14.3115L9.90332 14.6338L9.72754 14.9121L9.41992 15.3955L9.30273 15.5859L9.24414 15.6445L9.22949 15.6299L9.1123 14.3262L9.06836 14.1064L8.98047 13.9746L8.90723 13.916L8.76074 13.8574L8.43848 13.8135L6.92969 13.6523L6.68066 13.623L6.70996 13.5352L6.82715 13.374L7.25195 12.7295L7.50098 12.3633L8.32129 11.1328L8.57031 10.752L8.62891 10.6641Z" fill="#6084FE"/>
<path d="M19.5566 12.3779H19.8643L20.04 12.4512L20.1719 12.5391L20.3037 12.6855L20.3916 12.876L20.4209 13.0811L20.3916 13.2861L20.2891 13.4912L20.1719 13.623L20.04 13.7109L19.8789 13.7695L19.8057 13.7842H19.5859L19.3955 13.7256L19.249 13.623L19.1758 13.5498L19.0879 13.4326L19.0146 13.2715L19 13.1982V12.9492L19.0732 12.7441L19.1904 12.583L19.3076 12.4805L19.4541 12.4072L19.5566 12.3779Z" fill="#6084FE"/>
</g>
<defs>
<filter id="filter0_d_187_235" x="-1.86035" y="0" width="38" height="38" filterUnits="userSpaceOnUse" color-interpolation-filters="sRGB">
<feFlood flood-opacity="0" result="BackgroundImageFix"/>
<feColorMatrix in="SourceAlpha" type="matrix" values="0 0 0 0 0 0 0 0 0 0 0 0 0 0 0 0 0 0 127 0" result="hardAlpha"/>
<feOffset dy="4"/>
<feGaussianBlur stdDeviation="2"/>
<feComposite in2="hardAlpha" operator="out"/>
<feColorMatrix type="matrix" values="0 0 0 0 0 0 0 0 0 0 0 0 0 0 0 0 0 0 0.25 0"/>
<feBlend mode="normal" in2="BackgroundImageFix" result="effect1_dropShadow_187_235"/>
<feBlend mode="normal" in="SourceGraphic" in2="effect1_dropShadow_187_235" result="shape"/>
</filter>
</defs>
</svg>
