<svg width="30" height="30" viewBox="0 0 30 30" fill="none" xmlns="http://www.w3.org/2000/svg">
<g clip-path="url(#clip0_193_523)">
<path d="M1.46484 1.59668H2.54883L2.59277 1.66992L2.8125 2.19727L3.00293 2.63672L3.16406 3.01758L3.31055 3.2959L3.44238 3.47168L3.64746 3.67676L3.85254 3.82324L4.24805 4.02832L4.49707 4.14551L4.74609 4.27734L5.02441 4.40918L5.30273 4.55566L5.41992 4.62891L5.50781 4.70215V4.73145L5.56641 4.76074L5.63965 4.83398V4.86328H5.66895L5.77148 4.98047L6.67969 5.88867L6.78223 6.00586L7.44141 6.66504V6.69434L7.5 6.72363L7.57324 6.81152L8.55469 7.79297L8.62793 7.88086L8.67188 7.91016L8.65723 7.96875L2.94434 13.6816L2.8418 13.7988L2.70996 13.9453L2.56348 14.1504L2.44629 14.3555L2.3584 14.5312L2.25586 14.8096L2.18262 15.1025L2.15332 15.3369L2.13867 15.5859L2.16797 15.9668L2.24121 16.3037L2.3291 16.5674L2.49023 16.9043L2.63672 17.124L2.79785 17.3291L3.04688 17.5781L3.28125 17.7539L3.47168 17.8711L3.70605 17.9883L3.92578 18.0762L4.2041 18.1494L4.45312 18.1934L4.62891 18.208H4.92188L5.27344 18.1641L5.52246 18.1055L5.80078 18.0029L6.03516 17.8857L6.24023 17.7686L6.41602 17.6367L6.5625 17.5049L6.67969 17.4023L11.3672 12.7148L11.4258 12.7295L11.5869 12.9053L15.498 16.8164L15.5859 16.8896L15.6885 17.0068L15.8643 17.1826L15.9375 17.2412V17.2705L15.9961 17.2998L16.1133 17.417L16.3623 17.6074L16.6113 17.7686L16.8311 17.8857L17.1533 18.0176L17.4609 18.1055L17.7832 18.1641L18.1055 18.1934H18.3545L18.6621 18.1641L19.0283 18.0908L19.2627 18.0176L19.4971 17.9297L19.79 17.7832L20.0244 17.6367L20.2588 17.4609L20.4346 17.2998H20.4639V17.2705L20.6396 17.0947L20.8301 16.8457L20.9619 16.6406L21.0791 16.4355L21.2256 16.084L21.3135 15.791L21.3721 15.5273L21.4014 15.2637V14.751L21.3721 14.502L21.2988 14.1504L21.1816 13.7988L20.9912 13.4033L20.8154 13.125L20.6543 12.9199L20.5957 12.8613V12.832H20.5664L20.4639 12.7148L17.8857 10.1367L17.8564 10.1221L17.8857 10.0635L18.1201 9.96094L18.3545 9.84375L18.6914 9.65332L18.9111 9.50684L19.1748 9.31641L19.3359 9.18457L19.541 9.00879L19.6582 8.8916H19.6875L19.7168 8.83301H19.7461L19.7754 8.77441L19.9658 8.58398L20.0977 8.42285L20.2588 8.21777L20.4053 8.0127L20.5664 7.76367L20.7422 7.45605L20.9033 7.13379L21.0645 6.73828L21.2109 6.26953L21.2988 5.90332L21.3721 5.44922L21.4014 5.1123V4.43848L21.3721 4.13086L21.3135 3.89648L21.2402 3.7207L21.0938 3.50098L20.9619 3.36914L20.7715 3.2373L20.5518 3.13477L20.332 3.07617L20.2295 3.06152H19.9365L19.7168 3.10547L19.5264 3.17871L19.3359 3.2959L19.1748 3.42773L17.6807 4.92188L17.5342 5.02441L17.3584 5.08301H17.2266L15.8936 4.89258L15.7324 4.83398L15.6445 4.77539L15.5273 4.64355L15.4688 4.49707L15.3662 3.82324L15.2783 3.17871V2.95898L15.3369 2.8125L15.3955 2.72461L15.5273 2.57812L16.5088 1.59668H22.0898L22.3242 1.62598L22.5879 1.71387L22.8369 1.8457L23.042 2.00684L23.2178 2.18262L23.3203 2.3291L23.4375 2.53418L23.5107 2.72461L23.5547 2.90039L23.584 3.20801V18.1787L23.5547 18.5156L23.4961 18.7354L23.3936 18.9697L23.3057 19.1162L23.1885 19.2773L23.042 19.4238L22.8662 19.5557L22.6611 19.6729L22.4268 19.7607L22.1338 19.8193L21.8262 19.834H10.0049L9.7998 19.8486L9.66797 19.9072L9.41895 20.0537L8.30566 20.7422L8.04199 20.9033L7.73438 21.0938L7.32422 21.3428L6.97266 21.5625L6.5625 21.8115L6.21094 22.0312L5.53711 22.4414L5.22949 22.6318L4.84863 22.8662L4.64355 22.9834L4.51172 23.0273L4.33594 23.042L4.13086 22.998L3.96973 22.8955L3.86719 22.793L3.76465 22.5879L3.75 22.5439L3.73535 22.3828L3.7207 20.2588L3.66211 20.0977L3.60352 20.0098L3.48633 19.9072L3.3252 19.8486L2.09473 19.834L1.40625 19.8193L1.12793 19.7607L0.908203 19.6729L0.74707 19.585L0.556641 19.4385L0.424805 19.3213L0.263672 19.1162L0.131836 18.8818L0.0439453 18.6475L0 18.501V2.90039L0.117188 2.56348L0.234375 2.34375L0.380859 2.15332L0.571289 1.96289L0.776367 1.81641L0.981445 1.71387L1.20117 1.64062L1.46484 1.59668Z" fill="#6084FE"/>
<path d="M27.5098 8.55469H28.2861L28.5938 8.56934L28.8281 8.61328L29.0625 8.70117L29.2529 8.80371L29.4141 8.9209L29.5898 9.08203L29.7363 9.27246L29.8535 9.47754L29.9414 9.69727L29.9854 9.84375L30 9.8584V25.5469L29.9707 25.5322L29.8975 25.7666L29.7803 26.001L29.6777 26.1621L29.502 26.3525L29.3848 26.4551L29.1797 26.5869L29.0332 26.6602L28.7695 26.748L28.4473 26.792L26.6895 26.8066L26.543 26.8506L26.4111 26.9531L26.3232 27.085L26.2793 27.2168L26.2646 27.4072L26.25 29.4873L26.1914 29.6631L26.0742 29.8242L25.9131 29.9414L25.7812 30H25.459L25.1807 29.8535L24.8291 29.6338L24.4922 29.4287L24.1406 29.209L23.7305 28.96L21.5186 27.5977L21.1816 27.3926L20.4932 26.9678L20.2588 26.8359L20.1562 26.8066L7.96875 26.792L7.70508 26.7627L7.41211 26.6748L7.16309 26.543L6.97266 26.3965L6.79688 26.2207L6.65039 26.0156L6.5332 25.7812L6.45996 25.5615L6.43066 25.415L6.41602 25.2686V23.1299L6.75293 22.9248L7.10449 22.7051L7.51465 22.4561L7.86621 22.2363L8.20312 22.0312L8.51074 21.8408L10.0342 20.9033L10.0635 20.8887L21.958 20.874L22.3389 20.8447L22.6904 20.7715L22.9834 20.6689L23.2617 20.5371L23.4668 20.4053L23.6426 20.2734L23.7891 20.1416H23.8184V20.1123L23.8916 20.0537L23.9941 19.9365L24.1406 19.7461L24.2871 19.5117L24.4336 19.2041L24.5215 18.9404L24.5801 18.7061L24.6094 18.4717L24.624 18.0469V8.59863L24.6387 8.56934L27.5098 8.55469Z" fill="#6084FE"/>
<path d="M15.0293 0H16.0693L16.1865 0.0878906L16.2451 0.205078V0.322266L16.2012 0.410156L16.0693 0.556641L15.6006 1.02539L15.5273 1.11328L15.4248 1.20117L15.3369 1.30371H15.3076L15.293 1.34766L14.6045 2.03613L14.458 2.24121L14.3408 2.47559L14.2529 2.7832L14.2383 2.90039V3.2373L14.3701 4.2041L14.4434 4.67285L14.502 4.89258L14.6045 5.12695L14.7363 5.33203L14.8975 5.50781L15.0293 5.625L15.1904 5.72754L15.3955 5.83008L15.5713 5.88867L16.0107 5.96191L16.9482 6.09375L17.2412 6.12305H17.373L17.666 6.0791L17.8857 6.00586L18.1201 5.88867L18.3252 5.74219L18.4277 5.63965H18.457V5.61035H18.4863V5.58105H18.5156V5.55176L18.6182 5.46387L18.6914 5.37598H18.7207V5.34668H18.75V5.31738L18.8525 5.22949L18.9258 5.1416L19.043 5.03906L19.9365 4.14551L20.0391 4.10156L20.1855 4.11621L20.2734 4.1748L20.332 4.24805L20.3613 4.45312V5.05371L20.3174 5.46387L20.2441 5.84473L20.127 6.25488L20.0098 6.5625L19.8486 6.91406L19.6582 7.25098L19.5117 7.4707L19.3359 7.70508L19.1602 7.91016L18.9404 8.14453L18.8232 8.24707L18.6621 8.39355L18.4131 8.58398L18.1787 8.74512L17.959 8.87695L17.6221 9.05273L17.2266 9.21387L16.8457 9.33105L16.4502 9.41895L16.0107 9.47754L15.7617 9.49219H15.4541L15.0586 9.46289L14.6338 9.38965L14.2822 9.30176L13.7988 9.14062H13.5791L13.4326 9.19922L13.2861 9.31641L5.83008 16.7725L5.66895 16.8896L5.49316 16.9922L5.21484 17.0947L4.92188 17.1533H4.6582L4.40918 17.1094L4.14551 17.0215L3.91113 16.8896L3.76465 16.7725L3.64746 16.6699V16.6406H3.61816L3.45703 16.4355L3.33984 16.2305L3.25195 15.9814L3.20801 15.7617V15.3809L3.25195 15.1611L3.2959 15.0146L3.41309 14.7656L3.54492 14.5752L3.58887 14.5166H3.61816L3.64746 14.458L11.1035 7.00195L11.1768 6.88477L11.2061 6.79688L11.2207 6.65039L11.1768 6.44531L11.0303 6.00586L10.9424 5.625L10.8838 5.24414L10.8545 4.79004L10.8691 4.37988L10.9131 4.01367L10.9863 3.63281L11.1035 3.22266L11.25 2.8418L11.4111 2.50488L11.5723 2.22656L11.7334 1.99219L11.8652 1.81641L12.0557 1.58203L12.2754 1.34766L12.5098 1.12793L12.6562 1.01074L12.9346 0.805664L13.2422 0.615234L13.5791 0.439453L13.8721 0.307617L14.3115 0.161133L14.6777 0.0732422L15.0146 0.0146484L15.0293 0ZM11.0889 8.68652L10.9131 8.73047L10.752 8.84766L5.12695 14.4727L5.03906 14.6191L5.00977 14.7217V14.9414L5.06836 15.0879L5.1709 15.2197L5.30273 15.3076L5.37598 15.3369L5.46387 15.3516H5.5957L5.74219 15.3076L5.88867 15.2197L11.5576 9.55078L11.6455 9.375L11.6602 9.31641V9.11133L11.6016 8.96484L11.543 8.87695L11.4111 8.75977L11.2793 8.70117L11.0889 8.68652Z" fill="#6084FE"/>
<path d="M14.3848 10.415L14.5459 10.4297L14.9414 10.4883L15.3223 10.5176H15.9375L16.3916 10.4736L16.582 10.4443H16.6992L16.8457 10.5908L16.9629 10.6934L17.0654 10.7959V10.8252L17.124 10.8545L19.7754 13.5059L19.9072 13.667L20.0391 13.8428L20.1562 14.0479L20.2734 14.3408L20.3467 14.6484L20.376 14.8828V15.1318L20.332 15.4395L20.2441 15.7471L20.1416 15.9814L20.0098 16.2012L19.8779 16.377L19.7168 16.5527L19.5703 16.6846L19.4238 16.7871L19.1748 16.9336L18.8818 17.0508L18.6621 17.1094L18.4131 17.1533H18.0176L17.7539 17.1094L17.4609 17.0215L17.1973 16.9043L16.9629 16.7578L16.7725 16.5967L16.6553 16.4795L16.5527 16.3916L16.4795 16.3037L16.377 16.2158L16.3037 16.1279L16.2012 16.04L16.1279 15.9521L16.0254 15.8643L15.9521 15.7764L15.8496 15.6885L15.7764 15.6006L15.7178 15.5566V15.5273L15.6592 15.498V15.4688L15.6006 15.4395V15.4102L15.542 15.3809L15.3076 15.1465V15.1172L15.249 15.0879V15.0586L15.1904 15.0293L14.6631 14.502V14.4727L14.6045 14.4434V14.4141L14.5459 14.3848V14.3555L14.4873 14.3262V14.2969L14.4287 14.2676V14.2383L14.3701 14.209V14.1797L14.3262 14.165L14.2529 14.0771L14.1943 14.0332V14.0039L14.1357 13.9746V13.9453L14.0771 13.916V13.8867L14.0186 13.8574V13.8281L13.96 13.7988L12.1289 11.9678L12.2168 11.8652L12.2607 11.8506V11.8213L12.3486 11.748L12.4512 11.6309L13.2568 10.8252L13.3154 10.8398L17.8418 15.3662L17.9736 15.4541L18.0762 15.498L18.252 15.5127L18.3838 15.4834L18.5303 15.4102L18.6328 15.3076L18.6914 15.1904L18.7207 15.0879V14.8975L18.6621 14.7363L18.5449 14.5898L14.4727 10.5176L14.3848 10.4443V10.415Z" fill="#6084FE"/>
<path d="M3.58887 0H3.7207L3.83789 0.0585938L5.24414 0.65918L5.6543 0.834961L5.90332 0.952148L6.0498 1.06934L6.16699 1.21582L6.84082 2.56348L6.9873 2.82715L7.16309 3.01758L8.26172 4.11621L8.36426 4.2334L9.31641 5.18555V5.21484H9.3457V5.24414H9.375L9.47754 5.36133L9.90234 5.78613L9.97559 6.06445L10.0635 6.40137L10.0781 6.44531V6.54785L9.44824 7.17773L9.38965 7.14844L8.49609 6.25488L8.39355 6.1377L7.20703 4.95117V4.92188L7.14844 4.89258V4.86328H7.11914L7.0166 4.74609L6.40137 4.13086V4.10156L6.35742 4.08691L6.25488 3.96973L6.12305 3.83789L5.93262 3.70605L5.44922 3.45703L5.1416 3.31055L4.86328 3.16406L4.55566 3.01758L4.37988 2.91504L4.2334 2.7832L4.13086 2.62207L3.95508 2.22656L3.75 1.74316L3.57422 1.33301L3.3252 0.74707L3.20801 0.46875V0.395508L3.57422 0.0292969L3.58887 0Z" fill="#6084FE"/>
<path d="M7.54395 1.59668H10.7373L10.6494 1.75781L10.5029 2.02148L10.3418 2.34375L10.1514 2.82715L10.0342 3.20801L9.96094 3.51562L9.90234 3.80859L9.8584 4.16016L9.84375 4.21875L9.78516 4.18945L9.62402 4.01367L9.33105 3.7207V3.69141L9.28711 3.67676L9.18457 3.55957L8.05664 2.43164V2.40234H8.02734L7.9248 2.28516L7.82227 2.18262L7.60254 1.75781L7.54395 1.64062V1.59668Z" fill="#6084FE"/>
</g>
<defs>
<clipPath id="clip0_193_523">
<rect width="30" height="30" fill="white"/>
</clipPath>
</defs>
</svg>
