<svg width="38" height="35" viewBox="0 0 38 35" fill="none" xmlns="http://www.w3.org/2000/svg">
<g filter="url(#filter0_d_186_102)">
<path d="M5.56738 3.07617H31.6123L31.8027 3.10547L31.9199 3.16406L32.0371 3.28125L32.0957 3.39844L32.1104 3.47168V21.7676H32.7402L32.8867 21.8115L32.9746 21.8701L33.0771 22.0166L33.1064 22.1191L33.1211 22.2949V22.5293L33.1064 22.9688L33.0625 23.3643L33.0039 23.6719L32.9014 24.0381L32.7842 24.3457L32.6816 24.5801L32.5938 24.7412L32.418 25.0342L32.2715 25.2393L32.125 25.4297L31.9346 25.6348L31.8613 25.7227L31.7441 25.8252L31.5684 25.9863L31.2754 26.2061L31.0117 26.3672L30.748 26.5137L30.4258 26.6602L30.0303 26.792L29.6641 26.8799L29.2686 26.9385L29.0781 26.9531H8.02832L7.69141 26.9238L7.2959 26.8506L6.92969 26.748L6.62207 26.6309L6.22656 26.4404L5.93359 26.2646L5.66992 26.0742L5.47949 25.9131L5.3623 25.8105L5.09863 25.5469L4.9668 25.3857L4.79102 25.166L4.60059 24.873L4.41016 24.5215L4.29297 24.2432L4.19043 23.9502L4.10254 23.6133L4.04395 23.291L4.01465 23.0566L4 22.8369V22.207L4.0293 22.0752L4.11719 21.9434L4.19043 21.8701L4.32227 21.7822L4.36621 21.7676H5.04004V4.87793L5.05469 3.44238L5.11328 3.28125L5.20117 3.17871L5.33301 3.10547L5.3623 3.09082L5.56738 3.07617ZM5.99219 3.99902L5.97754 4.01367V21.7676H31.1729L31.1875 21.6797V4.01367L31.1729 3.99902H5.99219ZM15.7188 23.8623L15.543 23.8916L15.4111 23.9795L15.3086 24.0967L15.25 24.2432V24.375L15.3086 24.5361L15.4258 24.668L15.5576 24.7412L15.6162 24.7559L15.8213 24.7705H21.3291L21.5195 24.7559L21.666 24.6826L21.7686 24.5947L21.8418 24.4775L21.8711 24.3604V24.2578L21.8125 24.082L21.6953 23.9502L21.5781 23.8916L21.5342 23.877L21.2852 23.8623H15.7188Z" fill="#6084FE"/>
<path d="M22.2812 9.03809H25.4014L25.5625 9.08203L25.6797 9.16992L25.7676 9.31641L25.7969 9.43359V17.1826L25.7676 17.3291L25.665 17.4902L25.5479 17.5781L25.4453 17.6221L25.3721 17.6367H22.2812L22.2666 17.6074V10.2246L22.2812 9.03809Z" fill="#6084FE"/>
<path d="M10.4014 9.03809H13.5361L13.5654 9.05273V17.6221L13.5508 17.6367H10.4307L10.2695 17.5781L10.167 17.4902L10.0791 17.3438L10.0498 17.2266V9.41895L10.0938 9.27246L10.1816 9.15527L10.2549 9.09668L10.4014 9.03809Z" fill="#6084FE"/>
<path d="M18.3848 9.03809H21.3584L21.3877 9.06738V17.6221L21.373 17.6367H18.3701V9.05273L18.3848 9.03809Z" fill="#6084FE"/>
<path d="M14.4736 9.03809H17.4326L17.4766 9.06738V17.6221L17.4619 17.6367H14.459V9.05273L14.4736 9.03809Z" fill="#6084FE"/>
<path d="M26.7344 10.7666H27.9502L28.1113 10.8252L28.2285 10.9277L28.3164 11.0596L28.3457 11.2939V15.293L28.3311 15.542L28.2725 15.6738L28.1699 15.791L28.082 15.8643L27.9355 15.9082L26.793 15.9229L26.7344 15.9082L26.7197 15.6445V12.3926L26.7344 10.7666Z" fill="#6084FE"/>
</g>
<defs>
<filter id="filter0_d_186_102" x="-0.439453" y="0" width="38" height="38" filterUnits="userSpaceOnUse" color-interpolation-filters="sRGB">
<feFlood flood-opacity="0" result="BackgroundImageFix"/>
<feColorMatrix in="SourceAlpha" type="matrix" values="0 0 0 0 0 0 0 0 0 0 0 0 0 0 0 0 0 0 127 0" result="hardAlpha"/>
<feOffset dy="4"/>
<feGaussianBlur stdDeviation="2"/>
<feComposite in2="hardAlpha" operator="out"/>
<feColorMatrix type="matrix" values="0 0 0 0 0 0 0 0 0 0 0 0 0 0 0 0 0 0 0.25 0"/>
<feBlend mode="normal" in2="BackgroundImageFix" result="effect1_dropShadow_186_102"/>
<feBlend mode="normal" in="SourceGraphic" in2="effect1_dropShadow_186_102" result="shape"/>
</filter>
</defs>
</svg>
