<svg width="30" height="30" viewBox="0 0 30 30" fill="none" xmlns="http://www.w3.org/2000/svg">
<path d="M2.95898 10.7959H27.0117L27.1729 10.8545L27.2754 10.9424L27.3633 11.0742L27.3926 11.1621L27.4072 11.3965L27.3926 29.6338L27.3047 29.8096L27.2461 29.8828L27.0996 29.9707L27.0557 30H2.94434L2.79785 29.9121L2.72461 29.8535L2.62207 29.6924L2.59277 29.5752V11.2207L2.63672 11.0596L2.73926 10.9277L2.85645 10.8398L2.95898 10.7959ZM7.63184 14.5312L7.48535 14.5898L7.38281 14.6777L7.29492 14.8242L7.26562 14.9707V25.8252L7.30957 26.001L7.39746 26.1328L7.5293 26.2207L7.67578 26.2646H7.82227L7.99805 26.1914L8.10059 26.1035L8.17383 25.9863L8.20312 25.8691V14.9268L8.15918 14.7803L8.07129 14.6631L7.9541 14.5752L7.82227 14.5312H7.63184ZM22.1484 14.5312L21.9727 14.6191L21.8555 14.751L21.7969 14.8975V25.8838L21.8555 26.0449L21.9727 26.1768L22.0898 26.2354L22.1924 26.2646H22.3535L22.5 26.2061L22.6465 26.0742L22.7051 25.957L22.7344 25.7812V15.0586L22.7197 14.8828L22.6611 14.751L22.5879 14.6484L22.4414 14.5605L22.3535 14.5312H22.1484ZM14.8975 15.835L14.751 15.8936L14.5898 16.04L14.4141 16.2744L14.2236 16.5234L14.0332 16.7871L13.8867 16.9922L13.623 17.3877L13.4326 17.6807L13.2275 18.0176L13.0371 18.3545L12.8906 18.6182L12.7588 18.8965L12.6416 19.1309L12.4805 19.4971L12.3193 19.9219L12.1582 20.4199L12.0703 20.7568L11.9971 21.1523L11.9531 21.4746L11.9385 21.6943V22.1631L11.9678 22.4707L12.041 22.8662L12.1289 23.1738L12.2754 23.5254L12.4219 23.8037L12.5684 24.0088L12.7148 24.1992L12.9199 24.4189L13.0811 24.5508L13.2275 24.668L13.4912 24.8291L13.7109 24.9463L13.9307 25.0342L14.2236 25.1221L14.6045 25.1953L14.7363 25.21H15.2637L15.6592 25.1514L15.9814 25.0635L16.2744 24.9463L16.5088 24.8291L16.7432 24.6826L16.9189 24.5508L17.0654 24.4189L17.2852 24.1992L17.4756 23.9502L17.6221 23.7158L17.7393 23.4961L17.8564 23.2031L17.9443 22.9102L18.0029 22.6172L18.0322 22.3828L18.0469 22.1191L18.0322 21.665L17.9883 21.2988L17.915 20.9033L17.7979 20.4492L17.6221 19.9219L17.4609 19.5117L17.2852 19.1162L17.0654 18.6621L16.9189 18.3838L16.7139 18.0176L16.4941 17.6514L16.2744 17.2998L15.8643 16.6846L15.6885 16.4355L15.542 16.2305L15.3809 16.0107L15.249 15.8936L15.0879 15.835H14.8975Z" fill="#6084FE"/>
<path d="M8.51074 0H11.1768L11.1914 3.01758L11.2207 3.14941L11.2939 3.2666L11.3672 3.33984L11.5137 3.41309L11.5723 3.42773H11.7188L11.8799 3.36914L11.9971 3.28125L12.0703 3.14941L12.0996 3.04688L12.1143 0H14.5312L14.5459 3.03223L14.5898 3.17871L14.6777 3.31055L14.8242 3.39844L14.9268 3.42773H15.0732L15.2344 3.36914L15.3516 3.2666L15.4248 3.14941L15.4541 3.00293L15.4688 0H17.8857L17.9004 3.04688L17.9443 3.19336L18.0469 3.3252L18.1348 3.38379L18.2812 3.42773H18.4277L18.5889 3.36914L18.7207 3.25195L18.7793 3.14941L18.8086 2.94434V0.0292969L18.8232 0H21.4893L21.6357 0.102539L21.7383 0.205078L21.7969 0.322266L21.8115 0.380859V6.48926L21.6797 6.50391H8.20312L8.18848 6.48926L8.17383 6.29883V0.512695L8.20312 0.307617L8.29102 0.161133L8.4082 0.0585938L8.51074 0Z" fill="#6084FE"/>
<path d="M6.32812 7.44141H23.6279L23.7451 7.4707L23.877 7.54395L23.9648 7.64648L24.0234 7.74902L24.0527 7.91016V9.8291L24.0381 9.84375L23.6426 9.8584H5.97656L5.94727 9.84375V7.85156L6.00586 7.67578L6.1377 7.5293L6.26953 7.45605L6.32812 7.44141Z" fill="#6084FE"/>
<path d="M14.9854 17.124L15.0439 17.1533L15.1758 17.3438L15.3516 17.5928L15.5566 17.8857L15.7178 18.1348L15.8789 18.3984L16.0547 18.6914L16.2012 18.9551L16.4502 19.4385L16.582 19.7314L16.7432 20.127L16.9043 20.6104L16.9922 20.9619L17.0654 21.3721L17.0947 21.6211V22.1924L17.0361 22.5732L16.9629 22.8369L16.8604 23.0859L16.7432 23.3057L16.5967 23.5107L16.4209 23.7012L16.2598 23.833L16.04 23.9795L15.791 24.0967L15.5713 24.1699L15.293 24.2285L15.1904 24.2432H14.8096L14.5312 24.1992L14.2383 24.1113L13.9307 23.9648L13.7256 23.8184L13.5205 23.6426L13.418 23.5254L13.2568 23.3057L13.125 23.0713L13.0371 22.8516L12.9492 22.5146L12.9053 22.2363L12.8906 22.0312V21.7676L12.9346 21.3281L13.0078 20.9473L13.0957 20.6104L13.2568 20.127L13.4473 19.6582L13.6523 19.2334L13.8574 18.8379L14.0625 18.4863L14.2969 18.1055L14.5459 17.7393L14.7803 17.4023L14.9561 17.1533L14.9854 17.124Z" fill="#6084FE"/>
</svg>
