<svg width="37" height="38" viewBox="0 0 37 38" fill="none" xmlns="http://www.w3.org/2000/svg">
<g filter="url(#filter0_d_187_110)">
<g clip-path="url(#clip0_187_110)">
<path d="M11.7783 0.834961H12.1738L12.4961 0.878906L12.7891 0.952148L13.082 1.06934L13.3604 1.21582L13.6094 1.3916L13.7852 1.55273L13.9023 1.65527L31.583 19.3359L31.6855 19.4531L31.8613 19.6729L31.9932 19.8926L32.1104 20.127L32.2129 20.3906L32.2861 20.6836L32.3301 21.0498V21.3135L32.2861 21.665L32.1982 22.002L32.1104 22.2363L31.9639 22.5146L31.8467 22.6904L31.7002 22.8809L31.5244 23.0713L31.0264 23.5693L30.9678 23.54L30.8066 23.4082L30.6602 23.3203L30.4697 23.2471L30.25 23.2031H30.001L29.7812 23.2471L29.5908 23.3203L29.4297 23.4229L29.3271 23.5107H29.2979L29.2832 23.5547H29.2539L29.2246 23.6133L29.1367 23.7305L29.0195 23.9648L28.9609 24.1699L28.9463 24.3018V24.4922L28.9902 24.7119L29.0635 24.9023L29.166 25.0781L29.2979 25.2393V25.2979L28.4482 26.1475L28.3896 26.1182L28.1846 25.957L27.9795 25.8545L27.7598 25.7959L27.6719 25.7812H27.4229L27.2031 25.8252L27.0127 25.8984L26.8516 26.001L26.7344 26.0889L26.7051 26.1328H26.6758L26.6465 26.1914L26.5586 26.3086L26.4414 26.543L26.3828 26.748L26.3682 26.8652V27.0557L26.4121 27.29L26.4854 27.4805L26.5879 27.6562L26.6904 27.7734V27.8027H26.7197L26.7344 27.8613L26.1484 28.4473L26.0312 28.5498L25.8408 28.6963L25.5918 28.8428L25.3867 28.9453L25.1377 29.0332L24.874 29.1064L24.5957 29.1504L24.2734 29.165L23.9512 29.1357L23.6143 29.0625L23.3213 28.96L23.0869 28.8428L22.9111 28.7402L22.6768 28.5645L22.5303 28.4326L22.0762 27.9785L22.0322 27.9492L22.0469 27.876L22.1641 27.7734L23.6582 26.2793L23.79 26.0889L23.8633 25.9277L23.9072 25.7227V25.4883L23.8633 25.2832L23.7461 25.0488L23.6436 24.917L8.2041 9.47754L8.04297 9.375L7.88184 9.30176L7.67676 9.25781H7.39844L7.17871 9.31641L7.01758 9.4043L6.87109 9.52148L5.25977 11.1328H5.21582V11.1035H5.18652L5.08398 10.9863L4.62988 10.5322L4.41016 10.2393L4.26367 9.97559L4.14648 9.69727L4.05859 9.38965L4 9.02344V8.62793L4.04395 8.32031L4.11719 8.02734L4.20508 7.79297L4.32227 7.55859L4.4248 7.38281L4.54199 7.22168L4.67383 7.06055L4.80566 6.92871L4.87891 6.84082L4.95215 6.76758H4.98145L5.01074 6.70898H5.04004L5.06934 6.65039H5.09863L5.12793 6.5918H5.15723L5.17188 6.54785L5.28906 6.43066L5.3623 6.44531L5.50879 6.57715L5.68457 6.67969L5.88965 6.75293L6.03613 6.78223H6.37305L6.60742 6.72363L6.8418 6.60645L7.00293 6.48926L7.12012 6.37207L7.25195 6.16699L7.3252 5.99121L7.36914 5.81543L7.38379 5.56641L7.35449 5.36133L7.28125 5.12695L7.19336 4.96582L7.04688 4.77539L7.01758 4.74609L7.03223 4.6875L7.09082 4.6582V4.62891L7.20801 4.52637L7.50098 4.2334L7.57422 4.14551L7.66211 4.07227L7.75 3.96973L7.86719 3.85254L7.92578 3.86719L8.08691 3.99902L8.29199 4.11621L8.51172 4.18945L8.61426 4.2041H8.95117L9.18555 4.14551L9.41992 4.02832L9.58105 3.91113L9.69824 3.79395L9.81543 3.61816L9.90332 3.39844L9.94727 3.22266L9.96191 2.98828L9.93262 2.76855L9.85938 2.54883L9.75684 2.3584L9.625 2.19727L9.5957 2.16797L9.61035 2.10938L9.66895 2.08008V2.05078L9.78613 1.94824L10.2695 1.46484L10.46 1.31836L10.665 1.18652L10.9434 1.04004L11.1777 0.952148L11.5439 0.864258L11.7783 0.834961ZM12.2764 4.2041L12.0859 4.2627L11.9395 4.35059L11.7783 4.48242V4.51172L11.7197 4.54102V4.57031L11.6611 4.59961V4.62891L11.6025 4.6582V4.6875L11.5439 4.7168V4.74609L11.4854 4.77539V4.80469L11.4268 4.83398V4.86328L11.3682 4.89258V4.92188L11.3096 4.95117V4.98047L11.251 5.00977V5.03906L11.1924 5.06836V5.09766L11.1338 5.12695V5.15625L11.0752 5.18555V5.21484L11.0166 5.24414V5.27344L10.958 5.30273V5.33203L10.8994 5.36133V5.39062L10.8408 5.41992V5.44922L10.7822 5.47852V5.50781L10.7236 5.53711V5.56641L10.665 5.5957V5.625L10.6064 5.6543V5.68359L10.5479 5.71289V5.74219L10.4893 5.77148V5.80078L10.4307 5.83008V5.85938L10.3721 5.88867V5.91797L10.3135 5.94727V5.97656L10.2549 6.00586V6.03516L10.1963 6.06445V6.09375L10.1377 6.12305V6.15234L10.0791 6.18164V6.21094L10.0205 6.24023V6.26953L9.96191 6.29883V6.32812L9.90332 6.35742V6.38672L9.84473 6.41602V6.44531L9.78613 6.47461V6.50391L9.72754 6.5332V6.5625L9.66895 6.5918V6.62109L9.61035 6.65039L9.50781 6.76758L9.40527 6.89941L9.31738 7.08984L9.28809 7.22168V7.48535L9.33203 7.66113L9.43457 7.85156L9.58105 8.02734H9.61035L9.63965 8.08594H9.66895L9.69824 8.14453H9.72754V8.17383L9.83008 8.26172L9.90332 8.34961L10.0205 8.45215L10.0791 8.52539H10.1084V8.55469H10.1377V8.58398L10.2549 8.68652L10.3135 8.75977L10.4307 8.8623L10.5332 8.96484L10.5479 8.99414H10.5771V9.02344H10.6064L10.6357 9.08203H10.665L10.6943 9.14062H10.7236L10.7529 9.19922H10.7822L10.8115 9.25781L11.0166 9.41895L11.1338 9.47754L11.3828 9.53613H11.5439L11.793 9.47754L11.9541 9.38965L12.1445 9.22852L14.3857 6.9873V6.95801H14.415L14.5029 6.82617L14.5762 6.67969L14.6055 6.57715L14.6201 6.45996V6.28418L14.5615 6.0498L14.459 5.85938L14.2832 5.66895L13.0234 4.40918L12.8184 4.27734L12.6572 4.21875L12.584 4.2041H12.2764ZM15.8652 7.79297L15.7041 7.83691L15.499 7.93945L15.3086 8.11523L13.1992 10.2246V10.2539L13.1406 10.2832L13.0088 10.4443L12.9062 10.6494L12.8623 10.8838L12.877 11.1035L12.9209 11.25L13.0088 11.4258L13.1553 11.6016H13.1846L13.2139 11.6602H13.2432V11.6895L13.3604 11.792L14.1953 12.627L14.21 12.6562H14.2393L14.2686 12.7148H14.2979L14.3271 12.7734H14.3564L14.3857 12.832H14.415L14.4297 12.876L14.5908 12.9932L14.708 13.0518L14.8398 13.0957L14.9131 13.1104H15.1768L15.3525 13.0664L15.5283 12.9785L15.7188 12.8174L17.9893 10.5469L18.0918 10.4004L18.165 10.2393L18.1943 10.1074V9.81445L18.1357 9.60938L18.0332 9.43359L17.8721 9.25781L16.5977 7.9834L16.4365 7.88086L16.2461 7.80762L16.1729 7.79297H15.8652ZM19.4395 11.3672L19.249 11.4258L19.0586 11.543L18.8682 11.7188L16.7002 13.8867L16.583 14.0332L16.4951 14.209L16.4512 14.3994V14.6484L16.5244 14.8975L16.627 15.0586L16.7295 15.1758H16.7588L16.7881 15.2344H16.8174V15.2637L16.9346 15.3662L17.7988 16.2305L17.8428 16.2891H17.8721L17.9014 16.3477H17.9307L17.96 16.4062H17.9893L18.0039 16.4502L18.1797 16.582L18.3408 16.6553L18.458 16.6846L18.6924 16.6992L18.9121 16.6553L19.1172 16.5527L19.3076 16.3916L21.5635 14.1357L21.6953 13.9453L21.7539 13.7842L21.7832 13.6377V13.4473L21.7539 13.3008L21.6807 13.1104L21.5488 12.9346L20.2012 11.5869L20.0107 11.4551L19.8203 11.3818L19.7471 11.3672H19.4395ZM23.0723 14.9414L22.8818 14.9854L22.7061 15.0732L22.5449 15.2051L20.2744 17.4756L20.1572 17.6221L20.0547 17.8564L20.0254 18.0322V18.1641L20.0693 18.3691L20.1426 18.5449L20.2451 18.6768L20.3037 18.75H20.333L20.3623 18.8086H20.3916V18.8379L20.5088 18.9404L20.7871 19.2188L20.8604 19.3066L20.9775 19.4092L21.3291 19.7607L21.417 19.8633H21.4463L21.4756 19.9219L21.5342 19.9805H21.5635L21.5928 20.0391L21.7539 20.1562L21.8711 20.2148L22.0029 20.2588L22.1055 20.2734H22.3252L22.5156 20.2295L22.7354 20.1123L22.9258 19.9365L25.1523 17.71L25.2842 17.5049L25.3574 17.2705V16.9775L25.2842 16.7432L25.1816 16.582L25.0498 16.4355L23.7607 15.1465L23.585 15.0293L23.4238 14.9707L23.2773 14.9414H23.0723ZM26.6025 18.5303L26.4121 18.5889L26.2363 18.6914L26.0166 18.8965L25.8994 19.0137V19.043L25.8408 19.0723V19.1016L25.7822 19.1309V19.1602L25.7236 19.1895V19.2188L25.665 19.248V19.2773L25.6064 19.3066V19.3359L25.5479 19.3652V19.3945L25.4893 19.4238V19.4531L25.4307 19.4824V19.5117L25.3721 19.541V19.5703L25.3135 19.5996V19.6289L25.2549 19.6582V19.6875L25.1963 19.7168V19.7461L25.1377 19.7754V19.8047L25.0791 19.834V19.8633L25.0205 19.8926V19.9219L24.9619 19.9512V19.9805L24.9033 20.0098V20.0391L24.8447 20.0684V20.0977L24.7861 20.127V20.1562L24.7275 20.1855V20.2148L24.6689 20.2441V20.2734L24.6104 20.3027V20.332L24.5518 20.3613V20.3906L24.4932 20.4199V20.4492L24.4346 20.4785V20.5078L24.376 20.5371V20.5664L24.3174 20.5957V20.625L24.2588 20.6543V20.6836L24.2002 20.7129V20.7422L24.1416 20.7715V20.8008L24.083 20.8301V20.8594L24.0244 20.8887V20.918L23.9658 20.9473V20.9766L23.9072 21.0059V21.0352L23.8486 21.0645L23.7168 21.2402L23.6289 21.4746L23.6143 21.5479V21.8115L23.6875 22.0605L23.79 22.2217L23.8779 22.3242H23.9072L23.9365 22.3828H23.9658L23.9951 22.4414L24.1123 22.5439L24.7129 23.1445L24.7861 23.2324L24.8887 23.3203L24.9326 23.3789H24.9619L24.9912 23.4375L25.1084 23.5547H25.1377L25.1523 23.5986L25.2988 23.7158L25.4746 23.8037L25.6357 23.8477L25.8408 23.8623L26.0752 23.8184L26.2803 23.7158L26.4561 23.5547L26.5146 23.5107V23.4814H26.5439V23.4521H26.5732V23.4229L26.6318 23.3936V23.3643L26.6904 23.335V23.3057L26.749 23.2764V23.2471L26.8076 23.2178V23.1885L26.8662 23.1592V23.1299L26.9248 23.1006V23.0713L26.9834 23.042V23.0127L27.042 22.9834V22.9541L27.1006 22.9248V22.8955L27.1592 22.8662V22.8369L27.2178 22.8076V22.7783L27.2764 22.749V22.7197L27.335 22.6904V22.6611L27.3936 22.6318V22.6025L27.4521 22.5732V22.5439L27.5107 22.5146V22.4854L27.5693 22.4561V22.4268L27.6279 22.3975V22.3682L27.6865 22.3389V22.3096L27.7305 22.2949L27.8037 22.207L27.8623 22.1631V22.1338L27.9209 22.1045V22.0752L27.9795 22.0459V22.0166L28.0234 22.002L28.0967 21.9141L28.1553 21.8701V21.8408L28.2139 21.8115V21.7822L28.2725 21.7529V21.7236L28.3311 21.6943V21.665L28.3896 21.6357V21.6064L28.4482 21.5771V21.5479L28.5068 21.5186L28.6826 21.3428V21.3135H28.7119L28.8291 21.1523L28.9023 20.9912L28.9463 20.7861V20.6104L28.8877 20.376L28.7998 20.2148L28.6973 20.083L28.5947 19.9805H28.5654L28.5361 19.9219L27.3643 18.75L27.1738 18.6182L27.042 18.5596L26.9102 18.5303H26.6025Z" fill="#6084FE"/>
<path d="M26.7051 18.9404H26.8076L26.9541 18.9844L27.0859 19.0723L28.4043 20.3906L28.4775 20.4932L28.5215 20.6104V20.8008L28.4629 20.9326L28.375 21.0498L26.1045 23.3203L26.002 23.3936L25.8555 23.4375H25.709L25.5625 23.3789L25.416 23.2471L24.1123 21.9434L24.0391 21.7969L24.0244 21.7236V21.6211L24.083 21.46L24.1855 21.3281L26.4561 19.0576L26.6025 18.9697L26.7051 18.9404Z" fill="#6084FE"/>
<path d="M23.0869 15.3662H23.2773L23.4092 15.4248L23.5264 15.5127L24.8154 16.8018L24.9033 16.9336L24.9473 17.0801L24.9326 17.2412L24.8594 17.3877L24.7275 17.5342L22.5156 19.7461L22.3691 19.834L22.1787 19.8633L22.0469 19.834L21.915 19.7461L20.5381 18.3691L20.4648 18.2373L20.4502 18.1787V18.0029L20.5234 17.8418L20.6553 17.6953L22.8818 15.4688L22.999 15.3955L23.0869 15.3662Z" fill="#6084FE"/>
<path d="M19.5566 11.7773L19.7178 11.792L19.8643 11.8652L20.0107 11.9971L21.2266 13.2129L21.3291 13.3594L21.3584 13.4473V13.623L21.2998 13.7695L21.1973 13.9014L18.9268 16.1719L18.7949 16.2451L18.7217 16.2744H18.5312L18.3994 16.2158L18.2822 16.1133L16.9492 14.7803L16.8906 14.6777L16.8613 14.4873L16.8906 14.3555L16.9785 14.209L19.293 11.8945L19.4395 11.8066L19.5566 11.7773Z" fill="#6084FE"/>
<path d="M15.9238 8.20312H16.0996L16.2461 8.26172L16.3633 8.34961L17.6523 9.63867L17.7549 9.7998L17.7842 9.91699L17.7695 10.0781L17.6963 10.2246L17.5645 10.3711L15.3672 12.5684L15.2354 12.6562L15.0889 12.7002H14.9717L14.8252 12.6416L14.6787 12.5098L13.3604 11.1914L13.3018 11.0742L13.2871 11.001V10.8545L13.3457 10.708L13.4482 10.5762H13.4775L13.5068 10.5176L15.7041 8.32031L15.8652 8.21777L15.9238 8.20312Z" fill="#6084FE"/>
<path d="M12.3203 4.62891H12.54L12.6572 4.67285L12.7891 4.77539L14.0781 6.06445L14.166 6.19629L14.1953 6.29883V6.45996L14.1514 6.5918L14.0488 6.72363L11.7637 9.00879L11.5879 9.09668L11.5293 9.11133H11.3975L11.2363 9.05273L11.0898 8.9209L9.78613 7.61719L9.72754 7.51465L9.69824 7.33887L9.74219 7.16309L9.85938 7.00195L12.1299 4.73145L12.2764 4.64355L12.3203 4.62891Z" fill="#6084FE"/>
<path d="M7.44238 9.66797H7.67676L7.83789 9.72656L7.98438 9.84375L9.21484 11.0742L9.2002 11.1328L9.08301 11.2354L9.02441 11.3086H8.99512L8.96582 11.3672L8.59961 11.7334L8.51172 11.8066L8.42383 11.9092L8.33594 11.9824L8.2627 12.0703L8.16016 12.1582L8.08691 12.2461L7.98438 12.334L7.91113 12.4219L7.80859 12.5098L7.73535 12.5977L7.63281 12.6855L7.55957 12.7734L7.44238 12.876L7.38379 12.9492L7.3252 12.9346L7.19336 12.7881L5.69922 11.2939L5.71387 11.25L5.83105 11.1475L7.19336 9.78516L7.33984 9.69727L7.44238 9.66797Z" fill="#6084FE"/>
<path d="M22.0469 23.9502L22.1055 23.9648L23.3652 25.2246L23.4531 25.3711L23.4971 25.4883V25.7227L23.4385 25.8838L23.3213 26.0303L21.915 27.4365L21.9004 27.4658L21.8418 27.4365L20.2744 25.8691L20.2158 25.8252L20.2305 25.7666L20.3477 25.6641L20.5088 25.5029L20.582 25.415L20.6846 25.3271L20.7578 25.2393L20.8604 25.1514L20.9336 25.0635L21.0361 24.9756L21.1094 24.8877L21.2119 24.7998L21.2852 24.7119L21.3877 24.624L21.4609 24.5361L21.5635 24.4482L21.6367 24.3604L21.7393 24.2725L21.8125 24.1846L21.9297 24.082L22.0469 23.9502Z" fill="#6084FE"/>
<path d="M11.2949 13.1982L11.3535 13.2129L12.7891 14.6484L12.8037 14.6924L11.0312 16.4648H11.002L10.9727 16.5234H10.9141L10.7676 16.3623L10.6797 16.2891L10.5918 16.1865L10.5039 16.1133L10.4014 15.9961L10.1816 15.7764L10.0938 15.7031L10.0059 15.6006L9.91797 15.5273L9.81543 15.4102L9.46387 15.0586L9.47852 15L9.5957 14.8975L11.2949 13.1982Z" fill="#6084FE"/>
<path d="M16.6562 18.5742L16.7295 18.5889L18.165 20.0244L18.1797 20.0684L16.3633 21.8848L16.3486 21.9141H16.3047L16.2021 21.7969L16.1289 21.7383L16.041 21.6357L15.5137 21.1084L15.4258 21.0352L15.3379 20.9326L14.8252 20.4199L16.627 18.6182L16.6562 18.5742Z" fill="#6084FE"/>
<path d="M20.2451 22.1631L20.3184 22.1777L20.3916 22.251V22.2803L20.4502 22.3096L21.6807 23.54V23.5693L21.7393 23.5986L21.7539 23.6572L19.9229 25.4883L19.8643 25.4736L19.7324 25.3271L19.6445 25.2539L19.5566 25.1514L19.4688 25.0781L19.3809 24.9756L19.293 24.9023L19.2051 24.7998L19.1172 24.7266L19.0293 24.624L18.9414 24.5508L18.8535 24.4482L18.7656 24.375L18.6631 24.2578L18.5898 24.1992V24.1699L18.5312 24.1406L18.502 24.082L18.4434 24.0527L18.4287 23.9795L18.5166 23.8916H18.5459V23.8623H18.5752V23.833L18.6777 23.7451L18.6924 23.7158H18.7217V23.6865H18.751L18.7803 23.6279H18.8096L18.8389 23.5693H18.8682L18.8975 23.5107L20.0107 22.3975H20.04L20.0693 22.3389H20.0986L20.1279 22.2803L20.1865 22.251V22.2217H20.2158L20.2451 22.1631Z" fill="#6084FE"/>
<path d="M9.49316 11.3965L9.56641 11.4258L11.002 12.8613L10.9727 12.9346L9.2002 14.707L9.18555 14.7363L9.12695 14.7217L8.30664 13.9014L8.21875 13.8281L8.11621 13.7109L7.75 13.3447L7.66211 13.2715L7.69141 13.2129L9.47852 11.4258L9.49316 11.3965Z" fill="#6084FE"/>
<path d="M14.8838 16.7725L14.9424 16.8018L16.3779 18.2373L16.3633 18.2959L14.5469 20.1123L14.4883 20.0977L14.3857 19.9805L13.1113 18.7061L13.082 18.6914V18.6621H13.0527L13.0674 18.5889L14.8838 16.7725Z" fill="#6084FE"/>
<path d="M18.458 20.3613L18.5312 20.3906L19.9521 21.8115L19.9668 21.8555L19.8203 22.002L19.8057 22.0312H19.7764L19.7471 22.0898L18.8975 22.9395H18.8682L18.8389 22.998H18.8096L18.7803 23.0566H18.751L18.7217 23.1152H18.6924L18.6631 23.1738H18.6338L18.6191 23.2178L18.5312 23.291L18.458 23.3789L18.3555 23.4668L18.2822 23.5547L18.1797 23.6426L18.1211 23.7012L18.0625 23.6719L17.96 23.5547L17.4473 23.042L17.3594 22.9688L17.2715 22.8662L17.1836 22.793L17.0957 22.6904L16.8027 22.3975L16.7148 22.3242V22.2949L16.6562 22.2656L16.627 22.2363L16.6416 22.1777H16.6709L16.7002 22.1191L16.8174 22.0166L18.4141 20.4199L18.458 20.3613Z" fill="#6084FE"/>
<path d="M13.082 14.9854L13.1406 15L14.5908 16.4502L14.5762 16.5088L14.4883 16.582L14.4736 16.6113H14.4443V16.6406H14.415V16.6699H14.3857V16.6992H14.3564V16.7285H14.3271V16.7578H14.2979V16.7871H14.2686V16.8164H14.2393V16.8457H14.21V16.875H14.1807V16.9043H14.1514V16.9336H14.1221V16.9629H14.0928V16.9922H14.0635V17.0215H14.0342V17.0508H14.0049V17.0801H13.9756V17.1094H13.9463V17.1387H13.917V17.168H13.8877V17.1973H13.8584V17.2266H13.8291V17.2559L13.7266 17.3438L13.6533 17.4316H13.624V17.4609H13.5947V17.4902H13.5654V17.5195L13.4482 17.6221L13.2285 17.8418L13.1553 17.9297L13.0381 18.0322L12.8184 18.252L12.7598 18.3252L12.7012 18.2959L11.8809 17.4756L11.793 17.4023L11.6904 17.2852L11.3242 16.9189L11.251 16.8604L11.2656 16.8018L11.3828 16.6992L11.8955 16.1865L11.9688 16.0986L12.0713 16.0107L12.1445 15.9229L12.2471 15.835L12.3203 15.7471L12.4229 15.6592L12.4961 15.5713L12.5986 15.4834L12.6719 15.3955L12.7744 15.3076L13.0381 15.0439L13.082 14.9854Z" fill="#6084FE"/>
</g>
</g>
<defs>
<filter id="filter0_d_187_110" x="-0.834961" y="0" width="38" height="38" filterUnits="userSpaceOnUse" color-interpolation-filters="sRGB">
<feFlood flood-opacity="0" result="BackgroundImageFix"/>
<feColorMatrix in="SourceAlpha" type="matrix" values="0 0 0 0 0 0 0 0 0 0 0 0 0 0 0 0 0 0 127 0" result="hardAlpha"/>
<feOffset dy="4"/>
<feGaussianBlur stdDeviation="2"/>
<feComposite in2="hardAlpha" operator="out"/>
<feColorMatrix type="matrix" values="0 0 0 0 0 0 0 0 0 0 0 0 0 0 0 0 0 0 0.25 0"/>
<feBlend mode="normal" in2="BackgroundImageFix" result="effect1_dropShadow_187_110"/>
<feBlend mode="normal" in="SourceGraphic" in2="effect1_dropShadow_187_110" result="shape"/>
</filter>
<clipPath id="clip0_187_110">
<rect width="30" height="30" fill="white" transform="translate(3.16504)"/>
</clipPath>
</defs>
</svg>
