<svg width="30" height="30" viewBox="0 0 30 30" fill="none" xmlns="http://www.w3.org/2000/svg">
<path d="M7.41211 9.53613L7.48535 9.60938L7.63184 9.87305L7.79297 10.0928L7.9541 10.2979L8.17383 10.5322L8.29102 10.6348L8.51074 10.8105L8.75977 10.9717L8.99414 11.1035L9.24316 11.2207L9.56543 11.3379L9.87305 11.4111L10.2539 11.4697L10.4883 11.4844H10.6641L11.0303 11.4551L11.4111 11.3818L11.792 11.2646L12.0996 11.1328L12.3486 11.001L12.5684 10.8545L12.7441 10.7227L12.9492 10.5469L13.1982 10.2979L13.3301 10.1367L13.5205 9.8584L13.667 9.60938L13.7109 9.53613L13.7695 9.59473L13.8574 9.75586L13.9746 9.94629L14.1357 10.166L14.3115 10.3711L14.4141 10.4736V10.5029L14.4727 10.5322L14.6631 10.708L14.9268 10.8984L15.249 11.0889L15.5273 11.2207L15.7617 11.3086L16.0254 11.3818L16.4062 11.4551L16.7871 11.4844H16.9482L17.2998 11.4551L17.5635 11.4111L17.8564 11.3379L18.1494 11.2354L18.3838 11.1328L18.6621 10.9863L18.8818 10.8398L19.0869 10.6787L19.2334 10.5469L19.3506 10.4443L19.4531 10.3271L19.585 10.1807L19.7754 9.91699L19.9072 9.69727L19.9805 9.55078H20.0391L20.1416 9.75586L20.3027 10.0049L20.4492 10.1953L20.6396 10.415L20.8008 10.5762L20.9619 10.708L21.1963 10.8838L21.46 11.0449L21.6943 11.1621L21.9727 11.2793L22.251 11.3672L22.6172 11.4404L22.8223 11.4697L23.0713 11.4844H23.2324L23.6572 11.4551L23.6719 11.4697V14.5459L23.6133 14.5752L23.1299 14.6191L22.6904 14.6924L22.2949 14.7949L21.9434 14.9121L21.6064 15.0586L21.3721 15.1758L21.1523 15.293L21.1084 15.3223H21.0645L21.0498 14.4287L20.9912 14.2822L20.8887 14.1943L20.8301 14.165L19.585 14.1504H15.0879L14.8242 14.165L14.707 14.2383L14.6191 14.3555L14.6045 14.4141V19.6289L14.6484 19.7461L14.6631 19.79L14.8389 19.8779L14.9707 19.8926H18.4424L18.5596 19.9072L18.5742 19.9219L18.6182 20.3467L18.6768 20.6836L18.7793 21.0645L18.9404 21.5186L19.0869 21.8555L19.1895 22.0898L19.3359 22.3682L19.5557 22.7637L19.7607 23.1006L19.8633 23.2617L19.9219 23.335L19.9072 23.3789H12.5537L12.5098 23.3643L12.4951 22.0459V14.4727L12.4658 14.3408L12.3779 14.2236L12.2607 14.165L11.7041 14.1504H7.26562L6.92871 14.165L6.84082 14.209L6.76758 14.2676L6.70898 14.3848L6.69434 14.5166L6.67969 23.3643L5.15625 23.3789H3.79395L3.76465 23.3643V11.4697L3.82324 11.4551L3.92578 11.4697L4.35059 11.4844L4.73145 11.4551L5.05371 11.3965L5.33203 11.3232L5.6543 11.2061L6.03516 11.0156L6.19629 10.9131L6.40137 10.7666L6.5625 10.6348L6.75293 10.459L6.88477 10.3271L7.0166 10.166L7.20703 9.90234L7.35352 9.65332L7.39746 9.55078L7.41211 9.53613Z" fill="#6084FE"/>
<path d="M5.22949 1.3916H22.207L22.4268 1.75781L22.6465 2.13867L22.8516 2.49023L23.042 2.8125L23.2617 3.19336L23.4521 3.51562L23.8623 4.21875L24.0088 4.46777L24.2432 4.86328L24.4189 5.1709L24.6533 5.56641L24.873 5.94727L25.0781 6.29883L25.2686 6.62109L25.6787 7.32422L25.6641 7.36816H1.75781L1.77246 7.29492L2.18262 6.5918L2.43164 6.16699L2.63672 5.81543L2.7832 5.56641L3.01758 5.1709L3.13477 4.96582L3.33984 4.61426L3.58887 4.18945L3.99902 3.48633L4.18945 3.16406L4.39453 2.8125L4.62891 2.41699L4.84863 2.03613L5.08301 1.64062L5.22949 1.3916Z" fill="#6084FE"/>
<path d="M23.4375 15.2637H24.1553L24.5215 15.3076L24.9463 15.3955L25.2393 15.4834L25.6494 15.6445L26.001 15.8203L26.3086 16.0107L26.5137 16.1572L26.6602 16.2744L26.8652 16.4502L27.2021 16.7871L27.334 16.9482L27.4805 17.1387L27.6562 17.4023L27.7734 17.6074L27.9492 17.9443L28.0957 18.3252L28.1982 18.6621L28.2861 19.0869L28.3301 19.4678L28.3447 19.8486L28.3154 20.1709L28.2715 20.4639L28.1836 20.8154L28.0664 21.167L27.9199 21.5186L27.7734 21.8408L27.627 22.1191L27.4365 22.4561L27.29 22.6904L27.085 23.0127L26.8945 23.291L26.792 23.4375L26.6016 23.7012L26.4258 23.9355L26.2793 24.126L25.957 24.5361L25.7666 24.7705L25.5615 25.0195L25.4004 25.21L25.2393 25.415L25.0928 25.5762L24.9609 25.7373L24.7852 25.9424L24.5947 26.1621L24.4629 26.3232L24.1113 26.7334L23.9502 26.9238L23.8184 27.085H23.7744L23.5986 26.8799L23.4668 26.7188L23.2764 26.499L23.1152 26.3086L22.9834 26.1475L22.8516 26.001L22.7197 25.8398L22.3682 25.4297L22.2363 25.2686L22.0752 25.0781L21.9434 24.917L21.7529 24.6826L21.5918 24.4922L21.1523 23.9209L20.9766 23.6865L20.8008 23.4375L20.6543 23.2324L20.4492 22.9248L20.2441 22.6025L20.0537 22.2803L19.8779 21.958L19.7168 21.6357L19.5557 21.2549L19.4238 20.8887L19.3359 20.5664L19.2627 20.1416L19.248 19.9805V19.5703L19.292 19.1455L19.3799 18.6914L19.4971 18.3105L19.6436 17.9443L19.7607 17.6953L19.9658 17.3438L20.1123 17.1387L20.2881 16.9043L20.4492 16.7285L20.5518 16.6113L20.7129 16.4502L20.8301 16.3477L21.0645 16.1572L21.416 15.9229L21.6211 15.8057L21.8408 15.6885L22.2217 15.5273L22.5439 15.4248L22.9102 15.3369L23.2764 15.2783L23.4375 15.2637ZM23.6426 16.6113L23.3057 16.6406L22.9541 16.7139L22.6465 16.8164L22.3828 16.9336L22.1191 17.0801L21.9287 17.2119L21.7383 17.3584L21.5186 17.5635L21.3281 17.7686L21.2109 17.9297L21.0645 18.1494L20.918 18.4131L20.7715 18.7793L20.6836 19.0723L20.625 19.3945L20.6104 19.5557V20.0537L20.6543 20.376L20.7422 20.7422L20.874 21.0938L21.0498 21.4307L21.2256 21.6943L21.3867 21.8848L21.5186 22.0312L21.6797 22.1924L21.8262 22.3096L22.0752 22.4854L22.3242 22.6318L22.6465 22.7783L23.0273 22.8955L23.3203 22.9541L23.6426 22.9834H23.9502L24.2725 22.9541L24.624 22.8809L24.9756 22.7637L25.3418 22.5879L25.6055 22.4268L25.7959 22.2803L25.9424 22.1484L26.0596 22.0459L26.2646 21.8262L26.4697 21.5479L26.6455 21.2402L26.7627 20.9766L26.8799 20.625L26.9531 20.2734L26.9824 19.9512V19.6729L26.9531 19.3506L26.8799 18.9844L26.792 18.7061L26.6895 18.457L26.5137 18.1201L26.3525 17.8857L26.2207 17.7246L26.0889 17.5781L25.9277 17.417L25.7227 17.2559L25.5176 17.1094L25.2393 16.9482L24.9756 16.8311L24.624 16.7139L24.2578 16.6406L23.9209 16.6113H23.6426Z" fill="#6084FE"/>
<path d="M7.38281 14.8389H11.7773L11.8213 14.8682V23.3496L11.8066 23.3643L9.84375 23.3789H7.39746L7.36816 23.3496V14.8535L7.38281 14.8389Z" fill="#6084FE"/>
<path d="M23.54 17.2998H24.0234L24.3164 17.3438L24.624 17.4316L24.8438 17.5195L25.1367 17.6807L25.3711 17.8564L25.5176 17.9883L25.6055 18.0615L25.708 18.1787L25.8545 18.3691L25.9863 18.5889L26.1035 18.8232L26.2207 19.1748L26.2793 19.4678L26.2939 19.5996V20.0244L26.2354 20.376L26.1621 20.625L26.0596 20.874L25.8984 21.167L25.708 21.416L25.5469 21.5918L25.3857 21.7383L25.1367 21.9141L24.873 22.0605L24.5361 22.1924L24.2139 22.2656L24.0234 22.2949H23.54L23.2031 22.2363L22.9248 22.1484L22.6611 22.0312L22.4268 21.8994L22.251 21.7676L22.1045 21.6357L21.8555 21.3867L21.6797 21.1377L21.5625 20.9326L21.46 20.7129L21.3721 20.4492L21.2988 20.0684L21.2842 19.7607L21.3135 19.4385L21.3867 19.1016L21.4893 18.8086L21.6504 18.501L21.8262 18.252L22.002 18.0469L22.0898 17.959H22.1191V17.9297L22.3242 17.7686L22.5732 17.6074L22.8809 17.4609L23.1006 17.3877L23.3643 17.3291L23.54 17.2998Z" fill="#6084FE"/>
<path d="M15.2783 14.8389H20.376V15.8496L20.127 16.084L20.0098 16.2012L19.9072 16.3184L19.7754 16.4648L19.585 16.7139L19.4531 16.9043L19.292 17.1533L19.2041 17.3145L19.0283 17.666L18.8672 18.0762L18.7354 18.5156L18.6475 18.9258L18.6035 19.2041L18.5303 19.2188L15.2783 19.2041L15.2637 19.1162V14.8682L15.2783 14.8389Z" fill="#6084FE"/>
<path d="M23.1299 8.04199H25.9424L25.957 8.12988L25.9277 8.4082L25.8691 8.70117L25.7373 9.09668L25.6201 9.33105L25.5029 9.53613L25.3418 9.75586L25.2246 9.90234H25.1953L25.166 9.96094L25.0488 10.0781L24.8877 10.21L24.6387 10.3857L24.4629 10.4883L24.1699 10.6201L23.8477 10.7227L23.5547 10.7812L23.2764 10.8105H22.998L22.6465 10.7666L22.3389 10.6934L22.0312 10.5762L21.7969 10.459L21.5332 10.2979L21.3721 10.166L21.2256 10.0342L21.0352 9.84375L20.874 9.63867L20.7275 9.41895L20.6104 9.18457L20.4932 8.90625L20.4053 8.58398L20.3613 8.29102L20.3467 8.05664L23.1299 8.04199Z" fill="#6084FE"/>
<path d="M1.49414 8.04199H7.0752L7.08984 8.12988L7.06055 8.4082L7.00195 8.70117L6.91406 8.99414L6.76758 9.31641L6.5918 9.60938L6.43066 9.81445L6.38672 9.87305H6.35742L6.32812 9.93164L6.18164 10.0781L6.02051 10.21L5.81543 10.3564L5.56641 10.5029L5.30273 10.6201L5.08301 10.6934L4.77539 10.7666L4.40918 10.8105H4.14551L3.86719 10.7812L3.58887 10.7227L3.35449 10.6494L3.13477 10.5615L2.90039 10.4443L2.73926 10.3418L2.50488 10.166L2.3291 10.0049L2.16797 9.84375L1.97754 9.59473L1.83105 9.36035L1.71387 9.12598L1.61133 8.8623L1.53809 8.58398L1.49414 8.30566L1.47949 8.05664L1.49414 8.04199Z" fill="#6084FE"/>
<path d="M7.80762 8.04199H12.876L13.374 8.05664L13.3594 8.32031L13.3008 8.67188L13.2129 8.9502L13.125 9.16992L12.9639 9.47754L12.832 9.66797L12.7295 9.7998L12.5977 9.94629L12.4365 10.1074L12.2314 10.2686L12.0117 10.415L11.7041 10.5762L11.3818 10.6934L11.0742 10.7666L10.708 10.8105H10.415L10.0635 10.7666L9.75586 10.6934L9.44824 10.5762L9.11133 10.4004L8.8623 10.2246L8.65723 10.0488L8.48145 9.87305L8.32031 9.66797L8.21777 9.52148L8.07129 9.27246L7.93945 8.96484L7.86621 8.73047L7.80762 8.4668L7.77832 8.21777V8.05664L7.80762 8.04199Z" fill="#6084FE"/>
<path d="M14.1064 8.04199L19.6582 8.05664V8.23242L19.6143 8.54004L19.541 8.83301L19.4531 9.08203L19.3213 9.36035L19.1455 9.63867L18.9551 9.87305L18.7646 10.0635L18.6035 10.21L18.3691 10.3711L18.1348 10.5029L17.915 10.6055L17.5635 10.7227L17.2705 10.7812L16.9922 10.8105H16.6992L16.3477 10.7666L16.0547 10.6934L15.7324 10.5762L15.4248 10.415L15.249 10.2979L15.0439 10.1367L14.8535 9.96094L14.7217 9.81445L14.5312 9.56543L14.3701 9.28711L14.2529 9.03809L14.165 8.77441L14.0918 8.4375L14.0625 8.15918V8.05664L14.1064 8.04199Z" fill="#6084FE"/>
<path d="M22.3682 26.5869H22.4561L22.5293 26.6602L22.8809 27.0703L23.0127 27.2314L23.1738 27.4219L23.3057 27.583L23.4961 27.8174L23.5254 27.876H23.5547V27.9053L23.6133 27.9346L23.7451 27.9785H23.8477L23.9941 27.9199L24.1113 27.8027L24.2285 27.6562L24.4189 27.4219L24.5801 27.2314L24.7119 27.0703L24.9023 26.8506L25.0781 26.6455L25.1221 26.5869L25.3711 26.6016L25.8838 26.6748L26.4111 26.7773L26.8066 26.8799L27.1875 27.0117L27.4219 27.1289L27.5977 27.2314L27.7148 27.3486L27.7002 27.4219L27.5537 27.5537L27.3193 27.6855L27.0264 27.8027L26.748 27.8906L26.3525 27.9932L25.957 28.0664L25.5762 28.125L25.0635 28.1836L24.4336 28.2275L24.0381 28.2422H23.4668L22.8369 28.2129L22.0898 28.1396L21.5332 28.0518L21.1084 27.9639L20.7861 27.876L20.4346 27.7588L20.127 27.6123L19.9805 27.5098L19.9072 27.4512L19.8633 27.3779L19.9512 27.2607L20.2148 27.0996L20.5225 26.9678L20.8887 26.8506L21.3867 26.7334L21.8848 26.6455L22.3682 26.5869Z" fill="#6084FE"/>
</svg>
