<svg width="32" height="35" viewBox="0 0 32 35" fill="none" xmlns="http://www.w3.org/2000/svg">
<g filter="url(#filter0_d_187_127)">
<path d="M6.63672 3.2959H9.83008L9.85938 3.31055V5.1416H11.0605V3.3252L11.0752 3.2959H14.2832L14.3125 3.3252V5.1416H15.5137L15.499 4.90723V4.21875L15.5137 3.31055L15.5283 3.2959H18.7363L18.751 3.31055V5.1416H27.3789L27.4082 5.18555V6.67969L27.3789 6.69434H26.7637V8.87695H27.1152L27.3936 8.8916L27.4082 8.97949V24.8291L27.3203 24.8584H22.9551V26.6748L22.9404 26.6895L15.748 26.7041L15.7041 26.6895L15.6895 26.6455V24.8584H14.2539V26.6748L14.2393 26.6895H12.9209L12.9062 26.6748V24.8584H12.2324V26.6748L12.2178 26.6895H10.8848L10.8701 26.25V24.9023L10.8848 24.8584H10.2109V26.6602L10.1963 26.6895L8.90723 26.7041L8.84863 26.6748V24.8584H4.0293L4 24.8438V5.15625L4.01465 5.1416H6.62207V3.31055L6.63672 3.2959ZM20.1719 7.00195V8.56934L21.1387 8.58398H21.7246L21.7393 8.56934V7.00195H20.1719ZM22.6914 7.00195L22.6768 7.0166V8.56934L23.6582 8.58398H24.2148L24.2441 8.56934V7.00195H22.6914ZM6.65137 7.36816L6.63672 7.38281V12.8467H18.7363V7.36816H6.65137ZM22.7207 10.3711L22.4131 10.415L22.1641 10.4883L21.915 10.6055L21.7246 10.7373L21.5342 10.8984L21.4463 10.9863V11.0156H21.417L21.2705 11.2207L21.1826 11.3672L21.0801 11.6016L21.0215 11.792L20.9775 12.041V12.4219L21.0361 12.7295L21.124 12.9785L21.2559 13.2275L21.3877 13.4033L21.5195 13.5498L21.6807 13.6963L21.9004 13.8428L22.1494 13.96L22.3838 14.0332L22.6475 14.0771H23.0137L23.3213 14.0186L23.5996 13.916L23.8779 13.7549L24.0391 13.623L24.1123 13.5645V13.5352L24.1709 13.5059L24.3027 13.3447L24.4346 13.1396L24.5518 12.9053L24.6396 12.6123L24.6689 12.4512V11.9971L24.625 11.7627L24.5371 11.499L24.3906 11.2207L24.2734 11.0596L24.1416 10.9131L23.9658 10.752L23.7607 10.6201L23.5264 10.5029L23.3066 10.4297L23.0723 10.3857L22.9258 10.3711H22.7207ZM6.63672 14.458V16.9336H13.082L13.0967 16.6113V14.4727L13.082 14.458H6.63672ZM17.125 15.6885L17.0957 15.7031L17.0811 16.5088L16.5537 16.5234V17.2266H15.9092L15.5576 17.2412V18.1934L16.5391 18.208L16.5537 19.0869H15.6016L15.5576 19.1016V20.0391L16.5391 20.0537L16.5537 20.874H15.9531L15.5576 20.8887V21.8262L16.5391 21.8408L16.5537 22.5293L17.1104 22.5439L17.125 23.3643H18.0625L18.0771 22.5439H18.9121V23.3643H19.8496V22.5293L20.7432 22.5439L20.7578 23.3643H21.6953L21.71 22.5439L22.2227 22.5293L22.2373 21.8408L23.2334 21.8262V20.8887L23.0723 20.874H22.252L22.2373 20.6836V20.0537L23.2334 20.0391V19.1016L22.252 19.0869L22.2373 18.1934H23.2041V17.2412L23.1748 17.2266H22.2227L22.208 17.0215V16.5381L22.1934 16.5234H21.666V15.7031L21.5342 15.6885H20.7578L20.7285 15.7031L20.7139 16.5088L19.8203 16.5234V15.7031L19.8057 15.6885H18.8975L18.8828 15.7031L18.8682 16.5088L18.0332 16.5234V15.7031L18.0186 15.6885H17.125ZM7.57422 18.3545L7.54492 18.3691L7.53027 19.1455H6.98828L6.95898 19.1602V22.2363L7.48633 22.251L7.53027 22.2656L7.54492 22.793H8.76074L8.77539 22.7783V22.2363H9.39062V19.1602L9.36133 19.1455H8.79004L8.77539 18.3691L8.74609 18.3545H7.57422ZM11.2656 18.3545L11.251 18.3691L11.2363 19.1309L10.6797 19.1455L10.665 19.1602V22.2363L11.2363 22.251L11.251 22.793H12.4814L12.4961 22.251L13.082 22.2363L13.0967 21.7822V19.1602L12.4961 19.1455L12.4814 18.3691L12.4668 18.3545H11.2656Z" fill="#6084FE"/>
<path d="M7.42773 10.415H17.8428L17.8721 10.459V11.9824L17.8574 12.0117L17.7695 12.0264H7.42773L7.39844 12.0117V10.4297L7.42773 10.415Z" fill="#6084FE"/>
<path d="M7.41309 8.14453H17.8428L17.8721 8.18848V9.71191L17.8428 9.74121H7.39844V8.15918L7.41309 8.14453Z" fill="#6084FE"/>
<path d="M17.3594 17.417H21.2998L21.3291 17.4463V21.6211L21.3145 21.6357H17.3594L17.3447 21.6211V17.4316L17.3594 17.417ZM18.3994 18.5449V20.5078L18.458 20.5225H20.2598V18.5449H18.3994Z" fill="#6084FE"/>
<path d="M7.3252 14.9854H12.3936L12.4229 15.0146V16.377L12.3936 16.4062H7.3252L7.31055 16.3916V15L7.3252 14.9854Z" fill="#6084FE"/>
<path d="M22.6914 11.3965H22.9697L23.1602 11.4551L23.3213 11.543L23.4971 11.7041L23.6143 11.9092L23.6729 12.0996V12.3926L23.6143 12.583L23.5264 12.7441L23.3945 12.8906L23.2188 13.0078L23.0723 13.0664L22.9404 13.0957H22.7061L22.5303 13.0518L22.3398 12.9492L22.1934 12.8174L22.0908 12.6855L22.0029 12.4951L21.9736 12.3779V12.1289L22.0322 11.9092L22.1348 11.7334L22.252 11.6016L22.3984 11.499L22.5596 11.4258L22.6914 11.3965Z" fill="#6084FE"/>
</g>
<defs>
<filter id="filter0_d_187_127" x="-3.2959" y="0" width="38" height="38" filterUnits="userSpaceOnUse" color-interpolation-filters="sRGB">
<feFlood flood-opacity="0" result="BackgroundImageFix"/>
<feColorMatrix in="SourceAlpha" type="matrix" values="0 0 0 0 0 0 0 0 0 0 0 0 0 0 0 0 0 0 127 0" result="hardAlpha"/>
<feOffset dy="4"/>
<feGaussianBlur stdDeviation="2"/>
<feComposite in2="hardAlpha" operator="out"/>
<feColorMatrix type="matrix" values="0 0 0 0 0 0 0 0 0 0 0 0 0 0 0 0 0 0 0.25 0"/>
<feBlend mode="normal" in2="BackgroundImageFix" result="effect1_dropShadow_187_127"/>
<feBlend mode="normal" in="SourceGraphic" in2="effect1_dropShadow_187_127" result="shape"/>
</filter>
</defs>
</svg>
