<svg width="32" height="27" viewBox="0 0 32 27" fill="none" xmlns="http://www.w3.org/2000/svg">
<g clip-path="url(#clip0_225_335)">
<path d="M3.95119 3.23114H28.1039L28.2827 3.31829L28.4078 3.47517L28.4436 3.61462V19.4417L28.4257 19.9995L28.4078 20.1041L28.3363 20.0692L28.2112 19.8949L28.0681 19.6857L27.9251 19.5114L27.7642 19.3371L27.7106 19.3022V19.2674L27.6391 19.2325L27.3351 18.9536L27.1564 18.7968L26.9061 18.5876L26.6379 18.3436L26.4949 18.2215L26.3161 18.0647L26.1731 17.9427L25.9407 17.7335L25.7977 17.6115L25.6189 17.4546L25.4759 17.3326L25.2971 17.1757L25.1004 17.0014L24.9038 16.8445L24.7608 16.7051L24.6177 16.5831L24.4211 16.4087L24.2781 16.2867L24.0993 16.1299L23.9563 16.0078L23.7417 15.8161L23.5451 15.6592L23.4021 15.5198L23.259 15.3978L23.0624 15.2235L22.9194 15.1014L22.7406 14.9446L22.5976 14.8226L22.3652 14.6134L22.2221 14.4914L22.0434 14.3345L21.9003 14.2125L21.6858 14.0207L21.4892 13.8639L21.1852 13.585L21.0065 13.4281L20.7562 13.2189L20.5059 12.9923L20.3629 12.8703L20.1841 12.7134L20.202 12.5566L20.2377 12.3474L20.2556 12.1557V11.4933L20.1841 10.9704L20.0589 10.4997L19.9159 10.1337L19.7372 9.76765L19.5405 9.4539L19.3617 9.20987L19.2008 9.01813L18.9327 8.73924L18.7896 8.61723L18.5215 8.40806L18.2533 8.23375L17.8779 8.02458L17.5203 7.86771L17.1449 7.74569L16.7873 7.65854L16.4477 7.60625L16.2331 7.58882H15.6789L15.3214 7.62368L14.8744 7.71083L14.4632 7.83285L14.1772 7.95486L14.0163 8.09431L13.9448 8.25118L13.9269 8.33834V8.51264L13.9805 8.66952L14.1057 8.8264L16.3225 10.9878L16.3046 11.0575L15.1962 12.1382L15.1605 12.1905L15.0711 12.1557L13.1045 10.2383V10.2034L13.033 10.1686V10.1337L12.9615 10.0988V10.064L12.89 10.0291L12.7649 9.92453L12.604 9.85481L12.5503 9.83738H12.4073L12.2464 9.87224L12.0855 9.97682L11.9783 10.1163L11.871 10.3603L11.7458 10.7438L11.6743 11.0575L11.6207 11.4061L11.6028 11.685V11.9814L11.6386 12.3648L11.728 12.818L11.8352 13.1841L11.9783 13.5327L12.157 13.8813L12.3358 14.1602L12.5503 14.4391L12.7649 14.6831L13.0688 14.9794L13.3191 15.1712L13.5694 15.3455L13.8733 15.5198L14.2845 15.7115L14.5169 15.7987L14.9638 15.9207L15.5001 16.0078L15.7683 16.0253H16.1259L16.6801 15.973L16.7695 15.9556H16.8946L17.0019 16.095L17.0913 16.1822L17.3237 16.4262L17.4488 16.5656L17.9315 17.0885L18.0567 17.228L18.0745 17.2803H18.1103L18.2354 17.4197L18.3963 17.594L18.5215 17.7335L18.6824 17.9078L18.8075 18.0472L19.0042 18.2564L19.1293 18.3958L19.2902 18.5702L19.4154 18.7096L19.612 18.9188L19.7372 19.0582L19.898 19.2325L20.0232 19.372L20.5059 19.8949L20.6668 20.0866L20.7562 20.1738V20.2086H20.7919V20.2435H20.8277V20.2958H3.98695L3.84393 20.2435L3.71878 20.1389L3.64727 20.0169L3.62939 19.9298V3.57975L3.70091 3.40545L3.8618 3.266L3.95119 3.23114ZM5.07748 4.78247L4.89871 4.81733L4.73781 4.92192L4.61266 5.06136L4.55903 5.20081L4.54115 5.39255V6.10721L4.57691 6.28151L4.64842 6.42096L4.77356 6.54297L4.89871 6.6127L5.05961 6.64756L5.25626 6.63013L5.47079 6.52554L5.59594 6.3861L5.64957 6.28151L5.66745 6.19436V5.23567L5.61381 5.07879L5.48867 4.92192L5.30989 4.81733L5.14899 4.78247H5.07748ZM5.02385 7.57138L4.86295 7.62368L4.75569 7.6934L4.6663 7.78055L4.57691 7.92L4.54115 8.1466V15.3455L4.57691 15.5198L4.6663 15.6767L4.80932 15.7987L5.00597 15.8684H5.2205L5.39928 15.7987L5.5423 15.6767L5.63169 15.5546L5.66745 15.4326V8.00715L5.59594 7.83285L5.45291 7.67597L5.27414 7.58882L5.20263 7.57138H5.02385Z" fill="#5E82FE"/>
<path d="M2.57425 1H29.4086L29.7304 1.03486L29.9986 1.12201L30.2488 1.26146L30.4097 1.38348V1.41834H30.4455V1.4532H30.4813L30.6243 1.62751L30.7673 1.87154L30.8567 2.133L30.8924 2.34216V22.5095L30.8388 22.5269H28.4611L28.4074 22.5095L28.4611 22.3526L28.5683 21.9866L28.622 21.7077L28.6399 21.2719L28.7829 21.1848L29.0153 21.0279L29.2119 20.8361L29.3728 20.5921L29.4622 20.3829L29.5159 20.2086L29.5337 20.0866V3.45773L29.4801 3.2137L29.3907 2.96967L29.2298 2.72564L29.0689 2.55133L28.9259 2.42932L28.6399 2.27244L28.3896 2.18529L28.1572 2.15043H3.91508L3.61116 2.20272L3.30724 2.32473L3.12846 2.44675L2.94968 2.60362L2.78879 2.79536L2.68152 2.96967L2.57425 3.24856L2.5385 3.40544L2.52062 3.73662V19.9123L2.55638 20.2086L2.64576 20.4875L2.80666 20.7664L2.96756 20.9407V20.9756L3.03907 21.0104L3.19997 21.1325L3.36087 21.2196L3.55752 21.3068L3.80781 21.3591L3.95083 21.3765L21.8285 21.3939L21.9179 21.4811L22.1145 21.6902L22.2397 21.8297L22.2575 21.882H22.2933L22.4184 22.0214L22.5793 22.1957L22.7939 22.4398L22.8296 22.4746V22.5269H1.1798L1.14404 22.5095V2.28987L1.21555 1.99355L1.28706 1.83667L1.37645 1.6798L1.48372 1.54035L1.64462 1.36604L1.8949 1.19174L2.10944 1.08715L2.3776 1.01743L2.57425 1Z" fill="#5E82FE"/>
<path d="M20.8275 23.6076L23.9918 23.625L24.3493 23.8342L24.5996 23.9562L24.8857 24.0608L25.1717 24.1305L25.565 24.1828H26.012L26.3695 24.1305L26.7271 24.0259L27.0489 23.8865L27.3707 23.7122L27.4779 23.625H32.0367L32.0725 23.6773L32.0546 24.8452L32.001 25.1241L31.9116 25.3507L31.7686 25.6121L31.5719 25.8387L31.3931 25.9956L31.1607 26.1351L30.9641 26.2222L30.7317 26.2919L30.535 26.3268L30.0881 26.3442H10.7623L1.50172 26.3268L1.12629 26.2396L0.840249 26.1002L0.643595 25.9607L0.446941 25.7864L0.286042 25.5773L0.143021 25.3332L0.0536329 25.0718L0.0178776 24.8975L0 24.6534V23.6425L0.0178776 23.625H11.2629L11.2808 23.6599L11.2987 25.0892L11.3523 25.2461L11.4238 25.3332V25.3681L11.4953 25.403L11.6562 25.4901L11.7456 25.5076H20.3269L20.4878 25.4553L20.6308 25.3507L20.7381 25.1938L20.7738 25.0369L20.7917 23.625L20.8275 23.6076Z" fill="#5E82FE"/>
<path d="M15.6071 8.66949H16.1434L16.5725 8.72179L16.9301 8.80894L17.2876 8.94839L17.5915 9.10526L17.8955 9.31443L18.1457 9.5236L18.396 9.76763L18.5748 9.99423L18.7715 10.308L18.9324 10.6392L19.0575 11.0052L19.129 11.3538L19.1648 11.685V11.9465L19.129 12.2602L19.0039 12.8703L19.0217 13.0446L19.0933 13.2015L19.2184 13.3409L19.3614 13.4629L19.576 13.6547L19.719 13.7767L19.9335 13.9684L20.0765 14.0904L20.2732 14.2647L20.4162 14.3868L20.595 14.5436L20.7916 14.7179L20.9347 14.84L21.1313 15.0143L21.2743 15.1363L21.6319 15.45L21.7749 15.5721L22.1325 15.8858L22.2755 16.0078L22.9906 16.6353L23.1336 16.7573L23.3124 16.9142L23.4554 17.0362L23.6521 17.2105L23.7951 17.3326L24.0096 17.5243L24.1526 17.6463L24.3493 17.8206L24.4923 17.9426L24.6711 18.0995L24.8141 18.2215L25.0286 18.4133L25.1717 18.5353L25.3504 18.6921L25.4935 18.8142L25.708 19.0059L25.851 19.1279L26.0298 19.2848L26.1728 19.4068L26.3873 19.5985L26.5661 19.7554L26.7628 19.9123L26.9058 20.0517L27.0131 20.1389L27.1739 20.3306L27.2991 20.5049L27.4064 20.7141L27.4957 21.0104L27.5315 21.2196V21.5334L27.46 21.8645L27.3706 22.0911L27.2455 22.3177L27.1024 22.5095L27.0309 22.5966L26.7806 22.7884L26.5125 22.9452L26.2801 23.0324L25.9404 23.1021H25.5113L25.1895 23.0324L24.9035 22.9104L24.7068 22.7884L24.4923 22.5966L24.242 22.3526L24.1169 22.2131L23.8845 21.9517L23.6342 21.6902L23.509 21.5508L23.2945 21.3068L23.0263 21.0279L22.9012 20.8884L22.6688 20.627L22.4185 20.3655L22.2934 20.226L22.0788 19.982L21.8285 19.7206L21.614 19.4765L21.3995 19.2499L21.2743 19.1105L21.0777 18.9013L20.9525 18.7619L20.7916 18.5876L20.6665 18.4481L20.4698 18.2389L20.3089 18.0472L20.1659 17.9078L20.0408 17.7683L19.862 17.5766L19.7369 17.4371L19.576 17.2628L19.4508 17.1234L19.2542 16.9142L19.0933 16.7225L18.9502 16.583L18.8251 16.4436L18.6463 16.2518L18.5212 16.1124L18.3603 15.9381L18.2351 15.7987L18.0385 15.5895L17.8776 15.3977L17.7346 15.2583L17.6094 15.1189L17.4485 14.9445L17.3591 14.8748L17.2161 14.8225L17.1446 14.8051H16.9479L16.4652 14.9097L16.1434 14.9445H15.7323L15.3211 14.8923L14.9099 14.7877L14.4808 14.6134L14.1769 14.4391L13.8909 14.2299L13.6585 14.0207L13.5154 13.8813L13.283 13.585L13.1042 13.3061L12.9612 13.0272L12.8003 12.5565L12.7288 12.1731L12.7109 11.8942V11.7024L12.7288 11.4933L12.7467 11.441L12.8182 11.4758L12.9791 11.6501L14.7669 13.3932L14.9456 13.4804L15.0172 13.4978H15.2317L15.4283 13.4281L15.6429 13.2363L17.5379 11.3887L17.6452 11.2144L17.6809 11.0575L17.663 10.8658L17.5737 10.6915L17.4128 10.5171L15.625 8.77408L15.5714 8.73922V8.68693L15.6071 8.66949ZM18.2709 13.6721L18.11 13.7418L17.967 13.8638L17.8955 13.9684L17.8597 14.0556L17.8418 14.2822L17.8955 14.4565L18.0385 14.6482L18.2173 14.8225L18.3424 14.9097L18.5033 14.962H18.7178L18.8966 14.8923L19.0396 14.7877L19.1111 14.7005L19.1648 14.5611L19.1826 14.4042L19.1469 14.2299L19.0575 14.073L18.8966 13.8987L18.7357 13.7593L18.5927 13.6895L18.539 13.6721H18.2709ZM19.4866 14.7702L19.3435 14.8051L19.1826 14.8923L19.0575 15.0317L18.986 15.2234V15.45L19.0575 15.6069L19.2005 15.7812L21.6498 18.1692H21.6855L21.7213 18.2389H21.757L21.7928 18.3087H21.8285L21.8643 18.3784H21.9L21.9358 18.4481H21.9716L22.0073 18.5178H22.0431L22.0788 18.5876H22.1146L22.1503 18.6573H22.1861L22.2218 18.727H22.2576L22.2934 18.7967H22.3291L22.3649 18.8665H22.4006L22.4364 18.9362H22.4721L22.5079 19.0059H22.5436L22.5794 19.0756H22.6152L22.6509 19.1453H22.6867L22.7224 19.2151H22.7582L22.7939 19.2848H22.8297L22.8654 19.3545H22.9012L22.9369 19.4242H22.9727L23.0085 19.494H23.0442L23.08 19.5637H23.1157L23.1515 19.6334H23.1872L23.223 19.7031H23.2587L23.2945 19.7729H23.3303L23.366 19.8426H23.4018L23.4375 19.9123H23.4733L23.509 19.982H23.5448L23.5805 20.0517H23.6163V20.0866H23.6521V20.1215H23.6878L23.7236 20.1912H23.7593L23.7951 20.2609H23.8308V20.2958H23.8666V20.3306L24.0454 20.4526L24.1347 20.4875L24.3314 20.5049L24.4923 20.4701L24.6711 20.3655L24.7783 20.2435L24.832 20.1389L24.8499 20.0517V19.8426L24.7783 19.6683L24.5638 19.4242L24.242 19.1105H24.2063L24.1705 19.0408H24.1347L24.099 18.971H24.0632L24.0275 18.9013H23.9917L23.956 18.8316H23.9202L23.8845 18.7619H23.8487L23.813 18.6921H23.7772L23.7414 18.6224H23.7057L23.6699 18.5527L21.1492 16.095H21.1134L21.0777 16.0252H21.0419L21.0062 15.9555H20.9704L20.9347 15.8858H20.8989L20.881 15.8335L20.7738 15.7464L20.6665 15.6243H20.6307L20.595 15.5546L19.9693 14.9445L19.7905 14.8225L19.6296 14.7702H19.4866Z" fill="#5E82FE"/>
<path d="M12.407 23.6251H19.6654V24.4094L19.6475 24.4269H12.407L12.3892 24.0957V23.7994L12.407 23.6251Z" fill="#5E82FE"/>
</g>
<defs>
<clipPath id="clip0_225_335">
<rect width="32" height="27" fill="white"/>
</clipPath>
</defs>
</svg>
