<svg width="30" height="30" viewBox="0 0 30 30" fill="none" xmlns="http://www.w3.org/2000/svg">
<path d="M9.09668 2.16797H20.8594L21.1377 2.19727L21.3428 2.25586L21.5332 2.3291L21.7529 2.44629L21.9287 2.57812L22.0752 2.70996L22.1777 2.8125L22.3389 3.03223L22.4707 3.28125L22.5586 3.54492L22.6025 3.76465L22.6172 3.96973V25.9863L22.6025 26.2207L22.5439 26.499L22.4561 26.7334L22.3242 26.9824L22.1924 27.1582L22.0312 27.334L21.8555 27.4805L21.6357 27.6123L21.4014 27.7148L21.2109 27.7734L20.9619 27.8174L20.4639 27.832H19.5996L9.00879 27.8174L8.71582 27.7588L8.51074 27.6855L8.23242 27.5391L8.04199 27.3926L7.86621 27.2314L7.70508 27.0264L7.55859 26.7773L7.4707 26.5576L7.41211 26.3379L7.38281 26.1182V3.85254L7.42676 3.58887L7.5293 3.28125L7.66113 3.03223L7.80762 2.82715L7.91016 2.70996L8.02734 2.60742L8.21777 2.46094L8.45215 2.3291L8.68652 2.24121L8.93555 2.18262L9.09668 2.16797ZM11.1621 3.61816L11.0449 3.67676L10.957 3.79395L10.9424 3.85254V3.99902L10.9863 4.08691L11.0596 4.16016L11.1182 4.2041L11.1914 4.21875L12.6416 4.2334H18.1348L18.8232 4.21875L18.9258 4.1748L18.999 4.10156L19.043 4.02832L19.0576 3.98438V3.85254L18.999 3.73535L18.9258 3.66211L18.8232 3.61816H11.1621ZM14.502 10.7666L14.0039 10.8105L13.667 10.8545L13.1396 10.957L12.6855 11.0742L12.1436 11.25L11.7773 11.3965L11.3525 11.5869L11.1328 11.7041L10.957 11.792L10.708 11.9385L10.3418 12.1729L10.0781 12.3633L9.8877 12.5098L9.65332 12.7002L9.43359 12.8906L9.24316 13.0664L9.08203 13.2275L9.02344 13.3887L9.05273 13.5352L9.14062 13.6523L10.166 14.6777L10.2979 14.751H10.4443L10.5762 14.6777L10.6641 14.6045V14.5752L10.7227 14.5459L10.8398 14.4287L11.001 14.2969L11.1328 14.1797L11.4111 13.9746L11.748 13.7549L12.0557 13.5791L12.4365 13.3887L12.832 13.2275L13.2275 13.0957L13.6963 12.9785L14.1357 12.9053L14.5312 12.8613L14.8682 12.8467H15.1172L15.6152 12.876L16.1426 12.9492L16.5967 13.0518L16.9922 13.1689L17.417 13.3301L17.7686 13.4912L18.0762 13.6523L18.3838 13.8428L18.6621 14.0332L18.8525 14.1797L19.043 14.3408L19.2041 14.4727L19.3652 14.6338H19.3945V14.6631L19.5117 14.7363L19.5557 14.751H19.6875L19.8047 14.6924L19.9951 14.5166L20.9033 13.6084L20.9619 13.5059L20.9766 13.4033L20.9473 13.2861L20.8887 13.1982L20.5957 12.9053L20.4346 12.7734L20.2881 12.6416L19.9072 12.3486L19.5703 12.1143L19.2627 11.9238L18.9258 11.7334L18.7061 11.6162L18.3252 11.4404L17.9297 11.2793L17.4023 11.1035L17.0361 11.001L16.6406 10.9131L16.0986 10.8252L15.4834 10.7666H14.502ZM14.5898 13.7256L14.1797 13.7695L13.7988 13.8428L13.418 13.9453L13.0371 14.0771L12.6709 14.2383L12.334 14.4141L12.0557 14.5898L11.7773 14.7803L11.5723 14.9561L11.4111 15.0879L11.2793 15.2197L11.25 15.2344V15.2637H11.2207L11.1328 15.3955L11.1182 15.542L11.1621 15.6592L11.2939 15.8057L12.2754 16.7871L12.3633 16.8311L12.5098 16.8457L12.627 16.8018L12.7734 16.6699L12.9639 16.5088L13.2129 16.333L13.4326 16.2012L13.7695 16.04L14.1211 15.9229L14.458 15.8496L14.6924 15.8203L14.9854 15.8057L15.3076 15.8203L15.7031 15.8789L16.0254 15.9668L16.3184 16.084L16.5674 16.2012L16.8311 16.3623L17.0801 16.5527L17.2266 16.6846L17.373 16.8018L17.417 16.8311L17.5781 16.8457L17.6953 16.8018L17.8857 16.626L18.8086 15.7031L18.8672 15.5859L18.8818 15.4688L18.8379 15.3516L18.75 15.2344L18.6328 15.1318L18.4424 14.9561L18.1934 14.7656L17.9883 14.6191L17.71 14.4434L17.3291 14.2383L16.9922 14.0918L16.626 13.96L16.2598 13.8574L15.8789 13.7842L15.5273 13.7402L15.3369 13.7256H14.5898ZM14.7363 16.6846L14.3994 16.7432L14.0918 16.8457L13.8428 16.9629L13.5938 17.124L13.4326 17.2559L13.2861 17.3877L13.2275 17.4902L13.2129 17.5342V17.6514L13.2861 17.7979L14.7949 19.3066L14.9414 19.3799H15.0439L15.1758 19.3213L15.3516 19.1602L16.7285 17.7832L16.7871 17.6514L16.7725 17.4902L16.6992 17.373L16.5967 17.2705L16.3477 17.0801L16.04 16.9043L15.7471 16.7871L15.4541 16.7139L15.249 16.6846H14.7363ZM13.1982 25.7666L13.0371 25.7959L12.9492 25.8691L12.8906 25.9717L12.876 26.0303V26.1328L12.9492 26.2793L13.0811 26.3672L13.1689 26.3818H16.8311L16.9775 26.3379L17.0508 26.2646L17.1094 26.1768L17.124 26.0449L17.0801 25.9131L16.9629 25.7959L16.8164 25.7666H13.1982Z" fill="#6084FE"/>
<path d="M14.9707 11.3525L15.4395 11.3672L15.9521 11.4111L16.5088 11.499L16.9043 11.5869L17.3584 11.7188L17.666 11.8213L18.0615 11.9824L18.4131 12.1436L18.75 12.3193L19.1162 12.5391L19.292 12.6562L19.5703 12.8467L19.7754 13.0078L20.0244 13.2129L20.2148 13.3887V13.4473L19.6289 14.0332H19.5996L19.541 13.96L19.3799 13.8281L19.1455 13.6377L18.8965 13.4619L18.6768 13.3154L18.457 13.1836L18.0908 12.9785L17.6807 12.7881L17.2998 12.6416L16.9482 12.5244L16.4209 12.3926L15.8936 12.3047L15.4102 12.2607L14.9268 12.2461L14.5459 12.2607L14.0771 12.3047L13.5645 12.3926L13.0518 12.5244L12.6123 12.6709L12.2168 12.832L11.8799 12.9932L11.5576 13.1689L11.25 13.3594L11.001 13.5352L10.752 13.7256L10.5908 13.8574L10.415 14.0186L10.3418 14.0039L9.77051 13.4326L9.78516 13.374L10.0049 13.1836L10.2539 12.9785L10.5322 12.7734L10.7227 12.6416L11.0449 12.4365L11.5137 12.1729L11.9678 11.9678L12.2607 11.8506L12.6709 11.7041L13.2129 11.5576L13.5645 11.4844L13.9307 11.4258L14.3262 11.3818L14.9707 11.3525Z" fill="#6084FE"/>
<path d="M14.8096 14.3115H15.1318L15.542 14.3408L15.9229 14.3994L16.2891 14.4873L16.7725 14.6484L17.1533 14.8242L17.4023 14.9561L17.6514 15.1172L17.915 15.3076L18.1348 15.4834L18.1201 15.542L17.5342 16.1279L17.4609 16.084L17.2119 15.8936L16.9043 15.7031L16.6553 15.5713L16.2891 15.4248L15.9375 15.3223L15.5713 15.249L15.3076 15.2197H14.6777L14.3262 15.2637L13.9893 15.3369L13.623 15.4541L13.3154 15.5859L13.0371 15.7324L12.7295 15.9375L12.5244 16.0986L12.4658 16.1279L11.8652 15.5273V15.4688L11.9531 15.4102L12.1729 15.2344L12.5244 15L12.7881 14.8535L13.0225 14.7363L13.3301 14.6045L13.6963 14.4873L14.0039 14.4141L14.3408 14.3555L14.8096 14.3115Z" fill="#6084FE"/>
<path d="M23.2324 8.36426H23.6865L23.833 8.4082L23.9502 8.49609L24.0381 8.62793L24.0674 8.73047V12.6416L24.0381 12.7734L23.9795 12.876L23.877 12.9785L23.7744 13.0225L23.7012 13.0371L23.4668 13.0518H23.2617L23.2178 13.0371L23.2031 8.54004L23.2178 8.37891L23.2324 8.36426Z" fill="#6084FE"/>
<path d="M14.9561 17.2705L15.2344 17.2852L15.4688 17.3291L15.7178 17.417L15.9961 17.5635L16.0254 17.5928L16.0107 17.6514L15.0146 18.6475L14.9561 18.6182L13.96 17.6221L13.9746 17.5781L14.209 17.4463L14.4287 17.3584L14.6631 17.2998L14.9561 17.2705Z" fill="#6084FE"/>
<path d="M6.28418 11.6602H6.76758L6.78223 11.6748V13.0225L6.73828 13.0518H6.38672L6.21094 13.0225L6.06445 12.9346L5.96191 12.7881L5.93262 12.7002V11.9971L5.99121 11.8506L6.03516 11.792H6.06445V11.7627L6.21094 11.6748L6.28418 11.6602Z" fill="#6084FE"/>
<path d="M6.26953 8.36426H6.76758L6.78223 8.37891V9.72656L6.76758 9.74121H6.26953L6.12305 9.68262L6.03516 9.60938L5.96191 9.49219L5.93262 9.4043V8.70117L5.99121 8.56934L6.09375 8.45215L6.21094 8.37891L6.26953 8.36426Z" fill="#6084FE"/>
</svg>
