<svg width="30" height="30" viewBox="0 0 30 30" fill="none" xmlns="http://www.w3.org/2000/svg">
<path d="M11.792 1.04004H12.1582L12.4658 1.08398L12.876 1.18652L13.4473 1.3623L14.0479 1.55273L14.4873 1.65527L14.7803 1.69922H15.2197L15.5859 1.64062L15.9961 1.53809L16.9189 1.24512L17.3291 1.12793L17.71 1.05469L17.8418 1.04004H18.2227L18.457 1.08398L18.6768 1.15723L18.9404 1.30371L19.1309 1.4502L19.3213 1.62598L19.4678 1.77246L19.5996 1.93359L19.7168 2.08008L19.8926 2.31445L20.083 2.57812L20.2002 2.73926L20.376 2.97363L20.5225 3.16406L20.6836 3.33984L20.7715 3.44238L20.8008 3.45703V3.48633L20.8594 3.51562L20.9912 3.63281L21.2109 3.7793L21.5479 3.95508L21.9287 4.10156L22.4414 4.27734L22.9688 4.45312L23.3496 4.59961L23.584 4.7168L23.8184 4.84863L24.0527 5.03906L24.1992 5.18555L24.3457 5.39062L24.4629 5.625L24.5508 5.90332L24.6094 6.22559L24.6387 6.5625L24.668 8.04199L24.6973 8.36426L24.7559 8.68652L24.8584 8.99414L24.9756 9.24316L25.1221 9.49219L25.2832 9.72656L25.4736 9.99023L25.6787 10.2686L25.8691 10.5322L26.0889 10.8691L26.1914 11.0449L26.3379 11.3672L26.4258 11.6748L26.4551 11.8506V12.1875L26.3965 12.4805L26.3086 12.7295L26.1328 13.0957L26.001 13.3008L25.7812 13.623L25.5908 13.8867L25.5029 14.0039L25.3125 14.2676L25.0781 14.6191L24.9316 14.8828L24.8145 15.1611L24.7412 15.4102L24.6826 15.7764L24.668 15.9814L24.6533 16.9189L24.6387 17.4902L24.5947 17.915L24.5068 18.2812L24.3896 18.5596L24.2578 18.7793L24.082 18.9697L23.8916 19.1309L23.6719 19.2627L23.4229 19.3945L23.1299 19.5117L22.5879 19.7021L22.002 19.8926L21.6211 20.0391L21.2842 20.2002L21.0205 20.376L20.8301 20.5371L20.6543 20.7129L20.5225 20.874L20.3467 21.0938L20.1416 21.3721L19.9658 21.6211L19.79 21.8555L19.585 22.1191L19.4385 22.2803L19.3359 22.3975L19.2334 22.5L19.0283 22.6611L18.8232 22.793L18.6035 22.8955L18.3252 22.9688L18.208 22.9834H17.8125L17.4463 22.9248L17.0654 22.8223L16.04 22.5L15.6445 22.3975L15.3223 22.3389L15.2051 22.3242H14.7949L14.3994 22.3828L14.0039 22.4854L13.4473 22.6611L12.9785 22.8076L12.5977 22.9102L12.2754 22.9688L12.1582 22.9834H11.748L11.5137 22.9395L11.2793 22.8516L11.0449 22.7197L10.8545 22.5732L10.6348 22.3682L10.459 22.1777L10.2979 21.9727L10.0928 21.709L9.91699 21.46L9.71191 21.1816L9.58008 21.0059L9.44824 20.8447L9.27246 20.6396L9.14062 20.5078L8.93555 20.3467L8.70117 20.2002L8.4668 20.083L8.07129 19.9219L7.0166 19.5703L6.60645 19.4092L6.37207 19.292L6.19629 19.1895L6.02051 19.0576L5.87402 18.9258L5.74219 18.7793L5.61035 18.5742L5.50781 18.3398L5.43457 18.1055L5.37598 17.7539L5.34668 17.3291L5.33203 16.333L5.31738 15.9229L5.27344 15.542L5.2002 15.2344L5.09766 14.9561L4.93652 14.6484L4.79004 14.4141L4.59961 14.1504L4.45312 13.9453L4.24805 13.667L4.08691 13.4326L3.94043 13.2129L3.76465 12.9053L3.64746 12.627L3.55957 12.3193L3.53027 12.0557L3.54492 11.8213L3.60352 11.543L3.69141 11.2939L3.83789 10.9863L4.02832 10.6787L4.1748 10.4736L4.30664 10.2832L4.51172 10.0049L4.70215 9.74121L4.87793 9.47754L5.05371 9.16992L5.15625 8.93555L5.24414 8.65723L5.30273 8.30566L5.31738 8.12988L5.33203 7.71973L5.34668 6.65039L5.37598 6.26953L5.43457 5.93262L5.50781 5.68359L5.58105 5.50781L5.71289 5.28809L5.84473 5.12695L5.94727 5.02441L6.19629 4.83398L6.47461 4.67285L6.78223 4.54102L7.30957 4.35059L7.93945 4.14551L8.30566 4.01367L8.62793 3.86719L8.87695 3.7207L9.06738 3.57422L9.25781 3.39844L9.36035 3.2959L9.62402 2.97363L9.75586 2.79785L10.1367 2.27051L10.3418 2.00684L10.4004 1.91895H10.4297L10.459 1.86035L10.5908 1.71387L10.6055 1.68457H10.6348L10.6641 1.62598L10.7227 1.56738H10.752V1.53809L10.9131 1.40625L11.1182 1.25977L11.3525 1.14258L11.5869 1.06934L11.792 1.04004ZM14.707 4.2041L14.1211 4.24805L13.6963 4.30664L13.3154 4.37988L12.9053 4.48242L12.4805 4.61426L12.085 4.76074L11.6895 4.93652L11.4551 5.05371L11.1475 5.21484L10.8545 5.39062L10.5469 5.5957L10.2832 5.78613L10.0488 5.97656L9.8877 6.1084L9.65332 6.32812L9.46289 6.50391L9.22852 6.75293L9.08203 6.91406L8.9502 7.0752L8.75977 7.30957L8.58398 7.55859L8.4082 7.82227L8.21777 8.12988L8.08594 8.36426L7.9541 8.64258L7.85156 8.84766L7.67578 9.27246L7.48535 9.8584L7.35352 10.3857L7.26562 10.8545L7.20703 11.3525L7.19238 11.5869V12.4512L7.22168 12.8174L7.28027 13.2568L7.36816 13.7256L7.48535 14.1797L7.66113 14.707L7.77832 15.0146L8.0127 15.5273L8.14453 15.7764L8.33496 16.0986L8.52539 16.3916L8.70117 16.6406L8.84766 16.8311L9.03809 17.0654L9.18457 17.2266L9.28711 17.3438L9.75586 17.8125L9.91699 17.9443L10.0488 18.0615L10.2539 18.2227L10.4736 18.3838L10.708 18.5449L10.9863 18.7207L11.3525 18.9258L11.6016 19.0576L11.8945 19.1895L12.3779 19.3799L12.832 19.5264L13.2275 19.6289L13.7549 19.7314L14.1943 19.79L14.5459 19.8193L15.0732 19.834L15.4541 19.8193L16.04 19.7607L16.5674 19.6729L16.9922 19.5703L17.3584 19.4678L17.7686 19.3213L18.1934 19.1455L18.5596 18.9697L18.8818 18.7939L19.1748 18.6182L19.4971 18.3984L19.7754 18.1934L20.0098 18.0029L20.1562 17.8711L20.2734 17.7686L20.4199 17.6367L20.7422 17.3145L20.8447 17.1973L21.0205 16.9922L21.2109 16.7578L21.3867 16.5088L21.5186 16.3184L21.6943 16.04L21.8701 15.7324L22.0312 15.4248L22.2217 15L22.4121 14.4873L22.5586 13.9893L22.6758 13.4619L22.7344 13.0957L22.7783 12.7295L22.8076 12.1875V11.8506L22.7783 11.3232L22.7197 10.8252L22.6172 10.2979L22.5146 9.8877L22.3682 9.41895L22.1777 8.93555L22.002 8.55469L21.8262 8.21777L21.6357 7.89551L21.3721 7.5L21.167 7.22168L21.0352 7.06055L20.8594 6.85547L20.7275 6.70898L20.6543 6.62109H20.625L20.5957 6.5625L20.3613 6.32812L20.2441 6.22559L20.0977 6.09375L19.9365 5.96191L19.7168 5.78613L19.4531 5.5957L19.1162 5.37598L18.7646 5.1709L18.3691 4.96582L18.0176 4.80469L17.5928 4.64355L17.2412 4.52637L16.8457 4.42383L16.4502 4.33594L15.9814 4.2627L15.5127 4.21875L15.2637 4.2041H14.707Z" fill="#6084FE"/>
<path d="M14.9561 5.08301L15.4248 5.09766L15.8936 5.1416L16.4209 5.22949L16.9482 5.36133L17.3877 5.50781L17.7832 5.66895L18.208 5.87402L18.5742 6.0791L18.8672 6.26953L19.1162 6.44531L19.3213 6.60645L19.5117 6.76758L19.6289 6.87012L19.7754 7.00195L20.0977 7.32422L20.2002 7.44141L20.376 7.64648L20.5664 7.89551L20.7129 8.10059L20.874 8.34961L21.0938 8.71582L21.2109 8.9502L21.3867 9.33105L21.5332 9.71191L21.6211 9.97559L21.7383 10.4004L21.8262 10.8252L21.8994 11.3818L21.9141 11.5869V12.4365L21.8848 12.7881L21.8262 13.1982L21.7236 13.6963L21.5918 14.1504L21.4453 14.5605L21.2549 15L21.1084 15.2783L21.0205 15.4395L20.874 15.6885L20.6689 15.9961L20.4639 16.2744L20.3027 16.4648L20.2148 16.582H20.1855L20.1562 16.6406L20.0537 16.7578L19.7607 17.0508L19.6436 17.1533L19.4824 17.2998L19.3213 17.4316L19.0283 17.6514L18.6328 17.915L18.252 18.1348L17.8711 18.3252L17.4463 18.501L16.9629 18.6621L16.4355 18.7939L16.0254 18.8672L15.498 18.9258L15.2783 18.9404H14.6924L14.1504 18.8965L13.623 18.8086L13.2422 18.7207L12.8467 18.6035L12.5537 18.501L12.2021 18.3545L11.9678 18.252L11.6455 18.0762L11.4111 17.9443L11.1621 17.7832L10.9131 17.6074L10.7227 17.4609L10.5762 17.3438L10.4297 17.2119L10.3125 17.1094L10.0928 16.9043L9.99023 16.8018L9.8877 16.6846L9.69727 16.4795L9.53613 16.2744L9.38965 16.084L9.18457 15.791L9.00879 15.498L8.87695 15.2637L8.73047 14.9854L8.54004 14.5459L8.37891 14.0918L8.26172 13.667L8.15918 13.1689L8.10059 12.7295L8.07129 12.3779V11.6602L8.10059 11.2939L8.15918 10.8691L8.23242 10.5029L8.33496 10.0928L8.51074 9.56543L8.65723 9.21387L8.8916 8.73047L9.14062 8.30566L9.30176 8.07129L9.46289 7.85156L9.66797 7.58789L9.8291 7.41211L9.93164 7.29492L10.0195 7.19238H10.0488L10.0781 7.13379L10.166 7.0459H10.1953V7.0166L10.3125 6.91406L10.5029 6.73828L10.9131 6.41602L11.1035 6.28418L11.3965 6.09375L11.7041 5.91797L12.0117 5.75684L12.3047 5.625L12.6855 5.47852L13.0957 5.34668L13.5645 5.22949L13.9893 5.15625L14.3701 5.1123L14.5605 5.09766L14.9561 5.08301ZM14.9268 7.5L14.8242 7.55859L14.751 7.69043L14.4141 8.36426L14.2822 8.64258L13.8867 9.43359L13.7256 9.77051L13.5938 10.0195L13.5352 10.0781L13.3887 10.1221L12.7148 10.2246L11.3965 10.415L10.8252 10.5029L10.708 10.5615L10.6494 10.6348L10.6348 10.6787V10.8105L10.7227 10.9424L10.957 11.1768H10.9863V11.2061L11.1035 11.3086L11.5723 11.7773H11.6016L11.6162 11.8213L11.7334 11.9238L12.2168 12.4072H12.2461V12.4365L12.3633 12.5391L12.583 12.7588L12.6416 12.8613V12.9932L12.4951 13.8428L12.2607 15.2197L12.2021 15.6152L12.2461 15.7471L12.3047 15.8057L12.3779 15.835H12.4951L12.832 15.6738L13.1689 15.498L13.5791 15.2783L14.0332 15.0439L14.3555 14.8682L14.8975 14.5898L14.9414 14.5752H15.0439L15.2783 14.6777L15.6006 14.8535L16.0547 15.0879L16.377 15.2637L16.8896 15.5273L17.2119 15.7031L17.4756 15.835H17.6221L17.71 15.7764L17.7686 15.7031L17.7832 15.6738V15.4834L17.3877 13.2129L17.3584 13.0518V12.8467L17.4463 12.7148L17.666 12.5098L18.0469 12.1289L18.1641 12.0264L18.5303 11.6602L18.6475 11.5576L19.0137 11.1914L19.1309 11.0889L19.3066 10.9131L19.3652 10.8105V10.6787L19.3213 10.5908L19.248 10.5322L19.0137 10.4736L17.0801 10.1953L16.5967 10.1221L16.4355 10.0781L16.4062 10.0195L16.2305 9.68262L15.9375 9.09668L15.7764 8.75977L15.2051 7.61719L15.1465 7.54395L15.0439 7.5H14.9268Z" fill="#6084FE"/>
<path d="M22.3535 20.6836L22.3975 20.6982L22.6758 21.2988L22.9248 21.8408L23.1885 22.4121L23.3496 22.7637L23.584 23.2764L23.8623 23.877L24.126 24.4482L24.3604 24.9609L24.624 25.5322L24.8145 25.957L24.8584 26.0889L24.873 26.1621V26.3379L24.8291 26.5137L24.7412 26.6895L24.5801 26.8652L24.4336 26.9531L24.2432 27.0117H23.8623L22.2363 26.8945L22.002 26.9092L21.8262 26.9824L21.6943 27.085L21.5771 27.2168L21.416 27.4365L21.2988 27.5977L21.0938 27.876L20.9033 28.1396L20.7129 28.3887L20.6543 28.4766L20.5078 28.667L20.4785 28.7109H20.4492L20.4199 28.7695L20.2588 28.8721L20.1123 28.9307L19.8633 28.96L19.6875 28.9307L19.5117 28.8574L19.3506 28.7256L19.2334 28.5645L19.1162 28.3301L18.8965 27.8613L18.7646 27.5684L18.501 26.9971L17.2559 24.2871L17.0361 23.8037L17.0068 23.7305L17.124 23.7451L17.5049 23.8184L17.7686 23.8477H18.3252L18.6621 23.7891L18.9404 23.7012L19.2041 23.584L19.4238 23.4521L19.6582 23.2764L19.8633 23.1006L20.0391 22.9248L20.1709 22.7637L20.2881 22.6318L20.4492 22.4268L20.6543 22.1484L20.8447 21.8848L21.0498 21.6064L21.2109 21.4014L21.3867 21.2109L21.5332 21.0791L21.7383 20.9473L21.9434 20.8447L22.1631 20.7568L22.3535 20.6836Z" fill="#6084FE"/>
<path d="M7.60254 20.6982L7.69043 20.7129L7.93945 20.8008L8.20312 20.918L8.39355 21.0352L8.54004 21.1523L8.75977 21.3721L8.87695 21.5186L9.00879 21.6943L9.18457 21.9434L9.36035 22.1777L9.56543 22.4561L9.72656 22.6611L9.91699 22.8809L10.2246 23.1885L10.3857 23.3203L10.5908 23.4668L10.8545 23.6133L11.0889 23.7158L11.3965 23.8037L11.6895 23.8477H12.2314L12.5537 23.8037L12.9053 23.7305H12.9785L12.9639 23.8037L12.9053 23.9209L12.6855 24.4043L12.5684 24.668L12.4658 24.8877L12.2314 25.3857L12.0117 25.8691L11.792 26.3379L11.5723 26.8213L11.1914 27.6416L11.0156 28.0371L10.9131 28.2568L10.7812 28.5352L10.6641 28.7109L10.5469 28.8135L10.3418 28.916L10.2393 28.9453L10.0635 28.96L9.87305 28.9307L9.69727 28.8574L9.55078 28.7256L9.43359 28.5938L9.22852 28.3154L9.03809 28.0518L8.8623 27.8174L8.65723 27.5391L8.4668 27.2754L8.33496 27.1143L8.21777 27.0117L8.02734 26.9238L7.89551 26.8945H7.71973L6.12305 27.0117H5.74219L5.5957 26.9678L5.43457 26.8799L5.27344 26.7188L5.18555 26.5723L5.12695 26.3965V26.1328L5.2002 25.9131L5.47852 25.3125L5.63965 24.9609L5.90332 24.3896L6.12305 23.9062L6.40137 23.3057L6.57715 22.9248L6.81152 22.4121L7.08984 21.8115L7.28027 21.4014L7.51465 20.8887L7.60254 20.6982Z" fill="#6084FE"/>
</svg>
