<svg width="11" height="11" viewBox="0 0 11 11" fill="none" xmlns="http://www.w3.org/2000/svg">
<path d="M10.8831 4.36123L8.47269 6.7109L9.04192 10.0295C9.06669 10.1747 9.00709 10.3213 8.88791 10.408C8.82058 10.4571 8.74047 10.4819 8.66037 10.4819C8.59884 10.4819 8.53693 10.4672 8.48043 10.4374L5.5 8.87057L2.51996 10.437C2.38994 10.5059 2.23167 10.4947 2.11248 10.4076C1.99329 10.3209 1.9337 10.1743 1.95847 10.0292L2.5277 6.71052L0.116883 4.36123C0.0116274 4.2583 -0.0266824 4.10428 0.0189798 3.96459C0.0646421 3.82489 0.185763 3.72235 0.33165 3.70106L3.66306 3.21735L5.15289 0.198225C5.2833 -0.0660749 5.7167 -0.0660749 5.84711 0.198225L7.33694 3.21735L10.6684 3.70106C10.8142 3.72235 10.9354 3.82451 10.981 3.96459C11.0267 4.10467 10.9884 4.25791 10.8831 4.36123Z" fill="#CACACA"/>
</svg>
