<svg width="30" height="30" viewBox="0 0 30 30" fill="none" xmlns="http://www.w3.org/2000/svg">
<g clip-path="url(#clip0_191_488)">
<path d="M14.0039 0H16.1133V0.0146484L17.0068 0.117188L17.6953 0.219727L18.3984 0.366211L18.8672 0.483398L19.3799 0.629883L20.0098 0.834961L20.3613 0.966797L20.8301 1.15723L21.2695 1.34766L21.7822 1.59668L22.1191 1.77246L22.4561 1.96289L22.8516 2.19727L23.1738 2.40234L23.4375 2.57812L23.6865 2.75391L23.9502 2.94434L24.2139 3.14941L24.4189 3.31055L24.5801 3.44238L24.7705 3.60352L24.9902 3.79395L25.21 3.99902L25.3564 4.13086L25.8984 4.67285L26.001 4.79004L26.1328 4.92188L26.2646 5.08301L26.4258 5.25879L26.5576 5.41992L26.7188 5.61035L26.8506 5.78613L27.0557 6.0498L27.4072 6.54785L27.5537 6.76758L27.7588 7.08984L27.9492 7.39746L28.1396 7.73438L28.3447 8.11523L28.5645 8.55469L28.7988 9.08203L28.9893 9.53613L29.1504 9.97559L29.3262 10.5029L29.4727 10.9863L29.6484 11.6895L29.7803 12.3486L29.8828 13.0225L29.9707 13.8135H30V16.1572L29.9707 16.1426L29.9121 16.7285L29.8242 17.3877L29.7363 17.8857L29.6191 18.4277L29.502 18.8965L29.3848 19.3066L29.2236 19.8193L29.0332 20.3467L28.8135 20.8887L28.623 21.3135L28.4473 21.6797L28.3008 21.9727L28.1104 22.3096L27.9639 22.5732L27.7881 22.8662L27.627 23.1152L27.5244 23.2764L27.4072 23.4521L27.2314 23.7012L27.085 23.9062L26.8945 24.1553L26.7188 24.375L26.6162 24.5068L26.2646 24.917L26.1035 25.0928L26.001 25.21L25.8691 25.3418L25.7666 25.459L25.3857 25.8398L25.2686 25.9424L25.1221 26.0889L25.0049 26.1914L24.7998 26.3672L24.5801 26.5576L24.4189 26.6895L24.1699 26.8799L23.9062 27.085L23.6133 27.29L23.3643 27.4658L22.998 27.7002L22.6904 27.8906L22.3535 28.0811L22.1191 28.2129L21.7383 28.418L21.2842 28.6377L20.918 28.7988L20.4492 28.9893L20.0098 29.1504L19.4824 29.3262L18.9844 29.4727L18.2812 29.6484L17.6221 29.7803L17.0508 29.8682L16.2012 29.9707L15.9375 30H13.8867L13.8281 29.9707L12.832 29.8535L12.3047 29.7656L11.6455 29.6338L11.001 29.4727L10.3711 29.2822L9.81445 29.0918L9.25781 28.8721L8.8916 28.7109L8.37891 28.4766L8.15918 28.3594L7.9248 28.2422L7.57324 28.0518L7.20703 27.832L6.84082 27.5977L6.5332 27.3926L6.28418 27.2168L6.0791 27.0703L5.88867 26.9238L5.68359 26.7627L5.44922 26.5723L5.28809 26.4404L5.06836 26.25L4.87793 26.0742L4.73145 25.9424L4.52637 25.7373L4.40918 25.6348L4.24805 25.4736L4.14551 25.3564L3.95508 25.166V25.1367H3.92578L3.82324 25.0195L3.69141 24.873L3.55957 24.7119L3.42773 24.5654L3.2666 24.3604L3.14941 24.2139L3.00293 24.0234L2.79785 23.7451L2.60742 23.4668L2.49023 23.3057L2.34375 23.0713L2.18262 22.8223L1.96289 22.4414L1.78711 22.1338L1.61133 21.7969L1.49414 21.5625L1.28906 21.1377L1.05469 20.5811L0.893555 20.1562L0.74707 19.7461L0.571289 19.1748L0.454102 18.75L0.322266 18.1787L0.219727 17.666L0.117188 17.0068L0.0439453 16.377L0.0146484 16.0693L0 16.0547V13.9453L0.0292969 13.7695L0.117188 12.9785L0.219727 12.3193L0.366211 11.6162L0.527344 10.9717L0.688477 10.4443L0.864258 9.91699L1.08398 9.3457L1.24512 8.96484L1.43555 8.55469L1.61133 8.18848L1.78711 7.85156L1.97754 7.51465L2.19727 7.14844L2.51953 6.65039L2.68066 6.41602L2.8418 6.19629L2.98828 5.99121L3.19336 5.72754L3.38379 5.49316L3.51562 5.33203L3.69141 5.12695L3.7207 5.08301H3.75L3.7793 5.02441L3.94043 4.84863L4.04297 4.73145L4.16016 4.61426L4.2627 4.49707L4.55566 4.2041L4.67285 4.10156L4.80469 3.96973L4.92188 3.86719L5.06836 3.73535L5.18555 3.63281L5.39062 3.45703L5.5957 3.2959L5.83008 3.10547L6.00586 2.97363L6.26953 2.7832L6.51855 2.60742L6.78223 2.43164L7.03125 2.27051L7.33887 2.08008L7.64648 1.9043L7.91016 1.75781L8.33496 1.53809L8.81836 1.30371L9.30176 1.09863L9.71191 0.9375L10.21 0.761719L10.708 0.600586L11.25 0.454102L11.8652 0.307617L12.4951 0.19043L13.1982 0.0878906L14.0039 0ZM14.4141 4.46777L13.8574 4.51172L13.3008 4.58496L12.6855 4.70215L12.0557 4.86328L11.4258 5.06836L10.8984 5.27344L10.3857 5.50781L10.0928 5.6543L9.75586 5.84473L9.47754 6.00586L9.11133 6.24023L8.8623 6.41602L8.62793 6.5918L8.49609 6.69434L8.34961 6.81152L8.18848 6.94336L8.11523 6.88477L7.88086 6.65039L7.80762 6.5625L7.70508 6.47461L6.31348 5.08301L6.28418 5.12695L6.16699 6.43066L6.06445 7.54395L5.93262 8.97949L5.66895 11.8799L5.91797 11.8652L11.9092 11.3232L12.4805 11.2646L12.3926 11.1621L10.7227 9.49219H10.6934L10.708 9.41895L10.9424 9.24316L11.25 9.03809L11.5723 8.84766L11.9092 8.67188L12.1875 8.54004L12.5977 8.37891L13.0518 8.23242L13.4033 8.14453L13.8428 8.05664L14.2969 7.99805L14.7217 7.96875H15.249L15.791 8.0127L16.3037 8.08594L16.7578 8.18848L17.124 8.29102L17.5342 8.4375L17.915 8.59863L18.1934 8.73047L18.5156 8.90625L18.8232 9.09668L19.0576 9.25781L19.2334 9.38965L19.4385 9.55078L19.6289 9.71191L19.9805 10.0342L20.0098 10.0781H20.0391L20.0684 10.1367L20.2148 10.2832L20.3467 10.4443L20.4639 10.5762L20.6836 10.8691L20.8887 11.1621L21.123 11.5576L21.3281 11.9531L21.4453 12.2021L21.6064 12.6123L21.7529 13.0664L21.8555 13.4766L21.9434 13.96L22.002 14.4727L22.0166 14.7656V15.2051L21.9873 15.6885L21.9287 16.1279L21.8262 16.6553L21.6797 17.168L21.5332 17.5781L21.4014 17.8857L21.2256 18.252L21.1084 18.4717L20.9326 18.7646L20.8154 18.9404L20.6396 19.1895L20.4785 19.3945L20.3467 19.5557L20.2148 19.7021L20.1123 19.8193L19.9805 19.9512V19.9805L19.9219 20.0098L19.7314 20.2002L19.6143 20.3027L19.4385 20.4492L19.248 20.5957L18.9697 20.8008L18.7354 20.9473L18.4424 21.123L18.0469 21.3281L17.7686 21.46L17.3877 21.6064L17.0361 21.7236L16.6553 21.8262L16.2305 21.9141L15.835 21.9727L15.3369 22.0166H14.6191L14.2236 21.9873L13.7402 21.9141L13.4473 21.8555L12.9785 21.7383L12.4658 21.5625L12.085 21.4014L11.6895 21.2109L11.3379 21.0059L11.0596 20.8301L10.8105 20.6543L10.6055 20.4932L10.415 20.332L10.2979 20.2295L10.1514 20.0977L9.78516 19.7314L9.68262 19.6143L9.52148 19.4238L9.33105 19.1748L9.18457 18.9697L8.99414 18.6768L8.77441 18.2959L8.61328 17.9736L8.4375 17.5635L8.30566 17.1973L8.18848 16.7871L8.08594 16.3477L8.02734 15.9961L7.9834 15.6445L7.96875 15.6299H4.46777L4.48242 15.8936L4.54102 16.4355L4.62891 16.9775L4.76074 17.5781L4.89258 18.0469L5.06836 18.5742L5.22949 18.999L5.39062 19.3652L5.56641 19.7461L5.83008 20.2295L5.97656 20.4785L6.15234 20.7568L6.34277 21.0352L6.5332 21.2988L6.73828 21.5625L6.87012 21.7236L7.0459 21.9287L7.20703 22.1045L7.30957 22.2217L7.82227 22.7344L7.93945 22.8369L8.10059 22.9834L8.26172 23.1152L8.49609 23.3057L8.68652 23.4521L8.8916 23.5986L9.22852 23.833L9.60938 24.0674L10.1367 24.3604L10.5469 24.5654L10.8545 24.6973L11.25 24.8584L11.8945 25.0781L12.3633 25.21L12.876 25.3271L13.374 25.415L13.8135 25.4736L14.3555 25.5176L14.6045 25.5322H15.3955L16.0254 25.4883L16.626 25.415L17.1094 25.3271L17.7246 25.1807L18.1201 25.0635L18.6475 24.8877L19.0576 24.7266L19.4531 24.5508L20.0098 24.2725L20.3174 24.0967L20.6104 23.9209L20.874 23.7451L21.1084 23.584L21.3428 23.4082L21.5332 23.2617L21.6943 23.1299L21.8848 22.9688L22.1045 22.7783L22.2656 22.6172L22.3828 22.5146L22.6172 22.2803V22.251H22.6465L22.749 22.1338L22.9102 21.958L23.0127 21.8408L23.1738 21.6504L23.3643 21.4014L23.5254 21.1963L23.7158 20.918L23.8623 20.6982L24.082 20.3467L24.3164 19.9219L24.5654 19.4238L24.7852 18.9111L24.9463 18.4717L25.1221 17.9297L25.2979 17.2266L25.3711 16.8311L25.4297 16.4648L25.4883 15.9521L25.5176 15.542L25.5322 14.9561L25.5176 14.458L25.4736 13.8867L25.4004 13.3301L25.3271 12.9199L25.1953 12.3486L25.0928 11.9824L24.9756 11.6162L24.8145 11.1621L24.624 10.708L24.3896 10.2246L24.1846 9.8291L24.0381 9.58008L23.8477 9.27246L23.6279 8.9502L23.4814 8.74512L23.335 8.55469L23.1299 8.29102L22.9834 8.12988L22.8516 7.96875L22.6465 7.74902L22.5439 7.64648L22.5293 7.61719H22.5L22.4707 7.55859L22.3535 7.44141L22.2363 7.33887L22.1045 7.20703L21.9873 7.10449L21.7822 6.92871L21.5479 6.73828L21.3428 6.57715L21.0791 6.38672L20.8887 6.25488L20.6396 6.09375L20.332 5.90332L19.9658 5.69824L19.541 5.47852L19.043 5.25879L18.5449 5.06836L18.0615 4.90723L17.5342 4.76074L16.9189 4.62891L16.3477 4.54102L15.9521 4.49707L15.4834 4.46777H14.4141Z" fill="#6084FE"/>
</g>
<defs>
<clipPath id="clip0_191_488">
<rect width="30" height="30" fill="white"/>
</clipPath>
</defs>
</svg>
