<svg width="38" height="35" viewBox="0 0 38 35" fill="none" xmlns="http://www.w3.org/2000/svg">
<g filter="url(#filter0_d_187_210)">
<g clip-path="url(#clip0_187_210)">
<path d="M5.33301 0.474609H32.6523L32.8574 0.500977L33.1211 0.580078L33.3555 0.69873L33.5166 0.817383L33.6631 0.949219L33.7949 1.12061L33.9121 1.33154L33.9854 1.5293L34 1.54248V19.1689H33.9707L33.9121 19.3403L33.7949 19.5513L33.6777 19.7095L33.5166 19.8677L33.3115 19.9995L33.0771 20.105L32.8428 20.1709L32.667 20.1973L32.418 20.2104H5.66992L5.31836 20.1973L5.06934 20.1577L4.87891 20.0918L4.65918 19.9863L4.5127 19.8809L4.32227 19.7095L4.19043 19.5381L4.08789 19.3535L4 19.1162V1.5293H4.0293L4.05859 1.39746L4.13184 1.23926L4.23438 1.06787L4.36621 0.922852L4.4541 0.830566L4.60059 0.725098L4.79102 0.619629L4.98145 0.540527L5.20117 0.487793L5.33301 0.474609ZM17.667 2.83447L17.4766 2.86084L17.3447 2.93994L17.2715 3.00586L17.1982 3.11133L17.1104 3.38818L16.8613 4.31104L16.7295 4.77246L16.6709 4.81201L16.3047 4.93066L16.2021 4.94385L15.792 4.71973L15.499 4.56152L15.0889 4.3374L14.7227 4.13965L14.5762 4.07373L14.4736 4.04736H14.3564L14.21 4.08691L14.0928 4.15283L13.9463 4.27148L12.9795 5.1416V5.16797L12.9209 5.19434L12.6865 5.40527V5.43164L12.6279 5.45801V5.48438L12.5693 5.51074L12.5107 5.56348V5.58984L12.4521 5.61621L12.335 5.72168V5.74805L12.2764 5.77441V5.80078L12.2178 5.82715L12.1152 5.93262L12.0273 6.09082L12.0127 6.24902L12.0713 6.42041L12.2324 6.6709L12.3936 6.9082L12.6426 7.27734L12.877 7.6333L12.9795 7.77832L13.0088 7.83105L12.9941 7.91016L12.877 8.18701L12.8184 8.29248L11.998 8.47705L11.1484 8.66162L10.9727 8.71436L10.8555 8.78027L10.7529 8.87256L10.6797 9.01758L10.665 9.10986V11.5752L10.6943 11.707L10.7676 11.8125L10.8408 11.8916L11.0459 11.9839L12.8184 12.3794L12.8623 12.4189L12.9795 12.7354L13.0088 12.8013V12.8672L12.9062 12.999L12.7744 13.21L12.6279 13.4209L12.4814 13.645L12.2471 13.9878L12.0859 14.2383L12.0273 14.3701L12.0127 14.502L12.042 14.6206L12.1152 14.7393L12.2471 14.8711L14.0781 16.519L14.1953 16.585L14.2979 16.6113L14.4297 16.6245L14.5762 16.5981L14.7812 16.5059L15.1182 16.3213L15.4111 16.1631L15.6748 16.0181L16.085 15.7939L16.2021 15.728L16.334 15.7544L16.7002 15.8862L16.7441 15.9521L17.1104 17.2837L17.1836 17.5342L17.2715 17.6792L17.374 17.7583L17.4912 17.811L17.6084 17.8374H20.4062L20.582 17.7847L20.7139 17.6924L20.8018 17.5605L20.875 17.3364L21.1533 16.3213L21.2412 15.9917L21.2852 15.9258L21.5049 15.8071L21.71 15.728L21.8125 15.7412L22.3984 16.0576L22.8086 16.2817L23.3213 16.5586L23.4678 16.6113L23.6436 16.6245L23.79 16.585L23.9072 16.519L24.0537 16.4004L25.8555 14.7788L25.9434 14.647L25.9727 14.5811L25.9873 14.4492L25.9434 14.291L25.8262 14.0933L25.665 13.856L25.416 13.4868L25.0205 12.8936L24.9912 12.854L25.0059 12.7617L25.1084 12.5376L25.2109 12.4058V12.3794L25.3574 12.3398L26.9541 11.9839L27.1299 11.9048L27.1738 11.8784V11.8521H27.2031L27.291 11.7334L27.3203 11.6411L27.335 11.3247V9.53174L27.3203 9.03076L27.2617 8.89893L27.1885 8.80664L27.0273 8.71436L26.7197 8.63525L25.5771 8.38477L25.1816 8.29248L25.123 8.18701L24.9912 7.87061L25.0059 7.7915L25.1377 7.60693L25.3135 7.34326L25.5625 6.97412L25.7822 6.64453L25.9287 6.42041L25.9727 6.31494L25.9873 6.19629L25.958 6.05127L25.8555 5.89307L23.9365 4.16602L23.79 4.08691L23.6436 4.04736L23.4531 4.06055L23.2188 4.16602L22.8672 4.36377L22.5449 4.53516L22.252 4.69336L21.9883 4.83838L21.7686 4.95703L21.5342 4.87793L21.2852 4.78564L21.2412 4.66699L20.8311 3.19043L20.7578 3.03223L20.6846 2.95312L20.5381 2.87402L20.4648 2.84766L20.377 2.83447H17.667Z" fill="#6084FE"/>
<path d="M18.1064 3.74414L19.9229 3.75732L19.9521 3.78369L20.1426 4.49561L20.3477 5.23389L20.4209 5.39209L20.4941 5.47119L20.6406 5.55029L21.1387 5.72168L21.5928 5.90625L21.666 5.93262H21.8857L22.0615 5.8667L22.3838 5.69531L22.7939 5.47119L23.1602 5.27344L23.4678 5.10205L23.541 5.11523L24.8154 6.26221L24.8008 6.34131L24.6836 6.5127L24.5078 6.77637L24.3027 7.07959L23.9951 7.54102L23.9219 7.67285L23.8926 7.77832V7.89697L23.9512 8.06836L24.0977 8.34521L24.2441 8.68799L24.332 8.88574L24.4199 9.00439L24.5518 9.0835L24.7715 9.14941L25.958 9.41309L26.2656 9.479L26.3096 9.50537V11.1797L24.6689 11.5488L24.4932 11.6147L24.4053 11.6807L24.3174 11.8125L24.1416 12.2344L24.0098 12.498L23.9219 12.6694L23.8926 12.7749V12.9199L23.9512 13.0781L24.127 13.3418L24.376 13.7109L24.5518 13.9746L24.8008 14.3438L24.8154 14.4229L24.7568 14.4492L24.7275 14.502L23.5557 15.5566H23.5264V15.583L23.4678 15.5698L23.2773 15.4644L22.8086 15.2139L22.501 15.0425L22.0908 14.8184L21.9297 14.7524L21.8564 14.7393H21.6953L21.4902 14.8052L21.2119 14.9238L20.8018 15.0688L20.6113 15.1348L20.4795 15.2139L20.3916 15.3325L20.3037 15.5962L20.04 16.5586L19.9521 16.875L19.9229 16.9146H18.0771L18.0332 16.8223L17.6523 15.4512L17.5791 15.2798L17.4912 15.1875L17.2568 15.082L16.9639 14.9897L16.3633 14.7524L16.3047 14.7393H16.1289L15.9678 14.792L15.7627 14.8975L15.3525 15.1216L15.0596 15.2798L14.7227 15.4644L14.5322 15.5698L14.4443 15.5566L14.3418 15.4512L14.2686 15.3984L14.1807 15.3062L14.0928 15.2402L14.0049 15.1479L13.917 15.082L13.8291 14.9897L13.7412 14.9238L13.6533 14.8315L13.5654 14.7656L13.4629 14.6602L13.3896 14.6074L13.3018 14.5151L13.2139 14.4492V14.4229H13.1846L13.1992 14.3306L13.3311 14.146L13.5801 13.7769L13.7559 13.5132L14.0049 13.144L14.0781 13.0122L14.1074 12.9199V12.7617L14.0342 12.5771L13.917 12.3662L13.7559 11.9971L13.6387 11.7334L13.5654 11.6543L13.4482 11.5884L13.2139 11.5225L11.793 11.2061L11.7051 11.1797L11.6758 11.1138V9.53174L11.7344 9.479L12.877 9.22852L13.3311 9.12305L13.4775 9.07031L13.5947 8.99121L13.6826 8.85938L13.8584 8.4375L13.9902 8.17383L14.0781 8.00244L14.1074 7.89697V7.75195L14.0342 7.58057L13.7852 7.21143L13.5068 6.78955L13.2578 6.42041L13.1846 6.31494L13.1992 6.24902L13.2285 6.20947H13.2578V6.18311L13.375 6.09082L13.4629 5.99854L13.5654 5.91943L13.6387 5.84033L13.7412 5.76123L13.8145 5.68213L13.917 5.60303L13.9902 5.52393L14.0928 5.44482L14.166 5.36572H14.1953L14.2246 5.31299L14.3125 5.24707L14.3418 5.20752H14.3711L14.4004 5.15479H14.4297L14.459 5.10205L14.5469 5.11523L14.957 5.33936L15.543 5.65576L15.9531 5.87988L16.1143 5.93262H16.3047L16.5098 5.8667L16.8174 5.73486L17.3887 5.53711L17.5205 5.45801L17.6084 5.33936L17.6816 5.12842L18.0479 3.79688L18.0625 3.75732L18.1064 3.74414ZM18.751 7.27734L18.3994 7.31689L18.0771 7.38281L17.7256 7.48828L17.3594 7.64648L17.0957 7.7915L16.8613 7.94971L16.6855 8.09473L16.5391 8.21338L16.3486 8.41113L16.1436 8.66162L15.9824 8.91211L15.8506 9.1626L15.7041 9.55811L15.6455 9.79541L15.6016 10.0986V10.5864L15.6602 10.9424L15.7188 11.1665L15.8359 11.4829L15.9531 11.7202L16.1289 11.9971L16.2754 12.1816L16.4658 12.3926L16.7441 12.6431L16.9492 12.7881L17.1543 12.9199L17.374 13.0386L17.7256 13.1836L18.1211 13.3022L18.3994 13.355L18.7217 13.3945H19.293L19.6738 13.3418L20.0254 13.2627L20.333 13.1572L20.6699 13.0122L20.9482 12.854L21.1387 12.7222L21.2852 12.6035L21.4023 12.5112L21.5195 12.4058L21.6514 12.2607L21.666 12.2212H21.6953L21.8271 12.0498L21.9443 11.8784L22.1201 11.5752L22.2373 11.2983L22.3252 11.0083L22.3838 10.6919L22.3984 10.5469V10.1514L22.3545 9.82178L22.2666 9.479L22.1494 9.17578L21.959 8.81982L21.7832 8.56934L21.6221 8.38477L21.4463 8.2002L21.2266 8.01562L21.0215 7.87061L20.8018 7.73877L20.582 7.62012L20.2598 7.48828L19.9082 7.38281L19.5859 7.31689L19.2344 7.27734H18.751Z" fill="#6084FE"/>
<path d="M13.4043 24.5874H24.5811L24.5957 24.6533V26.4858L24.5811 26.5122L13.4482 26.5254L13.4043 26.5122V24.5874Z" fill="#6084FE"/>
<path d="M18.8682 8.18701H19.1025L19.3955 8.21338L19.7031 8.2793L19.9961 8.38477L20.2012 8.47705L20.377 8.58252L20.5088 8.6748L20.6553 8.79346L20.8164 8.93848L20.9629 9.10986L21.0801 9.28125L21.1973 9.49219L21.2852 9.70312L21.3584 9.99316L21.3877 10.2041V10.4678L21.3438 10.7578L21.2705 11.0083L21.1533 11.272L21.0215 11.4829L20.875 11.6675L20.6992 11.8521L20.5381 11.9839L20.3184 12.1289L20.1279 12.2344L19.8643 12.3398L19.6445 12.4058L19.293 12.4717L19.1758 12.4849H18.8096L18.5166 12.4453L18.2969 12.3926L17.9893 12.2871L17.7402 12.1685L17.5352 12.0366L17.3154 11.8652L17.1543 11.707L16.9932 11.5093L16.8613 11.2983L16.7588 11.0874L16.6855 10.8765L16.627 10.626L16.6123 10.5205V10.1646L16.6562 9.90088L16.7441 9.62402L16.8613 9.37354L16.9785 9.18896L17.125 9.00439L17.3008 8.81982L17.4766 8.6748L17.7402 8.50342L18.0479 8.3584L18.4434 8.23975L18.7217 8.2002L18.8682 8.18701Z" fill="#6084FE"/>
<path d="M17.2129 21.1201H20.6846L20.8018 21.1333L20.8164 21.1729L20.8896 22.2803L20.9775 23.5063V23.6514L20.9189 23.6646H17.0664L17.0225 23.6514V23.4536L17.1836 21.1465L17.2129 21.1201Z" fill="#6084FE"/>
</g>
</g>
<defs>
<filter id="filter0_d_187_210" x="0" y="0" width="38" height="35" filterUnits="userSpaceOnUse" color-interpolation-filters="sRGB">
<feFlood flood-opacity="0" result="BackgroundImageFix"/>
<feColorMatrix in="SourceAlpha" type="matrix" values="0 0 0 0 0 0 0 0 0 0 0 0 0 0 0 0 0 0 127 0" result="hardAlpha"/>
<feOffset dy="4"/>
<feGaussianBlur stdDeviation="2"/>
<feComposite in2="hardAlpha" operator="out"/>
<feColorMatrix type="matrix" values="0 0 0 0 0 0 0 0 0 0 0 0 0 0 0 0 0 0 0.25 0"/>
<feBlend mode="normal" in2="BackgroundImageFix" result="effect1_dropShadow_187_210"/>
<feBlend mode="normal" in="SourceGraphic" in2="effect1_dropShadow_187_210" result="shape"/>
</filter>
<clipPath id="clip0_187_210">
<rect width="30" height="27" fill="white" transform="translate(4)"/>
</clipPath>
</defs>
</svg>
