<svg width="30" height="30" viewBox="0 0 30 30" fill="none" xmlns="http://www.w3.org/2000/svg">
<path d="M4.43848 0H6.21094L6.22559 0.0878906V3.13477L6.21094 3.50098H7.93945L7.9834 3.53027V9.02344L7.96875 10.0049L7.9248 10.3125L7.85156 10.6055L7.76367 10.8252L7.64648 11.0742L7.54395 11.2354L7.39746 11.4404L7.22168 11.6309L7.06055 11.792L6.87012 11.9385L6.60645 12.0996L6.37207 12.2168L6.22559 12.2607V13.2275L6.24023 13.5205L6.28418 13.8428L6.35742 14.1211L6.47461 14.4141L6.60645 14.6631L6.76758 14.8975L6.94336 15.1025L7.08984 15.249L7.33887 15.4395L7.54395 15.5713L7.77832 15.6885L8.04199 15.791L8.34961 15.8643L8.67188 15.9082L9.21387 15.9375L9.66797 15.9961L10.0342 16.084L10.2832 16.1572L10.708 16.333L11.0449 16.5088L11.3232 16.6846L11.4697 16.7871L11.4551 12.2754L11.1914 12.1582L10.957 12.0264L10.752 11.8799L10.5615 11.7188L10.3711 11.5283L10.21 11.3232L10.0635 11.1035L9.8877 10.7373L9.7998 10.459L9.74121 10.1807L9.71191 9.8291V3.53027L9.74121 3.50098H11.4697V0H13.2422L13.2568 0.0878906V3.14941L13.2422 3.50098H14.9707L15.0146 3.53027V8.45215L15 10.0049L14.9561 10.3125L14.8828 10.6055L14.7949 10.8252L14.6777 11.0742L14.5752 11.2354L14.4287 11.4404L14.2529 11.6309L14.0918 11.792L13.9014 11.9385L13.6377 12.0996L13.3301 12.2461L13.2568 12.2607V19.4971L13.374 19.3945L13.5059 19.2627L13.667 19.1309L13.8428 18.9844L14.1211 18.7793L14.4141 18.5889L14.6924 18.4277L15 18.2666L15.3369 18.1201L15.7324 17.9736L16.1572 17.8564L16.5674 17.7686L16.9922 17.71L17.4023 17.6807H17.8564L18.2666 17.71L18.7061 17.7686L19.1162 17.8564L19.5264 17.9736L19.8926 18.1055L20.2295 18.252L20.5078 18.3838L20.8594 18.5889L21.167 18.7939L21.4453 18.999L21.6504 19.1748L21.8115 19.3066L22.002 19.4971V12.2754L21.709 12.1436L21.416 11.9678L21.2109 11.8066L21.0645 11.6748L20.9326 11.543L20.8008 11.3818L20.6689 11.1914L20.5371 10.957L20.4199 10.6934L20.3906 10.6787L18.5156 10.6641L18.501 10.6494V5.28809L18.5303 5.25879H27.2754L27.3193 5.28809V10.6348L27.3047 10.6641L25.4004 10.6787L25.2979 10.9277L25.1221 11.2354L24.9609 11.4551L24.7852 11.6455L24.6533 11.7773L24.4629 11.9238L24.2578 12.0557L23.9502 12.2168L23.8037 12.2607V23.4521L23.7891 24.2139L23.7598 24.5654L23.7012 24.9609L23.6133 25.3711L23.4961 25.7812L23.3496 26.1768L23.1592 26.6016L23.0127 26.8799L22.8076 27.2168L22.6318 27.4658L22.4854 27.6562L22.3535 27.8174L22.1777 28.0225L21.7676 28.4326L21.6064 28.5645L21.4307 28.7109L21.167 28.9014L20.874 29.0918L20.5664 29.2676L20.1855 29.458L19.79 29.6191L19.3359 29.7656L18.9111 29.8682L18.4131 29.9561L18.1348 30H17.0068L16.9629 29.9707L16.4355 29.8828L16.04 29.7949L15.6592 29.6777L15.293 29.5459L14.9414 29.3848L14.707 29.2676L14.4434 29.1211L14.0479 28.8574L13.8135 28.6816L13.6523 28.5498L13.4326 28.3594L13.0664 27.9932L12.9639 27.876L12.7588 27.627L12.5684 27.3633L12.4219 27.1436L12.29 26.9238L12.1436 26.6602L11.9824 26.3232L11.8213 25.9131L11.7041 25.5469L11.6016 25.1367L11.5283 24.7119L11.4844 24.2871L11.4697 24.0088L11.4551 20.1855L11.4258 19.8926L11.3379 19.5264L11.2354 19.2627L11.1182 19.0283L11.0303 18.8818L10.8838 18.6768L10.708 18.4863L10.5762 18.3545L10.3271 18.1641L10.0488 18.0029L9.7998 17.8857L9.52148 17.7979L9.22852 17.7393L8.8623 17.71L8.37891 17.6807L7.9834 17.6221L7.57324 17.5195L7.23633 17.4023L6.94336 17.2705L6.60645 17.0947L6.25488 16.8604L6.0498 16.6992L5.87402 16.5381L5.75684 16.4355L5.63965 16.3184V16.2891H5.61035L5.50781 16.1719L5.36133 15.9961L5.1709 15.7324L4.99512 15.4395L4.84863 15.1611L4.73145 14.8828L4.59961 14.4873L4.52637 14.1797L4.46777 13.8135L4.43848 13.418L4.42383 12.2754L4.16016 12.1582L3.92578 12.0264L3.7207 11.8799L3.53027 11.7188L3.33984 11.5283L3.17871 11.3232L3.01758 11.0742L2.85645 10.7373L2.76855 10.459L2.70996 10.1807L2.68066 9.84375V3.53027L2.70996 3.50098H4.43848V0ZM17.5195 19.4531L17.1094 19.4824L16.8164 19.5264L16.4502 19.6143L16.1279 19.7168L15.7471 19.8779L15.4395 20.0391L15.1611 20.2148L14.9707 20.3613L14.7363 20.5518L14.6484 20.625V20.6543L14.5898 20.6836L14.4434 20.8301L14.3408 20.9473L14.1797 21.1377L14.0625 21.2988L13.8867 21.5625L13.7402 21.8262L13.623 22.0605L13.4766 22.4414L13.374 22.7783L13.3008 23.1445L13.2568 23.5547V24.1113L13.3008 24.5801L13.3301 24.6387L13.374 24.5215L13.4912 24.1406L13.6377 23.7744L13.7842 23.4814L13.9893 23.1445L14.1064 22.9834L14.2969 22.749L14.3994 22.6318L14.5752 22.4414L14.7363 22.2949L14.8975 22.1631L15.1758 21.958L15.542 21.7383L15.9375 21.5479L16.2012 21.4453L16.5527 21.3428L16.9043 21.2695L17.2412 21.2256L17.4756 21.2109H17.7832L18.1641 21.2402L18.5303 21.2988L18.8232 21.3721L19.2627 21.5186L19.6436 21.6943L19.9072 21.8408L20.1709 22.0166L20.4199 22.207L20.5811 22.3535L20.6982 22.4561L20.9033 22.6611L21.0352 22.8223L21.2402 23.0859L21.3428 23.2471L21.4893 23.4961L21.6064 23.7158L21.7529 24.0674L21.8701 24.4189L21.9287 24.624L21.958 24.6387L22.0166 24.1113V23.584L21.9727 23.1738L21.8994 22.8076L21.8115 22.4854L21.665 22.1045L21.4746 21.709L21.2842 21.4014L21.1084 21.1523L20.918 20.9326L20.7861 20.7861L20.625 20.625L20.5078 20.5225L20.3174 20.3613L20.0391 20.1709L19.7461 19.9951L19.4678 19.8486L19.0576 19.6875L18.7061 19.585L18.3545 19.5117L17.9883 19.4678L17.7246 19.4531H17.5195ZM17.3584 22.9834L17.0801 23.0273L16.7725 23.1152L16.582 23.1885L16.3477 23.3057L16.0986 23.4668L15.9375 23.5986L15.791 23.7305L15.7031 23.8184V23.8477L15.6592 23.8623L15.4688 24.1113L15.3516 24.3018L15.2344 24.5215L15.1318 24.7852L15.0439 25.1367L15.0146 25.3857V25.8398L15.0732 26.2061L15.1465 26.4551L15.2783 26.7627L15.3955 26.9824L15.542 27.1875L15.6738 27.3486L15.791 27.4805L15.9082 27.583L16.1279 27.7588L16.3623 27.9053L16.6992 28.0664L16.9775 28.1543L17.2705 28.2129L17.4902 28.2275H17.7686L18.1055 28.1982L18.4424 28.1104L18.7354 27.9932L18.9844 27.8613L19.2334 27.6855L19.4238 27.5244L19.6143 27.334L19.7754 27.1289L19.9219 26.8945L20.0391 26.6748L20.1416 26.4111L20.2148 26.1328L20.2588 25.8105V25.415L20.2148 25.0928L20.127 24.7559L20.0391 24.5361L19.9219 24.3018L19.7754 24.0674L19.6582 23.9209L19.5264 23.7744L19.3652 23.6133L19.1748 23.4668L18.9551 23.3203L18.5889 23.1445L18.3691 23.0713L18.0029 22.998L17.9004 22.9834H17.3584Z" fill="#6084FE"/>
<path d="M20.2734 0H25.5469L25.5615 0.102539V3.48633L25.5469 3.51562H20.2734L20.2588 3.50098V0.0146484L20.2734 0Z" fill="#6084FE"/>
</svg>
