<svg width="30" height="30" viewBox="0 0 30 30" fill="none" xmlns="http://www.w3.org/2000/svg">
<g clip-path="url(#clip0_225_392)">
<path d="M10.5469 0H11.9824V0.0146484L12.7441 0.102539L13.2861 0.19043L13.8428 0.307617L14.3848 0.454102L14.9268 0.629883L15.4688 0.834961L15.9375 1.04004L16.1719 1.15723L16.5674 1.3623L16.9189 1.56738L17.2705 1.78711L17.4902 1.93359L17.7393 2.10938L17.9883 2.2998L18.1934 2.46094L18.6035 2.8125L18.7939 2.98828L18.8965 3.09082L19.0137 3.19336L19.1602 3.33984L19.2627 3.45703L19.4238 3.61816L19.5264 3.73535L19.6582 3.88184L19.79 4.04297L19.9951 4.29199L20.1709 4.52637L20.3613 4.79004L20.5664 5.09766L20.7422 5.37598L20.8887 5.625L21.0205 5.85938L21.2256 6.25488L21.4014 6.62109L21.5918 7.0752L21.7529 7.51465L21.9141 8.0127L22.0312 8.4375L22.1631 9.03809L22.2656 9.65332L22.3242 10.1807L22.3535 10.5762L22.3682 10.9424V11.5283L22.3389 12.0557L22.2949 12.5537L22.2217 13.0811L22.1191 13.6377L22.002 14.1357L21.8262 14.7363L21.6797 15.1611L21.46 15.7031L21.2842 16.084L21.0645 16.5234L20.874 16.8604L20.6836 17.168L20.5225 17.417L20.3467 17.6807L20.332 17.7246L20.5664 17.9443L20.7275 18.0762L20.918 18.252L21.0352 18.3545L21.2402 18.5303L21.4453 18.7207L21.6064 18.8525L21.8262 19.0576L21.9873 19.1895L22.1777 19.3652L22.2949 19.4678L22.4414 19.5996L22.5586 19.7021L22.7637 19.8779L22.9395 20.0391L23.0566 20.1416L23.2031 20.2734L23.3203 20.376L23.5254 20.5518L23.6865 20.6982L23.8037 20.8008L23.9502 20.9326L24.0674 21.0352L24.2725 21.2109L24.4629 21.3867L24.624 21.5186L24.8291 21.709L24.9463 21.8115L25.0928 21.9434L25.2539 22.0752L25.459 22.2656L25.5762 22.3682L25.7812 22.5439L25.957 22.7051L26.0742 22.8076L26.2793 22.9834L26.4551 23.1445L26.5723 23.2471L26.7188 23.3789L26.8359 23.4814L27.041 23.6572L27.2168 23.8184L27.3779 23.9502L27.5977 24.1553L27.7588 24.2871L27.9785 24.4922L28.1396 24.624L28.3447 24.8145L28.4619 24.917L28.6084 25.0488L28.7695 25.1807L28.9746 25.3711L29.0918 25.4736L29.2822 25.6494L29.4141 25.7959L29.5898 26.0449L29.707 26.25L29.8096 26.4697L29.9121 26.7773L29.9707 27.0117H30V27.8467L29.9707 27.876L29.9121 28.125L29.8096 28.4326L29.6924 28.667L29.5752 28.8721L29.4434 29.0479L29.3115 29.1943L29.2236 29.2969L29.1064 29.3994L28.916 29.5459L28.6816 29.6924L28.4473 29.8096L28.1982 29.8975L27.9346 29.9707L27.8174 30H27.041L26.7773 29.9268L26.4697 29.8242L26.2354 29.707L26.0303 29.5898L25.8398 29.4434L25.6641 29.2822L25.4443 29.0625L25.3418 28.9453L25.166 28.7402L24.9756 28.5352L24.873 28.418L24.6973 28.2129L24.5068 28.0078L24.4043 27.8906L24.2285 27.6855L24.0381 27.4805L23.9355 27.3633L23.7598 27.1582L23.5693 26.9531L23.4668 26.8359L23.291 26.6309L23.1006 26.4258L22.9688 26.2646L22.7637 26.0449L22.6611 25.9277L22.5293 25.7812L22.3975 25.6201L22.1777 25.3857L22.0752 25.2686L21.8994 25.0635L21.7236 24.873L21.6211 24.7559L21.4307 24.5361L21.2549 24.3457L21.1523 24.2285L20.9619 24.0088L20.7861 23.8184L20.6836 23.7012L20.5078 23.4961L20.3174 23.291L20.2148 23.1738L20.0391 22.9688L19.8486 22.7637L19.7461 22.6465L19.5703 22.4414L19.3799 22.2363L19.2773 22.1191L19.1016 21.9141L18.9258 21.7236L18.8232 21.6064L18.6475 21.4014L18.457 21.1963L18.3545 21.0791L18.1787 20.874L17.9883 20.6689L17.8857 20.5518L17.7539 20.4053L17.7393 20.376L17.666 20.3906L17.5195 20.4932L17.1973 20.6982L16.9043 20.874L16.4795 21.1084L16.1426 21.2842L15.6152 21.5186L15.2197 21.6797L14.6777 21.8701L14.1797 22.0166L13.6377 22.1484L13.125 22.251L12.6123 22.3242L12.0264 22.3828L11.543 22.4121H10.8838L10.3564 22.3828L9.8877 22.3389L9.375 22.2656L8.81836 22.1631L8.32031 22.0459L7.77832 21.8848L7.26562 21.709L6.82617 21.5332L6.34277 21.3135L5.93262 21.1084L5.5957 20.918L5.34668 20.7715L5.00977 20.5518L4.83398 20.4346L4.57031 20.2441L4.33594 20.0684L4.10156 19.8779L3.94043 19.7461L3.76465 19.585L3.64746 19.4824L3.50098 19.3506L2.94434 18.7939L2.8418 18.6768L2.49023 18.2666L2.3291 18.0615L2.10938 17.7686L1.875 17.4316L1.66992 17.1094L1.49414 16.8164L1.25977 16.3916L1.04004 15.9521L0.849609 15.5127L0.629883 14.9414L0.46875 14.4434L0.307617 13.8428L0.205078 13.3594L0.117188 12.8467L0.0439453 12.2607L0.0146484 11.9531H0V10.4883L0.0292969 10.3125L0.0878906 9.78516L0.161133 9.27246L0.27832 8.68652L0.424805 8.11523L0.556641 7.69043L0.65918 7.38281L0.834961 6.92871L1.02539 6.48926L1.18652 6.15234L1.33301 5.87402L1.53809 5.50781L1.72852 5.2002L1.83105 5.03906L1.96289 4.84863L2.12402 4.61426L2.25586 4.43848L2.46094 4.1748L2.62207 3.98438L2.75391 3.82324L2.94434 3.61816L2.95898 3.58887H2.98828L3.01758 3.53027L3.2373 3.31055L3.31055 3.22266L3.42773 3.12012L3.57422 2.97363H3.60352V2.94434L3.7207 2.8418L3.94043 2.65137L4.13086 2.49023L4.32129 2.34375L4.57031 2.15332L4.86328 1.94824L5.1709 1.74316L5.47852 1.55273L5.84473 1.34766L6.24023 1.14258L6.60645 0.966797L7.10449 0.761719L7.63184 0.571289L8.05664 0.439453L8.61328 0.292969L9.18457 0.175781L9.8584 0.0732422L10.5469 0ZM11.0449 2.8125L10.6641 2.82715L10.1807 2.87109L9.69727 2.94434L9.15527 3.06152L8.64258 3.20801L8.26172 3.33984L7.93945 3.47168L7.57324 3.63281L7.28027 3.7793L6.94336 3.96973L6.5918 4.18945L6.32812 4.37988L6.12305 4.52637L5.87402 4.73145L5.71289 4.86328L5.49316 5.06836L5.39062 5.15625V5.18555L5.33203 5.21484L5.27344 5.27344V5.30273H5.24414L5.1416 5.41992L4.99512 5.56641L4.92188 5.6543V5.68359H4.89258L4.76074 5.84473L4.57031 6.0791L4.36523 6.35742L4.16016 6.66504L3.95508 7.00195L3.76465 7.35352L3.58887 7.70508L3.38379 8.20312L3.19336 8.75977L3.04688 9.31641L2.94434 9.84375L2.87109 10.415L2.8418 10.957V11.4111L2.87109 11.9385L2.94434 12.5098L3.01758 12.9053L3.12012 13.3301L3.22266 13.6963L3.39844 14.1943L3.58887 14.6484L3.7207 14.9268L3.89648 15.249L4.04297 15.5127L4.2041 15.7617L4.33594 15.9521L4.48242 16.1572L4.62891 16.3477L4.76074 16.5088L4.92188 16.6992L5.08301 16.875L5.12695 16.9336H5.15625L5.18555 16.9922L5.53711 17.3438H5.56641L5.58105 17.3877L5.74219 17.5195L5.91797 17.6807L6.1084 17.8271L6.34277 18.0029L6.57715 18.1641L6.81152 18.3105L7.03125 18.4424L7.38281 18.6328L7.71973 18.7939L8.14453 18.9697L8.45215 19.0869L8.93555 19.2334L9.28711 19.3213L9.71191 19.4092L10.2246 19.4824L10.6934 19.5264L11.0596 19.541H11.3379L11.8945 19.5117L12.4072 19.4531L12.8467 19.3799L13.4619 19.2334L13.8721 19.1016L14.3262 18.9404L14.6924 18.7793L15.1172 18.5742L15.4834 18.3691L15.8057 18.1641L16.04 18.0029L16.2744 17.8271L16.4648 17.6807L16.6699 17.5049L16.8164 17.373L16.9922 17.2119L17.373 16.8311V16.8018H17.4023L17.5049 16.6846L17.6807 16.4795L17.8564 16.2598L18.0615 15.9814L18.2373 15.7178L18.4131 15.4395L18.5156 15.2637L18.6035 15.1025L18.7646 14.7803L18.9404 14.3848L19.0869 14.0039L19.248 13.4912L19.3799 12.9639L19.4678 12.4658L19.5117 12.1289L19.5557 11.5869V10.7959L19.5117 10.2686L19.4531 9.8291L19.3506 9.30176L19.2334 8.84766L19.0576 8.32031L18.9258 7.96875L18.7354 7.54395L18.5889 7.25098L18.3984 6.91406L18.1641 6.5332L18.0469 6.37207L17.9004 6.16699L17.6953 5.90332L17.5195 5.69824L17.3584 5.50781L17.2119 5.36133L17.1973 5.33203H17.168L17.1387 5.27344H17.1094L17.0801 5.21484H17.0508L17.0215 5.15625L16.9043 5.05371L16.8018 4.95117L16.6406 4.81934L16.4941 4.6875L16.3037 4.54102L16.0254 4.33594L15.7617 4.16016L15.5273 4.01367L15.2197 3.83789L14.8828 3.66211L14.5752 3.51562L14.1797 3.35449L13.8574 3.2373L13.3594 3.09082L12.8613 2.97363L12.4219 2.90039L12.0703 2.85645L11.6602 2.82715L11.25 2.8125H11.0449Z" fill="#6084FE"/>
<path d="M10.9424 3.69141H11.4697L11.8945 3.7207L12.3633 3.7793L12.8906 3.88184L13.3154 3.99902L13.7549 4.14551L14.1504 4.30664L14.5166 4.48242L14.8242 4.64355L15.1172 4.81934L15.4248 5.02441L15.7031 5.22949L15.9082 5.39062L16.0693 5.53711L16.2305 5.66895L16.6992 6.1377L16.8018 6.25488L16.9629 6.44531L17.1533 6.69434L17.2852 6.87012L17.4316 7.08984L17.6514 7.44141L17.9004 7.91016L18.0762 8.30566L18.2373 8.73047L18.3838 9.21387L18.4863 9.63867L18.5742 10.1514L18.6182 10.5322L18.6328 10.7666V11.6016L18.6035 11.9678L18.5449 12.3926L18.4424 12.9199L18.2959 13.4473L18.1641 13.8281L18.0176 14.1797L17.8564 14.5312L17.6953 14.8389L17.5195 15.1318L17.3877 15.3369L17.2119 15.5859L17.0068 15.8496L16.7432 16.1719H16.7139L16.6846 16.2305L16.5381 16.377L16.4648 16.4648L16.3477 16.5674L16.2012 16.7139L16.04 16.8457L15.9082 16.9629L15.6592 17.1533L15.4395 17.3145L15.2197 17.4609L14.9268 17.6367L14.6045 17.8125L14.2529 17.9883L13.8574 18.1494L13.3447 18.3252L12.7588 18.4717L12.2754 18.5596L11.7334 18.6182L11.5137 18.6328H10.8252L10.4004 18.6035L9.8877 18.5303L9.38965 18.4277L8.9209 18.2959L8.54004 18.1641L8.11523 17.9883L7.74902 17.8125L7.39746 17.6221L7.0459 17.4023L6.78223 17.2119L6.60645 17.0801L6.37207 16.8896L6.25488 16.7871L6.1084 16.6553L5.99121 16.5381L5.87402 16.4355L5.66895 16.2158L5.49316 16.0254L5.33203 15.8203L5.15625 15.6006L4.92188 15.2637L4.67285 14.8535L4.45312 14.4287L4.29199 14.0771L4.14551 13.6963L4.02832 13.3447L3.91113 12.9053L3.80859 12.3779L3.75 11.9385L3.7207 11.5869V10.752L3.76465 10.2686L3.83789 9.7998L3.95508 9.27246L4.08691 8.83301L4.2334 8.42285L4.42383 7.9834L4.59961 7.63184L4.77539 7.32422L4.98047 7.00195L5.1709 6.73828L5.36133 6.48926L5.55176 6.26953L5.6543 6.1377H5.68359L5.71289 6.0791H5.74219L5.77148 6.02051L6.12305 5.66895L6.24023 5.56641L6.44531 5.39062L6.69434 5.2002L6.92871 5.02441L7.14844 4.87793L7.41211 4.7168L7.74902 4.52637L8.17383 4.32129L8.56934 4.16016L9.09668 3.98438L9.62402 3.85254L10.0928 3.76465L10.6494 3.70605L10.9424 3.69141ZM14.3262 8.39355L14.1943 8.4375L14.0771 8.52539L14.0039 8.58398V8.61328L13.9453 8.64258V8.67188L13.8867 8.70117V8.73047L13.8281 8.75977V8.78906L13.7695 8.81836V8.84766L13.7109 8.87695V8.90625L13.667 8.9209L13.5645 9.03809L10.2393 12.3633L10.1514 12.4365L10.0635 12.5391L9.96094 12.627L9.90234 12.6855V12.7148L9.84375 12.7441V12.7734L9.78516 12.8027L9.72656 12.876L9.66797 12.8613L9.59473 12.7734H9.56543L9.53613 12.7148L9.44824 12.6416L9.41895 12.5977H9.38965L9.36035 12.5391H9.33105L9.30176 12.4805H9.27246L9.24316 12.4219H9.21387L9.18457 12.3633H9.15527L9.12598 12.3047L9.06738 12.2461H9.03809L9.00879 12.1875H8.97949L8.9502 12.1289L8.83301 12.0264L8.62793 11.8213L8.55469 11.7334L8.45215 11.6455L8.37891 11.5723L8.24707 11.4551L8.10059 11.3965H7.9248L7.77832 11.4551L7.66113 11.5576L7.58789 11.6748L7.55859 11.7627V11.9531L7.61719 12.085L7.71973 12.2168L9.375 13.8721L9.50684 13.96L9.65332 14.0039H9.77051L9.93164 13.9453L10.0781 13.8135L14.458 9.43359L14.5605 9.3457V9.31641L14.6191 9.28711V9.25781L14.6777 9.22852L14.7656 9.11133L14.8096 8.97949V8.74512L14.751 8.58398L14.6631 8.48145L14.5166 8.4082L14.4434 8.39355H14.3262Z" fill="#6084FE"/>
</g>
<defs>
<clipPath id="clip0_225_392">
<rect width="30" height="30" fill="white"/>
</clipPath>
</defs>
</svg>
