<svg width="28" height="28" viewBox="0 0 28 28" fill="none" xmlns="http://www.w3.org/2000/svg">
<path d="M0.546875 7.98438L22.5859 7.99805L22.7363 8.05273L22.8594 8.14844L22.9414 8.27148L22.9824 8.36719L22.9961 8.46289L23.0098 12.3594L22.9551 12.373L22.5039 12.25L21.9707 12.1406L21.6289 12.0859L21.0547 12.0312L20.7539 12.0176H20.207L19.7695 12.0449L19.2773 12.0996L18.7441 12.1953L18.1973 12.332L17.7188 12.4824L17.2812 12.6465L16.8848 12.8242L16.4746 13.0293L16.1465 13.2207L15.9004 13.3711L15.7363 13.4805L15.6406 13.5078H4.94922L3.36328 13.5215L3.13086 13.5625L2.92578 13.6309L2.7207 13.7402L2.54297 13.877L2.39258 14.0273L2.26953 14.1914L2.16016 14.4102L2.0918 14.5879L2.05078 14.793L2.03711 14.9434L2.02344 18.498H0.410156L0.246094 18.4297L0.123047 18.3203L0.0410156 18.1836L0.0273438 18.1152L0 18.1016V8.33984L0.123047 8.14844L0.273438 8.03906L0.369141 7.99805L0.546875 7.98438ZM6.89062 9.00977L6.76758 9.05078L6.63086 9.16016L6.5625 9.25586L6.50781 9.41992V9.58398L6.5625 9.73438L6.64453 9.84375L6.74023 9.92578L6.89062 9.98047L6.98633 9.99414H9.02344L9.20117 9.95312L9.32422 9.87109L9.41992 9.76172L9.47461 9.63867L9.48828 9.57031V9.41992L9.43359 9.25586L9.33789 9.13281L9.21484 9.05078L9.10547 9.00977H6.89062ZM10.9102 9.00977L10.7734 9.05078L10.6641 9.13281L10.582 9.22852L10.5273 9.35156L10.5137 9.39258V9.59766L10.5684 9.74805L10.6914 9.88477L10.8008 9.95312L10.9922 9.99414H12.0039L12.1953 9.95312L12.3184 9.87109L12.4141 9.77539L12.4688 9.66602L12.4824 9.61133V9.39258L12.4277 9.24219L12.3047 9.10547L12.1816 9.03711L12.0996 9.00977H10.9102ZM13.8906 9.00977L13.7812 9.05078L13.6582 9.13281L13.5625 9.25586L13.5078 9.41992V9.58398L13.5625 9.73438L13.6445 9.84375L13.7402 9.92578L13.8906 9.98047L13.9863 9.99414H16.0098L16.2012 9.95312L16.3242 9.87109L16.4199 9.76172L16.4746 9.63867L16.4883 9.57031V9.41992L16.4336 9.25586L16.3379 9.13281L16.2148 9.05078L16.1055 9.00977H13.8906Z" fill="#5E82FE"/>
<path d="M20.207 12.9883H20.7812L21.3145 13.0293L21.7246 13.084L22.1621 13.166L22.5859 13.2754L23.0781 13.4395L23.4609 13.5898L23.8164 13.7539L24.0215 13.8633L24.1855 13.9453L24.5684 14.1777L24.7871 14.3281L25.0332 14.5059L25.252 14.6836L25.4023 14.8066L25.5527 14.9434L25.6621 15.0391L26.0312 15.4082L26.127 15.5176L26.291 15.709L26.4551 15.9141L26.6465 16.1738L26.7832 16.3789L26.9473 16.6387L27.1387 16.9805L27.3438 17.3906L27.5352 17.8555L27.6992 18.3477L27.8223 18.8125L27.9316 19.4004L27.9727 19.6875H28V21.2461L27.9727 21.2734L27.918 21.6699L27.8223 22.1758L27.7129 22.5859L27.6035 22.9277L27.4805 23.2695L27.2617 23.7617L27.1113 24.0625L26.9199 24.3906L26.7559 24.6504L26.4824 25.0332L26.332 25.2246L26.168 25.416L26.0449 25.5527L26.0176 25.5938H25.9902L25.9629 25.6484L25.6211 25.9902L25.5117 26.0859L25.375 26.209L25.1836 26.3594L25.0332 26.4824L24.7598 26.6738L24.5957 26.7832L24.3086 26.9609L24.0625 27.0977L23.8027 27.2344L23.3789 27.4258L23.2012 27.4941H23.1602L23.0781 26.8105L22.75 23.8711L22.5996 22.5312V22.4629L22.7363 22.3809L22.9824 22.2305L23.1738 22.0938L23.3105 21.9844L23.4609 21.8613L23.666 21.6699L23.8164 21.5195L23.9395 21.3691L24.0762 21.2051L24.2402 20.9727L24.4043 20.6992L24.5547 20.4121L24.7051 20.043L24.8008 19.7559L24.8828 19.4277L24.9375 19.0996L24.9648 18.8398V18.1699L24.9102 17.7188L24.8281 17.3496L24.7188 16.9941L24.6094 16.7207L24.4863 16.4473L24.3496 16.2012L24.1855 15.9414L24.0215 15.7227L23.8984 15.5723L23.707 15.3672L23.502 15.1621L23.2012 14.916L22.9414 14.7383L22.7363 14.6152L22.5859 14.5469L22.4492 14.5195H22.2168L22.0527 14.5605L21.916 14.6289L21.793 14.7246L21.6836 14.834L21.5742 15.0254L21.5332 15.1758L21.5195 15.2852L21.5059 17.3223L21.4648 17.3633L20.9316 17.7188L20.7129 17.8691L20.5215 17.9922L20.4531 17.9785L19.5918 17.4043L19.4824 17.3223L19.4688 15.2168L19.4277 15.0527L19.3457 14.8887L19.25 14.7656L19.1406 14.6699L19.0039 14.5879L18.8398 14.5332L18.7578 14.5195H18.5391L18.375 14.5605L18.1836 14.6562L17.8965 14.8477L17.6641 15.0254L17.5273 15.1484L17.418 15.2441L17.1855 15.4766L17.1719 15.5039H17.1445L17.1172 15.5586L16.9668 15.7363L16.7891 15.9824L16.6523 16.2012L16.4883 16.502L16.3652 16.7617L16.2148 17.1855L16.1191 17.5547L16.0781 17.7598L16.0371 18.0605L16.0234 18.252V18.7715L16.0645 19.1543L16.1191 19.4688L16.2012 19.7832L16.3105 20.1113L16.4609 20.4531L16.6113 20.7402L16.748 20.959L16.8848 21.1504L17.0215 21.3281L17.1855 21.5195L17.5 21.834L17.6504 21.957L17.8281 22.0938L18.0332 22.2305L18.2109 22.3398L18.375 22.4355L18.3887 22.5312L18.293 23.4062L18.1699 24.4863L18.0879 25.2656L18.0059 25.9629L17.9238 26.7422L17.8418 27.4531L17.8281 27.5078L17.7734 27.4941L17.4043 27.3301L17.1035 27.1934L16.8027 27.0293L16.502 26.8516L16.2148 26.6602L16.0234 26.5234L15.8457 26.3867L15.6953 26.2637L15.5039 26.0996L15.2988 25.9082L14.957 25.5664L14.8613 25.457L14.7383 25.3203L14.5879 25.1289L14.4512 24.9512L14.2598 24.6777L14.1094 24.4453L13.9727 24.2129L13.8359 23.9668L13.6719 23.6387L13.5078 23.2559L13.3848 22.9277L13.2754 22.5723L13.1797 22.2031L13.0977 21.8066L13.0293 21.3418L12.9883 20.8633V20.125L13.0156 19.7559L13.084 19.2637L13.166 18.8398L13.248 18.5117L13.3848 18.0605L13.5625 17.5957L13.7402 17.1992L13.918 16.8574L14.0957 16.5566L14.2461 16.3242L14.3965 16.1055L14.5742 15.873L14.752 15.6543L14.875 15.5039L14.957 15.4082H14.9844L15.0117 15.3535L15.3809 14.9844L15.4902 14.8887L15.6953 14.7109L15.8867 14.5605L16.1465 14.3691L16.3242 14.2461L16.5293 14.1094L16.8164 13.9453L17.1172 13.7812L17.4316 13.6309L17.8691 13.4531L18.3613 13.2891L18.7168 13.1934L19.1133 13.1113L19.5508 13.043L19.9609 13.002L20.207 12.9883Z" fill="#5E82FE"/>
<path d="M5.83789 0H17.1719L17.2129 0.0410156L17.3359 0.123047L17.4316 0.232422L17.4863 0.341797L17.5 0.396484L17.5137 1.2168L17.5 7L5.55078 7.01367L5.48242 6.98633V0.505859L5.50977 0.341797L5.57812 0.205078L5.63281 0.136719H5.66016V0.109375L5.83789 0Z" fill="#5E82FE"/>
<path d="M18.4707 15.627H18.498L18.5117 15.6953V17.2266L18.5254 17.4727L18.5801 17.6914L18.6621 17.8555L18.7578 17.9785L18.8672 18.0879L19.0039 18.1836L19.8652 18.7578L20.043 18.8672L20.207 18.9355L20.3984 18.9766H20.6035L20.8223 18.9219L21.041 18.8125L21.6426 18.416L22.0254 18.1562L22.1484 18.0605H22.1758V18.0332L22.2441 17.9648L22.3125 17.8828L22.4219 17.6641L22.4629 17.5137L22.4766 17.3906V15.6543L22.4902 15.627L22.5586 15.6543L22.709 15.7773L22.8867 15.9277L23.1055 16.1465L23.2285 16.2969L23.4062 16.5293L23.5293 16.7344L23.6523 16.9531L23.7754 17.2402L23.8711 17.5273L23.9531 17.8828L23.9941 18.1562L24.0078 18.3613V18.6074L23.9805 18.9492L23.9258 19.25L23.8438 19.5645L23.748 19.8242L23.625 20.0977L23.543 20.248L23.4062 20.4668L23.2832 20.6309L23.1738 20.7676L23.0508 20.9043L22.9688 21L22.8594 21.0957L22.7227 21.2188L22.4629 21.4102L22.1621 21.5879L21.998 21.6973L21.8613 21.8203L21.7656 21.957L21.6699 22.1621L21.6426 22.2852L21.6289 22.4766L21.6836 23.0371L22.0117 26.0039L22.2031 27.7266L22.1895 27.7949L22.0664 27.8359L21.5332 27.9316L21.0273 28H19.8379L19.7832 27.9727L19.1406 27.877L18.7988 27.8086L18.7852 27.7676L19.2227 23.8301L19.3594 22.5723V22.3672L19.3184 22.1621L19.25 21.998L19.127 21.8066L18.9902 21.6836L18.7715 21.5469L18.5254 21.3965L18.2656 21.2051L18.0605 21.0137L17.8555 20.8086L17.7324 20.6582L17.5684 20.4395L17.4453 20.2344L17.2812 19.9199L17.1582 19.6055L17.0625 19.25L17.0078 18.9219L16.9941 18.7988V18.2246L17.0352 17.9238L17.0898 17.6641L17.1719 17.377L17.3086 17.0352L17.4727 16.7207L17.5684 16.5703L17.6914 16.3926L17.8691 16.1738L17.9102 16.1191H17.9375L17.9648 16.0645L18.1152 15.9141L18.416 15.668L18.4707 15.627ZM20.3984 24.0078L20.248 24.0625L20.1113 24.1855L20.0293 24.3223L20.002 24.459V26.5371L20.0293 26.6602L20.0977 26.7969L20.1934 26.8926L20.3574 26.9746L20.4395 26.9883H20.5762L20.7129 26.9473L20.8223 26.8652L20.8906 26.7969L20.9453 26.7148L20.9863 26.5781V24.418L20.9316 24.2539L20.8359 24.1309L20.7129 24.0488L20.5898 24.0078H20.3984Z" fill="#5E82FE"/>
<path d="M5.50977 16.9941H12.7559L12.7695 17.0215L12.6465 17.3086L12.4961 17.7051L12.3457 18.1836L12.2637 18.4707L12.25 18.498L7.01367 18.5117L6.82227 18.5391L6.68555 18.6211L6.58984 18.7305L6.53516 18.8535L6.52148 18.9219V19.0859L6.58984 19.2637L6.68555 19.373L6.83594 19.4551L6.9043 19.4688L7.99805 19.4824H11.3477L12.0586 19.4961L12.0723 19.5371L12.0312 20.002L12.0176 20.3301V21L6.97266 21.0137L6.82227 21.041L6.68555 21.123L6.58984 21.2324L6.52148 21.4102V21.5879L6.57617 21.7383L6.67188 21.8613L6.80859 21.9434L6.9043 21.9707L7.0957 21.9844H12.1133L12.1543 22.0117L12.2637 22.5312L12.4004 23.0098L12.5234 23.3789L12.6738 23.7617L12.7559 23.9531L12.7422 24.0078H6.01562L5.85156 23.9805L5.71484 23.9121L5.61914 23.8164L5.55078 23.707L5.50977 23.5566V16.9941Z" fill="#5E82FE"/>
<path d="M3.43164 14.4922H14.4922V14.5195L14.3965 14.6016L14.2051 14.8203H14.1777L14.1504 14.875L14.0273 15.0117L13.9316 15.1348L13.7676 15.3398L13.5898 15.5859L13.3164 15.9961L13.2754 16.0098H4.59375L4.40234 16.0234L4.26562 16.0781L4.12891 16.2012L4.06055 16.3379L4.04688 16.3926V16.6113L4.10156 16.748L4.22461 16.8848L4.36133 16.9531L4.51172 16.9941L4.52539 17.0078V18.4844L4.51172 18.498L3.10352 18.5117L3.00781 18.4844V14.9297L3.04883 14.793L3.11719 14.6836L3.18555 14.6152L3.25391 14.5605L3.36328 14.5059L3.43164 14.4922Z" fill="#5E82FE"/>
<path d="M18.498 4.99023H19.4688L19.6738 5.01758L19.8105 5.09961L19.9062 5.19531L19.9746 5.31836L20.002 5.41406V6.98633L19.9883 7H18.498L18.4844 6.98633V5.01758L18.498 4.99023Z" fill="#5E82FE"/>
<path d="M3.47266 4.99023H4.48438L4.51172 5.04492V6.97266L4.49805 7H2.99414V5.40039L3.04883 5.25L3.1582 5.11328L3.30859 5.01758L3.47266 4.99023Z" fill="#5E82FE"/>
</svg>
