<svg width="38" height="27" viewBox="0 0 38 27" fill="none" xmlns="http://www.w3.org/2000/svg">
<g filter="url(#filter0_d_187_135)">
<g clip-path="url(#clip0_187_135)">
<path d="M10.5505 3.4707H31.3187L31.4814 3.5L31.5791 3.55859L31.693 3.67578L31.7256 3.76367L31.7419 4.4082V15.9951L31.7256 16.0244H10.1598L10.1436 15.8193V12.1865L10.1761 12.1572L10.5505 12.2891L10.9736 12.4062L11.4782 12.4941L11.8037 12.5234L12.2432 12.5381L13.6429 12.5527L13.6917 12.6113L13.8382 12.8896L14.001 13.1387L14.18 13.373L14.3265 13.5342L14.5218 13.7393L14.766 13.959L14.945 14.0908L15.1566 14.2373L15.4007 14.3838L15.6449 14.5156L15.9867 14.6621L16.3773 14.7939L16.7679 14.8965L17.126 14.9551L17.4189 14.9844L17.7119 14.999H21.488L21.6833 14.9551L21.8298 14.8525L21.9111 14.7354L21.9437 14.6328L21.96 14.3105L22.0251 14.2812H24.8245L25.2803 14.2666L25.443 14.208L25.5732 14.1055L25.6546 13.9736L25.6709 13.8857V11.9229L25.6058 11.7617L25.5244 11.6592L25.3942 11.5859L25.2803 11.5566L21.9925 11.542L21.96 11.5273V10.6191L22.0251 10.5898H25.085L25.2965 10.5752L25.443 10.5166L25.5732 10.4141L25.6383 10.3262L25.6709 10.1943V8.23145L25.6058 8.07031L25.4919 7.95312L25.3291 7.87988L25.2477 7.86523L21.9762 7.85059L21.96 7.83594L21.9437 7.29395L21.8786 7.14746L21.8135 7.05957L21.6995 6.98633L21.5368 6.94238H17.5329L17.1748 6.97168L16.7354 7.04492L16.3447 7.14746L16.0029 7.26465L15.6611 7.41113L15.3844 7.55762L15.1077 7.7334L14.8799 7.89453L14.6357 8.09961L14.4404 8.27539L14.2614 8.48047L14.0986 8.6709L13.9033 8.94922L13.7731 9.16895L13.6592 9.37402L13.6429 9.38867H12.0804L11.8037 9.34473L11.5758 9.27148L11.3805 9.16895L11.2178 9.05176L11.1038 8.94922L10.9574 8.75879L10.8597 8.58301L10.7946 8.37793L10.762 8.09961L10.7295 7.64551L10.6644 7.26465L10.583 6.95703L10.404 6.47363L10.2087 6.09277L10.1598 6.00488L10.1436 5.36035V4.59863L10.1598 3.76367L10.2412 3.61719L10.3714 3.51465L10.4365 3.48535L10.5505 3.4707ZM27.0055 4.84766L26.8753 4.87695L26.7451 4.9502L26.6312 5.06738L26.5824 5.15527L26.5661 5.21387V5.41895L26.6312 5.55078L26.7451 5.66797L26.8753 5.74121L27.0055 5.77051H30.1794L30.3909 5.71191L30.5212 5.60938L30.6188 5.43359L30.6351 5.28711L30.5863 5.11133L30.4886 4.97949L30.3421 4.8916L30.1956 4.84766H27.0055ZM28.4704 6.75195L28.3239 6.81055L28.1774 6.92773L28.1123 7.04492L28.0798 7.19141L28.096 7.32324L28.1611 7.45508L28.2751 7.57227L28.4215 7.64551L28.4867 7.66016L28.7471 7.6748H30.1143L30.2933 7.64551L30.4398 7.57227L30.57 7.44043L30.6351 7.25L30.6188 7.08887L30.5212 6.91309L30.3909 6.81055L30.2282 6.75195H28.4704ZM27.917 8.75879L27.7054 8.78809L27.5589 8.87598L27.4613 8.97852L27.3962 9.13965V9.31543L27.445 9.44727L27.5915 9.59375L27.7542 9.66699L27.8519 9.68164H30.2119L30.3909 9.62305L30.5212 9.52051L30.6188 9.34473L30.6351 9.18359L30.5863 9.02246L30.4886 8.89062L30.3421 8.80273L30.2607 8.77344L30.1631 8.75879H27.917ZM28.4704 10.6924L28.3402 10.7363L28.1774 10.8682L28.1123 10.9854L28.0798 11.1758L28.1286 11.3369L28.2262 11.4688L28.3564 11.5566L28.5029 11.6006H30.2282L30.3909 11.542L30.5212 11.4395L30.6025 11.3223L30.6351 11.1758L30.6188 11.0293L30.5537 10.8975L30.4398 10.7803L30.3421 10.7217L30.2607 10.6924H28.4704ZM27.8519 12.6992L27.7054 12.7285L27.5589 12.8164L27.4613 12.9189L27.3962 13.0801V13.2559L27.4613 13.4023L27.5915 13.5342L27.7054 13.5928L27.8519 13.6221H30.1794L30.3421 13.5781L30.4886 13.4902L30.5863 13.3584L30.6188 13.2852L30.6351 13.1387L30.5863 12.9629L30.4886 12.8311L30.3421 12.7432L30.1956 12.6992H27.8519Z" fill="#6084FE"/>
<path d="M8.87419 16.9473H32.9627L33.0441 16.9766L33.0278 17.3428L32.979 17.5479L32.8976 17.7529L32.7674 17.958L32.6047 18.1191L32.5233 18.1924L32.328 18.3242L32.1001 18.4268L31.8885 18.4854L31.6932 18.5146H10.16L9.86702 18.4561L9.63916 18.3682L9.44385 18.251L9.24854 18.0898L9.11833 17.9434L8.98812 17.7383L8.90674 17.5479L8.85791 17.3135V16.9619L8.87419 16.9473Z" fill="#6084FE"/>
<path d="M17.5492 7.85059H18.7699V14.0762L18.7374 14.0908H17.7445L17.3214 14.0615L16.9633 14.0029L16.5889 13.9004L16.2472 13.7686L15.9542 13.6221L15.6775 13.4463L15.4985 13.3145L15.1241 12.9775L14.9288 12.7432L14.7823 12.5381L14.6033 12.2305L14.4568 11.8789L14.3754 11.5713L14.3266 11.3076L14.3103 11.1611V10.7949L14.3591 10.4287L14.4568 10.0625L14.5544 9.81348L14.7009 9.52051L14.8637 9.27148L15.0264 9.06641L15.2055 8.87598L15.2543 8.81738H15.2869V8.78809H15.3194V8.75879H15.352V8.72949L15.4822 8.62695L15.6775 8.48047L15.9379 8.31934L16.2309 8.17285L16.5076 8.05566L16.9145 7.93848L17.24 7.87988L17.5492 7.85059Z" fill="#6084FE"/>
<path d="M4.49585 4.04199H4.65861L4.90275 4.10059L5.37476 4.24707L5.684 4.34961L6.15601 4.49609L7.03491 4.77441L7.44181 4.9209L7.76733 5.06738L8.02775 5.21387L8.28817 5.38965L8.51603 5.56543L8.7439 5.77051L8.89038 5.93164L9.05314 6.12207L9.23218 6.38574L9.42749 6.72266L9.57398 7.07422L9.67163 7.42578L9.72046 7.7041L9.76929 8.31934L9.81812 8.6123L9.8995 8.86133L10.0134 9.0957L10.1274 9.28613L10.3227 9.52051L10.518 9.71094L10.7296 9.87207L11.0225 10.0332L11.2992 10.1504L11.6248 10.2383L11.934 10.2822L12.2432 10.2969L13.35 10.3115L13.3337 10.5166L13.3175 10.6191V11.293L13.35 11.5127V11.6152L13.3175 11.6299H12.0317L11.6573 11.6006L11.2992 11.542L10.9086 11.4395L10.5831 11.3223L10.3227 11.2051L10.0948 11.0879L9.81812 10.9121L9.63908 10.7803L9.42749 10.6045L9.28101 10.4727L9.13452 10.3115L8.93921 10.0771L8.76017 9.81348L8.62996 9.5791L8.49976 9.30078L8.4021 9.02246L8.32072 8.6709L8.27189 8.2168L8.25562 7.92383L8.20679 7.64551L8.10913 7.35254L7.97892 7.08887L7.83244 6.86914L7.70223 6.72266L7.55575 6.57617L7.37671 6.42969L7.11629 6.26855L6.80705 6.12207L6.22111 5.93164L4.65861 5.43359L4.26799 5.30176L4.1215 5.21387L3.99129 5.09668L3.87736 4.8916L3.86108 4.84766V4.58398L3.92619 4.4082L4.02384 4.27637L4.13778 4.17383L4.31681 4.08594L4.49585 4.04199Z" fill="#6084FE"/>
<path d="M19.8117 7.85059H20.9185L20.951 7.89453V14.0469L20.9022 14.0908H19.8442L19.7954 14.0615V7.86523L19.8117 7.85059Z" fill="#6084FE"/>
<path d="M21.9762 8.77344H24.6455L24.6618 8.78809L24.6781 9.6377L24.6618 9.66699L24.5804 9.68164H21.9925L21.96 9.65234V8.78809L21.9762 8.77344Z" fill="#6084FE"/>
<path d="M21.9762 12.4648H24.6618V13.3584H21.9762L21.96 13.3438V12.4795L21.9762 12.4648Z" fill="#6084FE"/>
</g>
</g>
<defs>
<filter id="filter0_d_187_135" x="0" y="0" width="38" height="29" filterUnits="userSpaceOnUse" color-interpolation-filters="sRGB">
<feFlood flood-opacity="0" result="BackgroundImageFix"/>
<feColorMatrix in="SourceAlpha" type="matrix" values="0 0 0 0 0 0 0 0 0 0 0 0 0 0 0 0 0 0 127 0" result="hardAlpha"/>
<feOffset dy="4"/>
<feGaussianBlur stdDeviation="2"/>
<feComposite in2="hardAlpha" operator="out"/>
<feColorMatrix type="matrix" values="0 0 0 0 0 0 0 0 0 0 0 0 0 0 0 0 0 0 0.25 0"/>
<feBlend mode="normal" in2="BackgroundImageFix" result="effect1_dropShadow_187_135"/>
<feBlend mode="normal" in="SourceGraphic" in2="effect1_dropShadow_187_135" result="shape"/>
</filter>
<clipPath id="clip0_187_135">
<rect width="30" height="21" fill="white" transform="translate(4)"/>
</clipPath>
</defs>
</svg>
