<svg width="30" height="30" viewBox="0 0 30 30" fill="none" xmlns="http://www.w3.org/2000/svg">
<path d="M5.53711 2.98828H7.28027L9.44824 3.00293L9.46289 3.01758L9.47754 4.35059L9.50684 4.42383L9.59473 4.46777H9.71191L9.7998 4.40918L9.8291 4.35059L9.84375 3.01758L9.87305 2.98828H11.5576L11.5869 3.00293L11.6016 3.09082V4.16016L11.6162 4.36523L11.6748 4.43848L11.7334 4.46777H11.8506L11.9385 4.40918L11.9678 4.32129L11.9824 3.00293L11.9971 2.98828H13.1689L13.7256 3.00293L13.7402 3.03223L13.7549 4.36523L13.7842 4.42383L13.8721 4.46777H13.9893L14.0771 4.40918L14.1064 4.33594L14.1211 3.01758L14.1504 2.98828H15.835L15.8789 3.03223L15.8936 4.36523L15.9668 4.45312L16.0107 4.46777H16.1426L16.2158 4.40918L16.2451 4.33594L16.2598 3.00293L16.2744 2.98828H17.4316L18.0029 3.00293L18.0176 3.01758L18.0322 4.35059L18.0615 4.42383L18.1494 4.46777H18.2666L18.3545 4.40918L18.3838 4.35059L18.3984 3.01758L18.4277 2.98828H20.1123L20.1416 3.00293L20.1562 3.36914V4.16016L20.1709 4.36523L20.1855 4.42383L20.2441 4.45312L20.2881 4.46777H20.4053L20.4932 4.40918L20.5225 4.32129L20.5371 3.00293L20.625 2.98828H24.4482L24.7705 3.01758L25.0049 3.06152L25.3564 3.17871L25.6055 3.2959L25.8398 3.44238L26.0156 3.57422L26.1621 3.70605L26.2793 3.80859V3.83789H26.3086L26.4404 3.99902L26.5576 4.16016L26.6895 4.37988L26.8066 4.61426L26.9238 4.96582L26.9824 5.24414L27.0117 5.625V9.375L26.9678 9.41895H26.2207L25.6494 9.43359L25.5762 9.47754L25.5176 9.58008L25.5322 9.68262L25.5762 9.75586L25.6201 9.78516L25.7227 9.7998L26.9971 9.81445L27.0117 9.84375V11.5283L26.9824 11.5576L25.6787 11.5723L25.5762 11.6162L25.5322 11.6748L25.5176 11.7773L25.5762 11.8945L25.6787 11.9385L26.9824 11.9531L27.0117 11.9971V13.6523L26.9824 13.6963L25.6641 13.7109L25.5908 13.7402L25.5322 13.8281L25.5176 13.916L25.5762 14.0332L25.6201 14.0625L25.6934 14.0771L26.9824 14.0918L27.0117 14.1211V15.8057L26.9678 15.835L25.6494 15.8496L25.5615 15.9082L25.5176 16.0107L25.5322 16.0986L25.6201 16.2012L25.708 16.2158L26.9824 16.2305L27.0117 16.2598V17.9297L26.9824 17.9736L25.6494 17.9883L25.5762 18.0322L25.5176 18.1494L25.5469 18.2666L25.6201 18.3398L25.752 18.3545L26.9971 18.3691L27.0117 18.3984V20.083L26.9824 20.1123L25.6787 20.127L25.5908 20.1562L25.5322 20.2295L25.5176 20.332L25.5762 20.4492L25.6787 20.4932L26.9824 20.5078L27.0117 20.5371V24.3457L26.9971 24.6387L26.9238 25.0342L26.8213 25.3418L26.7188 25.5762L26.5283 25.8838L26.3379 26.1182L26.2793 26.1914H26.25L26.2207 26.25H26.1914V26.2793L26.0742 26.3818L25.8398 26.5576L25.5615 26.7188L25.2979 26.8359L25.0049 26.9238L24.7998 26.9678L24.5801 26.9971L24.1846 27.0117H23.0127L20.5371 26.9971L20.5225 25.6641L20.4785 25.5762L20.4199 25.5322L20.3174 25.5176L20.2148 25.5469V25.5762H20.1855L20.1709 25.6201L20.1562 25.9277V26.9531L20.1416 26.9971H18.4131L18.3984 26.9531L18.3838 25.6494L18.3398 25.5762L18.2812 25.5322H18.1348L18.0469 25.6055L18.0322 25.6494L18.0176 26.9824L18.0029 26.9971H16.2744L16.2598 26.9824L16.2451 25.6494L16.1865 25.5615L16.1426 25.5322H15.9961L15.9375 25.5469L15.8936 25.6348L15.8789 26.9824L15.8643 26.9971H14.1357L14.1211 26.9824L14.1064 25.6494L14.0479 25.5615L14.0039 25.5322L13.916 25.5176L13.7988 25.5615L13.7549 25.6348L13.7402 26.9824L13.7256 26.9971H11.9824L11.9678 25.6641L11.9238 25.5762L11.8652 25.5322H11.7188L11.6602 25.5469L11.6162 25.6348L11.6016 26.0303V26.9531L11.5869 26.9971H9.8584L9.84375 26.9531L9.8291 25.6494L9.78516 25.5762L9.72656 25.5322L9.62402 25.5176L9.50684 25.5762L9.47754 25.6348L9.46289 26.9824L9.44824 26.9971L7.06055 27.0117H5.85938L5.39062 26.9971L5.09766 26.9531L4.81934 26.8799L4.59961 26.792L4.35059 26.6748L4.14551 26.543L3.95508 26.3965L3.7793 26.2354L3.64746 26.1035L3.48633 25.8984L3.33984 25.6787L3.22266 25.4443L3.12012 25.1953L3.03223 24.8584L3.00293 24.668L2.98828 24.4922V20.5225L3.00293 20.5078L4.27734 20.4932L4.37988 20.4785L4.46777 20.376L4.48242 20.3027L4.43848 20.2002L4.37988 20.1416L4.30664 20.127L3.00293 20.1123L2.98828 20.0977V18.3838L3.00293 18.3691L4.29199 18.3545L4.42383 18.3105L4.46777 18.2373V18.1055L4.40918 18.0176L4.32129 17.9883L3.00293 17.9736L2.98828 17.959V16.2451L3.00293 16.2305L4.27734 16.2158L4.39453 16.1865L4.46777 16.0986L4.48242 16.0254L4.43848 15.9229L4.37988 15.8643L4.32129 15.8496L3.00293 15.835L2.98828 15.8203V14.1064L3.00293 14.0918L4.32129 14.0771L4.43848 14.0186L4.46777 13.96V13.8281L4.40918 13.7402L4.37988 13.7256L4.11621 13.7109H3.10547L3.00293 13.6963L2.98828 13.6816V11.9678L3.00293 11.9531L4.27734 11.9385L4.37988 11.9238L4.42383 11.9092L4.45312 11.8506L4.48242 11.7627L4.45312 11.6602L4.37988 11.5869L4.29199 11.5723L3.00293 11.5576L2.98828 11.543V9.8291L3.00293 9.81445L4.32129 9.7998L4.43848 9.74121L4.46777 9.68262V9.55078L4.39453 9.44824L4.33594 9.43359L3.00293 9.41895L2.98828 9.4043V5.46387L3.03223 5.1416L3.12012 4.80469L3.19336 4.61426L3.31055 4.37988L3.42773 4.1748L3.60352 3.94043L3.7793 3.75L3.96973 3.57422L4.24805 3.38379L4.45312 3.2666L4.67285 3.16406L4.89258 3.09082L5.12695 3.03223L5.31738 3.00293L5.53711 2.98828ZM24.126 5.2002L23.9502 5.24414L23.7891 5.34668L23.7012 5.44922L23.6133 5.625L23.5986 5.68359V5.93262L23.6572 6.09375L23.7598 6.22559L23.8623 6.31348L23.9795 6.37207L24.0967 6.40137H24.3018L24.4629 6.34277L24.5947 6.25488L24.7119 6.12305L24.7852 5.93262V5.68359L24.7266 5.52246L24.6387 5.39062L24.5361 5.30273L24.3896 5.22949L24.2578 5.2002H24.126ZM5.77148 5.2002L5.61035 5.22949L5.46387 5.30273L5.33203 5.41992L5.22949 5.625L5.21484 5.68359V5.94727L5.28809 6.12305L5.41992 6.26953L5.52246 6.34277L5.71289 6.40137H5.91797L6.0791 6.34277L6.21094 6.25488L6.31348 6.1377L6.37207 6.02051L6.40137 5.91797V5.69824L6.34277 5.52246L6.22559 5.36133L6.09375 5.27344L5.94727 5.21484L5.87402 5.2002H5.77148ZM14.5459 6.02051L14.0039 6.06445L13.6523 6.1084L13.1543 6.19629L12.6709 6.31348L12.2754 6.43066L11.8506 6.57715L11.4551 6.73828L11.1035 6.89941L10.7227 7.08984L10.3711 7.29492L10.0928 7.4707L9.77051 7.69043L9.52148 7.88086L9.31641 8.04199L9.16992 8.17383L9.00879 8.30566L8.77441 8.52539L8.4375 8.8623L8.33496 8.97949L8.17383 9.15527L8.04199 9.31641L7.86621 9.53613L7.67578 9.7998L7.5293 10.0049L7.35352 10.2832L7.17773 10.5762L6.9873 10.9277L6.79688 11.3232L6.62109 11.748L6.47461 12.1436L6.31348 12.6855L6.18164 13.2568L6.09375 13.7695L6.03516 14.3408L6.02051 14.6045V15.3955L6.06445 15.9668L6.1377 16.5088L6.24023 17.0215L6.35742 17.4756L6.5625 18.1055L6.76758 18.6035L6.92871 18.9551L7.11914 19.3213L7.23633 19.5264L7.39746 19.79L7.63184 20.1416L7.82227 20.4053L8.0127 20.6396L8.12988 20.7861L8.26172 20.9326L8.36426 21.0498L8.56934 21.2695L8.84766 21.5479L8.96484 21.6504L9.14062 21.8115L9.30176 21.9434L9.52148 22.1191L9.7998 22.3242L10.2393 22.6172L10.459 22.749L10.7959 22.9395L11.2061 23.1445L11.5723 23.3057L11.9971 23.4668L12.4365 23.6133L12.9346 23.7451L13.3594 23.833L13.8428 23.9062L14.3994 23.9648L14.6338 23.9795H15.3369L15.9082 23.9355L16.377 23.877L16.9336 23.7744L17.4023 23.6572L17.915 23.4961L18.3545 23.335L18.7207 23.1738L19.2041 22.9395L19.541 22.749L19.9219 22.5146L20.1709 22.3389L20.376 22.1924L20.6396 21.9873L20.8301 21.8262L21.0498 21.6357L21.1816 21.5039L21.2109 21.4893V21.46L21.2695 21.4307L21.4746 21.2256V21.1963H21.5039L21.6064 21.0791L21.7236 20.9619L21.8555 20.8008L22.0166 20.6104L22.251 20.3027L22.4268 20.0537L22.6172 19.7607L22.8809 19.3213L23.1152 18.8525L23.291 18.4717L23.4521 18.0469L23.6133 17.5635L23.7451 17.0654L23.8477 16.5674L23.9062 16.1719L23.9502 15.791L23.9795 15.249V14.7363L23.9502 14.2236L23.8916 13.7109L23.8037 13.1982L23.6719 12.6416L23.5254 12.1582L23.3936 11.792L23.2178 11.3672L23.0127 10.9424L22.8223 10.5762L22.6025 10.21L22.3682 9.8584L22.1777 9.59473L21.9434 9.30176L21.8115 9.14062L21.6504 8.96484L21.5186 8.81836L21.0498 8.34961L20.9326 8.24707L20.7275 8.07129L20.5225 7.91016L20.2148 7.67578L19.7461 7.36816L19.5264 7.23633L19.1602 7.03125L18.8086 6.85547L18.3398 6.65039L17.8125 6.45996L17.4316 6.34277L16.9043 6.21094L16.4209 6.12305L15.9814 6.06445L15.4395 6.02051H14.5459ZM24.1406 23.584L23.9502 23.6279L23.7891 23.7305V23.7598H23.7598L23.6572 23.9062L23.5986 24.0674V24.3311L23.6719 24.5068L23.8037 24.6533L23.9355 24.7412L24.0088 24.7705L24.0967 24.7852H24.3018L24.4482 24.7412L24.5947 24.6387L24.7119 24.5068L24.7705 24.375L24.7852 24.3164V24.0674L24.7266 23.9062L24.6094 23.7451L24.4629 23.6426L24.3457 23.5986L24.1406 23.584ZM5.78613 23.584L5.61035 23.6133L5.46387 23.6865L5.34668 23.7891L5.25879 23.9355L5.21484 24.0527L5.2002 24.2285L5.22949 24.375L5.31738 24.5508L5.36133 24.6094H5.39062V24.6387L5.55176 24.7412L5.69824 24.7852H5.91797L6.0791 24.7266L6.21094 24.6387L6.32812 24.5068L6.38672 24.3604L6.40137 24.3018V24.082L6.34277 23.9062L6.24023 23.7744L6.12305 23.6719L5.94727 23.5986L5.78613 23.584Z" fill="#6084FE"/>
<path d="M11.2646 9.05273H11.6895L11.9971 9.09668L12.2461 9.16992L12.4658 9.25781L12.7002 9.375L12.876 9.49219L13.0811 9.65332L13.418 9.99023L13.5498 10.1514L13.7256 10.3711L13.916 10.6348L14.1357 10.9717L14.2676 11.1914L14.4141 11.4551L14.5898 11.792L14.7656 12.1582L14.9854 12.7002L15.1318 13.1104L15.2637 13.5498L15.3809 14.0479L15.4395 14.3994L15.542 14.2529L15.7324 13.9453L15.9229 13.5938L16.084 13.2275L16.2305 12.7881L16.3184 12.4219L16.377 12.0264L16.4062 11.6016L16.4209 10.9717L16.4355 10.6787L16.4795 10.3711L16.5527 10.1367L16.6406 9.96094L16.7871 9.77051L16.9775 9.59473L17.2266 9.41895L17.4316 9.30176L17.6953 9.18457L18.0029 9.09668L18.3105 9.05273H18.7354L19.043 9.09668L19.292 9.16992L19.585 9.28711L19.8193 9.41895L20.0244 9.56543L20.2002 9.72656L20.2734 9.78516L20.376 9.90234L20.5225 10.0928L20.6543 10.3125L20.7715 10.5469L20.874 10.8545L20.9326 11.1621L20.9473 11.2939V11.6602L20.8887 12.0264L20.8008 12.3193L20.6836 12.583L20.5518 12.8174L20.3613 13.0664L20.0684 13.3594H20.0391V13.3887L19.8779 13.5205L19.6875 13.6816L19.4238 13.8721L19.0723 14.1064L18.7061 14.3262L18.2959 14.5459L18.0469 14.6631L17.8271 14.7656L17.417 14.9414L16.9336 15.1172L16.4941 15.249L16.084 15.3516L15.7764 15.4102L15.6006 15.4395L15.7471 15.542L16.0547 15.7324L16.377 15.9082L16.6699 16.04L16.9482 16.1426L17.2266 16.2305L17.5928 16.3184L17.9883 16.377L18.4424 16.4062L18.999 16.4209L19.4531 16.4502L19.7461 16.5088L19.9219 16.582L20.0977 16.6846L20.2734 16.8457L20.376 16.9482L20.5664 17.2119L20.6982 17.4463L20.8008 17.6807L20.8887 17.9736L20.9326 18.2227L20.9473 18.3691V18.7061L20.8887 19.0723L20.8008 19.3652L20.6836 19.6289L20.5518 19.8633L20.4199 20.0391L20.2881 20.1855L20.2734 20.2148H20.2441V20.2441H20.2148V20.2734L20.0977 20.376L19.9072 20.5225L19.6289 20.6836L19.3652 20.8008L18.999 20.9033L18.6914 20.9473H18.3252L17.9736 20.8887L17.7246 20.8154L17.4463 20.6982L17.2119 20.5664L17.0508 20.4492L16.8604 20.2881L16.6113 20.0391L16.4795 19.8779L16.3184 19.6875L16.1133 19.4092L15.9375 19.1455L15.7471 18.8379L15.5566 18.501L15.4395 18.2812L15.2783 17.9443L15.1025 17.5342L14.9561 17.1533L14.7803 16.626L14.6631 16.1719L14.5898 15.8057L14.5605 15.6006L14.4873 15.6885L14.4141 15.8203L14.3115 15.9668L14.0918 16.377L13.9453 16.6992L13.7988 17.1094L13.6963 17.5049L13.6523 17.7393L13.6084 18.0615L13.5938 18.2666L13.5645 19.2334L13.5205 19.6143L13.4473 19.8486L13.3447 20.0537L13.2422 20.1855L13.0664 20.3613L12.876 20.5078L12.583 20.6836L12.3486 20.7861L12.1289 20.8594L11.8506 20.918L11.6309 20.9473H11.2939L10.9863 20.9033L10.6641 20.8154L10.4004 20.6982L10.1367 20.5518L9.94629 20.4053L9.77051 20.2441L9.62402 20.0977L9.44824 19.8633L9.30176 19.6143L9.18457 19.3359L9.09668 19.0283L9.05273 18.75V18.2959L9.09668 18.0176L9.18457 17.71L9.28711 17.4609L9.41895 17.2266L9.56543 17.0215L9.69727 16.8604H9.72656L9.75586 16.8018L9.81445 16.7432H9.84375L9.8584 16.6992L9.97559 16.5967L10.1221 16.4648L10.2686 16.3477L10.5029 16.1719L10.7959 15.9668L11.1768 15.7324L11.543 15.5273L11.9824 15.3076L12.5244 15.0732L12.9639 14.9121L13.374 14.7803L13.8135 14.6631L14.2676 14.5752L14.3994 14.5605L14.1504 14.3848L13.8428 14.209L13.5059 14.0332L13.1543 13.8867L12.7441 13.7549L12.3633 13.667L11.9238 13.6084L11.7188 13.5938L10.7373 13.5645L10.4004 13.5205L10.1807 13.4619L9.94629 13.3447L9.7998 13.2275L9.63867 13.0664L9.49219 12.876L9.3457 12.6416L9.22852 12.4072L9.12598 12.0996L9.06738 11.8213L9.05273 11.7041V11.25L9.09668 10.9717L9.15527 10.752L9.27246 10.4443L9.38965 10.2246L9.50684 10.0488L9.62402 9.90234L9.81445 9.69727H9.84375V9.66797L10.0488 9.50684L10.2686 9.36035L10.6055 9.19922L10.8984 9.11133L11.1328 9.06738L11.2646 9.05273Z" fill="#6084FE"/>
</svg>
