<svg width="24" height="29" viewBox="0 0 24 29" fill="none" xmlns="http://www.w3.org/2000/svg">
<path d="M9.08741 0H20.5275L20.8812 0.0307529L21.2656 0.123012L21.6346 0.276776L21.8499 0.399788L22.0651 0.553553L22.2343 0.691941L22.4342 0.891835L22.6341 1.15323L22.7725 1.38388L22.8801 1.59915L22.9877 1.8913L23.0646 2.26034L23.08 2.39873L23.0954 16.2375V26.1092L23.08 26.5859L23.0339 26.9088L22.9416 27.2317L22.8186 27.5239L22.6802 27.7699L22.5264 27.9852L22.3419 28.2004L22.2343 28.3081L22.019 28.4772L21.7884 28.631L21.5423 28.754L21.3117 28.8462L20.9734 28.9385L20.6505 28.9846L20.1738 29H19.282L8.94902 28.9846L8.56461 28.9231L8.30321 28.8462L8.02643 28.7232L7.79579 28.6002L7.58052 28.4464L7.38062 28.2773L7.22686 28.1235L7.05772 27.9083L6.90395 27.6776L6.73481 27.324L6.76556 27.2625L13.5466 20.4814H13.6542L14.1616 20.5583L14.5153 20.5891H15.2995L15.7454 20.5429L16.1298 20.4814L16.545 20.3892L16.9602 20.2662L17.3446 20.1278L17.7136 19.9586L17.9596 19.8356L18.2364 19.6819L18.6977 19.3743L18.8976 19.2206L19.0667 19.0822L19.282 18.8977L19.7279 18.4517L19.8663 18.2826L20.0354 18.0827L20.2046 17.8521L20.343 17.6522L20.5736 17.2678L20.7581 16.9141L20.8965 16.6066L21.0503 16.2068L21.2041 15.684L21.2963 15.2381L21.3578 14.8075L21.3886 14.3616V13.8542L21.3424 13.3006L21.2656 12.8393L21.1579 12.378L21.0349 11.9936L20.958 11.8399L20.8812 11.7476L20.7274 11.6554L20.5736 11.6092H20.3584L20.2046 11.6554L20.0662 11.763H20.0354V11.7937L19.9432 11.8706L19.8356 11.9936L19.1436 12.6856L19.036 12.8086L18.2056 13.6389L18.1903 13.6697H18.1595V13.7004H18.1288V13.7312H18.098V13.7619H18.0673V13.7927H18.0365V13.8234H18.0058L17.975 13.8849H17.9442L17.9135 13.9464L16.8986 14.9613L16.8218 15.0536H16.791V15.0843H16.7603V15.1151L16.6834 15.1919L16.6372 15.2073L16.6065 15.2688L16.545 15.2996L16.0068 14.7614L15.9146 14.6845V14.6538H15.8838V14.623L15.8223 14.5923L15.1304 13.9003L15.0689 13.8542V13.8234L15.0073 13.7927L14.4999 13.2853L14.3769 13.1776L13.7619 12.5626L13.7003 12.5164L13.7157 12.4549L17.2216 8.9491L17.3292 8.79533L17.3753 8.65695V8.41092L17.3138 8.24178L17.2216 8.10339L17.1139 8.01113L16.8833 7.91888L16.4374 7.79586L16.0683 7.71898L15.6532 7.65748L15.2995 7.62672H14.4845L14.0079 7.67285L13.4851 7.76511L12.9623 7.9035L12.5164 8.05726L12.1319 8.22641L11.7322 8.4263L11.5015 8.56469L11.2862 8.70308L11.0248 8.88759L10.8096 9.05673L10.5943 9.24125L10.5174 9.30276L10.1484 9.67179L10.0407 9.7948L9.90236 9.94857L9.73322 10.1638L9.53333 10.4406L9.37956 10.6713L9.2258 10.9327L9.10278 11.1479L8.91827 11.5477L8.7645 11.9475L8.64149 12.3319L8.54923 12.701L8.47235 13.1161L8.42622 13.4698L8.41084 13.6697V14.5154L8.47235 15.0843L8.51848 15.3457V15.438L8.42622 15.5456L8.30321 15.6532L8.2417 15.7301L8.11869 15.8378L7.4575 16.4989L7.38062 16.5912L7.27299 16.6835L7.1961 16.7757L7.08847 16.868L7.01159 16.9602L6.95008 17.0217H6.91933L6.88858 17.0832L6.76556 17.1909L6.65793 17.2985L6.59642 17.3754H6.56567L6.55029 17.2985V2.614L6.56567 2.3526L6.62718 2.01432L6.71943 1.70679L6.82707 1.46076L7.01159 1.15323L7.14997 0.968717L7.28836 0.814952L7.4575 0.645811L7.7189 0.445917L7.94955 0.307529L8.21095 0.184518L8.48773 0.0922588L8.7645 0.0307529L9.08741 0ZM12.3933 0.630435L12.3011 0.676564L12.2088 0.784199L12.1627 0.937964L12.1935 1.07635L12.255 1.16861L12.3626 1.24549L12.4087 1.26087H17.2369L17.3599 1.19936L17.4368 1.10711L17.4676 1.03022V0.861082L17.4061 0.73807L17.2984 0.645811L17.2523 0.630435H12.3933ZM14.7306 26.9549L14.5307 27.0164L14.4077 27.1087L14.3 27.2163L14.2231 27.3701L14.1924 27.4777V27.7238L14.2693 27.9236L14.3923 28.0774L14.5614 28.185L14.6998 28.2312H14.9458L15.1457 28.1543L15.2687 28.062V28.0313H15.2995L15.4071 27.8621L15.4533 27.7238V27.4624L15.3764 27.2625L15.2687 27.1241L15.1304 27.0318L14.992 26.9703L14.9151 26.9549H14.7306Z" fill="#6084FE"/>
<path d="M14.6999 8.22647H15.2534L15.6379 8.25722L16.0684 8.31873L16.5451 8.42636L16.745 8.48787V8.534L16.6373 8.65701L16.5143 8.76465L16.4528 8.84153H16.4221L16.3913 8.90304L16.176 9.11831H16.1453V9.14906L16.0376 9.24132L15.9608 9.33358L15.8685 9.41046L15.7762 9.51809L15.684 9.59498L15.5917 9.70261L15.4995 9.77949L15.4072 9.88713H15.3765L15.3457 9.94863L13.7466 11.5478H13.7158L13.685 11.6093L13.5928 11.6862L13.5005 11.7938L13.3929 11.8861L13.316 11.9783L13.2391 12.0552L13.1776 12.1321L13.1007 12.3012L13.0854 12.3627V12.578L13.1469 12.7471L13.2391 12.8855L13.3314 12.9778V13.0085H13.3621V13.0393L13.4236 13.0701L16.0684 15.7148L16.0991 15.7302V15.7609L16.3452 15.8839L16.4221 15.8993H16.6527L16.8218 15.8378L16.9602 15.7456L18.5748 14.131L18.6363 14.0541L18.7439 13.9619L18.8208 13.8696L18.9284 13.7774L19.0053 13.6851L19.1129 13.5929L19.1898 13.5006L19.2975 13.4083L19.3897 13.3007H19.4205L19.4512 13.2392L20.3892 12.3012L20.4046 12.2705H20.4661L20.5583 12.5626L20.666 13.0239L20.7428 13.5621L20.7582 13.7312V14.5154L20.7121 14.9306L20.6352 15.3765L20.5122 15.8378L20.3738 16.2376L20.2047 16.622L20.0355 16.9603L19.8971 17.1909L19.7126 17.4677L19.5589 17.683L19.3897 17.8829L19.2513 18.052L18.8515 18.4518L18.6824 18.5902L18.4825 18.7593L18.2211 18.9439L17.9905 19.0976L17.606 19.3129L17.1909 19.5128L16.7296 19.6819L16.299 19.8049L15.8378 19.8972L15.315 19.9587L15.0074 19.9741H14.7768L14.2694 19.9433L13.685 19.8511L13.5159 19.8203H13.3775L13.2391 19.9126L13.1776 19.9741H13.1469L13.1161 20.0356L12.132 21.0197H12.1013L12.0705 21.0812H12.0398L12.009 21.1427H11.9783L11.9475 21.2042H11.9168L11.886 21.2657H11.8552L11.8245 21.3272H11.7937L11.763 21.3887H11.7322L11.7015 21.4502H11.6707L11.64 21.5117H11.6092L11.5785 21.5732H11.5477L11.517 21.6347H11.4862L11.4555 21.6962H11.4247L11.394 21.7578H11.3632L11.3324 21.8193H11.3017L11.2709 21.8808H11.2402L11.2094 21.9423H11.1787L11.1479 22.0038H11.1172L11.0864 22.0653H11.0557L11.0249 22.1268H10.9942L10.9634 22.1883H10.9327L10.9019 22.2498H10.8712L10.8404 22.3113H10.8096L10.7789 22.3728H10.7481L10.7174 22.4343H10.6866L10.6559 22.4958H10.6251L10.5944 22.5573H10.5636L10.5329 22.6188H10.5021L10.4714 22.6803H10.4406L10.4099 22.7418H10.3791L10.3484 22.8034H10.3176L10.2868 22.8649H10.2561L10.2253 22.9264H10.1946L10.1638 22.9879H10.1331L10.1023 23.0494H10.0716L10.0408 23.1109H10.0101L9.97932 23.1724H9.94857L9.91782 23.2339H9.88706L9.85631 23.2954H9.82556L9.7948 23.3569H9.76405L9.7333 23.4184H9.70254L9.67179 23.4799H9.64104L9.61029 23.5414H9.57953L9.54878 23.6029H9.51803L9.48727 23.6644H9.45652L9.42577 23.7259H9.39501L9.36426 23.7874H9.33351L9.30276 23.849H9.272L9.24125 23.9105H9.2105V23.9412H9.17974V23.972H9.14899V24.0027H9.11824V24.0335H9.08749V24.0642H9.05673V24.095H9.02598V24.1257H8.99523V24.1565H8.96447V24.1872H8.93372V24.218H8.90297V24.2487H8.87222V24.2795H8.84146V24.3102H8.81071V24.341H8.77996V24.3717H8.7492V24.4025H8.71845V24.4333H8.6877V24.464H8.65695V24.4948H8.62619V24.5255H8.59544V24.5563H8.56469V24.587H8.53393V24.6178H8.50318V24.6485H8.47243V24.6793H8.44168V24.71H8.41092V24.7408H8.38017V24.7715H8.34942V24.8023H8.31866V24.833H8.28791V24.8638H8.25716V24.8946H8.2264V24.9253H8.19565V24.9561H8.1649V24.9868H8.13415V25.0176H8.10339V25.0483H8.07264V25.0791H8.04189V25.1098H8.01113V25.1406H7.98038V25.1713H7.94963V25.2021H7.91888V25.2328H7.88812V25.2636H7.85737V25.2943H7.82662V25.3251H7.79586V25.3558L7.73436 25.4174H7.70361V25.4481H7.67285V25.4789H7.6421V25.5096H7.61135V25.5404L7.50371 25.6326L7.42683 25.7249L7.31919 25.8171L7.24231 25.9094L7.13468 26.0017L7.05779 26.0939L6.95016 26.1862L4.87434 28.262L4.67444 28.4158L4.4438 28.5695L4.19777 28.7079L3.89024 28.8309L3.56734 28.9232L3.18293 28.9847H2.64475L2.27572 28.9232L1.99894 28.8463L1.69141 28.7233L1.39926 28.5695L1.13786 28.385L0.937964 28.2159L0.676564 27.9545L0.492047 27.7084L0.353658 27.4778L0.199894 27.1549L0.123012 26.9242L0.0461294 26.6013L0.0153765 26.4014L0 26.2169V25.9248L0.0461294 25.525L0.138388 25.156L0.230647 24.9099L0.353658 24.6485L0.507423 24.4025L0.661188 24.2026L0.799576 24.0488L9.13362 15.7148L9.17974 15.6072V15.438L9.08749 14.9306L9.04136 14.5616L9.02598 14.3463V13.8235L9.05673 13.4545L9.11824 13.0393L9.19512 12.6703L9.31813 12.2551L9.4719 11.8399L9.65641 11.4402L9.85631 11.0865L10.0562 10.779L10.2715 10.4868L10.4406 10.2869L10.5482 10.1639L10.7635 9.93326L10.8865 9.81025L11.0095 9.70261L11.1633 9.56422L11.4708 9.33358L11.7937 9.11831L12.1166 8.93379L12.4549 8.76465L12.8701 8.59551L13.3006 8.45712L13.6543 8.36486L14.0695 8.28798L14.4692 8.24185L14.6999 8.22647ZM2.75239 24.1565L2.4141 24.218L2.16808 24.3102L1.95281 24.4179L1.72216 24.587L1.64528 24.6485V24.6793H1.61453V24.71H1.58378L1.41463 24.9253L1.307 25.0791L1.18399 25.3097L1.09173 25.5865L1.0456 25.9094V26.1862L1.09173 26.4783L1.18399 26.7705L1.307 27.0165L1.41463 27.1856L1.61453 27.4163L1.76829 27.5547L1.99894 27.7084L2.26034 27.8315L2.53712 27.9083L2.75239 27.9391H3.12142L3.32131 27.9083L3.55196 27.8468L3.78261 27.7546L4.02863 27.6162L4.1824 27.4932L4.30541 27.3855L4.41304 27.2625L4.56681 27.0473L4.68982 26.8012L4.7667 26.6013L4.82821 26.2938V25.8018L4.7667 25.5096L4.67444 25.2636L4.56681 25.0483L4.41304 24.833L4.27465 24.6793L4.05938 24.5101L3.84411 24.3717L3.61347 24.2641L3.35207 24.1872L3.1368 24.1565H2.75239Z" fill="#6084FE"/>
<path d="M2.75238 24.8022H3.13679L3.38282 24.8638L3.62884 24.9868L3.76723 25.0944L3.93637 25.2635L4.044 25.4327L4.10551 25.5557L4.16702 25.7402L4.19777 25.9401V26.1246L4.15164 26.4014L4.07476 26.6013L3.96712 26.7858L3.84411 26.9396L3.7211 27.0472L3.5212 27.1702L3.29056 27.2625L3.02916 27.3086H2.84464L2.58324 27.2625L2.35259 27.1702L2.18345 27.0626L1.99894 26.8934L1.8913 26.7551L1.79904 26.5859L1.72216 26.386L1.69141 26.2323V25.8786L1.75291 25.6172L1.87592 25.3712L1.96818 25.2328L2.12195 25.079L2.27571 24.9714L2.46023 24.8791L2.66012 24.8176L2.75238 24.8022Z" fill="#6084FE"/>
</svg>
