<svg width="30" height="30" viewBox="0 0 30 30" fill="none" xmlns="http://www.w3.org/2000/svg">
<path d="M1.875 3.14941H11.6748L11.6309 3.25195L11.4844 3.58887L11.3818 3.89648L11.2939 4.2627L11.25 4.54102L11.2354 4.74609V5.1709L11.2646 5.47852L11.3379 5.85938L11.4404 6.21094L11.5576 6.50391L11.6748 6.73828L11.6895 6.78223L11.6309 6.82617L11.1475 6.9873L10.6055 7.20703L10.2246 7.38281L10.0195 7.48535H9.99023L10.1074 7.70508L10.2539 7.9541L10.4883 8.36426L10.6934 8.71582L10.9277 9.12598L11.1328 9.47754L11.3525 9.8584L11.5576 10.21L11.792 10.6201L11.8945 10.7812L11.9238 10.8545L12.0117 10.8398L12.4658 10.6494L12.9932 10.4736L13.4473 10.3564L13.916 10.2686L14.4141 10.21L14.4727 10.1953L14.4873 8.71582H15.498L15.5127 8.8916V10.21L15.7324 10.2246L16.2451 10.2979L16.6699 10.3857L17.0508 10.4883L17.3291 10.5762L17.4023 10.5908L17.4316 10.5322L19.1602 8.80371L19.248 8.70117H19.2773L19.3066 8.64258L20.2881 7.66113L20.2295 7.61719L19.7168 7.35352L19.292 7.16309L18.7646 6.95801L18.3545 6.81152L18.3105 6.76758L18.4277 6.5332L18.5449 6.25488L18.6475 5.91797L18.7207 5.58105L18.7646 5.1416V4.77539L18.7354 4.46777L18.6768 4.13086L18.5889 3.80859L18.4717 3.48633L18.3252 3.17871V3.14941H28.1104L28.3594 3.19336L28.5938 3.28125L28.8281 3.41309L28.9893 3.54492L29.1211 3.67676L29.2676 3.88184L29.3848 4.11621L29.4434 4.30664L29.4727 4.48242L29.4873 4.79004V20.8594L29.4727 20.9033H0.527344L0.512695 20.874V4.62891L0.541992 4.36523L0.600586 4.16016L0.673828 3.98438L0.791016 3.79395L0.908203 3.64746L1.05469 3.50098L1.25977 3.35449L1.49414 3.2373L1.68457 3.17871L1.875 3.14941ZM21.7676 7.51465L21.6943 7.58789L21.4893 7.80762L20.6982 8.59863H20.7275L20.7568 8.65723L21.7529 9.65332L21.7383 9.71191L21.6797 9.75586V9.78516L21.6357 9.7998L21.5332 9.91699L20.5078 10.9424L20.4639 10.957L20.4346 10.8984L19.4531 9.91699H19.3945L18.3398 10.9717L18.4277 11.0742L19.3799 12.0264V12.085L17.9443 13.5205L17.9297 13.5498L17.8711 13.5352L17.5635 13.418L17.2998 13.3447L17.0068 13.3008H16.5234L16.1719 13.3594L15.8789 13.4473L15.6152 13.5645L15.3369 13.7402L15.1465 13.8867L14.9854 14.0332V14.0625H14.9561L14.8535 14.1797L14.707 14.3701L14.5312 14.6631L14.4141 14.9268L14.3115 15.293L14.2676 15.6006V16.0107L14.3115 16.3184L14.3994 16.626L14.4873 16.8457L14.6045 17.0801L14.7217 17.2559L14.8828 17.4609L15.1318 17.71L15.3662 17.8857L15.6445 18.0469L15.8789 18.1494L16.04 18.208L16.377 18.2812L16.6406 18.3105H16.875L17.168 18.2812L17.4902 18.208L17.7686 18.1055L18.0029 17.9883L18.1494 17.9004L18.3838 17.7246L18.5596 17.5635L18.6768 17.4463L18.8525 17.2119L18.9844 16.9922L19.1016 16.7432L19.2041 16.4355L19.2627 16.1279L19.2773 15.9668V15.6592L19.2334 15.3076L19.1455 14.9854L19.043 14.7217L19.0723 14.6484L19.1309 14.6045V14.5752L19.1895 14.5459L19.248 14.4873V14.458L19.3066 14.4287V14.3994L19.3506 14.3848L19.4238 14.2969L21.5771 12.1436V12.1143L21.6357 12.085V12.0557L21.6943 12.0264V11.9971L21.7529 11.9678V11.9385L21.8115 11.9092V11.8799L21.8701 11.8506V11.8213L21.9287 11.792V11.7627L21.9873 11.7334V11.7041L22.0312 11.6895L22.1338 11.5723L23.7891 9.91699V9.8877H23.8184V9.8584H23.8477V9.8291H23.877V9.7998H23.9062V9.77051H23.9355V9.74121H23.9648V9.71191H23.9941V9.68262H24.0234V9.65332H24.0527V9.62402H24.082V9.59473H24.1113V9.56543H24.1406L24.2432 9.44824L24.6973 8.99414L24.6094 8.8916L23.5986 7.88086L23.54 7.89551L22.8955 8.54004V8.56934L22.8223 8.54004L21.8115 7.5293L21.7676 7.51465ZM8.97949 8.07129L8.81836 8.17383L8.58398 8.33496L8.23242 8.59863L8.02734 8.75977L7.80762 8.9502L7.64648 9.08203L7.54395 9.18457L7.42676 9.28711L7.23633 9.47754L7.20703 9.49219V9.52148H7.17773V9.55078H7.14844L7.0459 9.66797L6.91406 9.7998L6.81152 9.91699L6.65039 10.0928L6.51855 10.2539L6.35742 10.4443L6.24023 10.6055L6.03516 10.8691L5.71289 11.3525V11.3965L6.0791 11.6016L6.32812 11.748L7.08984 12.1875L7.44141 12.3926L7.77832 12.583L8.12988 12.7881L8.51074 13.0078L8.81836 13.1836L9.03809 13.3154H9.11133L9.22852 13.1396L9.375 12.9492L9.49219 12.8027L9.66797 12.5977L9.87305 12.3633L10.0488 12.1875L10.0781 12.1729V12.1436L10.1367 12.1143L10.2393 12.0117L10.4004 11.8799L10.5908 11.7188L10.8691 11.5137L10.9424 11.4697L10.9131 11.3965L10.708 11.0303L10.5029 10.6787L10.0635 9.91699L9.8291 9.50684L9.62402 9.15527L9.4043 8.77441L9.16992 8.36426L8.99414 8.07129H8.97949ZM24.0234 11.0156L23.0273 12.0117V12.041H22.998V12.0703H22.9688V12.0996H22.9395L22.8662 12.1875L22.9395 12.1729L23.1299 12.0557L23.3936 11.9092L23.7451 11.7041L24.1553 11.4697L24.2871 11.3965L24.2578 11.3086L24.1113 11.0742L24.0674 11.0156H24.0234ZM5.18555 12.2607L5.05371 12.5098L4.86328 12.9346L4.6582 13.4326L4.51172 13.8428L4.39453 14.2236L4.27734 14.6484L4.14551 15.249L4.05762 15.7764L3.98438 16.3916L3.95508 16.9922V17.3291H7.85156L7.91016 16.5674L7.9834 16.0547L8.10059 15.5273L8.21777 15.1318L8.36426 14.7217L8.52539 14.3408L8.56934 14.2529V14.1943L8.26172 14.0186L8.0127 13.8721L7.63184 13.6523L7.22168 13.418L6.87012 13.2129L6.48926 12.9932L6.1377 12.7881L5.72754 12.5537L5.44922 12.3926L5.21484 12.2607H5.18555ZM24.7852 12.2607L24.4189 12.4658L24.0674 12.6709L23.6572 12.9053L23.3057 13.1104L22.5879 13.5205L22.2363 13.7256L21.8555 13.9453L21.5039 14.1504L21.4307 14.1943L21.4453 14.2822L21.6211 14.6924L21.7676 15.1025L21.8701 15.4395L21.958 15.791L22.0312 16.1719L22.0898 16.6406L22.1191 16.9922L22.1338 17.3291H26.0303L26.0449 17.2559L26.0303 16.7578L25.9863 16.2012L25.9277 15.7178L25.8398 15.2051L25.708 14.6191L25.5762 14.1504L25.459 13.7842L25.2979 13.3301L25.1221 12.9053L24.9316 12.4951L24.8145 12.2607H24.7852Z" fill="#6084FE"/>
<path d="M0.541992 21.8262H29.3848L29.4727 21.8408L29.4873 21.8701V22.1924L29.4727 23.0273L29.4287 23.2617L29.3408 23.4961L29.209 23.7305L29.1211 23.8477H29.0918L29.0625 23.9062L28.9014 24.0527L28.6963 24.1846L28.4766 24.2871L28.1836 24.3604L28.0078 24.375H1.97754L1.71387 24.3457L1.47949 24.2725L1.24512 24.1553L1.06934 24.0234L0.922852 23.8916L0.761719 23.6865L0.644531 23.4814L0.556641 23.2178L0.527344 23.0566L0.512695 22.8809V21.8555L0.541992 21.8262Z" fill="#6084FE"/>
<path d="M9.00879 25.2979H21.0059L21.0791 25.415L21.1963 25.6201L21.4307 26.0156L21.6064 26.3232L21.8408 26.7188L22.0166 27.0264L22.251 27.4219L22.3389 27.5977V27.7002L22.2949 27.7881L22.2217 27.8613L22.1338 27.8906H7.85156L7.73438 27.832L7.66113 27.7148V27.5977L7.76367 27.3926L7.9541 27.0703L8.15918 26.7188L8.37891 26.3379L8.51074 26.1182L8.74512 25.708L8.93555 25.3857L8.97949 25.3125L9.00879 25.2979Z" fill="#6084FE"/>
<path d="M14.9268 2.09473H15.0879L15.4248 2.12402L15.7178 2.18262L16.0693 2.2998L16.377 2.44629L16.6113 2.59277L16.8018 2.73926L16.9482 2.87109L17.0508 2.95898L17.1533 3.07617L17.2852 3.2373L17.417 3.42773L17.5488 3.66211L17.6514 3.88184L17.7686 4.2334L17.8271 4.52637L17.8564 4.76074V5.18555L17.7979 5.56641L17.7246 5.84473L17.6074 6.1377L17.4902 6.37207L17.3438 6.60645L17.1973 6.79688L17.1533 6.85547H17.124L17.0947 6.91406L16.9189 7.08984L16.7139 7.25098L16.5234 7.38281L16.2598 7.5293L15.9814 7.64648L15.6299 7.74902L15.2637 7.80762L15.0879 7.82227H14.8975L14.5898 7.79297L14.2969 7.73438L14.0479 7.66113L13.7695 7.54395L13.5205 7.41211L13.2861 7.25098L13.0957 7.08984L12.9492 6.95801L12.8027 6.79688L12.627 6.5625L12.4512 6.26953L12.3193 5.97656L12.2314 5.69824L12.1582 5.33203L12.1436 5.22949V4.70215L12.2021 4.33594L12.29 4.02832L12.3779 3.80859L12.4951 3.57422L12.627 3.35449L12.8027 3.12012L13.0078 2.90039L13.1836 2.73926L13.4326 2.56348L13.6523 2.43164L13.96 2.28516L14.2822 2.18262L14.5752 2.12402L14.9268 2.09473ZM16.2305 3.58887L16.0986 3.64746L15.9521 3.7793L14.8975 4.83398V4.86328L14.8389 4.89258L14.7217 5.00977V5.03906L14.6631 5.06836L14.5166 5.21484H14.4873L14.458 5.15625L14.165 4.86328H14.1357L14.1064 4.80469L13.9893 4.70215L13.8721 4.61426L13.7256 4.57031H13.5938L13.4619 4.61426L13.3301 4.70215L13.2422 4.83398L13.1982 5.00977L13.2129 5.15625L13.2861 5.30273L13.4473 5.47852L13.667 5.68359L14.0918 6.1084H14.1211V6.1377L14.2822 6.26953L14.3701 6.31348L14.4434 6.32812H14.6045L14.7217 6.28418L14.8389 6.21094L15.8789 5.1709V5.1416L15.9375 5.1123L16.0547 4.99512V4.96582H16.084V4.93652H16.1133V4.90723L16.1719 4.87793V4.84863H16.2012V4.81934H16.2305L16.333 4.70215L16.7139 4.32129L16.7725 4.2041L16.8018 4.02832L16.7725 3.88184L16.6846 3.73535L16.582 3.64746L16.4355 3.58887H16.2305Z" fill="#6084FE"/>
<path d="M16.6113 14.7803H16.9629L17.124 14.8242L17.3291 14.9268L17.5049 15.0879L17.6074 15.2051L17.71 15.4102L17.7539 15.5713V15.9229L17.6953 16.1133L17.5928 16.3037L17.4609 16.4502L17.3438 16.5527L17.1387 16.6553L16.9043 16.7139H16.6553L16.4355 16.6553L16.2598 16.5674L16.0986 16.4355L15.9668 16.2744L15.8643 16.0693L15.8203 15.8936V15.6006L15.8789 15.3809L15.9668 15.2197L16.0693 15.0879L16.1865 14.9707L16.377 14.8535L16.6113 14.7803Z" fill="#6084FE"/>
</svg>
