<svg width="30" height="25" viewBox="0 0 30 25" fill="none" xmlns="http://www.w3.org/2000/svg">
<path d="M9.52148 0H28.0225L28.3301 0.0439453L28.5352 0.102539L28.7549 0.19043L29.0039 0.322266L29.165 0.439453L29.3262 0.571289L29.4873 0.732422L29.6338 0.922852L29.7656 1.14258L29.8535 1.30371L29.8682 1.31836V18.0322L29.8242 18.0762L29.6484 18.3838L29.5166 18.5596L29.3555 18.7354L29.1943 18.8672L29.0332 18.9844L28.7695 19.1309L28.5498 19.2188L28.2568 19.292L28.0664 19.3213L27.7441 19.3359H22.8516L20.5664 19.3213V21.4746L22.5293 21.4893L22.6611 21.5039L22.793 21.5918L22.8662 21.6797L22.8955 21.7676V24.2725L22.8369 24.4043L22.749 24.5068L22.6465 24.5508L22.5293 24.5654H11.3525L11.2207 24.5215L11.1035 24.4189L11.0449 24.3164L11.0303 24.2139V21.8115L11.0742 21.6797L11.1328 21.5918L11.2646 21.5039L11.4258 21.4893H13.3594L13.374 19.3213L10.1367 19.3359L10.0928 19.3213V23.5693L10.0342 23.54L9.8877 23.3203L9.71191 23.042L9.50684 22.6758L9.38965 22.4414L9.25781 22.1631L9.09668 21.7676L8.8916 21.167L8.73047 20.5664L8.61328 20.0098L8.52539 19.4531L8.4668 18.9258L8.4375 18.501L8.42285 18.1641V17.5781L8.45215 17.0068L8.49609 16.5234L8.58398 15.8936L8.71582 15.2344L8.8623 14.6777L9.02344 14.165L9.05273 14.0332V12.4805L8.93555 12.6709L8.73047 13.0811L8.55469 13.4912L8.4082 13.8867L8.24707 14.3701L8.10059 14.9121L7.9834 15.4395L7.89551 15.9521L7.83691 16.3916L7.79297 16.8311L7.76367 17.4023V18.3105L7.79297 18.8525L7.86621 19.541L7.9541 20.0977L8.07129 20.6689L8.21777 21.2256L8.39355 21.7822L8.58398 22.2803L8.77441 22.7051L8.8916 22.9395L9.08203 23.3057L9.22852 23.54L9.46289 23.8916L9.58008 24.0527L9.69727 24.1992L9.77051 24.3018V24.3604L9.53613 24.4922L9.3457 24.5508L9.19922 24.5654H0.849609L0.65918 24.5361L0.483398 24.4629L0.322266 24.3604L0.307617 24.3164L0.483398 24.082L0.629883 23.8916L0.805664 23.6279L1.01074 23.291L1.20117 22.9395L1.3623 22.6172L1.59668 22.0605L1.74316 21.6504L1.9043 21.123L2.03613 20.5957L2.13867 20.0977L2.24121 19.4238L2.2998 18.8232L2.3291 18.2959V17.4023L2.2998 16.8604L2.24121 16.2744L2.15332 15.6885L2.03613 15.1025L1.91895 14.6338L1.77246 14.1504L1.64062 13.7695L1.47949 13.3594L1.30371 12.9785L1.11328 12.5977L0.908203 12.2461L0.732422 11.9678L0.541992 11.7041L0.249023 11.3379L0.0292969 11.1035L0.0146484 11.0889L0 10.415V1.875L0.0146484 0.849609L0.0585938 0.673828L0.175781 0.439453L0.322266 0.27832L0.527344 0.146484L0.673828 0.0878906L0.761719 0.0732422L1.01074 0.0585938H1.97754L2.02148 0.131836L2.40234 1.75781L2.49023 2.10938L2.54883 2.25586L2.63672 2.3291L2.70996 2.3584L2.79785 2.37305H7.32422L7.45605 2.3291L7.5293 2.25586L7.58789 2.13867L7.77832 1.37695L8.07129 0.175781L8.11523 0.0732422L8.15918 0.0585938H8.49609L9.30176 0.0439453L9.38965 0.0146484L9.52148 0ZM10.3857 1.28906L10.3711 1.30371V14.7949L19.4678 14.8096H28.6816L28.7256 14.7803V2.00684L28.667 1.81641L28.5791 1.65527L28.4473 1.50879L28.3008 1.40625L28.125 1.33301L28.0225 1.30371L27.8613 1.28906H10.3857ZM3.96973 3.89648L1.96289 3.91113L1.86035 3.94043L1.74316 4.04297L1.69922 4.13086L1.68457 4.2041V5.84473L1.72852 5.97656L1.81641 6.0791L1.91895 6.12305L2.02148 6.1377H8.07129L8.21777 6.1084L8.33496 6.02051L8.39355 5.93262L8.42285 5.77148V4.2627L8.39355 4.11621L8.30566 3.99902L8.18848 3.92578L8.10059 3.91113L6.06445 3.89648H3.96973ZM1.93359 7.14844L1.81641 7.20703L1.72852 7.30957L1.68457 7.42676V9.05273L1.72852 9.18457L1.83105 9.30176L1.96289 9.3457L3.92578 9.36035H5.6543L8.14453 9.3457L8.26172 9.30176L8.36426 9.19922L8.4082 9.11133L8.42285 8.99414V7.48535L8.39355 7.35352L8.30566 7.23633L8.23242 7.17773L8.15918 7.14844H1.93359ZM4.99512 11.4844L4.70215 11.5137L4.42383 11.5869L4.2041 11.6748L3.95508 11.8213L3.76465 11.9824L3.69141 12.041L3.58887 12.1582L3.42773 12.3779L3.28125 12.6562L3.20801 12.8613L3.14941 13.1689V13.5938L3.20801 13.8867L3.2959 14.1357L3.44238 14.4141L3.58887 14.6045L3.7207 14.751L3.86719 14.8828L4.08691 15.0293L4.39453 15.1758L4.6582 15.249L4.83398 15.2783H5.25879L5.50781 15.2344L5.77148 15.1465L6.00586 15.0293L6.18164 14.9121L6.34277 14.7803L6.48926 14.6338L6.66504 14.3848L6.78223 14.165L6.85547 13.9746L6.91406 13.7402L6.94336 13.4912V13.2715L6.89941 12.9492L6.78223 12.5977L6.65039 12.3486L6.51855 12.1729L6.38672 12.0264L6.24023 11.8945L5.97656 11.7188L5.71289 11.6016L5.46387 11.5283L5.28809 11.499L4.99512 11.4844ZM16.8604 15.8643L16.6699 15.8936L16.4795 15.9668L16.333 16.0547L16.2158 16.1572L16.084 16.333L15.9814 16.5674L15.9375 16.8018V17.0508L15.9961 17.3145L16.1133 17.5488L16.2158 17.6807L16.3477 17.7979L16.5088 17.8857L16.6113 17.9297L16.8457 17.9736H17.1094L17.3145 17.9297L17.4902 17.8564L17.6514 17.7539L17.7686 17.6367L17.9004 17.4316L17.9736 17.2266L18.0029 17.0654V16.8018L17.959 16.582L17.8857 16.3916L17.7832 16.2305L17.6807 16.1133L17.5342 16.0107L17.3584 15.9229L17.1973 15.8789L17.0801 15.8643H16.8604ZM22.251 16.5527L21.9873 16.582L21.8555 16.6406L21.7822 16.6992L21.7236 16.8311V16.9922L21.7969 17.1387L21.8701 17.1973L22.0166 17.2412L22.2803 17.2705H22.5879L23.0127 17.2559L23.1445 17.2119L23.2178 17.1387L23.2617 17.0801L23.291 17.0068V16.8311L23.2324 16.6992L23.1738 16.626L23.0859 16.582L23.0127 16.5674L22.5439 16.5527H22.251ZM24.7266 16.5527L24.4629 16.582L24.3457 16.626L24.2578 16.6846L24.1846 16.8311V16.9922L24.2578 17.1387L24.4043 17.2266L24.5508 17.2559L24.7705 17.2705L25.4736 17.2559L25.6055 17.2119L25.6787 17.1387L25.7227 17.0801L25.752 17.0068V16.8311L25.6934 16.6992L25.6201 16.626L25.5469 16.582L25.459 16.5674L24.9609 16.5527H24.7266ZM27.1729 16.5527L26.9092 16.582L26.7773 16.6406L26.7041 16.6992L26.6455 16.8311V16.9922L26.7188 17.1387L26.8359 17.2119L27.0117 17.2559L27.3193 17.2705L27.9199 17.2559L28.0664 17.2119L28.1396 17.1387L28.1836 17.0801L28.2129 17.0068V16.8311L28.1543 16.6992L28.0811 16.626L28.0078 16.582L27.9199 16.5674L27.4365 16.5527H27.1729ZM14.6777 19.3213V21.5039H19.2188L19.2773 21.4893V19.3213H14.6777ZM3.17871 21.8701L3.04688 21.8848L2.91504 21.9727L2.85645 22.0752L2.8418 22.1338V22.2949L2.88574 22.3975L2.97363 22.5L3.10547 22.5439H6.9873L7.10449 22.5L7.17773 22.4414L7.23633 22.3242L7.25098 22.2656V22.1631L7.20703 22.0312L7.11914 21.9287L7.0166 21.8848L6.91406 21.8701H3.17871Z" fill="#6084FE"/>
<path d="M18.4863 2.12402H18.7061L18.8818 2.16797L19.043 2.27051L19.1602 2.41699L19.2334 2.59277L19.248 2.72461V4.2334L19.4385 4.24805L19.6143 4.30664L19.7607 4.39453L19.9072 4.51172L20.0244 4.6582L20.127 4.86328L20.1709 5.03906L20.1855 5.1416V5.30273H22.2656L22.5732 5.33203L22.8809 5.40527L23.1152 5.49316L23.3496 5.61035L23.5986 5.77148L23.7598 5.90332L23.8623 5.99121V6.02051H23.8916L23.9941 6.1377L24.1406 6.31348L24.2871 6.5332L24.4629 6.87012L24.5654 7.13379L24.6533 7.45605L24.7266 7.89551L25.1074 10.7812L25.2979 12.2314L25.3271 12.6123L25.2979 12.8906L25.2246 13.125L25.1221 13.3301L25.0049 13.4912H24.9756L24.9463 13.5498L24.7412 13.7109L24.5215 13.8281L24.2432 13.916L23.9795 13.96H23.6133L23.335 13.916L23.0273 13.8135L22.749 13.667L22.6025 13.5498L22.4561 13.418L22.3096 13.2422L22.1631 12.9785L21.8994 12.4658L21.7236 12.1143L21.5771 11.8359L21.3867 11.4551L21.2402 11.1768L20.9619 10.6201L20.918 10.5469L17.2266 10.5322H16.2744L16.2451 10.6201L16.0693 10.9717L15.9229 11.25L15.7324 11.6309L15.5859 11.9092L15.3076 12.4658L15.1611 12.7441L14.9561 13.1396L14.8242 13.3301L14.6777 13.4912L14.4873 13.6377L14.2529 13.7695L14.0332 13.8574L13.7549 13.9307L13.5498 13.96H13.1543L12.9053 13.916L12.6709 13.8281L12.4805 13.7256L12.334 13.6084L12.1875 13.4619L12.085 13.3154L11.9678 13.0811L11.9092 12.876L11.8799 12.6855V12.4219L12.0117 11.3965L12.2021 9.97559L12.3486 8.84766L12.4951 7.76367L12.5684 7.38281L12.6562 7.08984L12.7734 6.79688L12.9346 6.50391L13.0957 6.26953L13.2275 6.12305L13.2422 6.09375H13.2715L13.3008 6.03516L13.4033 5.93262L13.5645 5.80078L13.7549 5.66895L13.9893 5.53711L14.2676 5.41992L14.5459 5.34668L14.8975 5.30273L17.0068 5.28809L17.0508 4.95117L17.1094 4.77539L17.2119 4.61426L17.2412 4.57031H17.2705L17.2998 4.51172L17.4316 4.39453L17.666 4.27734L17.7539 4.24805L17.9443 4.21875L17.959 2.66602L18.0029 2.49023L18.1055 2.3291L18.2227 2.22656L18.3691 2.15332L18.4863 2.12402ZM16.9482 6.40137L16.7578 6.43066L16.6113 6.50391L16.5381 6.62109L16.5234 6.66504V6.84082L16.582 6.97266L16.6553 7.03125L16.8164 7.08984L16.9629 7.10449H17.4023L17.5635 7.0752L17.6807 6.9873L17.7393 6.89941L17.7539 6.84082V6.66504L17.6953 6.5332L17.5928 6.44531L17.5049 6.41602L17.3438 6.40137H16.9482ZM19.2773 6.40137L19.0869 6.43066L18.9551 6.48926L18.8672 6.5918L18.8379 6.69434V6.82617L18.8818 6.94336L18.999 7.0459L19.1455 7.08984L19.292 7.10449H19.7314L19.8779 7.0752L19.9951 7.00195L20.0684 6.87012L20.083 6.73828L20.0537 6.60645L19.9805 6.48926L19.834 6.41602L19.6436 6.40137H19.2773ZM22.0898 6.40137L21.958 6.44531L21.8408 6.54785L21.7969 6.67969L21.7822 6.79688V7.20703L21.8262 7.41211L21.9287 7.55859L22.0752 7.61719H22.1777L22.2949 7.57324L22.3975 7.48535L22.4707 7.30957L22.4854 7.17773V6.78223L22.4561 6.62109L22.3975 6.51855L22.3096 6.44531L22.1631 6.40137H22.0898ZM14.5752 6.82617L14.4727 6.87012L14.3848 6.94336L14.3408 7.0166L14.3262 7.0752L14.3115 7.55859L13.8281 7.57324L13.7256 7.61719L13.6377 7.69043L13.5791 7.82227V7.99805L13.6523 8.14453L13.7402 8.21777L13.8867 8.26172L14.3115 8.27637V8.51074L14.3262 8.71582L14.3848 8.87695L14.458 8.96484L14.5898 9.00879H14.751L14.8535 8.96484L14.8975 8.93555V8.90625H14.9268L14.9854 8.77441L15.0146 8.58398V8.27637L15.0439 8.26172H15.4248L15.5713 8.23242L15.6592 8.17383L15.7324 8.07129L15.7617 7.89551L15.7324 7.76367L15.6738 7.67578L15.5859 7.60254L15.5127 7.57324H15.0146L15 7.06055L14.9414 6.94336L14.8389 6.85547L14.7363 6.82617H14.5752ZM22.8955 7.55859L22.6904 7.58789L22.5439 7.66113L22.4707 7.74902L22.4414 7.82227L22.4268 7.93945L22.4854 8.10059L22.5879 8.18848L22.6758 8.23242L22.8369 8.26172H23.3203L23.4668 8.21777L23.5693 8.12988L23.6133 8.04199L23.6279 7.9834V7.83691L23.5693 7.70508L23.5107 7.63184L23.4229 7.58789L23.3643 7.57324L23.1592 7.55859H22.8955ZM21.123 7.55859L20.9326 7.57324L20.7715 7.63184L20.6836 7.70508L20.6396 7.80762V8.0127L20.6982 8.12988L20.7715 8.18848L20.9473 8.24707L21.0645 8.26172H21.4893L21.6211 8.23242L21.709 8.17383L21.7822 8.08594L21.8115 8.0127V7.80762L21.7383 7.67578L21.665 7.61719L21.5625 7.57324L21.123 7.55859ZM22.1045 8.20312L21.9873 8.23242L21.8701 8.32031L21.7969 8.4668L21.7822 8.59863V9.00879L21.8262 9.21387L21.8994 9.3457L22.0166 9.4043L22.1777 9.41895L22.3242 9.375L22.4268 9.25781L22.4707 9.11133L22.4854 8.99414V8.59863L22.4561 8.42285L22.3828 8.30566L22.2803 8.23242L22.1777 8.20312H22.1045ZM16.9629 8.80371L16.8457 8.8623L16.7725 8.93555L16.7285 9.03809V9.22852L16.7871 9.3457L16.875 9.43359L16.9629 9.46289H19.6289L19.7607 9.4043L19.8486 9.30176L19.8779 9.19922V9.06738L19.8193 8.9209L19.7314 8.84766L19.6143 8.80371H16.9629Z" fill="#6084FE"/>
<path d="M0.0146484 12.1582L0.0732422 12.1875L0.19043 12.3633L0.395508 12.6855L0.615234 13.0811L0.805664 13.4766L0.996094 13.9453L1.15723 14.3994L1.30371 14.9121L1.4502 15.542L1.53809 16.0547L1.61133 16.626L1.65527 17.1973L1.66992 17.5488V18.1787L1.64062 18.7207L1.59668 19.2188L1.52344 19.7461L1.43555 20.2441L1.31836 20.7568L1.17188 21.2695L1.01074 21.7383L0.849609 22.1338L0.717773 22.4268L0.512695 22.8369L0.380859 23.0566L0.205078 23.335L0.0439453 23.5693H0.0146484L0 20.8447V15.7471L0.0146484 12.1582Z" fill="#6084FE"/>
<path d="M2.73926 0.0732422H7.33887L7.32422 0.234375L7.11914 1.3623L7.06055 1.66992L7.03125 1.71387H3.06152L3.01758 1.53809L2.75391 0.19043L2.73926 0.0732422Z" fill="#6084FE"/>
<path d="M2.37305 4.59961H7.70508L7.73438 4.62891V5.41992L7.69043 5.44922H2.37305L2.3584 5.43457L2.34375 4.64355L2.37305 4.59961Z" fill="#6084FE"/>
<path d="M2.3584 7.82227H7.71973L7.73438 7.83691V8.62793L7.71973 8.65723H2.37305L2.3584 8.64258L2.34375 7.86621L2.3584 7.82227Z" fill="#6084FE"/>
<path d="M4.93652 12.1582H5.1416L5.37598 12.1875L5.61035 12.2754L5.78613 12.3779L5.96191 12.5391L6.0791 12.7002L6.18164 12.9053L6.24023 13.1104L6.25488 13.2129V13.5645L6.19629 13.8135L6.12305 13.9893L5.97656 14.209L5.83008 14.3555L5.63965 14.4727L5.40527 14.5605L5.28809 14.5898L5.1416 14.6045H4.93652L4.74609 14.5752L4.48242 14.4873L4.32129 14.3848L4.14551 14.2236L4.01367 14.0479L3.91113 13.8281L3.85254 13.5791L3.83789 13.3154L3.86719 13.0957L3.94043 12.8613L4.04297 12.6709L4.13086 12.5537L4.18945 12.4805L4.33594 12.3633L4.51172 12.2607L4.73145 12.1875L4.93652 12.1582ZM4.93652 12.6123L4.79004 12.7002L4.73145 12.7881L4.70215 12.9639L4.6875 13.4033V13.6084L4.7168 13.8721L4.77539 14.0186L4.86328 14.1211L4.93652 14.1504L5.08301 14.165L5.2002 14.1357L5.28809 14.0771L5.36133 13.96L5.40527 13.7256V13.0957L5.39062 12.8613L5.34668 12.7441L5.22949 12.6416L5.15625 12.6123H4.93652Z" fill="#6084FE"/>
<path d="M16.875 16.5381H17.0508L17.1973 16.5967L17.2852 16.6992L17.3291 16.8018V17.0215L17.2559 17.168L17.168 17.2412L17.0654 17.2852H16.8604L16.7432 17.2266L16.6553 17.124L16.6113 17.0215L16.5967 16.875L16.6406 16.7285L16.7285 16.6113L16.875 16.5381Z" fill="#6084FE"/>
</svg>
