<svg width="30" height="30" viewBox="0 0 30 30" fill="none" xmlns="http://www.w3.org/2000/svg">
<path d="M14.8389 1.04004H15.1758L15.5713 1.08398L15.9082 1.15723L16.1865 1.24512L16.4648 1.34766L16.8018 1.49414L17.2412 1.71387L17.5781 1.9043L17.9736 2.12402L18.3398 2.3291L18.5742 2.46094L18.999 2.66602L19.292 2.7832L19.8193 2.95898L20.4932 3.14941L20.8447 3.25195L21.3281 3.39844L21.7822 3.55957L22.1191 3.70605L22.4121 3.85254L22.7197 4.04297L22.9688 4.2334L23.1445 4.39453L23.3203 4.57031L23.4814 4.77539L23.6279 4.98047L23.8037 5.28809L23.9795 5.6543L24.1406 6.06445L24.3164 6.62109L24.6387 7.74902L24.8145 8.29102L24.9609 8.64258L25.1367 9.00879L25.2832 9.28711L25.459 9.59473L25.5469 9.74121L25.6348 9.90234L25.8691 10.3271L26.0449 10.6641L26.1914 10.9717L26.3086 11.2646L26.4404 11.6602L26.5137 11.9678L26.5576 12.2754L26.5723 12.4365V12.8174L26.5283 13.1836L26.4404 13.5791L26.3086 13.9746L26.1621 14.3262L25.9863 14.6924L25.7666 15.1025L25.5762 15.4395L25.3711 15.8057L25.1807 16.1426L25.0635 16.3623L24.8877 16.7578L24.7412 17.1533L24.5947 17.6367L24.3604 18.457L24.1992 18.9844L24.082 19.3213L23.9941 19.541L23.833 19.8926L23.6426 20.2295L23.4814 20.4639L23.3203 20.6543L23.2178 20.7715L23.1006 20.8887L22.9395 21.0205L22.793 21.1377L22.5879 21.2695L22.2803 21.4453L21.8701 21.6357L21.3428 21.8262L20.6543 22.0312L19.8779 22.251L19.3359 22.4268L18.9404 22.5879L18.6914 22.7051L18.3691 22.8809L17.6367 23.291L17.373 23.4375L17.0508 23.6133L16.626 23.8184L16.2012 23.9795L15.8496 24.082L15.4688 24.1553L15.2197 24.1846H14.751L14.502 24.1553L14.1357 24.082L13.7549 23.9648L13.3887 23.8184L13.0957 23.6865L12.7734 23.5254L12.4365 23.335L11.4404 22.7783L11.0596 22.5879L10.6641 22.4268L10.0781 22.2363L8.9502 21.9141L8.52539 21.7822L8.07129 21.6064L7.69043 21.4307L7.45605 21.2988L7.19238 21.123L6.95801 20.9326L6.76758 20.7568L6.63574 20.6104L6.44531 20.3613L6.29883 20.127L6.15234 19.8633L6.02051 19.585L5.88867 19.248L5.71289 18.7207L5.34668 17.4463L5.1709 16.9189L4.99512 16.4941L4.80469 16.1133L4.61426 15.7764L4.39453 15.3809L4.2041 15.0439L4.01367 14.6924L3.85254 14.3701L3.67676 13.9453L3.55957 13.5938L3.47168 13.2129L3.42773 12.876V12.3633L3.47168 12.0264L3.54492 11.7041L3.63281 11.4111L3.75 11.1035L3.92578 10.708L4.13086 10.3125L4.32129 9.97559L4.52637 9.60938L4.7168 9.27246L4.83398 9.06738L4.95117 8.83301L5.12695 8.4375L5.25879 8.07129L5.43457 7.48535L5.74219 6.41602L5.91797 5.90332L6.06445 5.55176L6.18164 5.31738L6.34277 5.02441L6.50391 4.79004L6.62109 4.64355L6.75293 4.49707L6.76758 4.46777H6.79688V4.43848H6.82617L6.85547 4.37988L6.97266 4.27734L7.19238 4.10156L7.41211 3.95508L7.77832 3.75L8.07129 3.61816L8.45215 3.47168L8.90625 3.3252L10.2832 2.92969L10.7812 2.75391L11.0889 2.62207L11.4258 2.46094L11.7627 2.27051L12.1875 2.03613L12.5537 1.83105L12.8174 1.68457L13.1543 1.50879L13.5645 1.33301L13.9307 1.20117L14.2822 1.11328L14.5166 1.06934L14.8389 1.04004ZM14.5752 4.30664L14.0479 4.35059L13.5352 4.42383L12.9932 4.54102L12.5684 4.6582L12.0557 4.83398L11.6309 5.00977L11.1475 5.24414L10.8252 5.41992L10.4736 5.63965L10.2979 5.75684L10.0342 5.94727L9.8291 6.1084L9.63867 6.26953L9.47754 6.40137L9.22852 6.63574L8.8623 7.00195L8.73047 7.16309L8.54004 7.38281L8.24707 7.76367L7.9541 8.20312L7.77832 8.49609L7.63184 8.75977L7.45605 9.11133L7.32422 9.41895L7.16309 9.8291L7.00195 10.3271L6.87012 10.8545L6.78223 11.3232L6.72363 11.7773L6.69434 12.1729L6.67969 12.6709L6.69434 13.0664L6.73828 13.5938L6.82617 14.165L6.94336 14.6924L7.0752 15.1465L7.20703 15.5273L7.41211 16.0254L7.61719 16.4502L7.77832 16.7432L7.9541 17.0361L8.15918 17.3438L8.34961 17.6074L8.54004 17.8418L8.65723 17.9883L8.78906 18.1348L8.8916 18.252L8.96484 18.3398H8.99414V18.3691H9.02344L9.05273 18.4277L9.22852 18.6035L9.3457 18.7061L9.44824 18.8086L9.60938 18.9404L9.75586 19.0723L9.8877 19.1748L10.1221 19.3506L10.4004 19.541L10.6494 19.7021L11.001 19.9072L11.4258 20.127L11.8945 20.332L12.1582 20.4346L12.6123 20.5811L12.9785 20.6836L13.4473 20.7861L13.916 20.8594L14.4873 20.918L14.7949 20.9326H15.1611L15.6738 20.9033L16.2012 20.8447L16.626 20.7715L17.0215 20.6836L17.4023 20.5811L17.915 20.4053L18.3398 20.2295L18.7793 20.0244L19.1016 19.8486L19.3506 19.7021L19.79 19.4092L20.0684 19.2041L20.3027 19.0137L20.5078 18.8379L20.6836 18.6768L20.7861 18.5742L20.9033 18.4717L21.0791 18.2812L21.1816 18.1787L21.3135 18.0176L21.4453 17.8711L21.6064 17.666L21.7969 17.4023L21.9434 17.1973L22.1777 16.8164L22.2656 16.6699L22.3682 16.4648L22.5 16.2158L22.6758 15.8203L22.8076 15.4834L22.9834 14.9561L23.1006 14.502L23.2031 13.9746L23.2617 13.5498L23.3057 12.9932V12.2168L23.2617 11.6895L23.2031 11.2646L23.1006 10.7373L22.9541 10.1953L22.793 9.71191L22.6318 9.31641L22.4414 8.90625L22.2656 8.56934L22.0752 8.24707L21.7822 7.80762L21.6064 7.57324L21.46 7.38281L21.1084 6.97266L20.9619 6.82617L20.9473 6.79688H20.918L20.8887 6.73828H20.8594L20.8301 6.67969L20.7129 6.57715L20.5811 6.44531L20.4199 6.31348L20.2734 6.18164L20.0244 5.99121L19.8047 5.83008L19.4092 5.56641L19.0869 5.37598L18.7354 5.18555L18.3691 5.00977L17.9004 4.81934L17.373 4.64355L16.8164 4.49707L16.2598 4.39453L15.791 4.33594L15.3809 4.30664H14.5752Z" fill="#6084FE"/>
<path d="M14.5752 4.99512H15.4102L15.9082 5.03906L16.4062 5.1123L16.9336 5.22949L17.373 5.36133L17.7393 5.49316L18.0908 5.63965L18.457 5.81543L18.7354 5.96191L18.9844 6.1084L19.3359 6.34277L19.541 6.48926L19.8047 6.69434L20.0098 6.87012L20.127 6.97266L20.3467 7.17773L20.5811 7.41211L20.6836 7.5293L20.874 7.74902L21.0498 7.96875L21.2402 8.23242L21.3428 8.37891L21.5479 8.70117L21.7529 9.06738L21.9287 9.41895L22.0898 9.7998L22.2363 10.1953L22.3682 10.6348L22.4854 11.1328L22.5586 11.5869L22.6025 11.9678L22.6172 12.1729V13.0518L22.5879 13.418L22.5293 13.8574L22.4414 14.3115L22.3096 14.8096L22.1484 15.293L22.002 15.6445L21.8408 15.9961L21.665 16.333L21.5186 16.582L21.3574 16.8311L21.1963 17.0654L21.0059 17.3145L20.8154 17.5488L20.6689 17.71L20.5664 17.8271L20.4639 17.9297L20.4492 17.959H20.4199V17.9883H20.3906V18.0176H20.3613V18.0469H20.332V18.0762L20.2148 18.1787L20.1123 18.2812L19.9512 18.4131L19.7461 18.5889L19.4531 18.8086L19.2627 18.9404L18.9404 19.1455L18.6328 19.3213L18.2666 19.5117L17.9004 19.6729L17.5488 19.8047L17.1973 19.9219L16.7578 20.0391L16.4062 20.1123L15.9229 20.1855L15.4688 20.2295L15.1904 20.2441H14.751L14.165 20.2002L13.6523 20.127L13.3008 20.0537L12.9492 19.9658L12.5244 19.834L12.1729 19.7021L11.7334 19.5117L11.4111 19.3506L11.0596 19.1455L10.7373 18.9404L10.4736 18.75L10.2832 18.6035L10.0488 18.4131L9.8584 18.2373L9.74121 18.1348L9.38965 17.7832L9.28711 17.666L9.15527 17.5195L8.99414 17.3145L8.80371 17.0654L8.51074 16.626L8.32031 16.3037L8.11523 15.9082L7.9248 15.4834L7.76367 15.0439L7.63184 14.6191L7.5293 14.1797L7.45605 13.7842L7.39746 13.3008L7.36816 12.8174V12.4219L7.39746 11.9238L7.45605 11.4404L7.55859 10.9131L7.69043 10.415L7.86621 9.90234L8.0127 9.55078L8.18848 9.18457L8.36426 8.84766L8.54004 8.55469L8.68652 8.33496L8.87695 8.07129L9.02344 7.88086L9.14062 7.73438L9.33105 7.51465L9.4043 7.42676H9.43359L9.46289 7.36816L9.84375 6.9873L10.0049 6.85547L10.1514 6.72363L10.3564 6.5625L10.6348 6.35742L10.8545 6.21094L11.1621 6.02051L11.4258 5.87402L11.6748 5.74219L12.0996 5.55176L12.4951 5.40527L12.8613 5.28809L13.1836 5.2002L13.7695 5.08301L14.209 5.02441L14.5752 4.99512ZM17.5342 9.09668L17.417 9.15527L17.2705 9.28711L16.4502 10.1074V10.1367L16.3916 10.166V10.1953L16.333 10.2246V10.2539L16.2744 10.2832V10.3125L16.2158 10.3418L16.1572 10.4004V10.4297L16.0986 10.459V10.4883L16.04 10.5176L15.9229 10.6348V10.6641L15.8643 10.6934V10.7227L15.8057 10.752V10.7812L15.7471 10.8105V10.8398L15.6885 10.8691V10.8984L15.6299 10.9277V10.957L15.5713 10.9863V11.0156L15.5127 11.0449V11.0742L15.4541 11.1035V11.1328L15.3955 11.1621V11.1914L15.3369 11.2207V11.25L15.2783 11.2793V11.3086L15.2197 11.3379V11.3672L15.1611 11.3965V11.4258L15.1025 11.4551V11.4844L15.0439 11.5137V11.543L14.9854 11.5723V11.6016L14.9268 11.6309V11.6602L14.8682 11.6895V11.7188L14.8096 11.748V11.7773L14.751 11.8066V11.8359L14.6924 11.8652V11.8945L14.6338 11.9238V11.9531L14.5752 11.9824V12.0117L14.5166 12.041V12.0703L14.458 12.0996V12.1289L14.3994 12.1582L14.2236 12.334V12.3633L14.165 12.3926L13.9014 12.6562L13.8721 12.5977L13.7549 12.4805H13.7256L13.6963 12.4219L12.6562 11.3818L12.5098 11.2793L12.4512 11.2646H12.3047L12.1582 11.3379L10.7812 12.7148L10.7227 12.832L10.708 12.9785L10.7666 13.125L10.9277 13.3008L13.6816 16.0547L13.8281 16.1279H14.0039L14.1211 16.0693L14.2969 15.9082L19.2188 10.9863L19.2773 10.8545L19.292 10.752L19.248 10.6055L19.1455 10.4736L17.8418 9.16992L17.6953 9.09668H17.5342Z" fill="#6084FE"/>
<path d="M24.7852 19.3945H24.8145L25.0049 19.9512L25.2539 20.6543L25.5615 21.5332L25.8838 22.4561L26.1035 23.0859L26.9238 25.4297L27.0557 25.8105L27.0703 25.8545V26.0449L26.9824 26.1914L26.9092 26.25L26.8066 26.2939H26.6016L25.5469 26.0889L24.2871 25.8398L23.1445 25.6201L22.3096 25.459L22.2363 25.5176L22.1191 25.6641L21.9434 25.8691L21.8115 26.0303L21.6211 26.25L21.4453 26.4551L21.3135 26.6162L21.123 26.8359L20.9473 27.041L20.8594 27.1582H20.8301L20.8008 27.2168L20.2734 27.832L20.1123 28.0225L19.9365 28.2275L19.7754 28.418L19.5996 28.623L19.4678 28.7842L19.3652 28.8867L19.2188 28.9453H19.0723L18.9551 28.9014L18.8818 28.8281L18.8086 28.7256L18.5742 28.0664L18.3105 27.3047L18.1348 26.8066L17.8271 25.9277L17.6074 25.2979L17.3145 24.4629L17.2559 24.2725L17.3291 24.2285L17.666 24.0527L18.3398 23.6719L18.7061 23.4668L19.0283 23.291L19.3799 23.1299L19.6875 23.0127L20.1709 22.8662L21.2549 22.5586L21.7383 22.3975L22.0312 22.2949L22.3828 22.1484L22.6172 22.0312L22.9541 21.8408L23.1299 21.7236L23.3643 21.5479L23.5693 21.3721L23.7744 21.167L23.877 21.0498L24.0527 20.8301L24.2578 20.5225L24.4043 20.2588L24.5801 19.8926L24.7412 19.4824L24.7852 19.3945Z" fill="#6084FE"/>
<path d="M5.1709 19.3945H5.21484L5.39062 19.8193L5.52246 20.1123L5.69824 20.4492L5.88867 20.7422L6.02051 20.918L6.15234 21.0791L6.28418 21.2256L6.50391 21.4453L6.70898 21.6064L6.88477 21.7383L7.16309 21.9141L7.55859 22.1191L7.89551 22.2656L8.33496 22.4268L8.74512 22.5586L9.72656 22.8369L10.166 22.9688L10.5762 23.1152L10.8691 23.2471L11.1035 23.3643L11.3818 23.5107L11.6895 23.6865L12.0557 23.8916L12.29 24.0234L12.6123 24.1992L12.7148 24.2578L12.7295 24.3311L12.5537 24.8291L12.4072 25.2539L12.1582 25.9717L11.9531 26.5576L11.7334 27.1729L11.5869 27.5977L11.3379 28.3154L11.2061 28.6816L11.1328 28.8135L11.0449 28.9014L10.9131 28.9453H10.7812L10.6641 28.9014L10.5469 28.7988L10.415 28.6377L10.2832 28.4912L10.1514 28.3301L9.7998 27.9199L9.66797 27.7588L9.52148 27.5977L9.4043 27.4512L9.27246 27.3047L9.14062 27.1436L8.9502 26.9238L8.78906 26.7334L8.65723 26.5723L8.52539 26.4258L8.39355 26.2646L8.26172 26.1182L8.12988 25.957L7.77832 25.5469L7.70508 25.459L7.5293 25.4883L6.16699 25.752L3.76465 26.2207L3.38379 26.2939H3.17871L3.06152 26.2354L2.95898 26.1182L2.92969 26.0449V25.8545L3.06152 25.459L3.28125 24.8291L3.53027 24.1113L3.73535 23.54L3.88184 23.1152L4.16016 22.3096L4.33594 21.8115L4.55566 21.1816L4.74609 20.6396L5.05371 19.7607L5.15625 19.4531L5.1709 19.3945Z" fill="#6084FE"/>
<path d="M17.6074 9.93164L17.71 10.0195L17.8418 10.1514L17.9297 10.2246L18.0176 10.3271L18.1348 10.4297V10.459L18.1934 10.4883V10.5176L18.252 10.5469V10.5762H18.2812L18.3838 10.6934L18.4424 10.752L18.4131 10.8105L18.2373 10.9863L18.1641 11.0742L18.0615 11.1621L17.9736 11.2646H17.9443L17.915 11.3232L17.8125 11.4258H17.7832L17.7539 11.4844H17.7246L17.6953 11.543L17.6074 11.6162L17.5195 11.7188L17.4316 11.792L17.3438 11.8945L17.2559 11.9678L17.168 12.0703L17.0654 12.1582L16.9922 12.2461L16.9043 12.3193L16.8164 12.4219L16.7285 12.4951L16.6406 12.5977L16.5527 12.6709L16.4648 12.7734L16.3623 12.8613L16.2891 12.9492L16.1865 13.0371L16.1133 13.125L16.0254 13.1982L15.9375 13.3008L15.835 13.3887L15.7617 13.4766L15.6738 13.5498L15.5859 13.6523L15.5273 13.7109H15.498L15.4688 13.7695H15.4395L15.4102 13.8281H15.3809L15.3516 13.8867L14.8682 14.3701H14.8389L14.8242 14.4141L14.7363 14.4873L14.6484 14.5898L14.5605 14.6631L14.4727 14.7656L14.3701 14.8535L14.2822 14.9561L14.1943 15.0293L14.1211 15.1172L14.0039 15.2197L13.9453 15.293L13.8867 15.2783L11.5576 12.9492L11.5723 12.8906L11.6309 12.8613L11.6602 12.8027L12.3633 12.0996L12.4219 12.1289L13.6816 13.3887L13.7695 13.4473L13.8281 13.4619H13.9893L14.0918 13.418L14.1504 13.374H14.1797V13.3447L14.2969 13.2422L17.5635 9.97559L17.6074 9.93164Z" fill="#6084FE"/>
</svg>
