<svg width="25" height="24" viewBox="0 0 25 24" fill="none" xmlns="http://www.w3.org/2000/svg">
<path d="M24.7967 8.98687C24.6576 8.55886 24.2876 8.24687 23.8423 8.18216L16.6874 7.14247L13.4876 0.659047C13.2884 0.255468 12.8773 0 12.4273 0C11.9773 0 11.5662 0.255468 11.3671 0.659126L8.16728 7.14255L1.01236 8.18224C0.567001 8.24695 0.196923 8.55894 0.0578774 8.98695C-0.081168 9.41496 0.0348613 9.88483 0.357093 10.1989L5.53448 15.2456L4.31224 22.3716C4.23618 22.8151 4.4185 23.2635 4.78258 23.528C5.14675 23.7925 5.62939 23.8274 6.02776 23.618L12.4273 20.2536L18.8269 23.618C19.2282 23.8289 19.7106 23.7906 20.0721 23.528C20.4361 23.2635 20.6185 22.8152 20.5425 22.3716L19.3202 15.2456L24.4975 10.1989C24.8198 9.88476 24.9357 9.41488 24.7967 8.98687Z" fill="#F59E0B"/>
</svg>
