<svg width="30" height="30" viewBox="0 0 30 30" fill="none" xmlns="http://www.w3.org/2000/svg">
<path d="M2.19727 4.96582H24.4189L24.7266 4.98047L24.8291 5.02441L24.9316 5.1123L24.9902 5.21484L25.0049 5.27344V6.37207L24.9463 6.38672H19.7754L17.7393 6.40137L17.5635 6.44531L17.3877 6.5332L17.2412 6.65039L17.2266 6.67969H17.1973L17.168 6.73828L17.0654 6.91406L17.0068 7.10449L16.9922 7.57324V20.918L16.9775 20.9473H7.82227L7.80762 20.9326L7.79297 12.5391L7.74902 12.3779L7.66113 12.2168L7.5293 12.0703L7.38281 11.9824L7.25098 11.9385L7.17773 11.9238L1.69922 11.9092L1.65527 11.8945V6.1377L1.66992 5.25879L1.72852 5.12695L1.8457 5.02441L1.91895 4.98047L2.19727 4.96582Z" fill="#6084FE"/>
<path d="M17.8271 7.10449H20.2734L20.332 7.23633L20.5518 7.9248L20.6396 8.10059L20.7275 8.17383L20.8154 8.20312L22.5146 8.21777H26.6455L26.9092 8.20312L27.0264 8.14453L27.1143 8.04199L27.2168 7.76367L27.3926 7.20703L27.4219 7.11914L27.4512 7.10449H29.8682L29.9561 7.14844L30 7.19238V22.0166H17.7246L17.71 22.002L17.6953 7.35352L17.7246 7.20703L17.7832 7.14844L17.8271 7.10449Z" fill="#6084FE"/>
<path d="M0 12.627H0.761719L0.820312 12.7588L0.981445 13.2422L1.05469 13.3594L1.15723 13.4326L1.30371 13.4619H5.75684L5.88867 13.4473L6.00586 13.374L6.06445 13.3447L6.26953 12.7295L6.31348 12.627H7.0752L7.08984 12.6416V23.5107L7.06055 23.5254H0.0146484L0 23.5107V12.627Z" fill="#6084FE"/>
<path d="M11.1475 21.6797H15.5273L15.542 21.7529L15.5273 22.998H16.2451L16.3623 23.0273L16.4941 23.1152L16.582 23.2617L16.5967 23.4229L16.5527 23.5547L16.4355 23.6865L16.3623 23.7305L16.1719 23.7598H10.459L10.3125 23.7305L10.2246 23.6719L10.1221 23.5547L10.0781 23.4375V23.3203L10.1367 23.1738L10.2246 23.0713L10.3271 23.0127L10.4004 22.998H11.1328V21.6943L11.1475 21.6797Z" fill="#6084FE"/>
<path d="M17.7246 22.7344H30V23.6572L29.9707 23.6426L29.9121 23.7012L29.8682 23.7158H17.8564L17.7686 23.6865L17.7246 23.6426L17.71 23.6133L17.6953 23.2617V22.8223L17.7246 22.7344ZM23.0127 22.8662L22.8955 22.9248L22.8223 22.998L22.7783 23.0713L22.749 23.1592V23.291L22.8076 23.4229L22.8809 23.5107L22.9834 23.5693L23.0566 23.584H24.668L24.7998 23.54L24.917 23.4375L24.9756 23.291V23.1592L24.917 23.0127L24.8438 22.9395L24.7559 22.8809L24.6973 22.8662H23.0127Z" fill="#6084FE"/>
<path d="M3.19336 24.2285H3.7207L7.0752 24.2432L7.08984 24.2578V25.0049L7.06055 25.0195H0V24.2432L3.19336 24.2285ZM3.12012 24.2725L2.97363 24.3457L2.88574 24.4482L2.8418 24.6094L2.87109 24.7705L2.95898 24.9023H2.98828V24.9316L3.09082 24.9756H3.99902L4.11621 24.917L4.2041 24.8145L4.24805 24.6826L4.2334 24.5215L4.1748 24.4043L4.07227 24.3164L4.01367 24.2871L3.7793 24.2725H3.12012Z" fill="#6084FE"/>
<path d="M21.0352 7.10449H26.6602L26.6455 7.20703L26.5576 7.4707L26.5283 7.5H21.1816L21.1377 7.42676L21.0498 7.17773L21.0352 7.10449Z" fill="#6084FE"/>
<path d="M1.56738 12.627H4.92188L5.52246 12.6416L5.53711 12.7148L5.49316 12.7441H1.58203L1.55273 12.7295L1.53809 12.6416L1.56738 12.627Z" fill="#6084FE"/>
</svg>
