<svg width="30" height="30" viewBox="0 0 30 30" fill="none" xmlns="http://www.w3.org/2000/svg">
<g clip-path="url(#clip0_223_30)">
<path d="M9.90234 1.30371L9.96094 1.31836L10.2539 1.49414L10.6348 1.72852L10.9717 1.93359L11.1768 2.06543L11.1475 2.12402L11.0596 2.19727L11.0449 2.22656H11.0156V2.25586H10.9863V2.28516H10.957L10.9277 2.34375H10.8984L10.8691 2.40234L9.60938 3.66211L9.53613 3.75L9.47754 3.80859H9.44824L9.41895 3.86719H9.38965L9.36035 3.92578L7.9248 5.36133L7.85156 5.44922L7.66113 5.63965L7.5293 5.80078L7.33887 6.06445L7.19238 6.29883L7.0459 6.57715L6.89941 6.94336L6.81152 7.22168L6.73828 7.54395L6.69434 7.86621L6.67969 8.07129V8.4668L6.70898 8.77441L6.78223 9.18457L6.88477 9.53613L7.03125 9.90234L7.17773 10.1953L7.35352 10.4736L7.48535 10.6494L7.60254 10.7959L7.86621 11.0889L7.9834 11.1914L8.17383 11.3525L8.4375 11.543L8.78906 11.748L9.09668 11.8945L9.53613 12.041L9.93164 12.1289L10.2686 12.1729L10.5176 12.1875H10.6787L11.0742 12.1582L11.4258 12.0996L11.7773 12.0117L12.1729 11.8652L12.5537 11.6748L12.832 11.499L13.0811 11.3086L13.2861 11.1328L13.3887 11.0303H13.418V11.001H13.4473V10.9717H13.4766V10.9424H13.5059V10.9131H13.5352V10.8838H13.5645L13.5938 10.8252L14.2529 10.166L14.3555 10.0488L15.0146 9.38965L15.0879 9.30176H15.1172L15.1465 9.24316H15.1758L15.2051 9.18457L15.8789 8.51074L15.9521 8.49609L18.4863 8.51074L18.6035 8.61328L19.5703 9.58008V9.60938L19.6289 9.63867L19.7168 9.74121L19.8047 9.81445L19.8926 9.91699L19.9805 9.99023L20.083 10.1074L22.5 12.5244V12.5537L22.5586 12.583V12.6123L22.6172 12.6416V12.6709L22.6758 12.7002V12.7295L22.7344 12.7588L22.8076 12.8467L22.9102 12.9346L22.9834 13.0225L23.0859 13.1104L23.1885 13.2275L27.1875 17.2266L27.29 17.3438L27.4219 17.4756L27.5537 17.6367L27.7441 17.8857L27.9492 18.2812L28.0225 18.457L28.125 18.8232L28.1689 19.1162L28.1836 19.292V19.4971L28.1543 19.8193L28.0957 20.0977L27.9785 20.4639L27.8613 20.6982L27.7295 20.9326L27.583 21.123L27.4219 21.3135L27.3633 21.3867L27.2461 21.4893L27.0557 21.6504L26.7773 21.8262L26.543 21.9434L26.2354 22.0605L25.9277 22.1484L25.9424 22.2803V22.8223L25.8838 23.1738L25.7959 23.4814L25.6787 23.7598L25.5469 24.0088L25.3857 24.2432L25.2246 24.4336L25.0488 24.6094L24.8438 24.7705L24.668 24.9023L24.3164 25.0928L24.0967 25.1807L23.7305 25.2832L23.4375 25.3271L23.291 25.3418H22.8809L22.5879 25.2979L22.5293 25.5322L22.4414 25.7666L22.3242 26.001L22.1924 26.2207L22.0166 26.4551L21.8555 26.6309L21.6943 26.7773L21.4893 26.9385L21.2988 27.0557L20.9619 27.2314L20.6104 27.3486L20.3613 27.4072L19.9658 27.4512H19.7314L19.3652 27.4072L18.9844 27.3193L18.8379 27.6855L18.7207 27.9053L18.5449 28.1689L18.4131 28.3301L18.3398 28.418L18.2227 28.5205L18.0176 28.6963L17.8125 28.8428L17.4756 29.0186L17.3145 29.0918L16.9189 29.209L16.6699 29.2529L16.3916 29.2822H16.2305L15.8057 29.2383L15.4102 29.1357L15.1611 29.0332L14.8682 28.8867L14.6045 28.6963L14.4434 28.5791L14.458 28.5205L14.6045 28.374L14.707 28.2568L14.9121 27.9932L15.1025 27.6855L15.2197 27.4658L15.3369 27.1875L15.4395 26.8799L15.5127 26.5576L15.5566 26.2939L15.5713 26.1328V25.6201L15.5273 25.2393L15.4541 24.8877L15.3516 24.5654L15.2051 24.2139L15.0293 23.8916L14.8828 23.6719L14.7217 23.4668L14.5898 23.3203L14.4727 23.1885L14.3115 23.0566L14.165 22.9248L13.96 22.7783L13.6523 22.5879L13.3154 22.4268L13.0371 22.3242L12.7148 22.2217L12.5244 21.665L12.334 21.2549L12.1582 20.9766L12.0117 20.7715L11.8359 20.5664L11.7041 20.4199L11.499 20.2295L11.2939 20.0684L11.0742 19.9219L10.8545 19.79L10.4883 19.6143L10.0488 19.4678L9.93164 19.4238L9.8877 19.3506L9.75586 18.9258L9.58008 18.5449L9.43359 18.2812L9.28711 18.0615L9.12598 17.8564L8.9209 17.6367L8.90625 17.5928L8.84766 17.5635L8.65723 17.3877L8.4668 17.2412L8.18848 17.0654L8.04199 16.9775L7.58789 16.7725L7.14844 16.6406L7.10449 16.5674L6.97266 16.1426L6.78223 15.7178L6.66504 15.5127L6.47461 15.2344L6.35742 15.0879L6.21094 14.9268L6.1084 14.8096L5.88867 14.6045L5.61035 14.3994L5.30273 14.209L4.98047 14.0479L4.70215 13.9453L4.46777 13.8721L4.13086 13.7988L3.94043 13.7695L3.76465 13.7549H3.25195L2.94434 13.7842L2.51953 13.8721L2.12402 14.0039L1.80176 14.1504H1.75781L1.62598 13.916L1.37695 13.4473L1.15723 13.0371L0.981445 12.7002L0.805664 12.3779L0.585938 11.9531L0.541992 11.8799L0.556641 11.8213L0.688477 11.6748L0.820312 11.5137L0.908203 11.4111H0.9375L0.966797 11.3525L1.14258 11.1621L1.27441 11.001L1.50879 10.752L1.64062 10.5908L1.83105 10.3857L1.93359 10.2686L2.06543 10.1221L2.16797 10.0049L2.2998 9.8584L2.40234 9.74121L2.53418 9.59473L2.63672 9.47754L2.76855 9.33105L2.87109 9.21387L3.00293 9.06738L3.10547 8.9502L3.28125 8.74512L3.38379 8.64258L3.51562 8.48145L3.69141 8.29102L3.79395 8.17383L3.94043 8.0127L4.04297 7.89551L4.21875 7.69043L4.32129 7.58789L4.45312 7.42676L4.61426 7.25098L4.7168 7.13379L4.84863 6.9873L4.86328 6.95801H4.89258L4.92188 6.89941L5.08301 6.72363L5.18555 6.60645L5.31738 6.45996L5.33203 6.43066H5.36133L5.39062 6.37207L5.56641 6.18164L5.66895 6.06445L5.81543 5.90332L5.91797 5.78613L6.0498 5.63965L6.15234 5.52246L6.28418 5.37598L6.38672 5.25879L6.51855 5.1123L6.62109 4.99512L6.75293 4.84863L6.85547 4.73145L6.9873 4.58496L7.08984 4.46777L7.22168 4.32129L7.32422 4.2041L7.45605 4.05762L7.55859 3.94043L7.69043 3.79395L7.79297 3.67676L7.9248 3.53027L8.02734 3.41309L8.15918 3.2666L8.26172 3.14941L8.39355 3.00293L8.49609 2.88574L8.62793 2.73926L8.73047 2.62207L8.90625 2.41699L9.00879 2.31445L9.14062 2.15332L9.33105 1.94824L9.43359 1.83105L9.55078 1.68457H9.58008L9.60938 1.62598L9.77051 1.4502L9.78516 1.4209H9.81445L9.84375 1.3623L9.90234 1.30371Z" fill="#6084FE"/>
<path d="M20.9619 0.761719L21.0205 0.791016L21.5625 1.33301L21.665 1.4502L22.3242 2.10938L22.4268 2.22656L23.0566 2.85645V2.88574H23.0859L23.1885 3.00293L23.7598 3.57422V3.60352H23.7891L23.8916 3.7207L24.3164 4.14551L24.4189 4.2627L25.0781 4.92188L25.1807 5.03906L25.8398 5.69824L25.9424 5.81543L26.543 6.41602L26.6455 6.5332L27.0703 6.95801V6.9873L27.1289 7.0166L27.2314 7.13379L27.8467 7.74902L27.9492 7.86621L28.6084 8.52539L28.7109 8.64258L29.2969 9.22852L29.3994 9.3457L29.7656 9.71191V9.74121L29.8242 9.77051L29.8975 9.8584L30 9.96094V10.0049L29.8682 10.1074L29.7217 10.2539L29.6045 10.3564L29.3555 10.5908L29.3115 10.6348H29.2822V10.6641L29.165 10.7666L29.1211 10.8105H29.0918V10.8398L28.9746 10.9424L28.7402 11.1621L28.5645 11.3232L28.3447 11.5283L28.3008 11.543V11.5723L28.1836 11.6748L28.0811 11.7773L27.9639 11.8799L27.7295 12.0996L27.5391 12.2754L27.3633 12.4365L27.2607 12.5391L27.1436 12.6416L26.9092 12.8613L26.7188 13.0371L26.543 13.1982L26.3232 13.4033L26.1475 13.5645L26.0889 13.623L26.0303 13.5938L19.2188 6.78223H15.1465L15.0732 6.85547L15.0293 6.87012L15 6.92871L14.6045 7.32422L14.5898 7.35352H14.5605V7.38281H14.5312V7.41211H14.502V7.44141H14.4727L14.4434 7.5H14.4141L14.3848 7.55859L13.7842 8.15918L13.7549 8.20312H13.7256L13.6963 8.26172L13.0225 8.93555L12.9492 9.02344L12.8906 9.08203H12.8613L12.832 9.14062L12.1143 9.8584L11.9678 9.97559L11.8359 10.0781L11.6309 10.1953L11.3818 10.3125L11.0156 10.415L10.6348 10.459L10.4297 10.4443L10.166 10.415L9.8291 10.3125L9.68262 10.2539L9.41895 10.1074L9.22852 9.96094L9.05273 9.81445L8.9502 9.69727L8.77441 9.47754L8.62793 9.21387L8.55469 9.05273L8.4668 8.78906L8.4082 8.42285V8.14453L8.4375 7.86621L8.52539 7.5293L8.64258 7.26562L8.75977 7.06055L8.93555 6.82617L9.06738 6.67969L9.12598 6.60645L10.7959 4.93652L10.8105 4.90723H10.8398V4.87793H10.8691V4.84863H10.8984L10.9277 4.79004H10.957L10.9863 4.73145H11.0156L11.0449 4.67285H11.0742L11.1035 4.61426L12.4219 3.2959L12.583 3.16406L12.832 2.98828L13.1543 2.8125L13.4326 2.69531L13.6523 2.62207L14.0771 2.53418L14.502 2.50488L19.2041 2.49023L19.3213 2.3877L20.9326 0.776367L20.9619 0.761719Z" fill="#6084FE"/>
<path d="M3.38379 15.4834H3.64746L3.94043 15.5273L4.18945 15.6006L4.49707 15.7471L4.6875 15.8789L4.89258 16.0547L5.03906 16.2158L5.15625 16.377L5.27344 16.582L5.37598 16.8164L5.44922 17.0947L5.47852 17.3291V17.5928L5.41992 17.959L5.30273 18.2812L5.18555 18.5156L5.08301 18.6621H5.09766L5.33203 18.5156L5.52246 18.4277L5.83008 18.3252L6.12305 18.2812H6.45996L6.73828 18.3252L7.0166 18.4131L7.25098 18.5303L7.42676 18.6328L7.61719 18.7939L7.73438 18.8965L7.86621 19.0576L8.0127 19.2773L8.14453 19.5557L8.21777 19.79L8.26172 20.0391V20.4785L8.21777 20.7275L8.14453 20.9473L7.9834 21.2988L7.86621 21.4746L7.99805 21.3867L8.11523 21.3135L8.49609 21.1523L8.74512 21.0938L8.8623 21.0791H9.25781L9.53613 21.123L9.84375 21.2256L10.0781 21.3428L10.2539 21.46L10.459 21.6357L10.6201 21.8115L10.7666 22.0166L10.9131 22.2949L10.9863 22.5146L11.0303 22.7051L11.0596 22.9248V23.2471L10.9863 23.6133L10.8691 23.9062L10.7666 24.1113L10.6787 24.2432H10.6494L10.6641 24.2725L10.7959 24.1699L11.001 24.0527L11.25 23.9502L11.4697 23.8916L11.6602 23.8623H12.0703L12.3779 23.9209L12.7002 24.0381L12.9785 24.1992L13.2275 24.4043L13.3301 24.5068L13.4912 24.7119L13.5938 24.8584L13.7402 25.166L13.8281 25.4736L13.8574 25.6934V26.001L13.8135 26.2939L13.7402 26.5283L13.667 26.7041L13.5352 26.9385L13.3887 27.1289L13.1836 27.3486L12.3926 28.1396L12.2314 28.2715L12.041 28.4033L11.792 28.5352L11.5283 28.623L11.2354 28.6816L11.1182 28.6963H10.8838L10.6494 28.667L10.3418 28.5791L10.0049 28.418L9.7998 28.2715L9.65332 28.1396L9.56543 28.0664L9.43359 27.9053L9.30176 27.7148L9.16992 27.4658L9.08203 27.2021L9.03809 26.9824L9.02344 26.8213V26.5723L9.08203 26.2207L9.16992 25.957L9.28711 25.7227L9.38965 25.5615L8.99414 25.957H8.96484V25.9863L8.84766 26.0889L8.62793 26.3086L8.39355 26.4844L8.15918 26.6162L7.88086 26.7188L7.64648 26.7773L7.42676 26.8066H7.13379L6.85547 26.7627L6.54785 26.6602L6.24023 26.499L6.03516 26.3379L5.88867 26.2061L5.75684 26.0596L5.5957 25.8252L5.46387 25.5762L5.36133 25.2539L5.31738 24.9609V24.6973L5.36133 24.3896L5.46387 24.0674L5.61035 23.7744L5.77148 23.5693L5.69824 23.6279L5.47852 23.7744L5.1416 23.9209L4.77539 24.0088L4.42383 24.0234L4.18945 23.9941L3.92578 23.9355L3.63281 23.8037L3.48633 23.7158L3.28125 23.5693L3.07617 23.3789L2.94434 23.2178L2.76855 22.9541L2.66602 22.7344L2.59277 22.5293L2.51953 22.1777V21.8555L2.56348 21.5918L2.65137 21.3135L2.7832 21.0352L2.94434 20.8008L3.10547 20.625L3.04688 20.6543L2.8418 20.7715L2.62207 20.8594L2.25586 20.9473L2.13867 20.9619H1.80176L1.43555 20.8887L1.12793 20.7715L0.864258 20.6104L0.703125 20.4785L0.556641 20.3467L0.395508 20.1562L0.249023 19.9365L0.117188 19.6582L0.0292969 19.3799L0 19.3066V18.6768L0.102539 18.3252L0.175781 18.1494L0.307617 17.9004L0.424805 17.7539L0.585938 17.5635L2.16797 15.9814L2.37305 15.8203L2.59277 15.6885L2.98828 15.542L3.38379 15.4834Z" fill="#6084FE"/>
</g>
<defs>
<clipPath id="clip0_223_30">
<rect width="30" height="30" fill="white"/>
</clipPath>
</defs>
</svg>
