<svg width="30" height="30" viewBox="0 0 30 30" fill="none" xmlns="http://www.w3.org/2000/svg">
<g clip-path="url(#clip0_191_416)">
<path d="M22.5439 9.7998L22.6318 9.8291L22.9834 10.0342L23.3496 10.2393L23.5693 10.3711L24.3896 10.8398L24.6387 10.9863L25.0195 11.2061L25.3711 11.4111L25.7812 11.6455L26.1328 11.8506L26.543 12.085L26.8945 12.29L27.3047 12.5244L27.6562 12.7295L28.0664 12.9639L28.418 13.1689L29.1797 13.6084L29.8828 14.0186L30 14.0918L29.9854 14.165L29.9121 14.2822L29.7949 14.4873L29.5898 14.8389L29.3555 15.249L29.1357 15.6299L28.96 15.9229L28.8721 16.084L28.2129 17.2266L28.0811 17.4463L27.9932 17.6074L27.5537 18.3691L27.3926 18.6475L27.2021 18.9697L27.1143 19.1309L26.6748 19.8926L26.5137 20.1709L26.3086 20.5225L26.0742 20.9326L25.8545 21.3135L25.6787 21.6064L25.5908 21.7676L24.9316 22.9102L24.7998 23.1299L24.7119 23.291L24.2725 24.0527L24.1113 24.3311L23.9209 24.6533L23.833 24.8145L23.3936 25.5762L23.2324 25.8545L23.0273 26.2061L22.793 26.6162L22.5879 26.9678L22.3975 27.29L22.3096 27.4512L21.8701 28.2129L21.709 28.4912L21.5039 28.8428L21.2695 29.2529L21.0645 29.6045L20.874 29.9268H20.8154L20.4346 29.707L20.083 29.502L19.7021 29.2822L19.292 29.0479L18.9111 28.8281L18.5596 28.623L18.1787 28.4033L17.7686 28.1689L17.417 27.9639L14.751 26.4258L14.3994 26.2207L14.0186 26.001L13.6084 25.7666L13.2275 25.5469L12.876 25.3418L12.4951 25.1221L12.085 24.8877L11.7334 24.6826L10.21 23.8037L9.68262 23.4961L9.69727 23.4229L9.90234 23.0713L10.1367 22.6611L10.3564 22.2803L10.5029 22.0312L10.7373 21.6211L10.9424 21.2695L11.1768 20.8594L11.3232 20.6104L11.5576 20.2002L11.7627 19.8486L11.9971 19.4385L12.2021 19.0869L12.4365 18.6768L12.6416 18.3252L12.876 17.915L13.0811 17.5635L13.3154 17.1533L13.5205 16.8018L13.7549 16.3916L13.96 16.04L14.1357 15.7324L14.3555 15.3516L14.502 15.1025L14.707 14.751L15.1172 14.0332L15.3369 13.6523L15.4834 13.4033L15.7178 12.9932L15.9229 12.6416L16.1572 12.2314L16.3623 11.8799L16.6553 11.3672L16.7285 11.3965L16.9775 11.5283L17.2998 11.7188L17.71 11.9531L18.0615 12.1582L18.4717 12.3926L18.8232 12.5977L19.2334 12.832L19.585 13.0371L19.9951 13.2715L20.2441 13.418L20.4053 13.5059L20.4346 13.4326L20.5811 13.1689L20.8008 12.8027L20.9912 12.4658L21.167 12.1582L21.3721 11.8066L21.5918 11.4258L21.7969 11.0742L22.0312 10.6641L22.2363 10.3125L22.4268 9.99023L22.5146 9.81445L22.5439 9.7998Z" fill="#6084FE"/>
<path d="M8.99414 7.64648L9.05273 7.66113L9.22852 7.93945L9.38965 8.18848L9.59473 8.51074L9.72656 8.71582L9.8877 8.96484L9.99023 9.12598L10.1221 9.33105L10.2979 9.60938L10.4297 9.81445L10.5908 10.0635L10.7666 10.3418L10.8984 10.5469L11.0889 10.8398L11.2646 11.1182L11.4258 11.3672L11.8945 12.0996L12.0557 12.3486L12.2314 12.627L12.4512 12.9639L12.6709 13.3154L12.9932 13.8135L13.1689 14.0918L13.3301 14.3408L13.5059 14.6191L13.5352 14.6924L13.418 14.8828L13.2715 15.1465L13.0664 15.498L12.627 16.2598L12.4219 16.6113L12.1875 17.0215L11.9678 17.4023L11.8506 17.6074L11.7334 17.7979L11.6455 17.959L11.2061 18.7207L11.0449 18.999L10.8398 19.3506L10.6055 19.7607L10.3857 20.1416L10.21 20.4492L10.0195 20.7715L9.78516 21.1816L9.3457 21.9434L9.14062 22.2949L8.70117 23.0566L8.49609 23.4082L8.30566 23.7451L8.24707 23.833V23.877L8.62793 24.0967L8.97949 24.3018L10.5029 25.1807L10.8105 25.3564L11.1621 25.5615L11.4697 25.7373L11.8506 25.957L12.4805 26.3232L12.4951 26.3672L12.334 26.4697L12.1582 26.5869L10.8984 27.4072L10.6494 27.5684L10.2246 27.8467L9.72656 28.1689L9.05273 28.6084L8.80371 28.7695L8.42285 29.0186L7.20703 29.8096L7.03125 29.9268H6.97266L6.82617 29.6777L6.38672 28.916L6.24023 28.667L6.00586 28.2568L5.80078 27.9053L4.48242 25.6201L4.27734 25.2686L4.04297 24.8584L3.88184 24.5801L3.44238 23.8184L3.2373 23.4668L3.01758 23.0859L2.7832 22.6758L2.57812 22.3242L2.13867 21.5625L1.9043 21.1523L1.69922 20.8008L0.820312 19.2773L0.615234 18.9258L0.0292969 17.9004V17.8711H0L0.0146484 17.7979L0.234375 17.6807L0.454102 17.5488L0.834961 17.3291L1.18652 17.124L3.09082 16.0254L3.44238 15.8203L3.67676 15.6885H3.70605L3.60352 15.4834L3.41309 15.1611L2.75391 14.0186L2.59277 13.7402L1.71387 12.2168L1.59668 12.0117L1.56738 11.9385L1.71387 11.8506L2.09473 11.6309L2.44629 11.4258L2.85645 11.1914L3.20801 10.9863L4.73145 10.1074L5.08301 9.90234L5.49316 9.66797L8.54004 7.91016L8.84766 7.73438L8.99414 7.64648Z" fill="#6084FE"/>
<path d="M11.3818 0H19.9805L19.9951 0.0732422L19.9805 9.14062L19.8633 9.18457L19.0576 9.4043L16.1572 10.1807L16.0986 10.2393L15.9521 10.5029L15.7471 10.8545L15.5127 11.2646L15.3076 11.6162L15.0732 12.0264L14.8389 12.4219L14.6338 12.7881L14.3994 13.1836L14.1797 13.5791L14.1357 13.623L14.0332 13.4912L13.8135 13.1396L13.5791 12.7734L13.4326 12.5391L13.2275 12.2168L12.876 11.6602L12.4658 11.0156L11.7627 9.90234L11.5576 9.58008L11.2061 9.02344L11.001 8.70117L10.2979 7.58789L10.0928 7.26562L9.91699 6.9873L9.71191 6.66504L9.49219 6.31348L9.43359 6.22559V6.19629L9.25781 6.28418L8.90625 6.48926L8.49609 6.72363L8.11523 6.94336L7.76367 7.14844L7.38281 7.36816L7.0752 7.54395H7.06055V4.32129L7.08984 4.30664H11.3672V0.0146484L11.3818 0Z" fill="#6084FE"/>
<path d="M1.01074 13.1543L1.05469 13.1689L1.20117 13.4326L1.40625 13.7842L1.62598 14.165L1.83105 14.5166L2.06543 14.9268L2.25586 15.249L2.24121 15.3076L1.9043 15.498L1.55273 15.7031L0.791016 16.1426L0.439453 16.3477L0.205078 16.4795L0.117188 16.5234L0.131836 16.4209L0.424805 15.3076L0.673828 14.3994L0.834961 13.7842L0.966797 13.3008L0.996094 13.1689L1.01074 13.1543Z" fill="#6084FE"/>
<path d="M21.2109 9.90234L21.2402 9.93164L21.0205 10.3271L20.8154 10.6787L20.5811 11.0889L20.3467 11.4844L20.1562 11.8213L20.0537 11.9971L20.0098 12.0703L19.8047 11.9531L19.4678 11.7627L19.1162 11.5576L18.7061 11.3232L18.3545 11.1182L17.9443 10.8838L17.8711 10.8398L17.8857 10.7959L18.457 10.6494L19.6582 10.3271L20.918 9.99023L21.1377 9.93164L21.2109 9.90234Z" fill="#6084FE"/>
<path d="M10.2686 0.776367L10.3125 0.791016V3.22266L10.2832 3.25195H7.83691L7.88086 3.17871L10.2393 0.820312L10.2686 0.776367Z" fill="#6084FE"/>
</g>
<defs>
<clipPath id="clip0_191_416">
<rect width="30" height="30" fill="white"/>
</clipPath>
</defs>
</svg>
