<svg width="30" height="30" viewBox="0 0 30 30" fill="none" xmlns="http://www.w3.org/2000/svg">
<g clip-path="url(#clip0_223_20)">
<path d="M12.4365 0.820312H12.6562L13.125 0.834961L13.6816 0.878906L14.2822 0.952148L14.7949 1.04004L15.4395 1.18652L15.8496 1.30371L16.4795 1.50879L16.9629 1.69922L17.3291 1.86035L17.71 2.03613L17.9883 2.18262L18.3838 2.40234L18.6914 2.59277L18.8525 2.69531L19.1162 2.87109L19.3652 3.04688L19.541 3.17871L19.9072 3.47168L20.0977 3.63281L20.3027 3.80859L20.5225 4.01367L20.6543 4.14551L20.7715 4.24805L20.8301 4.32129L21.0938 4.58496L21.1963 4.70215L21.3281 4.84863L21.46 5.00977L21.6211 5.2002L21.8115 5.44922L21.9727 5.66895L22.1191 5.87402L22.2363 6.0498L22.3975 6.29883L22.6172 6.66504L22.8369 7.06055L23.1006 7.58789L23.2617 7.9541L23.4521 8.4375L23.6719 9.08203L23.8477 9.72656L23.9648 10.2686L24.0674 10.8984L24.126 11.3965L24.1553 11.792L24.1699 12.0996V12.9199L24.126 13.6084L24.0527 14.209L23.9502 14.8096L23.833 15.3369L23.6865 15.8643L23.4961 16.4502L23.3057 16.9336L23.1738 17.2412L22.9688 17.6807L22.7344 18.1348L22.5293 18.4863L22.3682 18.75L22.1338 19.1016L21.958 19.3506L21.8262 19.5264L21.6797 19.7168L21.4893 19.9512L21.3574 20.1123L21.1816 20.3027L21.0791 20.4199L21.0059 20.5078H20.9766L20.9473 20.5664L20.5371 20.9766L20.4199 21.0791L20.2148 21.2695L20.0537 21.4014L19.8926 21.5479L19.7314 21.665L19.5117 21.8408L19.2627 22.0166L19.0576 22.1631L18.7646 22.3535L18.457 22.5439L18.1201 22.7344L17.7832 22.9102L17.5488 23.0273L17.2412 23.1738L16.7432 23.3789L16.3037 23.54L15.8496 23.6865L15.3076 23.833L14.7803 23.9502L14.1797 24.0527L13.5352 24.126L13.1543 24.1553L12.8613 24.1699H12.041L11.4111 24.126L10.7959 24.0527L10.3711 23.9795L9.87305 23.877L9.36035 23.7451L8.78906 23.5693L8.30566 23.3936L7.88086 23.2178L7.58789 23.0859L7.5 23.042L7.35352 23.0566L2.00684 24.126L1.75781 24.1699H1.55273L1.37695 24.126L1.20117 24.0381L1.05469 23.9062L0.952148 23.7891L0.849609 23.5693L0.820312 23.4375V23.2617L0.908203 22.793L1.94824 17.5928L1.93359 17.4609L1.75781 17.0801L1.59668 16.6846L1.40625 16.1572L1.27441 15.7324L1.15723 15.293L1.04004 14.7656L0.952148 14.2676L0.878906 13.6963L0.834961 13.1689L0.820312 12.832V12.2314L0.834961 11.8506L0.878906 11.2939L0.952148 10.7373L1.04004 10.2393L1.17188 9.63867L1.34766 9.02344L1.56738 8.37891L1.77246 7.88086L1.99219 7.39746L2.24121 6.91406L2.44629 6.5625L2.62207 6.26953L2.91504 5.83008L3.07617 5.61035L3.19336 5.44922L3.36914 5.22949L3.47168 5.09766L3.63281 4.90723L3.80859 4.70215L3.91113 4.59961L4.01367 4.48242L4.14551 4.35059L4.16016 4.32129H4.18945L4.21875 4.2627L4.33594 4.14551L4.45312 4.04297L4.58496 3.91113L4.70215 3.80859L4.86328 3.66211L5.02441 3.53027L5.2002 3.38379L5.58105 3.09082L5.83008 2.91504L5.97656 2.8125L6.26953 2.62207L6.57715 2.43164L6.91406 2.24121L7.25098 2.06543L7.48535 1.94824L7.86621 1.77246L8.26172 1.61133L8.52539 1.50879L9.15527 1.30371L9.69727 1.15723L10.2246 1.04004L10.8252 0.9375L11.2939 0.878906L11.8652 0.834961L12.4365 0.820312ZM6.50391 10.8398L6.24023 10.8838L6.02051 10.957L5.77148 11.0889L5.5957 11.2207L5.39062 11.4258L5.27344 11.5869L5.15625 11.792L5.06836 12.0264L5.02441 12.2314L5.00977 12.3486V12.6709L5.05371 12.9053L5.1416 13.1689L5.27344 13.418L5.46387 13.6523L5.63965 13.8135L5.87402 13.96L6.1084 14.0625L6.31348 14.1211L6.48926 14.1504H6.84082L7.08984 14.1064L7.36816 14.0039L7.60254 13.8721L7.74902 13.7549L7.79297 13.7256V13.6963L7.85156 13.667L7.96875 13.5352L8.11523 13.3154L8.21777 13.0957L8.29102 12.8467L8.32031 12.6709V12.3486L8.27637 12.085L8.20312 11.8652L8.08594 11.6309L7.9541 11.4404L7.79297 11.2646L7.60254 11.1182L7.36816 10.9863L7.13379 10.8984L6.94336 10.8545L6.82617 10.8398H6.50391ZM12.334 10.8398L12.085 10.8838L11.8213 10.9717L11.6016 11.0889L11.3965 11.25L11.2207 11.4258L11.0596 11.6602L10.9424 11.9092L10.8838 12.0996L10.8398 12.3779V12.6416L10.9131 13.0078L11.0303 13.2861L11.1328 13.4473L11.2354 13.5791L11.3379 13.6963H11.3672V13.7256L11.5576 13.8721L11.792 14.0039L12.0264 14.0918L12.3193 14.1504H12.6709L12.9199 14.1064L13.1689 14.0186L13.3887 13.9014L13.5498 13.7842L13.7256 13.623L13.7402 13.5791H13.7695L13.916 13.374L14.0332 13.1396L14.1064 12.9346L14.1504 12.6855V12.3486L14.1211 12.1436L14.0479 11.8945L13.9307 11.6455L13.7842 11.4404L13.6523 11.2939L13.4766 11.1475L13.2568 11.0156L13.0518 10.9277L12.8613 10.8691L12.6562 10.8398H12.334ZM18.1641 10.8398L17.915 10.8838L17.6514 10.9717L17.417 11.1035L17.2852 11.2061L17.1387 11.3379L17.0068 11.4844L16.8457 11.748L16.7578 11.9678L16.6992 12.1729L16.6699 12.4365L16.6846 12.7295L16.7578 13.0371L16.8604 13.2715L16.9629 13.4473L17.0947 13.6084L17.2705 13.7842L17.4902 13.9307L17.7246 14.0479L17.9736 14.1211L18.1494 14.1504H18.501L18.75 14.1064L18.999 14.0186L19.1748 13.9307L19.3652 13.7988L19.541 13.6377L19.6582 13.5059L19.79 13.3008L19.8926 13.0811L19.9658 12.8174L19.9805 12.7295V12.29L19.9365 12.0557L19.834 11.7773L19.7168 11.5723L19.5703 11.3818L19.4238 11.2354L19.2188 11.0889L18.9697 10.957L18.75 10.8838L18.4863 10.8398H18.1641Z" fill="#6084FE"/>
<path d="M25.7227 14.1064L25.7959 14.1357L25.9424 14.2529L26.1328 14.3994L26.3379 14.5752L26.5283 14.751L26.6016 14.8096V14.8389L26.6602 14.8682L26.8652 15.0732V15.1025H26.8945L26.9971 15.2197L27.1582 15.3955L27.29 15.5566L27.4658 15.7764L27.6562 16.04L27.8906 16.3916L28.0664 16.6846L28.2568 17.0361L28.374 17.2705L28.5498 17.666L28.7109 18.0908L28.8428 18.501L28.96 18.9551L29.0625 19.4531L29.1357 20.0244L29.165 20.3613V21.3281L29.1064 21.9287L29.0332 22.3828L28.9307 22.8516L28.7842 23.3643L28.623 23.8184L28.4619 24.1992L28.418 24.3164V24.4336L28.7256 25.9863L29.0479 27.583L29.165 28.1836L29.1797 28.374L29.1504 28.5498L29.0771 28.7256L28.9746 28.8867L28.8281 29.0186L28.623 29.1211L28.4619 29.165H28.1836L24.375 28.4033L24.2871 28.418L23.9209 28.5791L23.4814 28.7402L22.998 28.8867L22.5 29.0039L21.9873 29.0918L21.4453 29.1504L21.2109 29.165H20.4199L20.0391 29.1357L19.5703 29.0771L19.248 29.0186L18.8379 28.9307L18.3105 28.7842L17.7832 28.5938L17.4023 28.4326L16.9482 28.2129L16.6113 28.0225L16.2305 27.7881L15.9668 27.5977L15.7324 27.4219L15.4102 27.1582L15.2637 27.0264L15.0439 26.8213L14.6924 26.4697L14.5898 26.3525L14.4141 26.1475L14.2529 25.9424L14.1357 25.7959L14.1064 25.7666L14.1211 25.708L14.6191 25.6348L15.2344 25.5176L15.6885 25.415L16.377 25.2246L16.9922 25.0195L17.4463 24.8438L17.7979 24.6973L18.2812 24.4775L18.6914 24.2725L19.0137 24.0967L19.4092 23.8623L19.7607 23.6426L20.1123 23.4082L20.2734 23.291L20.5518 23.0859L20.7861 22.8955L20.9912 22.7344L21.1963 22.5586L21.2402 22.5439V22.5146L21.4014 22.3828L21.5039 22.2803L21.6211 22.1777L21.7822 22.0166L21.8994 21.9141L22.1338 21.665L22.2803 21.5186L22.2949 21.4893H22.3242L22.3535 21.4307L22.5439 21.2256L22.6758 21.0645L22.8369 20.874L22.998 20.6689L23.2324 20.3613L23.4082 20.1123L23.7305 19.6289L23.8916 19.3652L24.0381 19.1162L24.2285 18.7793L24.3457 18.5596L24.5068 18.2227L24.7119 17.7832L24.917 17.2705L25.1074 16.7432L25.2393 16.333L25.3418 15.9814L25.4736 15.4395L25.5762 14.9414L25.6641 14.4141L25.708 14.1211L25.7227 14.1064Z" fill="#6084FE"/>
</g>
<defs>
<clipPath id="clip0_223_20">
<rect width="30" height="30" fill="white"/>
</clipPath>
</defs>
</svg>
