<svg width="254" height="239" viewBox="0 0 254 239" fill="none" xmlns="http://www.w3.org/2000/svg">
<g clip-path="url(#clip0_225_2163)">
<g filter="url(#filter0_f_225_2163)">
<ellipse cx="115.5" cy="243.5" rx="123.5" ry="11.5" fill="#65647A" fill-opacity="0.25"/>
</g>
<path d="M220.966 215.302C215.833 220.693 210.977 224.17 207.14 226.917C162.041 259.204 108.676 249.792 97.3344 247.494C80.5865 244.1 48.2132 237.539 24.8079 210.077C-10.6024 168.528 -5.08853 103.069 22.3781 59.8587C27.4022 51.9548 53.9408 8.08639 107.88 1.05126C140.524 -3.20634 178.576 5.3807 206.132 28.4158C263.976 76.7686 259.858 174.449 220.966 215.302Z" fill="url(#paint0_linear_225_2163)"/>
<path d="M49.3145 101.206L54.0205 101.376L57.4089 101.884L61.3619 103.071L64.9385 104.766L66.4445 106.461L68.3269 107.817L71.1505 109.513L73.5976 111.208L75.6683 112.903L77.1742 114.598L78.8684 117.311L79.9978 120.023L81.3155 124.431L83.0097 131.551L86.0216 143.587L87.151 147.825L88.2804 151.894L89.2217 151.555L92.4218 149.859L98.069 146.469L101.646 144.774L102.587 144.265L102.775 141.553L104.657 130.025L106.163 119.854L107.858 108.496L108.422 106.8L109.175 105.783L109.928 105.444H113.505L117.834 105.614L126.493 105.783L147.2 106.631L148.894 106.8L164.33 107.309L165.836 107.648L167.154 109.004V111.208L166.777 114.598L166.212 117.819L165.836 121.549L165.459 123.414L164.33 131.72L163.953 134.263L163.577 135.959L163.012 140.705L162.259 146.469L161.695 148.164L160.942 148.503L158.306 148.842L156.989 149.181H153.977L153.788 149.69H153.412L153.035 150.707L155.106 151.216L159.436 151.555L160.377 151.724L160.189 152.233L158.494 152.911L155.859 154.437L152.282 156.471L149.459 158.166L146.071 160.37L141.929 162.743L140.612 163.252H137.976L129.694 162.743L126.117 162.235L124.046 161.726L122.164 160.879V160.2L125.74 159.522L127.058 159.014L127.435 158.675V157.827L126.305 157.488H121.976L119.905 157.319H117.646L115.764 157.827L114.07 158.675L113.881 159.183L114.446 160.709L114.634 161.726V163.252L114.258 164.947L113.505 166.473L112.752 167.32L110.869 167.829L102.587 168.677L95.6219 169.185L93.9277 169.355H88.8452L82.445 168.846L83.0097 176.475L84.1391 187.494L84.3274 190.037L83.3862 190.715L83.5744 192.919L84.8921 205.463L86.2098 221.229L86.5863 229.027L86.7745 230.722V232.248H62.6796L62.1149 230.722L61.3619 228.349L60.7972 225.806V225.128L60.4207 225.298L60.2325 228.18L59.6678 232.248H37.8318V223.942L38.2083 210.719V207.159L37.6435 200.378V190.037L36.7023 189.698V184.442L37.0788 177.661L37.4553 171.728V163.252L36.3258 157.149L35.3846 150.877L34.0669 141.214L33.1257 133.077L32.9375 129.856V122.905L33.5022 119.684L34.4434 116.463L35.5729 113.92L37.6435 110.869L39.7142 108.665L41.4084 106.97L43.2908 105.444L45.9262 103.579L47.0556 102.732L47.9968 101.545L49.3145 101.206Z" fill="#2C5CF3"/>
<path d="M117.655 157.148H119.914L121.985 157.318H126.314L127.444 157.657L127.632 157.827V158.674L126.879 159.352L125.185 159.861L122.173 160.369L122.361 160.878L124.432 161.726L128.008 162.404L133.279 162.743L137.985 163.082H140.62L142.879 162.065L148.527 158.674L149.28 159.013L152.48 159.352L155.303 160.369L157.75 160.878L160.386 160.708L162.645 160.369L166.786 159.522L168.104 159.352H169.61L177.139 162.065L178.457 162.573L178.269 174.44L178.08 177.491L177.892 178.339L177.139 188.68V189.697L178.269 190.375L178.08 194.783L177.516 203.429L177.139 216.482L176.763 223.432L176.575 229.535L176.386 232.248H168.857L155.491 232.078H116.902L92.6189 232.248H86.7834L86.4069 229.027L86.0305 221.229L84.5245 203.598L83.3951 192.918L83.2068 190.714L84.148 190.036L83.3951 181.729L82.6421 174.44L82.4539 170.88L82.2656 168.846L83.0186 168.676L88.8541 169.185H93.9366L100.337 168.676L109.561 167.828L112.384 167.32L113.325 166.472L114.078 164.947L114.455 163.251V161.726L113.89 159.691L113.702 158.844L114.643 158.166L116.714 157.318L117.655 157.148Z" fill="#E8EFFD"/>
<path d="M207.249 108.495L208.566 108.834L209.508 109.512L211.014 111.716L211.766 113.072L214.025 114.089L216.473 115.446L219.108 116.632L220.99 117.819L222.308 118.497L224.379 120.023L226.073 121.548L227.579 123.752L228.332 125.448L229.085 128.329L229.273 129.516V133.415L228.896 135.789L228.332 137.823L227.767 140.366L226.826 143.417L225.508 147.994L224.755 150.198L224.19 152.232L224.002 152.402L223.814 156.301V171.05L224.379 178.339L224.755 185.798L224.943 186.815V190.036L223.814 190.714V193.427L224.379 200.886V205.463L224.19 205.802L224.379 210.718L224.943 221.229L225.508 229.705V232.248H201.978L201.601 231.4L200.472 226.145L199.719 222.754V221.737H199.343V223.772L198.59 229.027L198.213 232.248H176.377V229.535L176.565 223.432L176.942 216.482L177.318 203.429L178.071 191.901L178.26 190.375L177.318 190.036L176.942 189.697L177.318 183.594L177.695 178.339L177.883 177.491L178.071 174.44L178.26 164.269L178.448 162.743L180.142 163.082L185.601 164.777L189.178 165.964L194.825 167.32L198.778 168.168L206.119 169.185L206.872 169.354H208.19L210.072 168.676L211.766 167.659L213.272 165.964L215.343 162.912L217.225 159.861L218.731 157.318L220.802 153.08L220.614 152.402L218.167 151.046L214.214 149.35L210.449 148.164L207.625 147.655L206.684 149.52L204.237 155.114L203.672 155.284L198.213 154.945L197.272 154.775L191.436 154.606L187.86 154.267L187.107 154.097L181.083 153.589L180.707 153.419L178.824 153.249L178.26 152.91V151.215L177.507 150.198L174.871 147.825L173.553 146.469L170.918 144.095L170.165 143.756V143.417L169.224 143.078L168.471 142.739L167.906 142.23L168.283 140.705L169.977 137.484L171.859 133.585L173.365 130.872L176.189 124.939L177.883 122.057L179.012 120.531L180.33 119.006L182.589 117.48L186.166 115.785L189.554 114.428L191.436 113.581L192.754 112.055L193.695 111.038L193.884 109.004H194.448V116.632L195.389 118.667L195.954 119.853V120.362L197.084 119.684L198.401 118.667L201.037 117.141L203.296 115.615L204.802 114.428L206.119 113.072L207.437 111.547V110.36L207.249 109.851V108.495Z" fill="#092C70"/>
<path d="M207.249 108.495L208.566 108.834L209.508 109.512L211.014 111.716L211.766 113.072L214.025 114.089L216.473 115.446L219.108 116.632L220.99 117.819L222.308 118.497L224.379 120.023L226.073 121.548L227.579 123.752L228.332 125.448L229.085 128.329L229.273 129.516V133.415L228.896 135.789L228.332 137.823L227.767 140.366L226.826 143.417L225.508 147.994L224.755 150.198L224.19 152.232L224.002 152.402L223.814 156.301H223.626L223.437 153.249L221.179 152.91L219.673 151.893L217.79 150.876L214.214 149.35L210.449 148.164L207.625 147.655L206.684 149.52L204.237 155.114L203.672 155.284L198.213 154.945L197.272 154.775L191.436 154.606L187.86 154.267L187.107 154.097L181.083 153.589L180.707 153.419L178.824 153.249L178.26 152.91V151.215L177.507 150.198L174.871 147.825L173.553 146.469L170.918 144.095L170.165 143.756V143.417L169.224 143.078L168.471 142.739L167.906 142.23L168.283 140.705L169.977 137.484L171.859 133.585L173.365 130.872L176.189 124.939L177.883 122.057L179.012 120.531L180.33 119.006L182.589 117.48L186.166 115.785L189.554 114.428L191.436 113.581L192.754 112.055L193.695 111.038L193.884 109.004H194.448V116.632L195.389 118.667L195.954 119.853V120.362L197.084 119.684L198.401 118.667L201.037 117.141L203.296 115.615L204.802 114.428L206.119 113.072L207.437 111.547V110.36L207.249 109.851V108.495Z" fill="#092C70"/>
<path d="M110.497 107.987H114.45L122.545 108.326L128.38 108.496L129.886 108.665L133.463 108.835L144.757 109.174L149.84 109.513L152.852 109.683L159.817 109.852L163.77 110.022L164.334 110.361L164.146 112.904L163.581 116.294L161.699 129.178L160.57 137.145L159.628 143.926L159.252 144.944H155.299L154.358 144.774L146.263 144.265L120.662 142.57L105.415 141.553L105.227 141.384L105.415 139.349L107.297 126.974L109.368 113.412L109.933 110.191L110.121 108.496L110.497 107.987Z" fill="#FBFCFD"/>
<path d="M38.0247 190.715L40.2836 191.223L45.7426 192.579L49.8839 193.257L54.5899 193.766L57.037 193.936H63.4373L70.2139 193.257L75.6729 192.41L81.3202 191.223L83.0144 190.884L83.5791 192.918L84.8968 205.463L86.2145 221.229L86.5909 229.027L86.7792 230.722V232.248H62.6843L62.1196 230.722L61.3666 228.349L60.8019 225.806V225.128L60.4254 225.298L60.2372 228.179L59.6724 232.248H37.8364V223.941L38.2129 210.718V207.158L37.6482 200.377V192.24L37.8364 190.884L38.0247 190.715Z" fill="#092C70"/>
<path d="M145.132 193.936H171.863L172.051 194.105V217.16L171.863 223.772H173.557L174.874 223.941L174.31 225.298L174.498 226.484L174.686 229.027L174.874 230.892L175.627 231.4L175.439 232.078H90.1659L90.5424 231.739L94.3072 231.061L96.3779 230.383L96.5661 229.875H95.4366V229.197L95.6249 228.688L95.0602 228.179V227.84L94.3072 228.179H93.1777L92.9895 227.501L91.8601 227.84L91.4836 228.349L91.1071 228.179L91.2953 227.162L90.5424 226.993L89.9776 227.501L89.0364 226.823V225.806L88.8482 225.298L87.907 224.958L87.7188 224.111L94.3072 223.941H110.119L140.803 224.111L142.685 224.28H145.321L151.721 224.45H163.392L165.651 224.111L151.533 223.941L141.744 223.772L141.179 223.602L140.991 222.416V198.682L141.179 194.105L145.132 193.936Z" fill="#AAC7FC"/>
<path d="M13.7416 150.707L14.4946 150.877L15.8123 152.572L17.3182 155.623L19.7654 162.065L20.8948 165.795L22.589 174.949L22.7772 176.644L22.9655 182.408H23.1537L23.3419 180.713L23.7184 174.779L24.4714 170.033L25.4126 165.625L27.295 159.353L28.8009 155.623L29.5539 154.267H30.1186L30.3069 157.658V166.303L30.1186 171.898L29.7421 174.61L29.3657 175.966V177.492L29.9304 176.814L30.8716 174.44L32.001 172.576L33.6952 170.372L34.6364 169.355H35.2011L34.8247 173.084L33.507 179.526L32.001 184.612L30.4951 188.68L30.3069 190.376H35.0129L35.3894 190.545V194.275L34.2599 209.701L32.754 222.924V223.772L36.5188 223.941L36.7071 224.281L36.1424 225.467L35.9541 226.484L36.1424 228.01L36.7071 228.858V230.722H37.0836L37.2718 231.061L37.46 230.722L37.8365 214.957V202.412H38.0248L38.4012 207.159V210.719L38.0248 223.941L37.8365 232.079L37.2718 231.909L36.1424 232.248H31.4363L18.0712 232.079L17.13 231.57L16.0005 230.383L14.8711 227.841L14.3064 225.298L13.5534 219.025L12.4239 206.989L12.0475 203.26L11.4827 195.461V190.715L12.8004 190.545H17.13V189.359L15.4358 185.629L13.5534 180.713L12.8004 178.679L12.9887 178L13.7416 178.17L14.1181 179.526H14.4946L13.9299 178.17L13.3652 176.983L12.6122 177.661L12.0475 176.136L12.6122 175.966H13.3652L13.9299 175.288L12.9887 173.593L12.2357 173.084H11.1063L10.3533 171.389L9.97681 169.863L10.3533 169.694L11.2945 170.033L12.4239 171.219V171.559H12.8004L13.7416 173.084L15.0593 174.949L15.8123 176.644V176.983H16.377L16.1888 175.458L15.4358 172.745L14.4946 168.168L13.5534 159.861L13.3652 156.81V154.098L13.5534 150.877L13.7416 150.707Z" fill="#D2DFFB"/>
<path d="M221.182 152.741L223.629 153.08L223.817 171.05L224.382 178.339L224.759 185.798L224.947 186.816V190.037L223.817 190.715L223.441 193.257L221.182 193.766L218.923 194.614L217.982 194.953L214.594 195.631L211.205 196.139L206.687 196.478L199.534 196.309L192.758 195.461L189.181 194.953L182.404 193.427L181.275 192.918L178.828 192.41L178.263 191.393V190.376L177.322 190.037L176.945 189.697L177.322 183.595L177.698 178.339L177.887 177.492L178.075 174.44L178.263 164.269L178.451 162.743L180.145 163.082L185.604 164.777L189.181 165.964L194.828 167.32L198.781 168.168L206.123 169.185L206.876 169.355H208.193L210.076 168.676L211.77 167.659L213.276 165.964L215.347 162.913L217.229 159.861L218.735 157.318L220.806 153.08L221.182 152.741Z" fill="#092C70"/>
<path d="M109.929 105.444H113.506L117.835 105.614L126.494 105.783L147.201 106.631L148.895 106.801L164.331 107.309L165.837 107.648L167.154 109.004V111.208L166.778 114.599L166.213 117.82L165.837 121.549L165.46 123.414L164.331 131.721L163.954 134.263L163.578 135.959L163.013 140.705L162.26 146.469L161.695 148.164L160.942 148.503L158.307 148.843L156.989 149.182H153.977L153.789 149.69H153.413L153.036 150.707L155.107 151.216L159.436 151.555L160.378 151.724L160.189 152.233L158.495 152.911L155.86 154.437L152.283 156.471L149.46 158.166L146.071 160.37L141.93 162.743L140.612 163.252H137.977L129.694 162.743L126.118 162.235L124.047 161.726L122.165 160.879V160.201L125.741 159.523L127.059 159.014L127.435 158.675V157.827L126.306 157.488H121.976L119.906 157.319H117.647L115.764 157.827L115.012 158.166L113.317 157.827V157.658L110.87 157.319L108.611 157.149L105.599 156.98L100.517 155.963L94.6815 154.606L89.0342 153.25L88.2812 152.403V152.063L92.4226 149.86L98.0698 146.469L101.646 144.774L102.588 144.265L102.776 141.553L104.658 130.025L106.164 119.854L107.858 108.496L108.423 106.801L109.176 105.783L109.929 105.444ZM110.494 107.987L110.117 108.496L109.741 111.208L109.176 114.599L107.105 128.33L105.223 140.536V141.383L105.411 141.553L133.836 143.418L146.26 144.265L154.354 144.774L155.295 144.943H159.248L159.625 143.926L160.566 137.145L161.319 131.551L161.884 127.991L163.954 113.581L164.143 112.903L164.331 110.361L163.766 110.021L159.813 109.852L152.848 109.682L146.448 109.343L144.754 109.174L133.459 108.835L129.883 108.665L128.377 108.496L118.776 108.157L114.447 107.987H110.494Z" fill="#4970C7"/>
<path d="M168.476 142.739L169.794 143.248L170.17 143.417V143.756L171.112 144.095L174.876 147.486L176.194 148.842L178.077 150.537L178.453 151.215V152.911L178.83 153.08L180.712 153.25L182.406 153.589L187.112 153.928L189.936 154.267L191.442 154.436L197.277 154.606L198.218 154.775L204.054 155.115L205.748 151.215L207.254 147.825L207.819 147.486L211.019 148.164L214.595 149.351L218.925 151.215L220.996 152.572L220.807 153.419L218.925 157.318L217.043 160.539L214.784 164.099L212.901 166.642L211.395 168.168L208.948 169.355L208.195 169.524H206.878L202.548 168.846L198.03 168.168L192.759 166.981L188.806 165.964L180.9 163.421L178.453 162.743L173.371 160.878L169.606 159.522H168.1L164.335 160.2L162.076 160.709L159.064 161.048L156.617 160.878L153.229 159.861L152.476 159.522L149.276 159.183L148.711 158.505L150.593 157.318L154.358 155.115L158.311 152.911L159.629 152.233L160.194 152.063L160.382 151.724L156.617 151.555L154.358 151.215L153.04 150.707L153.229 150.029L153.982 149.181L156.994 149.012L159.064 148.503L160.947 148.334L161.7 148.164L165.841 148.334L167.912 144.434L168.288 143.756L168.476 142.739Z" fill="#FBC5A1"/>
<path d="M197.839 76.4551H202.922L205.369 77.1332L207.439 78.1503L209.698 80.0151L210.64 81.7103L211.016 82.5579L212.898 84.0837L214.028 86.457L214.216 87.3046V89.3389L213.275 92.7294L212.334 94.9332L209.698 99.6799L208.381 101.036L207.628 102.223L207.063 103.409V106.63L207.439 109.851L207.628 110.36V111.547L205.934 113.411L204.051 115.276L201.604 116.971L198.78 118.667L197.274 119.684L196.333 120.362H195.957L195.392 118.836L194.827 117.988L194.263 116.632V109.343L194.451 109.004L192.945 109.173L190.686 108.326L189.557 107.478L188.427 105.274L187.486 101.545L187.109 100.019V96.6285L187.674 92.8989L188.051 89.678L188.992 86.2875L189.18 85.1008L188.239 83.7446L187.486 81.7103V79.8456L188.804 77.4722L190.121 76.6246H192.004L192.945 76.7941H195.204L197.839 76.4551Z" fill="#FAC5A1"/>
<path d="M170.551 51.5352H175.634L175.822 51.8742L177.893 52.5523L180.151 53.5694L181.846 54.7561L183.728 56.4514L185.422 58.8247L186.175 60.3504L186.363 61.5371L186.552 62.2152H186.928L187.305 64.758V68.6571L186.928 70.0133L186.175 72.3866L184.669 74.76L182.975 76.7943L180.904 78.659L178.457 80.0152L177.704 80.1847L178.269 82.3886L178.646 83.7447V84.9314L177.704 84.7619L176.387 83.4057L174.128 81.3714L173.751 81.2019H171.492L169.045 80.8628L166.222 79.8457L164.151 78.8285L162.08 77.3028L160.01 74.76L158.692 72.2171L157.751 69.3352L157.562 68.6571V64.419L157.939 63.2323L158.127 61.5371L159.445 58.8247L161.139 56.6209L162.645 55.0952H163.021V54.7561L165.092 53.3999L166.786 52.5523L170.551 51.5352Z" fill="#FBFCFD"/>
<path d="M58.7282 61.0283H60.9871L64.1872 61.7064L66.6344 62.3845L69.458 63.5712L72.8463 64.9274L73.9758 65.2664L76.6111 65.4359L77.7406 65.9445L78.87 67.4702L79.0583 67.9788V70.3521L78.3053 72.2169L76.6111 73.9122L75.8582 74.2512H72.0934L70.9639 74.0817L70.7757 76.6245L70.0227 78.8284L68.5168 81.5407L67.952 83.236L67.3873 83.575L66.4461 83.4055L66.2579 83.236L65.8814 81.3712L64.9402 80.1845L64.5637 80.015H62.8695L61.9283 80.6931L60.9871 82.3884V84.9312L61.5518 86.796V87.6436L59.6694 90.695L58.54 91.8817L56.4693 93.0684L55.5281 93.4074H53.4575L51.3868 93.0684L50.4456 91.8817L49.5044 89.8474L47.8102 86.6265L46.4925 84.2531L45.5513 82.0493L44.9866 80.1845L44.6101 77.8112L44.4219 77.4722V75.2683L45.1748 71.8779L46.6808 69.1655L48.7514 67.6398L50.0691 67.1312L50.8221 65.2664L51.9515 63.9102L53.4575 62.7236L55.7164 61.7064L58.7282 61.0283Z" fill="#101979"/>
<path d="M109.934 105.444H113.511L117.841 105.614L126.5 105.783L147.206 106.631L148.9 106.801L164.336 107.309L165.842 107.648L167.16 109.004V111.208L166.783 114.599L166.219 117.82L165.842 121.549L165.466 123.414L164.336 131.721L163.96 134.263L163.583 135.959L163.018 140.705L162.266 146.469L161.701 148.164L160.948 148.503L158.312 148.843L157.559 149.012H155.677L155.301 148.843L155.112 148.164L153.418 147.995L146.83 147.656L127.817 146.3L121.605 145.961L114.829 145.283L103.911 144.435L102.969 144.096L102.781 143.587V141.553L104.664 130.025L106.17 119.854L107.864 108.496L108.428 106.801L109.181 105.783L109.934 105.444ZM110.499 107.987L110.123 108.496L109.746 111.208L109.181 114.599L107.111 128.33L105.228 140.536V141.383L105.417 141.553L133.841 143.418L146.265 144.265L154.359 144.774L155.301 144.943H159.254L159.63 143.926L160.571 137.145L161.324 131.551L161.889 127.991L163.96 113.581L164.148 112.903L164.336 110.361L163.771 110.021L159.818 109.852L152.853 109.682L146.453 109.343L144.759 109.174L133.465 108.835L129.888 108.665L128.382 108.496L118.782 108.157L114.452 107.987H110.499Z" fill="#0C2F74"/>
<path d="M13.7416 150.707L14.4946 150.877L15.8123 152.572L17.3182 155.623L19.7654 162.065L20.8948 165.795L22.589 174.949L22.7772 176.644L22.9655 182.408H23.1537L23.3419 180.713L23.7184 174.779L24.4714 170.033L25.4126 165.625L27.295 159.353L28.8009 155.623L29.5539 154.267H30.1186L30.3069 157.658V166.303L30.1186 171.898L29.7421 174.61L29.3657 175.966V177.492L29.9304 176.814L30.8716 174.44L32.001 172.576L33.6952 170.372L34.6364 169.355H35.2011L34.8247 173.084L33.507 179.526L32.001 184.612L29.9304 190.206L29.1774 190.545H20.7066L17.6947 190.376L16.9417 189.019L15.4358 185.629L13.5534 180.713L12.8004 178.679L12.9887 178L13.7416 178.17L14.1181 179.526H14.4946L13.9299 178.17L13.3652 176.983L12.6122 177.661L12.0475 176.136L12.6122 175.966H13.3652L13.9299 175.288L12.9887 173.593L12.2357 173.084H11.1063L10.3533 171.389L9.97681 169.863L10.3533 169.694L11.2945 170.033L12.4239 171.219V171.559H12.8004L13.7416 173.084L15.0593 174.949L15.8123 176.644V176.983H16.377L16.1888 175.458L15.4358 172.745L14.4946 168.168L13.5534 159.861L13.3652 156.81V154.098L13.5534 150.877L13.7416 150.707Z" fill="#618CE8"/>
<path d="M70.9673 73.9121L72.0968 74.0816L75.6734 74.2512V76.2854L76.0498 78.9978V81.0321L75.6734 81.7102V83.2359L76.991 86.4569L77.5558 87.6436V88.8302L76.2381 89.8474L75.4851 90.356L73.7909 96.1198L72.8497 98.1541L72.0968 99.0017L70.5908 99.3407H68.8967L67.579 99.1712H66.073L65.5083 100.697L65.1318 102.731L64.9436 104.766L61.367 103.24L57.4139 102.053L52.1432 101.205L49.5078 101.036L49.6961 99.3407L50.8255 95.6112L51.202 92.8988L53.4609 93.2379H55.5315L57.7904 92.2207L58.7316 91.5426L60.0493 89.8474L61.367 87.6436L61.1788 86.4569L60.8023 84.9312V82.3883L61.7435 80.6931L62.8729 79.8455H64.5671L65.5083 80.5236L66.2613 81.8797L66.4495 83.2359L67.3907 83.4055L67.9555 82.8969L68.7084 80.6931L70.2144 77.9807L70.5908 76.6245L70.7791 74.0816L70.9673 73.9121Z" fill="#FBC5A2"/>
<path d="M140.808 202.412H140.997L141.185 223.603L165.656 223.942L166.033 224.281L163.397 224.62H149.656L145.326 224.45H141.75L140.808 224.281L110.125 224.111V223.942H118.408L118.596 223.264L118.784 218.347V207.837L118.972 207.328L121.419 207.159L138.926 206.989L140.808 207.159V202.412Z" fill="#D3E0FC"/>
<path d="M134.213 114.768H136.284L139.108 115.615L140.99 116.632L142.872 118.158L144.378 120.362L145.32 122.905L145.508 123.922V127.312L144.567 130.533L143.249 132.568L141.555 134.432L139.484 135.789L136.849 136.806L135.531 137.145H132.896L131.013 136.636L128.754 135.619L126.872 134.093L125.554 132.568L124.237 129.855L123.672 127.312V125.278L124.613 122.057L126.119 119.345L128.19 117.31L130.26 115.954L132.707 115.107L134.213 114.768Z" fill="#60C8A2"/>
<path d="M103.911 145.791H105.982L115.959 146.469L129.512 147.317L132.712 147.656L139.301 148.164L153.419 149.181L153.795 149.351V149.69H153.419L153.231 150.199L150.972 151.555L147.96 153.42L145.136 155.115L144.383 155.284H142.124L127.63 154.098L120.477 153.589L113.7 153.081L102.97 152.063L96.0052 151.555L94.6875 151.216L95.064 150.538L96.7582 149.86L99.3935 148.334L103.158 146.3L103.911 145.791Z" fill="#092C70"/>
<path d="M221.178 152.741L223.625 153.08L223.814 171.05L224.378 178.339V185.629L223.249 185.798L222.496 184.273L221.931 181.73L221.366 180.543V179.865L220.802 180.035L220.613 181.221L220.237 181.56H219.107L218.919 181.73H217.978L217.413 180.035L216.849 179.526L217.225 178.339H217.602L217.037 177.322L216.66 178L215.719 178.17L215.531 177.153V176.644L214.025 176.814L213.837 175.288V172.915L212.331 173.423L210.637 174.61L209.507 174.949L207.625 174.61L201.413 173.254L198.589 172.576L194.071 171.389L191.812 170.372L192.001 169.863L193.13 169.524L193.318 169.185L194.26 169.016L194.071 168.168L194.26 167.659L193.507 167.32L195.954 167.49L198.777 168.168L206.119 169.185L206.872 169.355H208.189L210.072 168.676L211.766 167.659L213.272 165.964L215.343 162.913L217.225 159.861L218.731 157.318L220.802 153.08L221.178 152.741Z" fill="#061F62"/>
<path d="M197.838 76.4551H202.92L205.367 77.1332L207.438 78.1503L209.697 80.0151L210.638 81.7103L211.015 82.5579L212.897 84.0837L214.026 86.457L214.215 87.3046V89.3389L213.273 92.7294L212.332 94.9332L209.697 99.6799L208.379 101.036L206.873 103.409L206.497 103.24L206.12 101.714L205.932 101.206L208.191 100.188L209.32 98.8323L209.885 97.4761V94.9332L209.132 93.7465L208.756 93.577H207.25L206.12 94.4246L204.803 96.4589L204.426 96.6285L203.485 95.9504L203.297 93.4075L202.732 91.8818L202.167 90.5256V87.9827L202.544 86.7961V85.7789L201.414 85.4399H199.72L198.214 85.6094H193.508L191.437 84.9313L190.308 84.4227L189.743 84.5922L189.555 84.9313H188.99L188.237 83.7446L187.484 81.7103V79.8456L188.802 77.4722L190.12 76.6246H192.002L192.943 76.7941H195.202L197.838 76.4551Z" fill="#092C70"/>
<path d="M152.857 150.198L153.046 150.707L155.116 151.215L159.446 151.554L160.387 151.724L160.199 152.233L158.505 152.911L155.869 154.436L152.293 156.471L149.469 158.166L146.081 160.37L141.939 162.743L140.622 163.252H137.986L129.704 162.743L126.127 162.234L124.056 161.726L122.174 160.878V160.2L125.751 159.522L127.068 159.013L127.445 158.674V157.827L126.315 157.488L125.186 157.318L126.315 156.132L127.633 155.114L127.821 154.606L125.939 154.267L113.703 153.25V153.08H116.527L124.809 153.758L136.292 154.606L142.128 155.114H144.386L145.704 154.606L147.963 153.25L150.975 151.385L152.857 150.198Z" fill="#4A70C7"/>
<path d="M29.7477 154.098L30.1241 154.267L30.3124 157.658V166.303L30.1241 171.898L29.7477 174.61L29.1829 176.644L28.43 181.222L27.4888 186.477L26.924 190.376H22.4062L22.7827 190.037L23.9122 189.867L24.4769 188.85V187.155L24.2887 186.477L24.4769 185.121V183.934L24.1004 183.595L23.9122 179.357V175.288L24.4769 170.033L25.4181 165.625L27.3005 159.353L28.8065 155.623L29.5594 154.267L29.7477 154.098Z" fill="#2D5DF3"/>
<path d="M36.1391 189.867L37.0803 190.037L37.8333 190.376V200.378L38.0215 205.294V214.957L37.645 230.723L37.2685 231.231L37.0803 230.723H36.7038L36.5156 228.858L35.9508 228.01L35.7626 226.315L36.1391 224.789L36.5156 224.111L32.7507 223.942L32.5625 223.772L32.7507 221.568L34.0684 209.702L35.1979 194.275L35.3861 190.715L36.1391 189.867Z" fill="#E8F0FD"/>
<path d="M62.6875 133.246L63.064 133.585L64.7582 138.162L66.0758 141.892L67.9583 147.147L69.4642 151.216L71.9113 157.149L73.4173 160.539L75.2997 164.099L76.9938 166.134L77.7468 166.812L78.3115 166.981V167.32L79.0645 167.49L80.7587 168.168L82.2646 168.507V170.88L81.6999 171.559H81.3234V172.067L80.0057 172.576L79.0645 172.406L76.8056 171.389L74.5467 169.863L72.6643 167.999L71.1584 165.795L70.2172 163.93L68.7112 159.522L67.0171 153.759L66.4523 151.555L66.0758 149.52L65.1346 145.452L64.9464 143.757L65.5111 143.926L65.3229 142.739L64.7582 141.553L64.3817 139.349L62.6875 133.755V133.246Z" fill="#1A4BCC"/>
<path d="M117.656 157.148H119.915L121.986 157.318H126.315L127.445 157.657L127.633 157.827V158.674L126.88 159.352L125.186 159.861L122.174 160.369L122.362 160.878L124.433 161.726L128.009 162.404L132.151 162.743L131.586 163.59L128.951 164.777L125.939 165.794L124.056 166.642L122.362 167.15H118.786L114.833 166.303L114.08 165.964L114.268 164.438L114.456 163.251V161.726L113.891 159.691L113.703 158.844L114.644 158.166L116.715 157.318L117.656 157.148Z" fill="#FBC5A1"/>
<path d="M14.8708 161.387L15.2473 161.556L15.6238 163.251V163.591L16.3768 163.93L17.1297 165.794L18.2592 170.371L19.0121 175.118V177.831L17.6945 177.492L17.1297 176.983V176.644H16.7532L17.1297 178.17L17.8827 180.204L18.6357 180.373L19.5769 181.052L20.1416 183.255L20.3298 185.29L19.5769 184.951L20.3298 187.663L20.7063 189.358V190.375H17.6945L16.9415 189.019L15.4356 185.629L13.5531 180.712L12.8002 178.678L12.9884 178L13.7414 178.17L14.1179 179.526H14.4944L13.9296 178.17L13.3649 176.983L12.6119 177.661L12.0472 176.135L12.6119 175.966H13.3649L13.9296 175.288L12.9884 173.592L12.2355 173.084H11.106L10.353 171.389L9.97656 169.863L10.353 169.693L11.2943 170.032L12.4237 171.219V171.558H12.8002L13.7414 173.084L15.0591 174.949L15.812 176.644V176.983H16.3768L16.1885 175.457L15.4356 172.745L14.4944 168.168L13.9296 163.421V162.065L14.4944 161.895L14.8708 161.387Z" fill="#618CE8"/>
<path d="M178.453 190.376L178.83 190.546V190.885L180.524 191.224L185.795 192.241L190.312 192.919L195.583 193.427H204.807L211.584 192.919L217.043 192.241L220.054 191.732L223.066 191.054L223.443 190.885V193.258L221.184 193.766L218.925 194.614L217.984 194.953L214.595 195.631L211.207 196.14L206.689 196.479L199.536 196.309L192.759 195.462L189.183 194.953L182.406 193.427L181.277 192.919L178.83 192.41L178.453 191.732V190.376Z" fill="#051E60"/>
<path d="M206.5 78.1504H207.441L209.7 80.0152L210.641 81.7104L211.018 82.558L212.9 84.0837L214.03 86.4571L214.218 87.3047V89.339L213.277 92.7295L212.335 94.9333L209.7 99.68L208.382 101.036L206.876 103.409L206.5 103.24L206.123 101.714L205.935 101.206L208.194 100.189L209.324 98.8323L209.888 97.4761V94.9333L209.135 93.7466L208.759 93.5771H207.253L206.123 94.4247L205.182 95.7809L204.429 95.6114L204.241 94.4247V92.5599L204.806 92.3904L204.429 90.8647L204.241 90.1866L203.676 89.339V88.8304H203.3L203.112 87.8133L202.547 87.9828L202.923 86.6266H203.3V87.3047L203.676 87.1352V87.4742L204.429 87.3047L204.806 86.9656L206.123 86.2875L208.194 86.4571L209.135 87.3047L210.077 88.6609L210.829 88.8304L211.771 88.1523L212.147 86.2875L211.771 85.4399L211.394 85.2704L210.453 83.5752H208.947L206.5 84.5923L205.37 84.9314L204.429 84.7618L204.618 83.7447L205.182 83.2361V83.7447L205.935 83.5752L206.312 82.7275H206.688V82.3885L207.253 82.0494L206.876 81.0323H207.441L206.5 78.8285V78.1504Z" fill="#062062"/>
<path d="M13.7359 150.707L14.4888 150.877L15.8065 152.572L17.3124 155.623L19.7596 162.065L20.889 165.795L21.642 169.524V171.219L21.0773 172.067H20.7008L19.9478 170.372L19.0066 169.355L18.8184 169.016L19.0066 170.711L19.7596 175.288L20.1361 176.814L21.2655 186.477L22.0185 190.376H20.7008L19.9478 187.155L19.1949 184.442L19.5713 184.273L19.9478 185.12L20.3243 185.29L19.5713 181.56V181.052L18.8184 180.713L17.8772 180.204L17.1242 178.848L16.936 177.661L16.7477 177.492V176.644H17.1242V176.983L17.6889 177.153V177.492L18.8184 177.661V175.119L18.0654 170.372L16.7477 165.286L16.183 163.93L15.43 163.252L15.0535 161.557L14.1123 162.235L13.7359 161.557L13.3594 156.81V154.098L13.5476 150.877L13.7359 150.707Z" fill="#2E5EF3"/>
<path d="M82.4555 190.884H83.0202L83.5849 192.918V196.139L83.2084 195.63L83.0202 194.105L83.2084 193.257L81.7025 192.918L78.6906 194.105L71.161 195.8L68.3374 196.309L65.1373 196.648L64.949 196.817L61.9372 196.987H60.6195L60.243 196.648L61.5607 196.478H63.6313L62.8784 195.97L60.996 195.8H53.4663L47.8191 194.783L46.6896 194.274L43.866 193.766L42.1718 193.596L38.7835 192.07L38.5952 191.562L38.2188 191.223L38.407 191.053L40.2894 191.223L45.7484 192.579L49.8897 193.257L54.5957 193.766L57.0429 193.935H63.4431L70.2198 193.257L75.6788 192.41L81.326 191.223L82.4555 190.884Z" fill="#051E62"/>
<path d="M109.934 105.444H111.44V105.614L115.205 105.783L117.087 105.953H118.593L118.97 106.122H121.04L125.182 106.461L125.37 106.801L124.805 107.818L123.864 108.157L124.429 108.496L118.781 108.326L110.499 107.987L110.122 110.191L109.558 113.412L107.487 126.974L106.546 133.416L106.169 133.246L105.04 133.755V129.856H104.852L105.04 127.482L107.299 112.225L108.052 107.648L108.993 105.953L109.934 105.444Z" fill="#113886"/>
<path d="M61.5545 79.5068L62.8722 79.6764V80.0154L61.931 80.6935L60.9898 82.3887V84.9316L61.5545 86.7964V87.644L59.6721 90.6954L58.5427 91.8821L57.225 92.7297H56.2838L56.472 92.3907H56.8485V91.7126L56.6602 91.204L54.4013 91.7126H53.2719L52.5189 91.3735L51.766 90.3564L51.2012 88.6611L50.6365 87.4745L50.0718 85.7792L49.6953 85.6097L49.8836 84.084L50.4483 83.5754L52.1424 82.8973L54.9661 83.0668L56.6602 83.7449L56.8485 84.2535L58.3544 84.084L59.1074 81.3716L60.0486 80.1849L61.5545 79.5068Z" fill="#051E61"/>
<path d="M47.8125 205.463L48.7537 205.632L50.8244 206.48L51.9538 206.819H53.2715L54.7774 208.006L55.9069 209.701L57.0363 212.752L58.5423 217.838L60.4247 224.28L60.6129 224.958L60.4247 225.297L60.2364 228.179L59.6717 231.57L59.4835 232.078H56.8481L57.601 231.57V231.061H57.9775V229.535L57.601 228.857L57.7893 227.84H57.4128L56.6598 225.975L55.1539 219.533L54.5892 216.651L53.8362 213.431L53.0833 210.718L52.3303 208.853L51.3891 207.667L50.0714 206.819L48.0007 205.802L47.8125 205.463Z" fill="#051E60"/>
<path d="M156.244 151.555H159.444L160.385 151.724L160.197 152.233L158.502 152.911L155.867 154.437L152.29 156.471L149.467 158.166L146.079 160.37L141.937 162.743L140.62 163.252H137.984L129.702 162.743L126.125 162.235L124.054 161.726L122.172 160.879V160.2L124.054 159.861H126.69L130.831 160.37L139.49 161.048L140.808 160.879L143.067 159.861L145.702 158.166L148.902 156.132L152.479 153.928L154.361 152.741L156.244 151.555Z" fill="#0C2F74"/>
<path d="M170.546 51.0264H174.311L175.629 51.1959L176.57 51.3654L179.394 52.3826L181.841 53.9083L183.911 55.773V56.1121H184.288L185.982 58.4854L186.547 60.0111H186.923L187.865 62.554L188.241 64.7578V68.8264L187.865 70.3521H187.488L187.112 71.8778L185.982 74.2512L184.476 76.2855L184.1 77.1331H183.723L183.347 77.8112L181.276 79.6759L179.205 80.6931V82.0493L179.958 85.9483L179.77 86.6264L178.829 86.4569L176.758 84.7617L175.252 83.575L174.876 82.5579L174.123 82.3883L173.935 82.2188L169.793 81.8798L168.476 81.5407V81.2017L167.534 81.0321L164.523 79.6759L162.452 78.3198L160.381 76.455L159.064 74.5902L158.122 72.895L157.181 70.1826L156.805 68.8264V65.9445L156.993 63.5712L157.746 60.8588L158.687 58.8245L160.193 56.4511L162.264 54.4169L164.523 52.8911L166.781 51.874L169.417 51.1959L170.546 51.0264ZM170.546 51.5349L166.781 52.5521L164.146 53.9083L163.017 54.7559V55.0949L162.264 55.434L160.57 57.2988L159.252 59.1635L158.122 61.5369L157.934 63.2321L157.558 64.4188V68.6569L158.311 71.1997L159.252 73.4036L160.381 75.2683L162.264 77.4721L164.711 79.1674L167.534 80.354L169.793 81.0321L172.24 81.2017H173.746L175.252 82.3883L178.076 84.9312H178.641V83.7445L177.888 80.5236L177.699 80.1845L178.829 79.8455L181.088 78.4893L183.347 76.455L185.229 73.9121L186.17 72.3864L187.112 69.674L187.3 68.6569V64.7578L186.923 62.215H186.547L186.17 60.3502L184.664 57.6378L183.158 55.9426L181.276 54.2473L178.829 52.8911L176.382 52.0435L175.629 51.7045V51.5349H170.546Z" fill="#A5C3FA"/>
<path d="M110.304 152.911L121.599 153.759L125.928 154.098L127.811 154.437L127.999 154.776L127.058 155.793L125.552 156.98L125.175 157.488H121.975L119.905 157.319H117.646L115.763 157.827L115.01 158.166L113.316 157.827V157.658L110.869 157.319L108.61 157.149L105.598 156.98L104.469 156.81L105.41 155.963L108.045 154.098L110.304 152.911Z" fill="#103785"/>
<path d="M172.052 194.274H172.24V207.497L172.805 207.667L172.993 208.006L174.311 208.345L174.875 210.888L175.252 214.448L175.44 218.686L175.628 220.72L176.193 222.415L176.381 222.246L176.758 217.838H176.946V220.89L176.758 223.433L176.569 229.535L176.381 232.248H168.852V232.078L175.44 231.909L175.628 231.4L174.875 231.061L174.499 229.874V228.01L174.311 226.484L174.122 225.297L174.687 224.111L171.863 223.772V217.16L172.052 194.274Z" fill="#CFDDFB"/>
<path d="M207.25 106.8L208.379 106.969L210.45 108.326L211.956 110.36L212.897 112.055V112.394L213.838 112.733L216.097 113.75L219.674 115.276L222.121 116.632L224.756 118.327L225.698 119.006L226.827 120.192L228.521 122.227L229.839 124.939L230.592 127.99L230.968 130.703V134.263L230.592 136.297L229.839 138.501L229.462 139.009H229.086V140.366L228.521 141.044H227.768V139.687L228.521 136.297L228.898 134.941L229.086 133.415V129.516L228.333 126.126L227.58 124.091L226.262 122.057L224.568 120.362L222.874 119.006L221.556 118.158L219.862 117.31L217.415 115.954L215.909 115.276L213.462 113.92L211.58 113.072L209.885 110.19L209.132 109.343L207.438 108.495L207.25 108.326V106.8Z" fill="#F7F9FC"/>
<path d="M97.6985 142.739L100.522 142.909L102.781 143.248V144.265L99.5809 145.96L96.5691 147.486L94.4984 148.842L88.6629 152.063L88.0982 151.894L87.157 148.164L86.9688 147.825V146.13L87.3452 145.96L89.0394 145.791L92.0513 144.434L94.4984 143.756L96.7573 143.078L97.6985 142.739Z" fill="#FBC5A2"/>
<path d="M168.479 142.739L169.797 143.248L170.173 143.417V143.756L171.115 144.095L174.879 147.486L176.197 148.842L178.079 150.537L178.268 151.046L177.703 151.555L177.138 152.572H175.632L174.315 152.233L171.867 151.894L169.609 151.215L166.785 149.52L165.844 148.673L166.408 147.147L168.291 143.756L168.479 142.739Z" fill="#F1B899"/>
<path d="M18.6406 168.677L19.2053 169.355V169.694L19.7701 169.863L20.7113 171.559V172.067H21.0878L21.276 171.389L21.6525 170.542H21.8407L22.5937 174.949L22.7819 176.644L22.9702 182.408H23.1584L23.3467 180.713L23.7231 174.78L24.2879 171.05H24.4761L24.2879 173.932L24.0996 175.288V180.543L24.2879 183.595L24.6643 183.934V185.799L24.4761 186.816L24.6643 187.155V188.85L23.9114 190.037L22.7819 190.206L25.2291 190.376V190.545H20.7113V190.376H22.029L21.6525 189.528L21.0878 186.477L20.3348 180.035L19.7701 175.797L19.2053 173.084L18.6406 170.033V168.677Z" fill="#608BE7"/>
<path d="M175.439 161.557L178.451 162.574L178.263 174.44L178.074 177.492L177.886 178.34L177.133 188.681V189.698L178.263 190.376L178.074 194.783H177.886L177.698 193.597L177.133 193.258L177.321 191.732L176.568 190.715L175.627 189.698L175.251 188.681L175.439 187.155L175.815 184.781L176.004 179.865V178.509L176.192 178V174.78L175.815 169.355V167.999L175.627 167.829V169.355H175.439L175.251 167.151L175.627 166.981L175.062 166.812L175.251 166.303L175.815 166.134L175.439 165.456V164.947L175.062 164.1L175.627 162.913V162.065L175.439 161.557Z" fill="#E2EBFC"/>
<path d="M34.2656 174.949L34.6421 175.458L34.4538 178.509L34.0773 179.357L34.6421 179.865L36.148 180.035L36.7127 179.526L36.9009 175.458L37.2774 175.797V177.662L36.9009 184.443V189.698L37.6539 190.037L37.4657 190.376L36.7127 190.037L35.9597 190.206L35.395 190.715L35.0185 190.545L30.3125 190.376V188.681L32.1949 183.425L33.5126 178.679L34.2656 174.949Z" fill="#E4EDFD"/>
<path d="M36.1428 189.867L37.0841 190.037L37.837 190.376V200.378L38.0253 205.294V214.957L37.837 223.433L37.2723 223.772L36.7076 223.433L36.5193 222.924V213.092L36.8958 209.362L36.7076 206.142L36.1428 204.277L35.7664 202.412L35.5781 195.97L35.9546 193.766L35.5781 192.58V190.376L36.1428 189.867Z" fill="#F9FAFD"/>
<path d="M54.2164 61.3682H55.3458L55.1576 62.0463L53.2751 63.0634L51.581 64.4196L50.6398 65.9453L50.075 67.3015L48.1926 68.1491L46.8749 69.1663L45.369 71.8787L44.616 75.2691V77.473L44.9925 78.8292L45.369 80.8634L46.6867 84.2539L49.6986 89.8482L50.828 92.052L51.2045 92.7301V94.2558L50.2633 93.9168L49.8868 93.4082L49.6986 92.2216L48.9456 91.2044L48.0044 90.3568L47.0632 89.3396L46.122 87.6444L44.4278 83.2368L43.8631 82.0501L43.1101 79.1682L42.9219 76.7949L43.6748 72.8958L44.2396 70.8615L45.9337 68.6577L47.6279 67.3015L49.3221 66.4539L50.075 65.6063L50.2633 64.7586L51.581 63.0634L53.0869 61.8767L54.2164 61.3682Z" fill="#F5F8FD"/>
<path d="M86.2188 223.433L86.407 223.941H94.3131V224.111H87.7247L88.1012 224.958L88.8541 225.297L89.2306 225.975V226.823L89.9836 227.332H90.3601L90.5483 226.823L91.3013 227.162V228.179L92.0542 227.501H92.9954L93.1837 228.179L95.0661 227.84L95.8191 228.857L95.4426 229.705H96.572L96.7603 230.044L96.3838 230.553L94.3131 231.231L90.5483 231.909L92.619 232.078V232.248H86.7835L86.407 229.027L86.2188 223.433Z" fill="#D0DEFB"/>
<path d="M191.25 203.599L192.003 203.938L193.885 205.294L195.768 206.481L196.333 207.837L197.085 210.38L198.215 215.296L199.344 220.551V223.772L198.591 228.349L198.215 228.519L197.65 228.349L197.274 227.332V223.094L196.709 221.568L195.956 216.991L195.768 214.957L195.391 212.922L194.827 209.193L194.45 206.989L193.697 205.972L192.003 204.785L191.25 203.938V203.599Z" fill="#051E60"/>
<path d="M199.911 75.4385H202.546L205.558 76.1166L208.193 77.3032L210.264 78.829L211.393 80.0156L212.523 81.5413L214.217 83.2366L215.535 85.2709L215.911 86.288V89.1699L215.346 92.3909L214.594 94.2557L213.841 95.2728L212.523 96.629L211.582 96.7985V95.9509L212.523 93.9166L213.464 91.5433L214.029 89.3395V87.3052L213.276 85.1014L212.335 83.7452L210.64 82.389L209.887 80.6937L209.135 79.6766L207.44 78.3204L204.805 77.1337L202.923 76.6251L201.793 76.4556L198.781 76.2861L199.158 75.608L199.911 75.4385Z" fill="#F7F9FD"/>
<path d="M224.378 173.593L225.131 173.762L225.696 174.44L226.26 177.153L226.449 178.848L226.637 186.477L226.825 188.511L225.507 193.258V197.157L225.319 198.513L224.754 198.852L224.378 198.682L224.001 197.665L223.625 193.427V190.715L224.754 190.037V186.816L224.566 185.799L224.378 182.747L224.19 173.932L224.378 173.593Z" fill="#F6F8FD"/>
<path d="M107.487 110.869H107.675L107.863 111.886L108.428 111.378L108.616 112.564L108.805 112.903V114.599L109.181 114.768L108.993 116.972L106.546 133.416L106.169 133.246L105.04 133.755V129.856H104.852L105.04 127.483L107.299 112.225L107.487 110.869Z" fill="#123987"/>
<path d="M120.478 145.791L127.82 146.13L135.161 146.639L149.656 147.656L153.421 147.825L155.115 147.995L155.491 148.503L155.303 148.842L156.997 149.012V149.181H153.985L153.797 149.521L153.421 149.351L139.303 148.334L130.832 147.656L126.879 147.317L120.855 146.978L119.161 146.808L119.537 146.469L118.031 146.3V146.13L120.478 145.961V145.791Z" fill="#486FC7"/>
<path d="M14.8709 161.387L15.2474 161.556L15.6239 163.251V163.591L16.3768 163.93L17.1298 165.794L18.2592 170.371L19.0122 175.118V177.831L17.6945 177.492L17.1298 176.983V176.644L16.5651 176.813L15.4356 172.745L14.4944 168.168L13.9297 163.421V162.065L14.4944 161.895L14.8709 161.387Z" fill="#618CE8"/>
<path d="M178.458 61.1982L179.399 61.3678L179.776 61.8763L179.588 62.724L178.27 64.2497L177.517 65.0973L176.764 65.7754L174.693 68.1487L172.999 70.0135L171.117 72.0478L170.176 71.8783L168.481 70.183L166.787 68.3183L165.281 66.9621L165.469 65.9449L166.034 65.4363L166.787 65.6059L169.611 68.1487L170.364 69.1659L171.117 68.8268L175.635 64.0802L177.329 62.2154L178.458 61.1982Z" fill="#5DC3A1"/>
<path d="M124.054 159.861H126.69L130.831 160.37L139.49 161.048L140.055 161.218L139.867 161.726L140.055 161.896L140.808 162.404L140.62 162.743L141.184 163.082L140.62 163.252H137.984L129.702 162.743L126.125 162.235L124.054 161.726L122.172 160.878V160.2L124.054 159.861Z" fill="#123A87"/>
<path d="M140.241 121.379L141.37 122.227V123.074L138.17 125.956L136.852 127.312L135.158 128.838L133.84 130.194L133.087 130.872L132.334 130.703L130.264 128.668L128.758 126.804V125.617L129.134 125.278H130.076L131.581 126.634L132.711 128.16L133.464 127.821L134.782 126.465L135.911 125.278L136.852 124.43L138.923 122.396L140.241 121.379Z" fill="#F5F8FD"/>
<path d="M103.914 145.791H105.985L115.962 146.469L129.515 147.317L132.715 147.656L139.304 148.164V148.334H137.045L123.492 147.317L120.48 147.147V147.656H122.927L123.68 147.825L124.809 147.995L125.562 148.164L125.75 147.825L126.315 148.503L119.35 148.334L115.585 147.995L115.209 147.825V147.486H114.644V147.825L109.373 147.656L103.538 147.147H101.844L102.785 146.469L103.914 145.791Z" fill="#0A2E75"/>
<path d="M173.932 161.218L175.626 161.896L175.815 162.065L175.626 163.591L175.25 164.439L175.815 165.456V165.964L176.003 166.303L175.25 166.473L175.062 166.812L175.815 166.982L175.25 167.151L175.626 167.829L176.003 167.999L176.191 172.576L176.379 176.305V178.34L176.003 178.509L175.815 174.949L175.626 173.932L175.25 172.406L174.685 171.898V171.559L173.368 171.389L172.803 170.711V170.203L173.368 169.864L173.556 168.168L173.179 167.151L172.991 165.964L172.615 165.117L171.673 164.608L171.297 163.761H171.673L171.862 162.743L172.991 162.913L173.179 162.235L172.615 161.726L173.932 161.557V161.218Z" fill="#E6F1FD"/>
<path d="M203.863 81.8799H205.557V82.2189H205.181V82.7275L204.239 83.4056L203.11 83.5751V84.7618L202.733 85.2704L199.722 85.4399L198.216 85.6094H193.51L191.815 85.1008L191.062 84.2532L191.439 83.9142L193.698 83.5751L194.263 83.2361H195.016L195.392 83.0666L198.027 82.897H203.298L203.486 82.2189L203.863 81.8799Z" fill="#062062"/>
<path d="M104.852 150.198H107.111L113.135 150.537L115.959 150.876L116.335 151.215L116.147 151.385L113.888 151.554L112.194 151.724L112.947 152.063L115.959 152.233L118.97 152.572L125.747 153.08L130.453 153.589L130.077 153.928H124.806L110.123 152.741L106.17 152.402L104.852 152.063V151.893L106.17 151.724H110.688L109.747 151.385L106.546 151.046L104.664 150.707L104.852 150.198Z" fill="#062063"/>
<path d="M65.1257 103.41L66.6317 103.919L67.7611 105.614L69.8318 107.309L71.9024 108.496L74.1613 110.191L75.2908 110.869L77.1732 112.564L78.6791 114.429L79.6203 116.294V118.328L78.8674 117.65L77.3614 115.107L76.0437 113.582L74.5378 112.056L71.9024 110.191L69.2671 108.496L66.8199 106.97L65.314 105.444L64.9375 104.936L65.1257 103.41Z" fill="#F5F7FD"/>
<path d="M17.8794 167.829L18.2559 167.999L19.1971 171.728L19.7619 175.288L20.1383 176.814L21.2678 186.477L22.0208 190.376H20.7031L19.9501 187.155L19.1971 184.442L19.5736 184.273L19.9501 185.121L20.3266 185.29L19.5736 181.561V181.052L18.8207 180.713L17.8794 180.204L17.1265 178.848L16.9382 177.662L16.75 177.492V176.644H17.1265V176.983L17.6912 177.153V177.492L18.8207 177.662V175.119L17.8794 168.677V167.829Z" fill="#2C5CF3"/>
<path d="M170.546 51.0264H174.31L175.628 51.1959L176.569 51.3654L179.393 52.3826L181.84 53.9083L183.911 55.773V56.1121H184.287L185.981 58.4854L186.734 60.0111V61.5369L186.358 61.1978L185.04 58.4854L183.346 56.2816L181.275 54.4169L178.828 53.0607L176.381 52.213L175.252 51.874V51.7045H170.546L166.781 52.7216L164.145 54.0778L163.392 54.7559H163.016V55.0949L162.075 55.9426L160.569 57.4683L159.439 59.1635L158.31 61.5369L157.369 64.9273L157.18 65.9445H156.992V63.5712L157.745 60.8588L158.686 58.8245L160.192 56.4511L162.263 54.4169L164.522 52.8911L166.781 51.874L169.416 51.1959L170.546 51.0264Z" fill="#608BE8"/>
<path d="M169.6 125.108L171.483 125.447L172.801 125.278L172.989 125.786L172.612 126.804L172.236 128.668L171.483 130.364L170.542 132.059L169.977 134.941L169.224 136.127L168.847 135.958L169.412 134.432L169.6 131.72L169.036 131.889L168.847 132.228L168.094 131.889L167.906 131.55L168.847 130.025L169.224 129.007L167.906 128.838L168.094 127.651L169.412 125.278L169.6 125.108Z" fill="#E6F1FD"/>
<path d="M105.04 129.686H105.228V133.585L106.358 133.076V134.602L105.417 140.535L104.852 141.213H104.475L104.287 142.908L103.911 143.417H103.534L103.911 144.265L102.969 144.095L102.781 143.587V141.552L104.664 130.025L105.04 129.686Z" fill="#0F3377"/>
<path d="M33.5078 131.212H34.2608L34.6373 132.907L35.202 138.332L35.7667 143.926L36.1432 146.469L36.5197 151.555L36.7079 152.063L36.8962 154.267V156.641H36.3314L35.9549 154.945L35.0137 148.164L34.8255 144.435L34.2608 140.197L34.0725 136.637L33.8843 134.941L33.5078 133.924V131.212Z" fill="#1E4FCF"/>
<path d="M169.611 143.248L170.176 143.418V143.757L171.117 144.096L174.882 147.486L176.199 148.842L178.082 150.538L178.27 151.046L177.705 151.555L177.141 152.572H175.635L173.376 152.063L172.999 151.555H173.376L173.94 150.538V149.351L173.187 147.995L170.176 145.113L169.234 143.926V143.587H169.611V143.248Z" fill="#4A72C4"/>
<path d="M13.9297 150.029H15.0591L16.1886 150.538L17.5063 152.064L19.0122 156.132L19.9534 158.166L20.5181 160.201L20.8946 161.387L21.0829 163.591L20.5181 164.1L19.9534 163.252L17.6945 157.149L16.1886 153.589L14.8709 151.555L13.9297 150.368V150.029Z" fill="#F5F8FD"/>
<path d="M207.626 147.486L211.015 148.164L214.591 149.351L218.921 151.216L220.992 152.572L220.803 153.42L220.239 154.606H219.109L217.415 153.589L216.474 152.233L214.403 150.877L211.203 149.521L209.509 148.673L208.379 147.995H207.25L207.626 147.486Z" fill="#F0B899"/>
<path d="M202.736 105.613L203.301 105.783L201.231 108.495L201.042 109.004H200.666L200.289 109.682L198.783 110.699L197.277 111.377L194.83 112.055H194.266V109.343L194.454 108.834L197.842 108.156L201.607 106.63L202.736 105.613Z" fill="#F1B899"/>
<path d="M102.402 146.978L105.979 147.147L109.367 147.486L114.261 147.656L114.638 147.825V147.486H115.203V147.825L120.097 148.164L124.803 148.334L127.626 148.673L131.768 149.012L134.027 149.52V149.69L132.897 149.859L130.074 149.69L128.191 149.52H126.309L124.991 149.351L121.791 149.181L119.72 148.842L113.885 148.503H111.249L110.873 148.334V147.995H108.802L106.92 147.825H103.72L101.461 147.656L101.837 147.147L102.402 146.978Z" fill="#051E60"/>
<path d="M176.003 178.509H176.379L176.756 180.204H177.321L177.697 179.526L177.509 183.595L177.132 189.697L178.262 190.375L178.074 194.783H177.885L177.697 193.596L177.132 193.257L177.321 191.732L176.568 190.715L175.626 189.697L175.25 188.68L175.438 187.155L175.815 184.781L176.003 179.865V178.509Z" fill="#E0EDFC"/>
<path d="M101.086 148.673H105.792L116.898 149.52L125.557 150.029L133.84 150.707L135.158 151.046V151.216H129.887L125.369 150.877L117.275 150.199L110.31 149.86L106.168 149.351L102.215 149.181L101.086 149.012V148.673Z" fill="#051E60"/>
<path d="M61.5521 60.0117L64.9404 60.6898L66.8228 61.1984L70.5876 62.7241L73.223 63.9108L75.8584 64.7584V65.0974L76.6114 65.267H73.4113L70.2112 64.0803L67.3875 62.8936L65.5051 62.2155L61.9285 61.3679L60.2344 60.8593L60.4226 60.3508L61.5521 60.0117Z" fill="#F6F8FD"/>
<path d="M179.017 130.194H179.205L179.017 133.076L178.452 140.366L178.076 149.859L177.323 150.029L177.134 149.181L176.758 149.012H177.134V141.552L178.452 131.211L179.017 130.194Z" fill="#051E60"/>
<path d="M62.6875 133.246L63.064 133.585L64.7582 138.162L66.0758 141.892L67.9583 147.147L69.4642 151.216L71.9113 157.149L73.4173 160.539L75.2997 164.099L76.9938 166.134L77.7468 166.981L76.8056 166.642L75.4879 165.286L73.982 162.913L71.3466 157.319L68.8995 151.385L66.6406 145.282L64.7582 140.366L63.8169 137.484L62.6875 133.755V133.246Z" fill="#0F2B7F"/>
<path d="M211.586 113.242H211.963L211.774 114.09L210.268 116.802L208.574 119.345L206.504 121.718L205.374 122.905L204.809 123.075H203.492L200.668 121.888L199.35 121.718L197.656 122.396L197.844 121.549L198.786 119.854L199.539 119.515L201.045 120.362L203.68 122.227L204.056 122.736L204.809 122.566L205.939 121.379L206.127 121.04H206.504L206.88 120.362L208.198 118.497L210.08 115.785L211.021 113.751L211.586 113.242Z" fill="#051E60"/>
<path d="M36.1417 173.763L36.5182 173.932L36.8947 175.288V179.527L36.1417 180.205L34.6358 180.035L33.8828 179.357L34.2593 178.509L34.6358 175.288L35.577 174.441L36.1417 173.763Z" fill="#FDFDFE"/>
<path d="M151.724 107.647H153.795L157.559 107.987L157.371 108.665L154.736 109.173L153.983 109.512L155.112 109.682V109.851H152.853L146.453 109.512V109.343H150.406L150.218 109.004L148.336 108.326L149.089 107.987L151.724 107.647Z" fill="#143C8A"/>
<path d="M167.725 110.36H168.102L167.914 111.547L167.725 112.903L167.914 113.242V115.785L167.537 116.972V119.684L166.784 122.058L166.408 121.718L166.031 120.871V117.819L166.972 112.056L167.349 111.717L167.537 110.53L167.725 110.36Z" fill="#F2F5FC"/>
<path d="M176 199.19H176.376L176.941 200.547L177.506 200.716V203.429L177.129 216.482H176.941L176.753 207.497L176.376 207.667L176 205.971V199.19Z" fill="#CDDEF8"/>
<path d="M78.8727 67.1318L79.8139 67.3014L80.1904 69.3356V71.709L79.4374 72.7261L77.9315 74.0823L76.2373 76.2861H75.8609L75.6726 76.7947L75.4844 76.2861V74.4214L77.1785 73.2347L78.308 71.8785L78.8727 70.3528V67.1318Z" fill="#F5F7FD"/>
<path d="M203.113 87.6436L203.301 88.1521V88.8302H203.678L204.243 90.0169L204.619 90.3559L204.807 92.3902L204.431 92.5598V95.1026L204.619 95.6112L205.184 95.9502L204.431 96.6283L203.49 95.9502L203.301 93.4074L202.737 91.8817L202.172 90.5255V87.9826L203.113 87.6436Z" fill="#0C2F75"/>
<path d="M157.934 62.2158H158.122V63.233L157.746 64.4196V68.6577L158.499 71.2006L159.44 73.4044L160.57 75.2692L162.264 77.3035L164.711 78.9987L167.158 80.1854L166.781 80.3549L164.523 79.3378L162.828 78.1511L161.699 77.3035V76.9644L161.134 76.7949L160.758 76.2863L160.193 76.1168L158.875 74.4216L157.558 71.5396L156.805 68.8273V65.9454H157.181L157.369 64.2501L157.934 62.2158Z" fill="#B1CBFC"/>
<path d="M108.613 106.97H109.178L108.99 107.987V110.021L109.366 109.174L110.119 108.665V110.191L109.554 113.412L109.366 114.598L108.801 114.937L108.613 114.598V112.903L108.425 112.564V111.716L107.672 112.225V109.513L108.237 107.139L108.613 106.97Z" fill="#0E3176"/>
<path d="M196.149 76.625H201.043V76.7945L199.726 76.964L199.349 77.6421L197.467 77.9812L195.396 78.4898H193.137L192.008 78.1507L192.196 76.964H195.396L196.149 76.625Z" fill="#061F61"/>
<path d="M22.2124 168.507L22.9654 168.846L23.5301 169.694L24.0948 171.389L23.9066 172.067H23.5301L23.3419 174.779L22.9654 174.949V174.61H22.5889L22.2124 173.932L21.8359 171.898V168.677L22.2124 168.507Z" fill="#F7F9FD"/>
<path d="M212.899 130.194L213.087 130.703L211.205 135.789L208.757 142.57L207.44 145.96L207.251 146.299H206.875L207.251 144.604L209.51 138.501L211.205 133.585L212.522 130.703L212.899 130.194Z" fill="#051E60"/>
<path d="M198.219 136.467H200.478L202.925 136.806L207.066 137.145L208.384 137.484V137.823L207.066 137.993H204.054L200.666 137.653L199.913 137.314H198.407L198.219 136.467Z" fill="#4B71C7"/>
<path d="M200.469 131.531H201.285L201.423 131.743L201.656 132.104L201.762 132.273L201.879 132.454V132.475L201.963 132.401L202.038 132.326L202.112 132.242L202.377 131.976L202.451 131.892L202.663 131.68L202.737 131.595L202.801 131.531H203.511L203.522 131.574L203.363 132.411L203.108 133.768L203.077 133.895H202.409L202.43 133.736L202.706 132.326V132.295L202.599 132.401L202.557 132.454L202.154 132.856L202.08 132.941L201.836 133.185L201.762 133.27L201.656 133.376L201.614 133.323L201.476 133.079L201.062 132.39L201.009 132.305V132.284H200.988L200.978 132.401L200.702 133.853L200.691 133.895H200.023L200.045 133.736L200.331 132.22L200.458 131.542L200.469 131.531Z" fill="#FEFEFE"/>
<path d="M203.697 131.531H204.969L205.287 131.542L205.52 131.574L205.711 131.637L205.838 131.711L205.944 131.817L206.029 131.987L206.04 132.04V132.284L205.997 132.454L205.913 132.623L205.807 132.761L205.732 132.835L205.584 132.941L205.414 133.026L205.234 133.09L205.181 133.111L205.277 133.227L205.414 133.397L205.531 133.545L205.669 133.715L205.807 133.895L205.944 134.065L206.029 134.171L206.135 134.309L206.178 134.372H205.34L205.192 134.182L204.895 133.779L204.609 133.397L204.471 133.206L204.45 133.174L204.11 133.164L204.057 133.471L204.015 133.683L204.068 133.704L204.11 133.747L204.132 133.789V133.895L204.089 133.98L204.026 134.033L203.962 134.065L203.888 134.076L203.792 134.044L203.739 134.001L203.718 133.948V133.832L203.75 133.768L203.835 133.694L203.877 133.683L203.888 133.577L203.962 133.196L203.951 133.09L204.121 132.931H204.45L204.513 132.952H204.598L204.651 132.909L204.683 132.835V132.719L204.958 132.708L205.118 132.666L205.234 132.602L205.319 132.528L205.383 132.401L205.404 132.252L205.383 132.167L205.34 132.104L205.287 132.061L205.171 132.019L205.107 132.008L203.612 131.998L203.602 131.976L203.686 131.542L203.697 131.531Z" fill="#FEFEFE"/>
<path d="M199.806 132.993L199.827 133.004L199.668 133.142L199.519 133.29L199.382 133.47L199.318 133.608L199.297 133.672V133.831L199.329 133.915L199.424 134.021L199.594 134.106L199.753 134.159L199.922 134.191L200.092 134.212L200.283 134.223H200.654L201.078 134.191L201.491 134.138L202.053 134.043L202.297 133.99H203.06L203.05 134.096L202.657 134.223L202.106 134.382L201.703 134.477L201.332 134.552L200.898 134.615L200.527 134.647H199.912L199.678 134.615L199.435 134.552L199.265 134.467L199.148 134.382L199.074 134.297L199.021 134.191L199 134.117V133.947L199.042 133.799L199.117 133.65L199.212 133.523L199.307 133.417L199.371 133.343L199.456 133.269L199.551 133.184L199.689 133.078L199.806 132.993Z" fill="#FEFEFE"/>
<path d="M205.547 131H205.801L206.055 131.021L206.321 131.074L206.543 131.148L206.692 131.223L206.798 131.307L206.882 131.392L206.946 131.498L206.988 131.615L206.999 131.689V131.806L206.967 131.965L206.914 132.103L206.819 132.272L206.723 132.399L206.596 132.548L206.533 132.611H206.511V132.633L206.427 132.707L206.289 132.823L206.087 132.972L205.907 133.088L205.642 133.247L205.515 133.322L205.472 133.311L205.451 133.269L205.515 133.226L205.653 133.11L205.769 133.014L205.928 132.876L206.193 132.611L206.267 132.527L206.405 132.357L206.522 132.177L206.607 132.007L206.649 131.869L206.66 131.806V131.657L206.617 131.519L206.564 131.435L206.501 131.36L206.352 131.265L206.225 131.212L206.045 131.159L205.769 131.117L205.578 131.106H205.271L204.964 131.127L204.593 131.17L204.232 131.233L203.956 131.297L203.914 131.307V131.286L204.158 131.212L204.508 131.127L204.73 131.085L205.091 131.032L205.335 131.011L205.547 131Z" fill="#FEFEFE"/>
<path d="M204.832 132.146H204.927L205.001 132.178L205.054 132.231L205.076 132.337L205.044 132.433L205.001 132.486L204.895 132.539H204.789L204.705 132.496L204.577 132.571H203.994L203.888 132.655L203.772 132.761L203.602 132.889L203.57 132.91L203.454 133.493L203.326 134.139L203.316 134.192L203.337 134.245L203.326 134.309L203.273 134.362L203.252 134.373L203.157 134.362L203.125 134.309V134.245L203.178 134.182L203.284 133.631L203.422 132.899L203.443 132.836L203.613 132.708L203.909 132.454L203.952 132.433L204.577 132.422L204.652 132.369L204.673 132.274L204.705 132.221L204.8 132.157L204.832 132.146Z" fill="#FEFEFE"/>
<path d="M204.546 132.664L204.62 132.675L204.663 132.717V132.812L204.62 132.865L204.567 132.887L204.472 132.876L204.451 132.844H204.08L203.846 133.035L203.804 133.067L203.751 133.321L203.592 134.138L203.581 134.191L203.603 134.222V134.286L203.56 134.35L203.518 134.371H203.444L203.391 134.318V134.244L203.444 134.18L203.56 133.565L203.645 133.131L203.666 133.014L203.772 132.918L203.878 132.834L204.005 132.728L204.027 132.717L204.483 132.706L204.546 132.664Z" fill="#FEFEFE"/>
<path d="M201.269 135.03H201.513L201.641 135.062L201.704 135.104L201.747 135.179L201.757 135.317L201.736 135.401L201.694 135.465L201.609 135.507L201.513 135.529H201.301L201.163 135.497L201.1 135.454L201.068 135.412L201.047 135.338V135.2L201.089 135.115L201.142 135.073L201.269 135.03Z" fill="#FEFEFE"/>
<path d="M202.656 135.04H202.932L203.08 135.326L203.229 135.051L203.239 135.04H203.504V135.517H203.324V135.21L203.335 135.188H203.314L203.292 135.252L203.165 135.496L203.144 135.517H203.006L202.9 135.305L202.836 135.199V135.517H202.656V135.04Z" fill="#FEFEFE"/>
<path d="M205.234 131.17H205.616L205.881 131.202L206.104 131.255L206.241 131.308L206.358 131.371L206.464 131.467L206.517 131.552L206.559 131.689L206.549 131.838L206.496 131.997L206.443 132.082H206.432V131.87L206.39 131.732L206.326 131.636L206.252 131.552L206.104 131.456L205.966 131.393L205.743 131.329L205.499 131.287L205.266 131.265H204.725L204.386 131.297L204.195 131.318L204.217 131.297L204.566 131.234L204.927 131.191L205.234 131.17Z" fill="#FEFEFE"/>
<path d="M200.005 132.962L200.027 132.973L199.868 133.11L199.783 133.195L199.698 133.301L199.624 133.418L199.581 133.534L199.571 133.672L199.613 133.778L199.698 133.863L199.804 133.927L200.027 134.001L200.281 134.043L200.493 134.064H201.172L201.384 134.043H201.479V134.054L201.108 134.107L200.885 134.128L200.695 134.139H200.196L199.921 134.107L199.698 134.054L199.528 133.969L199.454 133.905L199.401 133.81L199.391 133.768L199.401 133.63L199.454 133.503L199.56 133.354L199.677 133.227L199.762 133.153L199.91 133.036L200.005 132.962Z" fill="#FEFEFE"/>
<path d="M201.893 135.04H202.381L202.466 135.072L202.498 135.114L202.508 135.21L202.476 135.273L202.434 135.305L202.498 135.358L202.519 135.517H202.328L202.317 135.39L202.254 135.379L202.063 135.369V135.517H201.883V135.051L201.893 135.04Z" fill="#FEFEFE"/>
<path d="M199.57 135.04H199.804L199.899 135.146L199.973 135.231L200.058 135.326V135.347H200.079V135.04H200.249V135.517H200.026L199.878 135.358L199.782 135.241L199.751 135.199L199.74 135.517H199.57V135.04Z" fill="#FEFEFE"/>
<path d="M203.869 135.04H204.081L204.251 135.347L204.336 135.496V135.517H204.156L204.113 135.443L203.816 135.432L203.795 135.485L203.774 135.517H203.594L203.615 135.464L203.763 135.21L203.869 135.04Z" fill="#FEFEFE"/>
<path d="M206.354 135.04H206.566L206.682 135.252L206.82 135.496V135.517H206.64L206.598 135.443L206.301 135.432L206.28 135.485L206.258 135.517H206.078L206.142 135.39L206.28 135.157L206.354 135.04Z" fill="#FEFEFE"/>
<path d="M203.009 134.181L203.03 134.202L203.009 134.308L202.924 134.34L202.553 134.446L202.203 134.53L201.822 134.605L201.355 134.679L200.963 134.721L200.645 134.743H200.401L200.391 134.721L200.836 134.69L201.218 134.637L201.705 134.541L202.256 134.403L202.765 134.255L203.009 134.181Z" fill="#FEFEFE"/>
<path d="M205.566 135.03H205.81L205.927 135.062L206.001 135.126L206.012 135.147V135.21H205.842L205.789 135.157L205.747 135.147H205.641L205.545 135.168L205.535 135.221V135.338L205.566 135.391L205.641 135.412H205.736L205.81 135.391L205.842 135.348H206.022L206.001 135.423L205.948 135.476L205.853 135.518L205.789 135.529H205.588L205.46 135.497L205.397 135.454L205.354 135.38L205.344 135.348V135.21L205.376 135.126L205.45 135.062L205.566 135.03Z" fill="#FEFEFE"/>
<path d="M200.406 135.04H200.947V135.146H200.576V135.241H200.915V135.337L200.904 135.347H200.576V135.517H200.406V135.04Z" fill="#FEFEFE"/>
<path d="M204.312 135.04H204.927V135.146H204.715V135.517H204.535V135.146H204.312V135.04Z" fill="#FEFEFE"/>
<path d="M201.364 135.136L201.502 135.146L201.555 135.178L201.576 135.242V135.327L201.545 135.39L201.502 135.411L201.439 135.422H201.343L201.258 135.39L201.227 135.348V135.21L201.269 135.157L201.364 135.136Z" fill="#0B2C73"/>
<path d="M199.245 135.04H199.415V135.517H199.234L199.245 135.04Z" fill="#FEFEFE"/>
<path d="M205.039 135.04H205.209V135.517H205.039V135.04Z" fill="#FEFEFE"/>
<path d="M202.063 135.146H202.296L202.328 135.167V135.23L202.285 135.262H202.063V135.146Z" fill="#0B2C73"/>
<path d="M203.881 133.787H203.966L203.998 133.83L203.987 133.904L203.934 133.946L203.86 133.936L203.828 133.893L203.839 133.83L203.881 133.787Z" fill="#0B2C73"/>
<path d="M204.845 132.264H204.908L204.951 132.306L204.94 132.38L204.887 132.423L204.824 132.412L204.792 132.38L204.781 132.338L204.813 132.285L204.845 132.264Z" fill="#0B2C73"/>
<path d="M204.002 134.86L204.151 134.871L204.108 134.924L204.002 134.998H203.875L203.886 134.966L203.97 134.892L204.002 134.86Z" fill="#FEFEFE"/>
<path d="M203.96 135.157L203.992 135.2L204.055 135.327H203.875L203.896 135.274L203.96 135.157Z" fill="#0B2C73"/>
<path d="M206.46 135.157L206.492 135.2L206.555 135.327H206.375L206.46 135.157Z" fill="#0B2C73"/>
<path d="M204.552 132.74L204.605 132.751L204.595 132.814H204.542L204.531 132.761L204.552 132.74Z" fill="#0B2C73"/>
<path d="M203.219 134.223L203.262 134.233V134.286L203.219 134.297L203.188 134.265L203.198 134.233L203.219 134.223Z" fill="#0B2C73"/>
<path d="M203.49 134.223L203.532 134.233L203.522 134.286H203.469L203.479 134.233L203.49 134.223Z" fill="#0B2C73"/>
<path d="M124.047 108.495H128.376L129.882 108.665L133.459 108.834L144.753 109.173L149.836 109.512L152.848 109.682V109.851H149.648L136.847 109.343L127.059 109.173V109.004L124.047 108.665V108.495Z" fill="#BBD1F2"/>
<path d="M106.732 112.564H107.109V114.768L106.356 119.854L105.98 121.21L105.415 120.702L105.227 119.515L105.603 117.481V114.768L106.168 112.904L106.732 112.564Z" fill="#F7F9FD"/>
<path d="M195.02 118.667L195.585 118.837L195.961 119.854L195.773 120.701L193.702 120.871L192.385 121.21L189.938 121.379V120.871L191.255 120.193L192.949 119.176L194.832 118.837L195.02 118.667Z" fill="#051E60"/>
<path d="M16.5625 179.526H17.1272L18.6332 183.086L19.9508 187.494V188.342H19.3861L18.0684 185.121L16.7507 181.222L16.5625 180.713V179.526Z" fill="#AAC7FC"/>
<path d="M17.8828 167.829L18.2593 167.998L19.2005 171.728L19.7652 175.288L20.1417 176.814V180.374L19.7652 179.865L19.577 178.509L19.3887 178.339L19.2005 176.644V175.118H18.824L17.8828 168.676V167.829Z" fill="#1F50D8"/>
<path d="M31.8132 130.533H32.0015V131.889L32.378 132.059L33.1309 137.314L33.3192 138.67H33.5074L33.3192 140.366L32.9427 140.535L32.378 138.67L32.0015 136.467L31.625 133.924V130.703L31.8132 130.533Z" fill="#E6F2FD"/>
<path d="M69.654 78.1504L70.0305 78.3199L69.654 79.5066L68.5245 81.5409L67.9598 83.2361L67.3951 83.5752L66.4539 83.4056L66.2656 83.2361V81.3713L67.9598 80.3542L69.4657 78.4894L69.654 78.1504Z" fill="#0B256B"/>
<path d="M103.158 139.519L103.534 140.027L103.722 139.519L105.04 139.688V140.875L104.852 141.214H104.475L104.287 142.909L103.911 143.418H103.534L103.911 144.265L102.969 144.096L102.781 143.587V141.553L103.158 139.519Z" fill="#123988"/>
<path d="M187.113 114.768H188.43L187.866 115.276L183.536 117.141L181.277 118.497L180.901 118.836L180.336 118.667L180.901 117.649L182.03 116.802L184.101 115.785L185.418 115.276L186.36 114.937L187.113 114.768Z" fill="#F4F7FD"/>
<path d="M175.815 186.138H176.003V188.002L176.568 189.359L178.262 190.376L178.074 194.783H177.885L177.697 193.597L177.132 193.258L177.321 191.732L176.568 190.715L175.626 189.698L175.25 188.681L175.438 187.155L175.815 186.138Z" fill="#E2EFFC"/>
<path d="M63.8125 95.2725L64.5655 95.6115L65.3184 97.1372V97.4763L66.0714 97.8153L67.2008 98.4934L67.3891 98.8325L66.0714 99.1715L65.6949 99.8496H65.3184V100.358L64.5655 100.189L63.8125 96.1201V95.2725Z" fill="#F1B899"/>
<path d="M38.0247 190.715L38.9659 190.884V191.054H38.0247L38.2129 194.444L38.7776 195.97L38.9659 196.987L38.7776 198.343L38.2129 198.513L38.0247 202.412H37.8364L37.6482 200.377V192.24L37.8364 190.884L38.0247 190.715Z" fill="#1F4697"/>
<path d="M10.9219 172.915H12.2396L13.369 173.763L14.122 175.458L13.1808 176.306L12.2396 176.136L11.8631 176.306L11.4866 175.458L10.9219 173.424V172.915Z" fill="#AAC7FC"/>
<path d="M188.243 76.1162L188.996 76.2857L189.184 76.7943L188.243 77.4724L186.926 79.8457V81.7105L187.114 83.2362L186.737 83.0667L185.984 80.6934L186.173 78.6591L186.737 77.1334L187.867 76.2857L188.243 76.1162Z" fill="#F6F8FD"/>
<path d="M26.3497 176.645L26.7262 176.814L25.785 186.307L25.5967 190.037L26.3497 190.376H24.8438L25.5967 181.222L26.3497 176.645Z" fill="#1B4CCD"/>
<path d="M107.49 110.869H107.678L107.866 111.886L108.243 111.717L108.054 114.09L107.49 116.802L106.925 119.345L106.737 121.21L106.172 121.38V119.854L107.49 110.869Z" fill="#13387D"/>
<path d="M109.747 104.766L110.688 104.935L110.5 105.444L108.994 106.122L108.241 107.648L107.676 110.36L107.488 110.699L106.735 110.36L106.547 109.512L106.923 107.648L107.865 106.122L108.806 105.105L109.747 104.766Z" fill="#F7F9FD"/>
<path d="M188.238 78.998L188.615 79.6761L189.179 80.1847L188.615 81.0323L188.05 81.2019L187.862 81.88H188.426L188.991 82.5581V83.0666L189.744 83.2362L190.12 83.5752L190.309 83.9142L189.368 84.5923L189.179 84.9314H188.615L187.862 83.7447L187.297 82.0495V81.2019L187.673 80.5238V79.6761H188.05L188.238 78.998Z" fill="#072164"/>
<path d="M102.783 123.074L103.725 123.583L103.913 123.922V126.465L103.348 129.177L103.16 132.059L102.595 133.246L102.219 132.568L102.595 131.381V129.177L102.783 127.312L102.972 126.804L103.16 124.261L102.595 123.244L102.783 123.074Z" fill="#E6F1FD"/>
<path d="M186.737 60.0117L187.113 60.3508L188.054 63.2327L188.243 64.7584V68.827L187.866 70.3527L187.678 69.6746L187.866 68.6575V64.4193H187.49V68.827L187.301 69.6746H187.113V64.7584L186.925 62.2155H186.548L186.172 61.5374V60.6898L186.548 61.1984L186.737 60.0117Z" fill="#AAC7FC"/>
<path d="M136.665 90.5264L137.418 90.6959L137.23 98.3245H136.477V90.6959L136.665 90.5264Z" fill="#5E89E8"/>
<path d="M187.488 64.4189H187.864L188.052 65.9447V68.657L187.299 71.3694L186.17 73.9123L184.852 75.7771L184.664 75.2685L185.041 74.4209L185.605 73.5732L186.546 71.539L187.299 68.8266L187.488 64.4189Z" fill="#618CE8"/>
<path d="M209.891 97.4766L210.079 97.8156H210.644L210.267 98.8328L209.138 100.189L208.385 101.037L206.879 103.41L206.502 103.24L206.126 101.715L205.938 101.206L208.196 100.189L209.326 98.8328L209.891 97.4766Z" fill="#0E2872"/>
<path d="M149.466 94.0859H150.031L149.843 95.1031L147.208 99.3412L146.643 100.019H146.078L146.266 99.0021L147.396 97.1374L149.09 94.425L149.466 94.0859Z" fill="#618CE8"/>
<path d="M170.356 135.958L170.545 136.636L169.792 138.162L168.474 140.705L168.097 141.552L167.344 141.383L167.156 140.874V139.688L168.286 138.331L169.039 138.162L169.415 137.314L170.356 135.958Z" fill="#F5F7FD"/>
<path d="M120.478 145.791L124.431 145.961V146.13H121.043L121.231 146.469H125.373L127.82 146.639L128.761 146.978L128.196 147.147L126.879 147.317L120.855 146.978L119.161 146.808L119.537 146.469L118.031 146.3V146.13L120.478 145.961V145.791Z" fill="#1B4CCC"/>
<path d="M54.2116 61.3682H55.3411L55.1528 62.0463L53.2704 63.0634L51.5762 64.4196L50.635 65.9453L50.0703 65.2672L51.1998 63.4025L52.7057 62.0463L54.2116 61.3682Z" fill="#F3F6FD"/>
<path d="M145.891 158.844H146.267L146.455 159.352L145.891 159.522L145.702 160.539L143.067 162.065L141.938 161.556V161.048L145.891 158.844Z" fill="#0F3583"/>
<path d="M14.5 165.455L15.4412 165.794L16.0059 166.642L16.3824 167.489V167.998L16.7589 168.167H16.3824V169.015L15.6294 169.185L14.6882 168.676L14.5 168.167V165.455Z" fill="#2D5DF3"/>
<path d="M112.378 167.32L112.755 167.49L112.19 167.998L112.378 168.507L113.131 168.677V169.016H111.437L109.931 168.677L109.555 168.846H107.86L107.672 168.337H105.602V168.168L110.872 167.659L112.378 167.32Z" fill="#DDEBFC"/>
<path d="M165.651 122.735L166.592 122.905L166.78 123.244L166.592 125.278L165.839 126.973L165.086 127.313V124.6L165.651 122.735Z" fill="#F5F7FD"/>
<path d="M33.3203 133.585L33.6968 133.924L34.0733 135.28L34.2615 136.975L34.4498 140.196L35.0145 144.435V146.808H34.8262L33.885 139.518L33.3203 135.111V133.585Z" fill="#3C6AF0"/>
<path d="M17.3125 190.545L24.2774 190.714L24.6539 190.884V191.223H24.0892V191.562L21.6421 191.732L19.5714 191.562L17.3125 190.714V190.545Z" fill="#E9F0FE"/>
<path d="M143.248 159.691H143.625L143.437 160.37L141.931 161.217L142.495 161.726H142.872V162.234L141.554 162.912H140.425L140.613 162.404L139.672 161.895L140.048 161.217L143.06 159.861L143.248 159.691Z" fill="#0A2D72"/>
<path d="M122.172 151.555H124.431L125.56 151.724L127.066 151.894L130.078 152.063V152.402L130.831 152.233L131.584 152.402L131.772 152.911L128.384 152.741L123.866 152.233L122.172 151.724V151.555Z" fill="#051E60"/>
<path d="M84.1443 190.036L84.5208 190.206L84.1443 190.884L84.5208 191.223L84.7091 193.088V194.274L84.1443 194.444L83.9561 196.478H83.7678L83.2031 191.901V190.714L84.1443 190.036Z" fill="#DFECFC"/>
<path d="M166.029 107.987L166.97 108.665L166.593 110.022L166.405 111.547L166.029 112.056H165.464L164.899 110.7V110.191L164.711 109.174L165.276 109.004L165.464 108.665H166.217L166.029 107.987Z" fill="#103784"/>
<path d="M157.744 72.0479L158.121 72.3869L159.062 74.4212L160.38 76.1164L161.697 77.4726L161.133 77.6421L159.815 76.9641L158.686 75.6079L157.744 73.7431V73.404H158.121V73.065L157.18 72.7259V72.2174L157.744 72.0479Z" fill="#D5E5FC"/>
<path d="M163.957 137.823L164.898 137.993L165.086 138.332V139.518L164.333 140.705L163.204 141.383H163.016V139.518H163.392L163.58 138.671L163.957 137.823Z" fill="#FBFBFD"/>
<path d="M63.0655 81.2021H64.1949L64.9479 81.7107L64.7596 83.406L64.5714 85.7793L64.0067 85.6098L63.8184 83.0669L63.0655 82.2193L62.3125 81.8802L63.0655 81.2021Z" fill="#F1B899"/>
<path d="M156.805 65.9453H156.993L157.558 69.1663L158.499 72.0482L159.252 73.7434L160.381 75.6082L160.193 76.1168L158.875 74.4215L157.558 71.5396L156.805 68.8272V65.9453Z" fill="#618CE8"/>
<path d="M124.048 93.7471L124.801 94.0861L126.495 96.7985L127.624 99.0023V99.5109L126.871 99.3414L125.365 96.629L124.048 94.5947L123.859 93.9166L124.048 93.7471Z" fill="#5F8AE8"/>
<path d="M23.535 174.779H23.7232V176.814L23.535 180.713L23.1585 182.916L22.782 182.408L22.5938 174.949H22.782L22.9702 177.661H23.3467L23.535 174.779Z" fill="#AAC7FC"/>
<path d="M173.745 148.503L174.686 149.181L175.439 150.537V152.402L173.369 152.063L172.992 151.554H173.369L173.933 150.537V149.351L173.745 148.503Z" fill="#60C8A2"/>
<path d="M62.6875 133.246L63.064 133.585L64.7582 138.162L66.0758 141.892L66.2641 142.909L65.6994 142.739L64.5699 139.858L63.2522 135.619L62.6875 133.755V133.246Z" fill="#0B3079"/>
<path d="M179.014 119.854H179.391L179.202 120.532L178.073 122.057L176.19 125.278L175.814 126.126L175.438 125.956V124.939L176.379 123.583L176.755 122.905L177.132 121.888L178.449 120.193L179.014 119.854Z" fill="#F4F7FD"/>
<path d="M176.942 184.442H177.13V188.68L176.942 189.528L176.377 189.359L175.812 187.833L176.189 185.46L176.377 185.12H176.942V184.442Z" fill="#E5EDFD"/>
<path d="M21.8311 173.932L22.2076 174.101L22.3958 174.949V178.848L21.8311 178.678L21.2664 177.153L21.0781 175.627L21.6428 174.271L21.8311 173.932Z" fill="#2C5CF4"/>
<path d="M208.572 94.0859L209.325 94.425L209.137 95.1031L208.007 95.7812L207.443 96.6288L206.878 98.324L206.125 98.4936L206.69 96.2898L207.066 94.764L208.572 94.0859Z" fill="#EFB698"/>
<path d="M34.635 167.15L35.5762 167.659L35.9527 168.676L35.7645 169.015L35.388 171.728L35.0115 173.084H34.8233V171.558L35.1998 169.354L34.2586 169.693L34.0703 168.846L34.2586 168.168L34.635 167.15Z" fill="#D2DFFC"/>
<path d="M195.205 121.379H195.581L195.393 122.905L194.452 125.956L193.323 131.042L193.134 133.246L192.758 133.585V131.72L193.699 126.804L194.64 123.074L195.017 121.887L195.205 121.379Z" fill="#051E60"/>
<path d="M120.469 147.146H123.481L126.304 147.316L126.492 147.994L126.869 148.333L126.304 148.503L125.551 148.164L123.104 147.994L122.351 147.825L120.469 147.655V147.146Z" fill="#052062"/>
<path d="M105.984 156.979H109.749L111.443 157.319L113.891 157.488L114.643 158.336L113.891 158.844L113.326 158.675L113.138 158.336L108.808 157.488L105.984 157.149V156.979Z" fill="#1D4ECD"/>
<path d="M101.648 134.094H101.836L102.213 137.654L101.648 140.536L101.272 142.231L100.707 142.739L99.7656 142.57L100.707 141.722L101.272 139.01L101.46 138.671V135.789L101.648 134.094Z" fill="#E6F1FD"/>
<path d="M71.7188 157.996H72.2835L73.4129 160.539L75.2953 164.099L76.9895 166.133L77.7425 166.981L76.8013 166.642L75.4836 165.286L73.9776 162.912L71.7188 158.166V157.996Z" fill="#0F3684"/>
<path d="M23.9122 171.389H24.2887L23.9122 174.779H23.5357V176.474L23.3475 177.661H22.971L22.7827 174.949H22.4062V174.101L22.5945 174.61L23.1592 174.779L23.3475 172.575L23.5357 172.067H23.9122V171.389Z" fill="#D8E4FD"/>
<path d="M106.169 122.566H106.357V123.753L106.169 124.431L105.981 126.974L105.416 129.686L104.852 129.856L105.04 127.483L105.605 123.753L106.169 122.566Z" fill="#13387D"/>
<path d="M193.888 109.004H194.453L194.265 115.446H194.077L193.888 112.394V113.412L193.512 113.751L192.383 113.92L192.759 112.733L193.324 112.564V112.055L192.947 111.886L193.7 111.038L193.888 109.004Z" fill="#1F4695"/>
<path d="M110.69 107.309H114.079L115.961 107.478V107.648L117.279 107.817V107.987H110.502V108.326L109.938 108.156L110.314 107.478L110.69 107.309Z" fill="#0C2F75"/>
<path d="M155.109 147.994H159.062L160.945 148.333V148.503L158.309 148.842L157.557 149.011H155.674L155.298 148.842L155.109 147.994Z" fill="#1D4792"/>
<path d="M214.028 164.947L214.405 165.286V166.303L213.84 167.321H213.464L213.275 167.999L211.769 168.846H211.393V169.185L210.828 169.016L211.393 168.507H211.769V168.168H212.146L212.334 167.49L212.711 167.151V166.643L214.028 164.947Z" fill="#111C7C"/>
<path d="M61.5491 86.9658L61.7373 87.3049L62.4903 87.6439L63.4315 88.6611L63.2433 89.3392L62.8668 89.5087H61.7373L61.1726 89.1696L60.9844 88.322L61.5491 86.9658Z" fill="#EFB899"/>
<path d="M133.464 152.402H135.158V152.741H134.782V153.08L134.217 153.589L134.029 153.928L137.229 154.267V154.437H134.217L132.899 154.098V153.589V153.25L132.711 152.572L133.464 152.402Z" fill="#051E60"/>
<path d="M178.454 163.252L179.772 163.421L179.96 164.1L179.772 164.608L178.83 164.778L178.454 170.372H178.266V164.269L178.454 163.252Z" fill="#274E9F"/>
<path d="M50.0703 90.1865L50.8233 91.0341L52.5174 91.5427L52.7057 92.0513L52.5174 92.7294V93.238L51.1998 92.8989L50.2586 91.3732L50.0703 90.1865Z" fill="#062063"/>
<path d="M111.441 105.444L117.841 105.614L120.477 105.783L121.042 106.122L120.477 106.292H118.971L117.653 106.122H115.959L115.206 105.953L110.5 105.783V105.614L111.441 105.444Z" fill="#0A2D73"/>
<path d="M69.0789 150.707L69.4553 151.216L71.9025 157.149L72.0907 157.997L71.526 157.827L68.8906 151.385L69.0789 150.707Z" fill="#0E317F"/>
<path d="M160.383 76.1162L161.136 76.4553L162.265 77.6419L164.524 79.1676L167.536 80.5238L169.042 81.0324V81.3715L167.912 81.2019L164.712 79.8457L162.453 78.32L160.383 76.4553V76.1162Z" fill="#618CE8"/>
<path d="M146.457 149.689L148.339 149.859V150.198L145.704 150.707L145.139 150.368H142.692L141.562 150.198V149.859L146.457 149.689Z" fill="#051E60"/>
<path d="M198.405 115.954L199.911 116.124L199.535 116.971L198.029 117.649H196.899L196.711 116.971L197.464 116.293L198.405 115.954Z" fill="#F1B899"/>
<path d="M125.177 157.318L127.247 157.488L127.624 157.827V158.675L126.871 159.183V158.844H126.118L125.93 158.166H125.553L125.365 157.827L121.977 157.657V157.488L125.177 157.318Z" fill="#F1B899"/>
<path d="M165.469 106.97L166.787 107.139L167.352 107.648V107.987H167.728L168.105 108.834L167.917 109.682L167.352 109.852L166.599 108.495L165.469 107.648L165.281 107.139L165.469 106.97Z" fill="#F5F8FD"/>
<path d="M36.3363 112.056L36.5245 112.734L35.3951 114.768L35.0186 115.616L34.4539 115.785L34.2656 114.938L34.8303 113.751L35.5833 112.395L36.3363 112.056Z" fill="#F1F5FD"/>
<path d="M156.616 157.996L157.18 158.166L154.357 158.844L153.039 159.183H149.274L149.086 158.844L154.545 158.335L156.616 157.996Z" fill="#C1A49D"/>
<path d="M192.76 109.513H193.513L193.701 111.208L192.948 112.056H192.384L192.195 111.377V110.021L192.76 109.513Z" fill="#F8FAFD"/>
<path d="M191.445 93.916H191.821V95.2722L190.504 97.6455L190.127 99.0017L191.445 99.8494L190.88 100.019L189.751 99.5103L189.562 98.6627L190.127 97.137L190.504 96.7979L191.068 95.2722L191.445 93.916Z" fill="#113177"/>
<path d="M30.3106 181.899H30.4989L30.3106 183.425L29.1812 186.646L28.8047 186.816V185.29L29.7459 182.408L30.3106 181.899Z" fill="#2C5CF4"/>
<path d="M15.4405 172.745H15.6287L16.5699 175.966V176.983L16.1934 177.153L15.6287 176.644L14.6875 174.61L14.8757 174.271L15.4405 174.779L15.6287 175.118L15.4405 174.101V172.745Z" fill="#BCD2FC"/>
<path d="M159.254 150.537H160.195L160.571 151.554V152.232L160.195 152.063L160.383 151.724L156.618 151.554L154.359 151.215V151.046L157.936 151.215L159.254 150.537Z" fill="#EFB89B"/>
<path d="M96.939 59.5029L98.2567 59.6725V61.0286L98.0684 61.3677H96.7507L96.5625 60.8591V59.6725L96.939 59.5029Z" fill="#BFD4FC"/>
<path d="M159.625 74.5908L160.378 74.9299L161.884 76.7946L162.825 77.6423L164.708 78.9984L167.155 80.1851L166.778 80.3546L164.519 79.3375L162.825 78.1508L161.696 77.3032V76.9642L161.131 76.7946L160.378 76.1165L159.625 74.5908Z" fill="#ABC8FC"/>
<path d="M101.647 144.773H102.589V145.621L101.647 146.299L100.894 146.469L99.9531 146.13L100.518 145.282L101.647 144.773Z" fill="#1D4ECC"/>
<path d="M208.569 136.806L209.134 136.975V137.653H208.757L208.381 138.331H205.934L202.922 137.992V137.823H208.381L208.193 137.484L207.063 137.314L207.251 136.975L208.569 136.806Z" fill="#0F3684"/>
<path d="M47.4375 103.918L54.2142 104.427L54.7789 104.596L57.7908 104.766V104.935H54.5907L51.0141 104.766L50.8258 104.596L47.4375 104.257V103.918Z" fill="#123A9A"/>
<path d="M186.92 69.6748H187.109L186.92 71.031L186.167 72.8958L185.414 74.252L185.038 74.591L184.661 75.7777L183.344 76.4558L183.72 75.7777L185.226 73.5739L185.979 72.3872L186.92 69.6748Z" fill="#B4CDFC"/>
<path d="M150.969 160.2L154.17 160.539L155.299 161.048L154.923 161.726L154.358 161.387L151.158 161.048L150.781 160.37L150.969 160.2Z" fill="#E6F2FD"/>
<path d="M132.716 147.146L135.916 147.316V147.655H135.539V147.994L130.457 147.655L129.516 147.486V147.316L132.716 147.146Z" fill="#1B4CCD"/>
<path d="M207.25 108.495L208.568 108.834L209.321 109.512H208.756L208.944 110.529L207.438 110.36L207.25 109.851V108.495Z" fill="#173D8C"/>
<path d="M103.719 52.2139H104.849L105.225 52.3834V53.9091L103.719 54.0786L103.531 52.3834L103.719 52.2139Z" fill="#B0CAFC"/>
<path d="M169.61 143.248L170.175 143.418V143.757L171.116 144.096L173.375 146.13L173.187 146.469L170.74 144.774L169.61 144.096L169.422 143.587L169.61 143.248Z" fill="#5FB7AD"/>
<path d="M83.7693 169.186H85.6517L85.087 169.525H84.3341L83.5811 171.389L83.3928 172.407H83.2046L82.8281 171.22V169.694L83.7693 169.186Z" fill="#E6F2FD"/>
<path d="M137.797 148.503H141.185L143.632 148.842V149.012L140.809 149.181H139.303L138.173 149.012V148.672L137.797 148.503Z" fill="#051F61"/>
<path d="M177.13 62.3848L177.507 62.5543L176.001 64.2495L173.742 66.6229L171.859 68.4876V67.9791L173.742 66.1143L175.436 64.2495L177.13 62.3848Z" fill="#255E81"/>
<path d="M177.705 80.5244H177.894L178.647 83.7454V84.932L177.705 84.7625L177.141 83.9149L177.894 83.4063L177.705 82.3892V80.5244Z" fill="#E3EBFD"/>
<path d="M128.754 147.825H130.824L132.895 148.164V148.334L130.636 148.503H127.812V147.995L128.754 147.825Z" fill="#051E60"/>
<path d="M34.0703 140.027L34.4468 140.197L35.0115 144.435V146.808H34.8233L34.0703 141.214V140.027Z" fill="#4370EE"/>
<path d="M224.009 120.023L224.762 120.362L226.079 121.549L226.644 122.397L226.456 122.736L225.891 122.397V122.058L224.95 121.719L224.385 121.21V120.871H224.009L223.82 120.193L224.009 120.023Z" fill="#092466"/>
<path d="M223.253 228.349L223.441 228.857H224.006L223.818 229.874L224.006 230.383L223.441 230.722H222.876V230.383L222.5 230.213L222.876 228.518L223.253 228.349Z" fill="#0F3684"/>
<path d="M82.4539 168.677L87.3481 169.016V169.185L83.7716 169.355L82.6421 169.694V170.881H82.4539L82.2656 168.846L82.4539 168.677Z" fill="#CBDCFC"/>
<path d="M34.2608 174.949L34.6373 175.458L34.449 178.509L33.8843 178.848L33.5078 179.357L33.6961 177.831L34.2608 174.949Z" fill="#CEDEFC"/>
<path d="M107.86 167.998H109.931L110.308 168.507L109.555 168.846H107.86L107.672 168.337H105.602V168.168L107.86 167.998Z" fill="#D6E5FC"/>
<path d="M133.464 162.234H135.535L135.723 162.743H130.641L130.829 162.404L133.464 162.234Z" fill="#092C70"/>
<path d="M174.686 127.312L174.875 127.991L173.557 130.873L172.992 130.703L173.557 129.008L174.31 127.652L174.686 127.312Z" fill="#EEF3FD"/>
<path d="M103.907 59.6729H104.848V61.3681L103.907 61.5376L103.719 61.3681V59.8424L103.907 59.6729Z" fill="#C4D6FC"/>
<path d="M177.889 151.046L178.453 151.215L178.265 152.911L176.383 152.741L177.136 152.572L177.512 151.554L177.889 151.046Z" fill="#F3E7E4"/>
<path d="M170.549 51.5352H175.632L175.82 52.0437L169.984 51.8742L170.549 51.5352Z" fill="#B4CDFC"/>
<path d="M90.1726 59.8418H91.1138L91.3021 60.0113V61.198L91.1138 61.3675H90.1726L89.9844 61.198V60.0113L90.1726 59.8418Z" fill="#AAC7FC"/>
<path d="M89.9844 52.3828H91.1138L91.3021 52.5523L91.1138 53.9085H89.9844V52.3828Z" fill="#AAC7FC"/>
<path d="M96.9461 44.9238H97.8873L98.0755 45.0934V46.28L97.8873 46.4495H96.9461L96.7578 46.28V45.0934L96.9461 44.9238Z" fill="#ACC8FC"/>
<path d="M150.97 150.707H151.535V151.216L149.276 152.572H148.711L149.087 151.894L149.84 151.216L150.97 150.707Z" fill="#062266"/>
<path d="M96.003 146.3L98.0736 146.469L97.5089 146.978L96.3794 147.486L95.25 146.978L95.4382 146.469L96.003 146.3Z" fill="#F1B899"/>
<path d="M31.4375 120.192L31.814 120.701H32.3787L33.3199 120.87L33.1317 122.905H32.9434L32.7552 121.718L32.0022 121.888L31.4375 121.21V120.192Z" fill="#DBE9FC"/>
<path d="M37.0789 223.941L37.6436 224.111V227.671H37.2671L36.8906 225.128L37.0789 223.941Z" fill="#E6F1FD"/>
<path d="M111.062 107.987H114.451L118.78 108.157V108.326L112.568 108.496L112.38 108.326L111.062 108.157V107.987Z" fill="#CADBFC"/>
<path d="M188.237 78.998L188.613 79.6761L189.178 80.1847L188.613 81.0323L187.672 81.2019V79.6761H188.048L188.237 78.998Z" fill="#051F61"/>
<path d="M13.1748 176.813L13.7396 177.322L14.4925 179.017V179.526H14.116L13.7396 178.678V178.17H12.9866L12.6101 178.509L12.4219 177.492H12.7984L13.1748 176.813Z" fill="#AAC7FC"/>
<path d="M190.125 76.625H192.007L192.949 76.7945H195.772L195.396 77.1336H192.196L191.443 77.3031L190.125 77.1336V76.625Z" fill="#1D3F87"/>
<path d="M176.57 189.528L177.323 189.867L178.264 190.376V191.902L178.076 191.563H177.7V191.054L177.135 190.885L176.57 190.037V189.528Z" fill="#D7E3FC"/>
<path d="M133.656 160.879L137.421 161.048L138.739 161.218V161.387L136.292 161.557L134.033 161.387L133.656 160.879Z" fill="#092C70"/>
<path d="M108.237 108.495L108.425 109.173L108.237 111.716L107.672 112.225V109.512L108.237 108.495Z" fill="#092567"/>
<path d="M164.517 125.448L165.082 125.618L164.894 127.652L164.705 129.347H164.517V127.652H164.141V126.465L164.517 125.448Z" fill="#234A9B"/>
<path d="M114.068 104.936H115.386L115.763 105.105L118.21 105.275V105.444H112.939L112.562 105.105L114.068 104.936Z" fill="#F9FAFD"/>
<path d="M96.7578 52.3828H97.3225V53.5695H97.5108L97.699 52.3828H98.2637L98.452 53.739L96.7578 53.9085V52.3828Z" fill="#AAC7FC"/>
<path d="M104.094 44.9238L105.036 45.0934V46.28L104.847 46.4495H103.906V45.0934L104.094 44.9238Z" fill="#AAC7FC"/>
<path d="M176.755 123.414H177.132L176.755 124.262L175.814 126.126L175.438 125.957V124.94L176.567 123.584L176.755 123.414Z" fill="#F0F4FD"/>
<path d="M109.928 105.444H111.434V105.614H110.493V105.953L109.551 106.461L109.363 106.97L108.422 107.14L108.798 106.122L109.928 105.444Z" fill="#153A7E"/>
<path d="M196.337 93.916L197.09 94.0855V95.4417L196.337 95.6113L195.961 95.2722V94.4246L196.337 93.916Z" fill="#1C3F8B"/>
<path d="M111.062 52.3831H112.004L112.192 52.5526V53.7392L111.062 53.9088V52.3831Z" fill="#AAC7FC"/>
<path d="M70.5867 154.437L70.9632 154.945L72.0926 157.488V157.997L71.5279 157.827L70.3984 155.115L70.5867 154.437Z" fill="#0D337F"/>
<path d="M166.407 142.739L167.348 143.417V143.756L167.913 143.926V144.774L166.783 144.434L166.219 142.909L166.407 142.739Z" fill="#E6F1FD"/>
<path d="M44.8035 103.579L45.3683 103.749L44.9918 104.427L43.2976 105.613L43.1094 105.105H43.4859L43.8623 104.257H44.2388L44.4271 103.749L44.8035 103.579Z" fill="#EAF0FD"/>
<path d="M111.251 45.0938L112.193 45.2633L112.004 46.4499H111.063L110.875 45.7718L111.251 45.0938Z" fill="#AAC7FC"/>
<path d="M89.9844 45.0938H91.1138V46.2804L90.9256 46.4499H89.9844V45.0938Z" fill="#AAC7FC"/>
<path d="M96.3817 150.029L97.1346 150.199L96.3817 151.046L96.0052 151.216H94.6875L95.064 150.538L96.3817 150.029Z" fill="#052063"/>
<path d="M175.251 83.5752L176.757 84.5923L177.51 85.2704V85.6095L176.38 85.2704L175.062 83.9142L175.251 83.5752Z" fill="#E5F0FD"/>
<path d="M186.737 60.0117L187.113 60.3508L187.678 62.046L187.49 62.5546L187.113 61.707H186.737L186.548 62.2155L186.172 61.5374V60.6898L186.548 61.1984L186.737 60.0117Z" fill="#ADC9FC"/>
<path d="M39.9085 228.688L40.285 229.028L40.4732 229.875V230.553L39.532 230.892L39.3438 230.045V229.367V229.028H39.9085V228.688Z" fill="#0E3583"/>
<path d="M84.8936 228.688H85.2701L85.0818 230.214L84.8936 230.553L84.1406 230.384V229.197L84.8936 228.688Z" fill="#0F3684"/>
<path d="M187.114 111.377H188.243L188.432 112.055L186.737 112.394L186.549 112.055L185.984 111.886L187.114 111.377Z" fill="#E6F2FD"/>
<path d="M209.894 97.4766L210.082 97.8156H210.647L210.27 98.8328L209.517 99.8499L209.141 99.1718L209.894 97.4766Z" fill="#1F3A91"/>
<path d="M115.768 167.32H116.333V167.998L113.886 168.846L113.133 168.677L115.015 167.998L115.768 167.32Z" fill="#E6F2FD"/>
<path d="M97.5111 149.012L97.8876 149.181L97.3229 149.69L95.6287 150.537L94.6875 150.707L95.2522 149.859L96.9464 149.351L97.5111 149.012Z" fill="#5B85E0"/>
<path d="M226.643 144.435L227.208 144.943V145.791L226.455 146.299H226.078L226.266 144.943L226.643 144.435Z" fill="#F6F8FD"/>
<path d="M77.3727 65.0977L78.3139 65.4367L78.1257 66.1148L77.1845 65.7758L76.6198 65.6062L73.9844 65.4367V65.2672L77.3727 65.0977Z" fill="#E5EDFD"/>
<path d="M35.0171 169.016L35.3936 169.185V171.728L35.0171 173.084H34.8289V171.558L35.2053 169.355L34.6406 169.185L35.0171 169.016Z" fill="#B4CDFC"/>
<path d="M155.109 147.994L157.18 148.164L157.368 148.503L156.051 149.011L155.298 148.842L155.109 147.994Z" fill="#1B4CCD"/>
<path d="M62.6875 133.246L63.064 133.585L64.1934 136.637V136.976H63.8169L63.064 135.111L62.6875 133.246Z" fill="#0D327F"/>
<path d="M117.656 105.783H120.48L121.045 106.122L120.48 106.292H118.974L117.656 106.122V105.783Z" fill="#092C70"/>
<path d="M17.8828 167.829L18.2593 167.998L18.824 170.033V170.541L18.0711 170.372L17.8828 167.829Z" fill="#1D4ED3"/>
<path d="M189.939 97.4766L190.315 98.1547L190.127 99.0023L191.445 99.8499L190.88 100.019L189.751 99.5109L189.562 98.6632L189.939 97.4766Z" fill="#284F9A"/>
<path d="M96.5625 52.2139H98.0684L97.6919 52.3834V53.5701H97.1272L97.3155 52.3834H96.7507V53.9091H96.5625V52.2139Z" fill="#D3E0FC"/>
<path d="M86.2154 230.723H86.5919V232.079H85.0859L86.2154 230.723Z" fill="#051E60"/>
<path d="M162.08 147.146L162.833 147.486L163.021 148.164L161.703 148.333L161.891 147.316L162.08 147.146Z" fill="#F3F6FD"/>
<path d="M134.594 143.417L138.359 143.587V143.756L135.347 143.926L134.594 143.756V143.417Z" fill="#2B579E"/>
<path d="M190.315 115.446L190.691 115.616L190.126 118.159H189.75L190.126 115.616L190.315 115.446Z" fill="#051E60"/>
<path d="M205.751 101.884L206.504 102.562L206.693 103.24L207.069 103.579H205.94L205.751 102.901L205.375 102.731L205.751 101.884Z" fill="#F1B899"/>
<path d="M164.151 53.9082L164.527 54.0777L161.892 56.4511L161.516 56.2815L162.645 55.0949H163.022V54.7558L164.151 53.9082Z" fill="#CFDFFC"/>
<path d="M84.1443 190.036L84.5208 190.206L83.7678 191.562L83.2031 191.901V190.714L84.1443 190.036Z" fill="#DDE9FD"/>
<path d="M212.336 113.581L213.465 113.751L214.971 114.598V114.937L213.842 114.598L212.901 114.259L212.336 113.581Z" fill="#0A2569"/>
<path d="M187.673 79.3369L188.049 79.676L188.237 80.6931L187.861 81.3712L187.484 81.7103V79.8455L187.673 79.3369Z" fill="#1D418D"/>
<path d="M72.4688 74.252H75.6689L75.2924 74.4215V74.7605H73.5982V74.591L72.4688 74.4215V74.252Z" fill="#F1B899"/>
<path d="M35.7671 155.623L35.9553 156.132H36.3318L36.1436 157.657L35.3906 156.979L35.5789 155.793L35.7671 155.623Z" fill="#DFECFC"/>
<path d="M115.203 105.613H117.839L117.462 106.122H115.956L115.203 105.952V105.613Z" fill="#0A2E75"/>
<path d="M75.8616 89.8477H76.6146L76.4263 90.6953L75.2969 91.0343L75.4851 90.1867L75.8616 89.8477Z" fill="#F9FAFE"/>
<path d="M111.439 59.842L112.192 60.0116V60.3506H111.815L111.627 61.1982H111.062V60.0116L111.439 59.842Z" fill="#AAC7FC"/>
<path d="M173.178 50.3486L175.248 50.6877L174.684 51.0267L171.672 50.6877V50.5182L173.178 50.3486Z" fill="#E5F1FD"/>
<path d="M16.0015 174.949L16.378 175.458V176.814L15.625 176.136L15.8132 175.288L16.0015 174.949Z" fill="#D4E2FC"/>
<path d="M26.7303 157.657L27.1068 158.166L26.7303 158.675H26.3538V159.014L25.7891 159.183V158.505L26.7303 157.657Z" fill="#E6F1FD"/>
<path d="M106.166 122.566H106.355V123.753L106.166 124.431L105.602 124.601L105.79 123.245L106.166 122.566Z" fill="#11357C"/>
<path d="M186.734 61.707H187.111L187.487 62.2156V63.9108L187.111 63.5718L186.734 61.707Z" fill="#618CE8"/>
<path d="M145.506 160.031L145.694 160.54L144.376 161.387H144L144.188 160.709L145.506 160.031Z" fill="#13377F"/>
<path d="M114.451 145.791L115.58 145.961L115.768 146.469H113.133V146.3H114.262L114.451 145.791Z" fill="#1B4CCD"/>
<path d="M65.3203 141.214L65.885 141.383L66.2615 142.909L65.6968 142.74L65.3203 141.892V141.214Z" fill="#0B2F77"/>
<path d="M106.548 119.515H106.737V121.21L106.172 121.379V119.854L106.548 119.515Z" fill="#143A7D"/>
<path d="M205.556 113.581L205.932 113.751L203.862 115.785L203.297 115.615L204.803 114.429L205.556 113.581Z" fill="#1C2C8A"/>
<path d="M188.242 93.4082H188.995V94.5949H188.242V93.4082Z" fill="#0A2B70"/>
<path d="M65.8828 142.909L66.4475 143.079L66.824 144.096V144.943L66.4475 144.774L65.8828 143.248V142.909Z" fill="#0F247C"/>
<path d="M106.362 121.21H106.55V122.566L106.173 122.736L105.797 123.244L105.985 121.379L106.362 121.21Z" fill="#1E428D"/>
<path d="M167.72 110.36H168.097L167.908 111.547L167.532 111.886L167.344 111.717L167.532 110.53L167.72 110.36Z" fill="#FCFCFE"/>
<path d="M193.891 109.004H194.455L194.267 111.208L193.891 111.038V109.004Z" fill="#5482CA"/>
<path d="M184.661 74.9297L184.85 75.2687L184.661 75.7773L183.344 76.4554L183.72 75.7773L184.661 74.9297Z" fill="#B0CAFC"/>
<path d="M204.24 154.098L204.429 154.776L204.052 155.284L202.734 155.115L203.487 154.945L203.676 154.437L204.24 154.098Z" fill="#082468"/>
<path d="M175.438 148.503L176.19 148.842L177.32 149.859L177.132 150.198L175.438 148.842V148.503Z" fill="#58A9AE"/>
</g>
<defs>
<filter id="filter0_f_225_2163" x="-28.8" y="211.2" width="288.6" height="64.6" filterUnits="userSpaceOnUse" color-interpolation-filters="sRGB">
<feFlood flood-opacity="0" result="BackgroundImageFix"/>
<feBlend mode="normal" in="SourceGraphic" in2="BackgroundImageFix" result="shape"/>
<feGaussianBlur stdDeviation="10.4" result="effect1_foregroundBlur_225_2163"/>
</filter>
<linearGradient id="paint0_linear_225_2163" x1="282.434" y1="324.491" x2="59.6042" y2="47.1302" gradientUnits="userSpaceOnUse">
<stop stop-color="#DAE3FE"/>
<stop offset="1" stop-color="#E9EFFD"/>
</linearGradient>
<clipPath id="clip0_225_2163">
<rect width="254" height="239" fill="white"/>
</clipPath>
</defs>
</svg>
