<svg width="68" height="33" viewBox="0 0 68 33" fill="none" xmlns="http://www.w3.org/2000/svg">
<path d="M16.1516 32.3024C25.0715 32.3024 32.3032 25.0711 32.3032 16.1512C32.3032 7.23133 25.0719 0 16.1516 0C7.23133 0 0 7.23133 0 16.1512C0 25.0711 7.23133 32.3024 16.1516 32.3024Z" fill="#A70B52"/>
<path d="M19.5905 19.8349H16.2458V7.19336H15.0054V21.0823H16.2458V21.0741H19.5905V19.8349Z" fill="white"/>
<path d="M27.9391 14.6685H19.6102V13.4281H29.1591C29.1717 13.6679 29.1779 13.9081 29.1779 14.1512C29.1779 21.6187 23.1244 27.6718 15.6573 27.6718C8.19025 27.6718 2.13672 21.6187 2.13672 14.1512C2.13672 6.68373 8.19025 0.630615 15.6577 0.630615C15.8546 0.630615 16.051 0.634707 16.2462 0.643301L16.2446 1.8743C16.0491 1.86528 15.8534 1.86078 15.6577 1.8608C8.87 1.8608 3.3669 7.36349 3.3669 14.1512C3.3669 20.9393 8.86959 26.4416 15.6577 26.4416C22.2604 26.4416 27.6469 21.2352 27.9358 14.7033L27.9391 14.6685Z" fill="white"/>
<path d="M10.6143 10.9358C11.1182 10.9358 11.6014 10.7356 11.9577 10.3793C12.314 10.023 12.5142 9.53979 12.5142 9.0359C12.5142 8.53201 12.314 8.04876 11.9577 7.69246C11.6014 7.33615 11.1182 7.13599 10.6143 7.13599C10.1104 7.13599 9.62713 7.33615 9.27083 7.69246C8.91452 8.04876 8.71436 8.53201 8.71436 9.0359C8.71436 9.53979 8.91452 10.023 9.27083 10.3793C9.62713 10.7356 10.1104 10.9358 10.6143 10.9358Z" fill="white"/>
<path d="M39.8291 22.079H51.3702V18.5935H44.0664V6.11235H39.8291V22.079ZM65.3143 7.23654C63.9912 6.21139 62.2876 5.69165 60.2544 5.69165C57.8403 5.69165 55.8231 6.4332 54.4207 7.83445C52.9568 9.29913 52.1817 11.4567 52.1817 14.0738C52.1817 16.8697 53.001 19.229 54.4886 20.7154C55.6566 21.883 57.2125 22.4989 58.9931 22.4989C62.9018 22.4989 63.8009 20.1559 63.8009 20.1559V22.0782H67.3307V13.0609H60.3044V15.8826H63.5382C63.5382 15.8826 63.5693 19.4353 60.2315 19.4353C59.3836 19.4353 58.6281 19.1275 58.047 18.5464C57.1413 17.6416 56.6625 16.1167 56.6625 14.1401C56.6625 10.8661 57.9639 8.91158 60.1427 8.91158C61.5039 8.91158 62.527 9.74725 62.7893 11.0139H67.2844C67.0516 9.17349 66.5466 8.21423 65.3143 7.23654Z" fill="#808183"/>
</svg>
