<svg width="122" height="28" viewBox="0 0 122 28" fill="none" xmlns="http://www.w3.org/2000/svg">
<path d="M77.5363 17.4942C75.412 17.4942 73.6835 15.7656 73.6835 13.6413C73.6835 11.517 75.412 9.78844 77.5363 9.78844C79.6606 9.78844 81.3892 11.517 81.3892 13.6413C81.3892 15.7864 79.6398 17.4942 77.5363 17.4942ZM77.5363 7.49756C74.1416 7.49756 71.3926 10.2466 71.3926 13.6413C71.3926 17.036 74.1416 19.785 77.5363 19.785C80.931 19.785 83.68 17.036 83.68 13.6413C83.68 10.2674 80.931 7.49756 77.5363 7.49756Z" fill="black"/>
<path d="M70.0179 17.8063H70.5177V20.118H70.0179C67.373 20.118 65.207 17.9521 65.207 15.3072V4.74829H67.5187V7.83058H70.4969V10.1423H67.5187V15.328C67.5187 16.6817 68.6434 17.8063 70.0179 17.8063Z" fill="black"/>
<path d="M98.175 17.4942C96.0507 17.4942 94.3221 15.7656 94.3221 13.6413C94.3221 11.517 96.0507 9.78844 98.175 9.78844C100.299 9.78844 102.028 11.517 102.028 13.6413C102.007 15.7864 100.278 17.4942 98.175 17.4942ZM98.175 7.49756C94.7803 7.49756 92.0312 10.2466 92.0312 13.6413C92.0312 17.036 94.7803 19.785 98.175 19.785C101.57 19.785 104.319 17.036 104.319 13.6413C104.319 10.2674 101.57 7.49756 98.175 7.49756Z" fill="black"/>
<path d="M115.856 17.4942C113.732 17.4942 112.003 15.7656 112.003 13.6413C112.003 11.517 113.732 9.78844 115.856 9.78844C117.98 9.78844 119.709 11.517 119.709 13.6413C119.709 15.7864 117.96 17.4942 115.856 17.4942ZM115.856 7.49756C112.461 7.49756 109.712 10.2466 109.712 13.6413C109.712 17.036 112.461 19.785 115.856 19.785C117.356 19.785 118.73 19.2435 119.792 18.348V19.5559H122V13.8287C122 13.7662 122 13.7038 122 13.6413C122 10.2674 119.251 7.49756 115.856 7.49756Z" fill="black"/>
<path d="M90.0316 7.49756H91.1354V9.80927H90.0316C88.657 9.80927 87.5324 10.9339 87.5324 12.3084V13.8079V16.6611V19.6392H85.2207V12.3084C85.2207 9.66349 87.3866 7.49756 90.0316 7.49756Z" fill="black"/>
<path d="M108.172 4.43579H105.86V19.5973H108.172V4.43579Z" fill="black"/>
<path d="M49.837 12.6209V19.9309H47.5253V12.6209C47.5253 11.2464 46.4007 10.1218 45.0261 10.1218C43.6516 10.1218 42.527 11.2464 42.527 12.6209V19.9309H40.2153V12.6209C40.2153 11.2464 39.0907 10.1218 37.7161 10.1218C36.3416 10.1218 35.217 11.2464 35.217 12.6209V19.9309H32.9053V12.6209C32.9053 9.97599 35.0712 7.81006 37.6953 7.81006C39.174 7.81006 40.4652 8.45567 41.3607 9.49698C42.2562 8.45567 43.5475 7.81006 45.0261 7.81006C47.6711 7.81006 49.837 9.97599 49.837 12.6209Z" fill="black"/>
<path d="M57.543 17.8067C55.4187 17.8067 53.6901 16.0781 53.6901 13.9538C53.6901 11.8295 55.4187 10.1009 57.543 10.1009C59.6673 10.1009 61.3958 11.8295 61.3958 13.9538C61.3958 16.0781 59.6464 17.8067 57.543 17.8067ZM57.543 7.81006C54.1275 7.81006 51.3784 10.5591 51.3784 13.9538C51.3784 17.3485 54.1275 20.0975 57.5222 20.0975C60.9168 20.0975 63.6659 17.3485 63.6659 13.9538C63.6867 10.58 60.9377 7.81006 57.543 7.81006Z" fill="black"/>
<path d="M13.9744 0C6.24787 0 0 6.24787 0 13.9744C0 21.7009 6.24787 27.9488 13.9744 27.9488C21.7009 27.9488 27.9488 21.7009 27.9488 13.9744C27.9488 6.28952 21.7842 0 13.9744 0Z" fill="black"/>
<path d="M18.1397 3.43652L13.9953 17.1818L13.9744 17.2027L13.9328 17.1818L9.78837 3.43652L4.43604 21.0347H5.43569C5.43569 21.0347 6.10214 17.9732 7.20592 16.1405C7.80988 15.1409 8.72624 14.3286 9.95499 14.3495C10.8297 14.3703 11.5794 14.8493 12.5166 16.1613C12.7249 16.4529 12.9748 16.9319 13.2247 17.3901C13.6204 18.1607 13.9536 18.9521 13.9536 18.9521C13.9536 18.9521 14.8283 16.9527 15.3906 16.1613C16.3278 14.8493 17.0776 14.3703 17.9523 14.3495C19.181 14.3286 20.1182 15.1409 20.7013 16.1405C21.8051 17.9732 22.4715 21.0347 22.4715 21.0347H23.4712L18.1397 3.43652Z" fill="white"/>
</svg>
