<svg width="86" height="43" viewBox="0 0 86 43" fill="none" xmlns="http://www.w3.org/2000/svg">
<path d="M42.5195 0H44.4798L45.4132 0.14002L46.5801 0.420061L47.7469 0.840122L48.9138 1.4002L49.8939 2.00696L50.6407 2.56704L51.1541 2.9871L51.7608 3.54718L52.1342 3.92057L52.4609 4.29396L53.021 4.99406L53.6744 5.9742L54.0945 6.72098L54.5612 7.70112L54.888 8.63459L55.168 9.61473L55.308 10.3148L55.4014 11.2016V12.9285L55.2613 14.1887L55.028 15.3556L54.7479 16.3824L54.2812 17.5492L53.8145 18.5294L53.3477 19.3228L52.7877 20.1163L52.3676 20.6297L51.8075 21.2831L51.3874 21.7032L50.874 22.1232L50.314 22.59L49.4738 23.15L48.7271 23.5701L47.7469 24.0368L46.3467 24.5036L45.2732 24.7369L44.1997 24.877H42.5662L41.3527 24.7836L40.1858 24.5969L39.4857 24.4102L38.1789 23.9435L37.0587 23.5234L36.4053 23.3367V23.15L37.7121 22.5433L38.6923 22.2166L39.7658 21.9832L41.0726 21.7965L42.0061 21.7032L44.013 21.6098L45.3666 21.4698L46.7668 21.1897L47.9803 20.863L48.447 20.6763L48.587 20.5363L48.8204 19.6495L49.0538 18.6694L49.5205 18.3427L49.8472 18.016L50.1273 17.5959V17.2692L49.9872 16.7558V16.2424L50.2206 15.7756L50.6407 15.3556L50.8274 15.0289V14.5621L50.594 14.002L50.3606 13.6286L50.2206 13.3953L50.2673 12.8819L50.314 12.4618V11.435L50.1273 11.0616L49.8006 10.7816L49.0538 10.5482L46.9068 10.0815L43.9664 9.56806L43.453 9.42804L43.3596 9.24134V8.4479L43.5463 7.60777L44.1997 5.64749L44.3398 4.99406V3.96724L44.1531 3.22047L43.9197 2.61371L43.6863 2.19365L43.453 1.96029L43.1729 1.82026L42.9862 1.77359H42.3328L42.0994 2.05363L41.9127 2.66039L41.6794 4.29396L41.446 5.18075L41.0726 6.11422L40.6059 6.95434L39.3924 8.77461L38.7856 9.94145L38.2255 11.2016L37.5721 12.5552L37.152 13.3019L36.6853 13.9554L36.4053 14.2821L35.7985 14.7021L35.0517 15.0289L34.1649 15.2622L31.8313 15.6356L31.0378 15.729L30.8511 15.3556L30.6644 14.7488L30.5711 14.2354L30.5244 13.4886V12.6485L30.5711 11.1083L30.7111 9.98812L30.9911 8.82128L31.3179 7.88781L31.7379 6.95434L32.1113 6.25424L32.6247 5.41412L33.2315 4.574L33.8382 3.8739L34.7717 2.94043L35.2851 2.52037L35.8452 2.10031L36.5453 1.63357L37.5254 1.12016L38.5056 0.746775L39.439 0.466735L40.7926 0.186694L41.9127 0.0466735L42.5195 0Z" fill="#02B4E4"/>
<path d="M17.4561 28.8909H19.463L21.1433 29.0776L21.9834 29.2643L22.5435 29.4976L23.0102 29.7777L23.4303 30.1977L23.757 30.7111L24.0837 31.5046L24.3637 32.6714L24.5038 33.7449L24.5504 34.305V36.1719L24.4104 37.5255L24.177 38.739L23.8503 39.7191L23.4769 40.4659L23.1035 40.9326L22.6368 41.2593L22.0301 41.5394L21.0499 41.8194L19.9298 42.0061L19.463 42.0528H17.4561L16.3826 41.9128L15.3091 41.6794L14.5623 41.3994L14.0489 41.1193L13.8155 40.9326L13.4421 40.4659L13.0688 39.7191L12.742 38.739L12.5087 37.5721L12.3687 36.3119V34.3517L12.5087 32.9515L12.6954 32.018L13.0221 31.0378L13.3488 30.3844L13.7689 29.9177L14.1889 29.591L14.6557 29.3576L15.2624 29.1709L16.5226 28.9842L17.4561 28.8909Z" fill="#1A1919"/>
<path d="M78.8779 28.8909H80.8849L82.5651 29.0776L83.5453 29.3109L84.2921 29.6843L84.6654 29.9644L85.0855 30.5244L85.3655 31.1312L85.5989 31.8313L85.8323 32.9515L85.9723 34.165V36.3119L85.8323 37.5721L85.5989 38.739L85.3655 39.4857L85.0388 40.2325L84.6188 40.8393L84.2454 41.166L83.4519 41.5394L82.4718 41.8194L81.3516 42.0061L80.8849 42.0528H78.8779L77.8044 41.9128L76.731 41.6794L75.9842 41.3994L75.4708 41.1193L75.1907 40.8859L74.9107 40.5126L74.6306 40.0458L74.3039 39.2057L74.0239 38.0855L73.8839 37.1987L73.7905 36.0319V34.4917L73.8839 33.3715L74.0706 32.298L74.3039 31.4112L74.6306 30.6645L74.9574 30.1511L75.3308 29.7777L75.7975 29.4976L76.3576 29.2643L77.1977 29.0776L78.8779 28.8909Z" fill="#1A1919"/>
<path d="M0 28.844H7.60777L8.54124 28.9373L9.28802 29.124L10.0348 29.4974L10.5015 29.8708L10.9216 30.4309L11.295 31.2243L11.5283 32.0178L11.6217 32.8112V33.3246L11.4817 34.3048L11.2483 35.0982L10.8749 35.845L10.4082 36.4518L9.94145 36.8252L9.05465 37.2452L8.4479 37.4319L7.88781 37.5253L4.15394 37.5719L4.10726 41.7259L4.06059 41.7725H0V28.844Z" fill="#1A1919"/>
<path d="M60.582 28.844H64.7826L65.2961 31.1777L66.1828 34.8649L66.6029 36.9185L66.8829 38.5987L66.9763 39.2522L67.4897 36.6385L67.9564 34.4448L68.6565 31.411L69.2633 28.8907L69.31 28.844H73.4639L73.4172 29.2174L72.8572 31.3177L71.9237 34.7715L70.1034 41.4458L70.0101 41.7259L69.87 41.7725H64.1292L63.9892 41.5858L63.2424 38.8788L62.6357 36.6851L61.8889 33.9781L61.2355 31.5511L60.582 29.0307V28.844Z" fill="#1A1919"/>
<path d="M30.5242 28.7974H31.8311L34.1647 28.9374L35.3316 29.0774L35.3783 29.2641L35.2849 31.5978L35.2382 31.8778H34.3048L32.6712 31.7845H30.8043L30.1042 31.9245L29.6841 32.1112L29.4507 32.2979L29.3574 32.5312L29.4041 32.9513L29.6374 33.3247L29.9175 33.5114L30.6642 33.7447L32.3912 34.0248L33.5113 34.3048L34.4448 34.6782L34.9115 34.9583L35.3783 35.3316L35.705 35.6584L35.985 36.1251L36.1717 36.7319L36.2651 37.3386V38.6921L36.125 39.3922L35.845 40.0457L35.5183 40.4657L35.2849 40.6991L34.9115 41.0258L34.2581 41.3992L33.558 41.6792L32.8579 41.8659L31.8777 42.006L31.2243 42.0526H29.264L27.0704 41.9126L25.9969 41.8193L25.7635 41.7726L25.7169 41.3525V38.9255L25.7635 38.8788L27.3037 38.9255L29.0307 39.0188H30.8509L31.551 38.8788L32.0178 38.6921L32.2511 38.4121L32.2978 38.3187V37.8987L32.0644 37.5253L31.7377 37.2919L31.2243 37.1052L30.1042 36.9185L29.0773 36.7319L28.0505 36.4518L27.3504 36.1718L26.837 35.8917L26.2303 35.425L25.8569 34.9583L25.6235 34.4915L25.4368 33.7447L25.3901 33.3247V32.2512L25.5302 31.5044L25.7635 30.9443L26.0436 30.4776L26.557 29.9642L27.2104 29.5441L28.0972 29.1708L29.0773 28.9374L29.7774 28.844L30.5242 28.7974Z" fill="#1A1919"/>
<path d="M43.033 28.844H54.0479V31.9711L50.6408 32.0178L50.5941 41.7259L50.5008 41.7725H46.4402L46.3935 32.0178L42.9863 31.9711V28.8907L43.033 28.844Z" fill="#1A1919"/>
<path d="M37.5257 28.844H41.6329V41.7259L41.5863 41.7725H37.5257L37.479 41.7259V28.8907L37.5257 28.844Z" fill="#1A1919"/>
<path d="M55.448 28.844H59.5553V41.7259L59.5086 41.7725H55.4014V28.8907L55.448 28.844Z" fill="#1A1919"/>
<path d="M18.156 31.6912H18.7628L19.4162 31.8312L19.6963 32.0179L19.9763 32.3446L20.2097 33.0914L20.303 33.6981L20.3497 34.2582V36.4519L20.2563 37.3853L20.0696 38.2254L19.8829 38.6455L19.6963 38.8789L19.1362 39.1589L18.6228 39.2523L17.9693 39.2056L17.4559 39.0189L17.1292 38.7855L16.8492 38.2254L16.6625 37.3387L16.5691 36.4985L16.5225 35.2383L16.5691 34.1649L16.7092 33.0447L16.8958 32.4379L17.1759 32.0645L17.4093 31.8779L18.156 31.6912Z" fill="white"/>
<path d="M79.6248 31.6912H80.1382L80.6983 31.7845L81.0717 31.9712L81.305 32.2046L81.5384 32.6713L81.6784 33.3247L81.7718 34.1649V36.5919L81.6317 37.712L81.445 38.4121L81.165 38.8322L80.7916 39.0656L80.3716 39.2056L79.7181 39.2523L79.0647 39.1122L78.6913 38.8789L78.4113 38.5522L78.2246 38.0388L78.0846 37.292L77.9912 36.4519V34.3049L78.1312 33.0914L78.3179 32.4379L78.598 32.0645L78.8313 31.8779L79.2981 31.7378L79.6248 31.6912Z" fill="white"/>
<path d="M4.1541 31.7847H6.20773L6.86116 31.8313L7.37456 31.9714L7.74795 32.2047L7.98132 32.5781L8.02799 33.0449L7.8413 33.5116L7.46791 33.8383L7.04785 33.9783L6.39442 34.0717L4.20077 34.1183L4.10742 33.885V31.878L4.1541 31.7847Z" fill="white"/>
</svg>
