<svg width="97" height="17" viewBox="0 0 97 17" fill="none" xmlns="http://www.w3.org/2000/svg">
<path fill-rule="evenodd" clip-rule="evenodd" d="M94.7406 13.5481C94.5457 13.5445 94.3521 13.5797 94.171 13.6517C93.9899 13.7238 93.825 13.8312 93.6859 13.9677C93.5468 14.1042 93.4363 14.2671 93.3609 14.4468C93.2854 14.6266 93.2466 14.8195 93.2466 15.0144C93.2466 15.2093 93.2854 15.4022 93.3609 15.582C93.4363 15.7617 93.5468 15.9245 93.6859 16.0611C93.825 16.1976 93.9899 16.305 94.171 16.3771C94.3521 16.4491 94.5457 16.4843 94.7406 16.4807C94.9332 16.4805 95.1239 16.4423 95.3017 16.3683C95.4795 16.2943 95.6409 16.1859 95.7768 16.0494C95.9126 15.9128 96.0202 15.7508 96.0934 15.5727C96.1665 15.3945 96.2038 15.2037 96.203 15.0111C96.2031 14.819 96.1653 14.6287 96.0918 14.4512C96.0184 14.2738 95.9107 14.1125 95.7749 13.9766C95.6391 13.8408 95.4778 13.733 95.3004 13.6595C95.1229 13.586 94.9327 13.5481 94.7406 13.5481ZM94.7406 16.3043C94.5709 16.3045 94.4028 16.2712 94.246 16.2062C94.0892 16.1412 93.9468 16.0459 93.8269 15.9258C93.7071 15.8056 93.6122 15.6629 93.5477 15.5059C93.4831 15.349 93.4503 15.1808 93.4509 15.0111C93.451 14.8419 93.4844 14.6744 93.5493 14.5182C93.6142 14.3619 93.7092 14.22 93.829 14.1006C93.9488 13.9811 94.091 13.8864 94.2474 13.822C94.4038 13.7576 94.5714 13.7246 94.7406 13.725C94.9095 13.725 95.0767 13.7583 95.2327 13.8229C95.3887 13.8875 95.5304 13.9823 95.6498 14.1017C95.7692 14.2211 95.8639 14.3629 95.9284 14.5189C95.993 14.675 96.0262 14.8422 96.0261 15.0111C96.0269 15.1805 95.9943 15.3484 95.9301 15.5051C95.8659 15.6619 95.7713 15.8045 95.6519 15.9246C95.5325 16.0448 95.3905 16.1401 95.2341 16.2053C95.0777 16.2705 94.91 16.3041 94.7406 16.3043Z" fill="black"/>
<path fill-rule="evenodd" clip-rule="evenodd" d="M95.4926 14.6269C95.4926 14.4886 95.4314 14.3431 95.3091 14.2736C95.1857 14.2006 95.0478 14.1934 94.9095 14.1934H94.1953V15.8322H94.3953V15.0763H94.764L95.2319 15.8322H95.47L94.9748 15.0763C95.2669 15.0681 95.4926 14.9493 95.4926 14.6269ZM94.7023 14.9185H94.3948V14.3389H94.8627C95.0664 14.3389 95.2895 14.3698 95.2895 14.6233C95.29 14.957 94.9321 14.9185 94.7023 14.9185ZM86.1452 6.70385L89.1431 3.50284C89.3169 3.26785 89.4033 3.1033 89.4033 2.9624C89.4033 2.72741 89.2012 2.63331 88.5656 2.63331H87.8092V0.612433H95.9966V2.63331H94.9208C93.6785 2.63331 93.4476 2.82099 91.7142 5.00642L86.9715 10.128V13.2534C86.9715 14.053 87.3752 14.3343 88.5312 14.3343H90.3217V16.2842H78.8541V14.3343H80.6446C81.7996 14.3343 82.2042 14.053 82.2042 13.2534V10.128L76.6183 3.94867C75.6953 2.8683 75.8228 2.63331 73.2528 2.63331V0.612433H83.6235V2.63331H82.8851C82.1338 2.63331 81.8155 2.7742 81.8155 3.05599C81.8155 3.2915 82.0464 3.47919 82.1909 3.66688L85.017 6.74704C85.3528 7.09619 85.7626 7.14145 86.1452 6.70385ZM16.5629 0.611919H19.0646V6.25082H16.7542C16.5496 5.12366 15.844 4.68503 15.2008 4.09368C14.0402 3.02719 11.5267 2.13914 9.41274 2.13914C6.6843 2.13914 4.38164 2.98554 4.38164 4.22995C4.38164 7.68446 19.9856 4.93545 19.9856 11.467C19.9856 14.8737 16.6431 16.7768 10.6407 16.7768C8.56274 16.7768 5.4183 16.132 3.56301 15.1468C2.98143 14.811 2.73461 15.4646 2.62559 16.2837H0.0606776V10.4566H2.38082C2.89247 11.937 3.59746 12.242 4.24589 12.8297C5.371 13.8638 8.04904 14.6161 10.5049 14.5919C14.2078 14.5554 15.481 13.746 15.481 12.5711C15.481 11.3966 14.2217 11.1143 10.164 10.4803L6.71876 9.91616C2.83076 9.32841 0 8.45938 0 5.35814C0 2.13914 3.58101 0.118268 9.24305 0.118268C11.629 0.118268 13.6252 0.437085 15.5412 1.52003C16.0718 1.86507 16.5696 1.9062 16.5629 0.611919ZM65.3847 10.0529L65.4341 3.78566C65.4341 2.96343 65.0063 2.68164 63.784 2.68164H62.3478V0.731729H71.4854V2.68164H70.2945C69.0711 2.68164 68.6433 2.96395 68.6433 3.78566V16.403L65.0669 16.3747L53.4847 5.40699V13.3722C53.4847 14.1713 53.9126 14.4762 55.1348 14.4762H56.7248V16.403H47.2349V14.4762H48.8074C50.0297 14.4762 50.4575 14.1708 50.4575 13.3722V3.78566C50.4575 2.96343 50.0297 2.68164 48.8074 2.68164H47.2349V0.731729H55.4398L65.3847 10.0529ZM34.777 0C27.4947 0 22.9361 3.21951 22.9361 8.3879C22.9361 13.4637 27.4314 16.6586 34.5549 16.6586C42.121 16.6586 46.5222 13.5105 46.5222 8.12977C46.5227 3.28996 41.7734 0 34.777 0ZM34.6114 14.6151C30.5805 14.6151 28.2634 12.2888 28.2634 8.27066C28.2634 4.34719 30.6813 2.02087 34.813 2.02087C38.7766 2.02087 41.0936 4.3945 41.0936 8.43573C41.0936 12.3829 38.7426 14.6151 34.6114 14.6151Z" fill="black"/>
</svg>
