<svg width="103" height="23" viewBox="0 0 103 23" fill="none" xmlns="http://www.w3.org/2000/svg">
<path d="M28.8438 18.1701L34.8147 10.1547L29.5568 2.72142H31.9917L34.8079 6.67272C35.3947 7.49187 35.8008 8.1192 36.0355 8.55473C36.383 8.0154 36.7937 7.43997 37.2654 6.83294L40.3501 2.72142H42.5909L37.2247 10.0644L43.0016 18.1701H40.4923L36.5952 12.6595C36.3718 12.3458 36.1596 12.0344 35.9611 11.7252C35.6158 12.242 35.3721 12.6053 35.2209 12.8107L31.3034 18.1701H28.8438ZM45.1499 18.1701V2.72142H47.1989V18.1723H45.1499V18.1701ZM49.1057 18.1701L55.0316 2.71917H57.2791L63.5683 18.1701H61.244L59.4567 13.4876H52.951L51.2743 18.1701H49.1057ZM53.5512 11.8268H58.8159L57.2047 7.54377C56.7195 6.24171 56.3517 5.16757 56.0967 4.31909C55.8845 5.32554 55.6002 6.31392 55.2437 7.29329L53.5512 11.8268ZM64.5679 10.6511C64.5679 8.08987 65.2584 6.08375 66.635 4.63502C68.0115 3.18628 69.7897 2.46191 71.9673 2.46191C73.3957 2.46191 74.6797 2.80492 75.8261 3.48415C76.9702 4.16339 77.8435 5.11342 78.4437 6.33198C79.044 7.54828 79.3464 8.92932 79.3464 10.4728C79.3464 12.0367 79.0305 13.4403 78.3964 14.6724C77.7623 15.909 76.8686 16.8455 75.711 17.4773C74.5489 18.1137 73.2987 18.4296 71.956 18.4296C70.4983 18.4296 69.2007 18.0776 68.0544 17.3758C66.9103 16.674 66.0392 15.7172 65.4503 14.5031C64.8613 13.2913 64.5679 12.0073 64.5679 10.6511ZM66.6824 10.6872C66.6824 12.5466 67.1833 14.0112 68.1807 15.0785C69.1804 16.1459 70.4351 16.683 71.947 16.683C73.486 16.683 74.7474 16.1437 75.7449 15.065C76.7378 13.9864 77.2342 12.4541 77.2342 10.4683C77.2342 9.21365 77.0221 8.11695 76.5978 7.18046C76.1736 6.24623 75.5508 5.5196 74.7362 5.0051C73.917 4.49059 72.9986 4.23334 71.9809 4.23334C70.5344 4.23334 69.291 4.72979 68.2484 5.7227C67.2036 6.71334 66.6824 8.36743 66.6824 10.6872ZM81.9347 18.1701V2.72142H84.9992L88.6526 13.6569C88.9911 14.6746 89.2348 15.4373 89.3905 15.9451C89.5665 15.3832 89.8441 14.5573 90.2164 13.4673L93.9353 2.72142H96.6725V18.1723H94.7093V5.24655L90.2006 18.1723H88.3592L83.8979 5.00961V18.1723H81.9347V18.1701ZM100.297 18.1701V2.72142H102.346V18.1723H100.297V18.1701Z" fill="black"/>
<path d="M0.473885 0H22.6043C22.8661 0 23.0782 0.207607 23.0782 0.467115V22.1214C23.0782 22.3787 22.8661 22.5885 22.6043 22.5885H0.473885C0.21212 22.5885 0 22.3787 0 22.1214V0.467115C0 0.207607 0.21212 0 0.473885 0Z" fill="#EF7E1F"/>
<path d="M17.71 5.50146H20.5556V17.071H17.71V5.50146ZM7.57336 9.96501H10.4821V16.9763H7.57336V9.96501ZM2.55469 5.50146L5.40026 5.53306H12.4837C14.2845 5.53306 15.503 7.11267 15.503 8.7645C15.5053 11.4025 15.5346 17.0394 15.5346 17.0394L12.7726 17.0507L12.7207 9.63781C12.7139 8.60203 12.0076 7.93182 10.9786 7.91602C9.65394 7.89797 6.29387 7.93633 5.398 7.94762V17.0688H2.55469V5.50146Z" fill="white"/>
</svg>
